<svg width="12" height="12" viewBox="0 0 12 12" fill="none" xmlns="http://www.w3.org/2000/svg">
<g clip-path="url(#clip0)">
<path d="M11.5939 2.3643L7.95797 6.0006L11.5939 9.63673C12.1347 10.1778 12.1347 11.0542 11.5939 11.5952C11.3237 11.8654 10.9694 12.0006 10.6153 12.0006C10.2606 12.0006 9.90628 11.8656 9.63626 11.5952L5.99954 7.95865L2.36309 11.5952C2.0929 11.8654 1.73858 12.0006 1.38416 12.0006C1.02984 12.0006 0.67577 11.8656 0.405339 11.5952C-0.135488 11.0544 -0.135488 10.1779 0.405339 9.6367L4.04117 6.00057L0.405132 2.3643C-0.135695 1.82347 -0.135695 0.946867 0.405132 0.406042C0.945856 -0.134371 1.82195 -0.134371 2.36288 0.406042L5.9995 4.04234L9.63585 0.406042C10.1769 -0.134371 11.0531 -0.134371 11.5937 0.406042C12.1347 0.946867 12.1347 1.82347 11.5939 2.3643Z" fill="#BDBDBD"/>
</g>
<defs>
<clipPath id="clip0">
<rect width="12" height="12" fill="white"/>
</clipPath>
</defs>
</svg>
