<svg width="30" height="30" viewBox="0 0 30 30" fill="none" xmlns="http://www.w3.org/2000/svg">
<circle cx="15" cy="15" r="15" fill="#0077F7"/>
<path d="M16.1362 22.2871H13.353C13.0294 22.2871 12.7671 22.0247 12.7671 21.7011V15.8551H11.5859C11.2623 15.8551 11 15.5928 11 15.2692V12.6616C11 12.338 11.2623 12.0756 11.5859 12.0756H12.7671V11.5069C12.7671 11.4787 12.7691 11.451 12.7729 11.4239V10.7645C12.7729 8.68875 14.4616 7 16.5373 7H18.3584C18.902 7 19.3442 7.44227 19.3442 7.98586V10.258C19.3442 10.5816 19.0818 10.8439 18.7582 10.8439L18.1585 10.8439C17.5755 10.8434 17.0722 10.843 16.9024 10.9538C16.8361 10.9971 16.7248 11.1789 16.7248 11.9097V12.0756H18.7636C18.9342 12.0756 19.0963 12.1499 19.2076 12.2791C19.3189 12.4084 19.3684 12.5797 19.3431 12.7484L18.9525 15.356C18.9095 15.6429 18.6631 15.8551 18.373 15.8551H16.7221V21.7011C16.7222 22.0247 16.4598 22.2871 16.1362 22.2871ZM13.9389 21.1152H15.5503V15.2692C15.5503 14.9456 15.8126 14.6832 16.1362 14.6832H17.8683L18.0834 13.2475H16.1389C15.8154 13.2475 15.553 12.9852 15.553 12.6616V11.9097C15.553 11.144 15.6389 10.3795 16.2616 9.97269C16.7239 9.67074 17.326 9.67105 18.1595 9.67199H18.1723V8.17184H16.5374C15.1079 8.17184 13.9448 9.33484 13.9448 10.7644V11.5069C13.9448 11.5351 13.9428 11.5628 13.939 11.5899V12.6615C13.939 12.9851 13.6766 13.2475 13.353 13.2475H12.1719V14.6832H13.353C13.6766 14.6832 13.939 14.9455 13.939 15.2691L13.9389 21.1152Z" fill="white"/>
<path d="M13.9389 21.1152H15.5503V15.2692C15.5503 14.9456 15.8126 14.6832 16.1362 14.6832H17.8683L18.0834 13.2475H16.1389C15.8154 13.2475 15.553 12.9852 15.553 12.6616V11.9097C15.553 11.144 15.6389 10.3795 16.2616 9.97269C16.7239 9.67074 17.326 9.67105 18.1595 9.67199H18.1723V8.17184H16.5374C15.1079 8.17184 13.9448 9.33484 13.9448 10.7644V11.5069C13.9448 11.5351 13.9428 11.5628 13.939 11.5899V12.6615C13.939 12.9851 13.6766 13.2475 13.353 13.2475H12.1719V14.6832H13.353C13.6766 14.6832 13.939 14.9455 13.939 15.2691L13.9389 21.1152Z" fill="white"/>
</svg>
