<svg width="30" height="30" viewBox="0 0 30 30" fill="none" xmlns="http://www.w3.org/2000/svg">
<circle cx="15" cy="15" r="15" fill="#F17C00"/>
<path d="M10.1381 15.0506C9.75499 15.8037 10.19 16.1637 11.1825 16.7787C12.0262 17.3 13.1918 17.4906 13.9406 17.5668C13.6337 17.8618 15.04 16.5094 10.99 20.405C10.1312 21.2281 11.5137 22.5487 12.3718 21.7431L14.695 19.5025C15.5843 20.3581 16.4368 21.1781 17.0181 21.7462C17.8768 22.5549 19.2587 21.2456 18.4093 20.4081C18.3456 20.3475 15.2612 17.3887 15.4493 17.57C16.2075 17.4937 17.3556 17.2919 18.1893 16.7819L18.1887 16.7812C19.1812 16.1631 19.6162 15.8037 19.2387 15.0506C19.0106 14.6231 18.3956 14.2656 17.5768 14.8837C17.5768 14.8837 16.4712 15.7306 14.6881 15.7306C12.9043 15.7306 11.7994 14.8837 11.7994 14.8837C10.9812 14.2625 10.3637 14.6231 10.1381 15.0506Z" fill="white"/>
<path d="M14.6868 14.5887C16.8606 14.5887 18.6355 12.89 18.6355 10.7987C18.6355 8.69874 16.8606 7 14.6868 7C12.5125 7 10.7375 8.69874 10.7375 10.7987C10.7375 12.89 12.5125 14.5887 14.6868 14.5887ZM14.6868 8.92437C15.7549 8.92437 16.6262 9.76249 16.6262 10.7987C16.6262 11.8262 15.7549 12.6643 14.6868 12.6643C13.6187 12.6643 12.7475 11.8262 12.7475 10.7987C12.7468 9.76186 13.6181 8.92437 14.6868 8.92437Z" fill="white"/>
</svg>
