<svg width="30" height="30" viewBox="0 0 30 30" fill="none" xmlns="http://www.w3.org/2000/svg">
<circle cx="15" cy="15" r="15" fill="#5381B2"/>
<path d="M9.41458 16.8772C10.1095 17.8014 10.9079 18.6187 11.9394 19.197C13.1075 19.8524 14.365 20.05 15.6914 19.9897C16.311 19.9606 16.4974 19.802 16.526 19.1959C16.5452 18.7807 16.5941 18.3665 16.8023 17.9934C17.007 17.6274 17.3175 17.5582 17.6758 17.7859C17.8541 17.9009 18.0043 18.0449 18.1465 18.1989C18.4956 18.5729 18.8336 18.9603 19.1952 19.3221C19.6499 19.7765 20.1892 20.0443 20.8657 19.9897L23.4872 19.9908C23.909 19.9628 24.1285 19.4551 23.8863 18.9914C23.7157 18.6678 23.4919 18.3799 23.2552 18.1005C22.7195 17.4688 22.0883 16.9304 21.4914 16.359C20.9535 15.8434 20.9193 15.5441 21.3514 14.9492C21.8244 14.2993 22.3316 13.6752 22.8081 13.0288C23.2528 12.425 23.709 11.822 23.9419 11.0997C24.091 10.6387 23.959 10.4356 23.4794 10.3541C23.3963 10.3407 23.3099 10.3407 23.2258 10.3407L20.3733 10.3372C20.022 10.3317 19.8287 10.4825 19.7046 10.7882C19.5363 11.2014 19.3635 11.6145 19.163 12.0119C18.7106 12.9162 18.2043 13.7903 17.4947 14.5294C17.3378 14.6922 17.1637 14.8988 16.9023 14.814C16.576 14.6968 16.4793 14.1678 16.4849 13.9892L16.4825 10.757C16.4191 10.2962 16.3142 10.0896 15.847 10H12.8842C12.4898 10 12.2907 10.151 12.0791 10.3931C11.9586 10.534 11.9208 10.6243 12.1713 10.6712C12.6624 10.7625 12.9412 11.0752 13.0139 11.5588C13.1311 12.3325 13.1231 13.1093 13.055 13.8852C13.0356 14.1117 12.9958 14.3374 12.9045 14.5495C12.7615 14.8832 12.5293 14.9503 12.2258 14.745C11.9519 14.5596 11.7586 14.2984 11.5684 14.0361C10.8577 13.0501 10.2914 11.9876 9.82843 10.871C9.69539 10.5482 9.46458 10.353 9.11659 10.3473C8.26123 10.3339 7.40498 10.332 6.54851 10.3484C6.03444 10.3574 5.88087 10.603 6.09136 11.0618C7.02284 13.097 8.06012 15.0752 9.41458 16.8772Z" fill="white"/>
</svg>
