<svg width="22" height="20" viewBox="0 0 22 20" fill="none" xmlns="http://www.w3.org/2000/svg">
<path d="M2.40625 16.6989H2.40609C1.54701 16.698 0.850901 16.0019 0.85 15.1429L0.85 15.1427L0.85 3.073V3.07284C0.850901 2.21375 1.54701 1.51765 2.40609 1.51675L2.40625 1.51675L10.9209 1.51675H10.9211C11.7799 1.51787 12.476 2.21373 12.4771 3.0728L12.4771 3.073L12.4771 6.7025H17.1847H17.1848C17.6207 6.70295 18.0362 6.88574 18.3312 7.20622L18.3314 7.2064L21.0143 10.1298L21.0147 10.1303C21.0181 10.134 21.0213 10.1378 21.0232 10.14C21.0298 10.1474 21.0355 10.1546 21.04 10.1604C21.044 10.1653 21.0495 10.1724 21.0558 10.1817C21.0608 10.1887 21.0654 10.1957 21.0692 10.2016L21.07 10.203C21.0725 10.2069 21.0748 10.2107 21.0769 10.2143C21.0781 10.2164 21.0793 10.2184 21.0803 10.2202C21.0869 10.2308 21.0917 10.2402 21.0945 10.2459L21.0966 10.2501L21.0965 10.2501L21.0989 10.255L21.1042 10.2662L21.1051 10.2681L21.1051 10.2681C21.1085 10.2757 21.1117 10.2834 21.1146 10.2911C21.1174 10.2983 21.1203 10.306 21.123 10.3141C21.1263 10.3236 21.1288 10.3324 21.1302 10.3373L21.1304 10.3381L21.1304 10.3381L20.9862 10.3793C20.9878 10.385 20.9894 10.3909 20.9906 10.3966C20.9919 10.4023 20.9931 10.4078 20.9941 10.4139L2.40625 16.6989ZM2.40625 16.6989H3.25175H2.40625ZM5.5311 17.4927C4.80855 17.4926 4.22292 16.9069 4.22292 16.1844C4.22292 15.4619 4.80865 14.876 5.53125 14.876C6.25379 14.876 6.83948 15.4618 6.83958 16.1842C6.83867 16.9066 6.25339 17.492 5.5311 17.4927ZM16.4686 17.4927C15.746 17.4926 15.1604 16.9069 15.1604 16.1844C15.1604 15.4619 15.7461 14.876 16.4688 14.876C17.1913 14.876 17.777 15.4618 17.7771 16.1842C17.7762 16.9066 17.1909 17.492 16.4686 17.4927ZM20.1208 15.1425C20.1205 15.4337 19.8846 15.6695 19.5936 15.6698H18.7482C18.5099 14.6097 17.5663 13.8469 16.4685 13.8469C15.3706 13.8469 14.427 14.6097 14.1886 15.6698H12.4771V10.9924H20.1208V15.1425ZM17.1845 7.73187C17.3322 7.73203 17.473 7.79394 17.573 7.90262L17.5732 7.90274L19.4647 9.96361H12.4767V7.73187H17.1845ZM1.87917 3.07311C1.87951 2.78211 2.11541 2.54623 2.40641 2.54591H10.9207C10.9207 2.54591 10.9207 2.54591 10.9207 2.54591C11.2117 2.54626 11.4475 2.7821 11.4479 3.07324V15.6698H7.81113C7.57256 14.6097 6.62907 13.8469 5.53125 13.8469C4.43343 13.8469 3.48994 14.6097 3.25137 15.6698H2.40641C2.11536 15.6695 1.87948 15.4337 1.87917 15.1425V3.07316C1.87917 3.07314 1.87917 3.07313 1.87917 3.07311Z" fill="#57AB00" stroke="#57AB00" stroke-width="0.3"/>
</svg>
