<svg width="20" height="20" viewBox="0 0 20 20" fill="none" xmlns="http://www.w3.org/2000/svg">
<g clip-path="url(#clip0)">
<path d="M18.7152 14.5647C18.3479 14.3085 17.8654 13.9165 17.4637 13.4025C19.0821 11.9346 20 9.94384 20 7.8638C20 5.7506 19.082 3.76778 17.415 2.28052C15.7669 0.810088 13.5799 0.000244141 11.2571 0.000244141C8.9343 0.000244141 6.74734 0.810049 5.09918 2.28052C3.43223 3.76774 2.51418 5.7506 2.51418 7.8638C2.51418 8.1281 2.52855 8.39036 2.55695 8.64989C1.00074 9.75692 0 11.4719 0 13.3938C0 14.9501 0.666641 16.4404 1.84664 17.5586C1.66012 17.7786 1.43496 17.9899 1.18016 18.183C0.868398 18.4193 0.727305 18.8169 0.820781 19.1957C0.914453 19.5754 1.225 19.8622 1.6118 19.9265C1.90594 19.9754 2.19965 19.9995 2.48949 19.9995C3.43641 19.9995 4.3416 19.7427 5.08266 19.2565C5.60992 19.3743 6.15238 19.4339 6.69922 19.4339C9.53836 19.4339 11.9704 17.8331 12.9441 15.5802C13.1148 15.5501 13.2845 15.5159 13.4529 15.4767C14.4227 16.1328 15.6331 16.4801 16.8882 16.4801C17.3768 16.4801 17.8721 16.4274 18.3625 16.3199C18.743 16.2365 19.038 15.9362 19.114 15.5547C19.1896 15.1751 19.0331 14.7865 18.7152 14.5647ZM13.4248 14.2764C12.7232 14.4616 11.9939 14.5555 11.2571 14.5555C7.08242 14.5555 3.68609 11.5536 3.68609 7.8638C3.68609 4.17399 7.08242 1.17212 11.2571 1.17212C15.4318 1.17212 18.8281 4.17399 18.8281 7.8638C18.8281 9.7577 17.9124 11.5717 16.3157 12.8407C16.0845 13.0245 16.0262 13.3516 16.1798 13.6039C16.6099 14.3109 17.1836 14.8631 17.6777 15.2533C16.2968 15.4476 14.9216 15.1314 13.929 14.3766C13.8259 14.2982 13.7011 14.257 13.5743 14.257C13.5243 14.257 13.4741 14.2634 13.4248 14.2764ZM5.11211 18.0578C4.93762 18.0117 4.75156 18.0488 4.60793 18.1579C3.97371 18.6403 3.13262 18.8733 2.24855 18.8208C2.61043 18.4977 2.9077 18.1463 3.13539 17.772C3.28891 17.5197 3.23059 17.1926 2.99937 17.0088C1.83797 16.0858 1.17188 14.7682 1.17188 13.3938C1.17188 12.0404 1.8023 10.8145 2.81785 9.93126C3.21441 11.2506 3.99105 12.4584 5.09918 13.4471C6.7473 14.9175 8.93426 15.7274 11.2571 15.7274C11.3555 15.7274 11.4538 15.7257 11.5519 15.7227C10.6129 17.2345 8.7898 18.262 6.69922 18.262C6.15965 18.262 5.62566 18.1933 5.11211 18.0578Z" fill="#57AB00"/>
<path d="M9.3634 7.29907C9.687 7.29907 9.94934 7.03673 9.94934 6.71313V5.24048C9.94934 4.91688 9.687 4.65454 9.3634 4.65454C9.03981 4.65454 8.77747 4.91688 8.77747 5.24048V6.71313C8.77747 7.03673 9.03981 7.29907 9.3634 7.29907Z" fill="#57AB00"/>
<path d="M12.8973 7.31713C13.2209 7.31713 13.4833 7.05479 13.4833 6.7312V5.25854C13.4833 4.93495 13.2209 4.67261 12.8973 4.67261C12.5737 4.67261 12.3114 4.93495 12.3114 5.25854V6.7312C12.3114 7.05479 12.5737 7.31713 12.8973 7.31713Z" fill="#57AB00"/>
<path d="M16.3919 7.68872C16.3919 7.36513 16.1296 7.10278 15.806 7.10278C15.4824 7.10278 15.2201 7.36513 15.2201 7.68872C15.2201 9.4363 13.435 10.8581 11.2408 10.8581C9.04655 10.8581 7.26147 9.43634 7.26147 7.68872C7.26147 7.36513 6.99913 7.10278 6.67554 7.10278C6.35194 7.10278 6.0896 7.36513 6.0896 7.68872C6.0896 8.87024 6.64038 9.97396 7.64046 10.7966C8.60729 11.5919 9.88593 12.0299 11.2408 12.0299C12.5957 12.0299 13.8742 11.5919 14.8411 10.7966C15.8412 9.97396 16.3919 8.87024 16.3919 7.68872Z" fill="#57AB00"/>
</g>
<defs>
<clipPath id="clip0">
<rect width="20" height="20" fill="white"/>
</clipPath>
</defs>
</svg>
