<svg width="22" height="18" viewBox="0 0 22 18" fill="none" xmlns="http://www.w3.org/2000/svg">
<mask id="path-1-outside-1" maskUnits="userSpaceOnUse" x="0" y="0" width="22" height="18" fill="black">
<rect fill="white" width="22" height="18"/>
<path d="M19.929 4.44817C19.3385 4.44817 18.858 4.92864 18.858 5.51915V6.87915H18.2855C18.2474 6.20302 17.9431 5.56446 17.4371 5.10919C16.9017 4.62743 16.1861 4.39219 15.4698 4.46059V4.12067H15.4789C15.7957 4.12067 16.0534 3.86297 16.0534 3.54626V1.57438C16.0534 1.25766 15.7957 1 15.4789 1H14.8914C14.5747 1 14.317 1.25766 14.317 1.57438V3.54629C14.317 3.86301 14.5747 4.12071 14.8914 4.12071H14.9005V4.51216L13.9784 4.59614C13.8218 4.61036 13.7065 4.74884 13.7207 4.9054C13.735 5.06196 13.8732 5.17763 14.03 5.16305L15.2136 5.05528L15.2147 5.05516L15.4995 5.02923L15.5036 5.02884C16.0682 4.96915 16.6342 5.15259 17.0563 5.53239C17.4784 5.91216 17.7205 6.45564 17.7205 7.02345V14.4828H13.5005L14.0082 11.6303C14.1166 11.0319 13.9696 10.4095 13.6049 9.92279C13.2403 9.43611 12.6842 9.12021 12.0794 9.05623L12.0735 9.05568L4.60208 8.42158L4.72751 6.01017L14.03 5.16305C14.1865 5.14884 14.3019 5.01036 14.2876 4.8538C14.2734 4.6972 14.1349 4.58114 13.9784 4.59614L4.75739 5.43579L4.7602 5.38138C4.76856 5.2204 4.70973 5.06098 4.59872 4.94411C4.48774 4.8272 4.33161 4.76012 4.17044 4.76012H4.16755V4.5679C4.16755 4.18962 3.85977 3.88184 3.48149 3.88184C3.10317 3.88184 2.79539 4.18962 2.79539 4.5679V4.76012H2.71922C2.55801 4.76012 2.40192 4.82716 2.29094 4.94411C2.17992 5.06098 2.1211 5.2204 2.12946 5.38138L2.33688 9.36939C2.34504 9.52638 2.47871 9.64619 2.6359 9.63884C2.79289 9.63064 2.91352 9.49677 2.90536 9.33978L2.69793 5.35177C2.69782 5.3495 2.69746 5.34263 2.70375 5.33599C2.71004 5.32934 2.71692 5.32934 2.71918 5.32934H3.07997H3.88282H4.17036C4.17262 5.32934 4.1795 5.32934 4.18583 5.33599C4.19212 5.34266 4.19176 5.3495 4.19165 5.35177L3.96028 9.80068C3.95969 9.81201 3.95036 9.82092 3.93899 9.82092H2.95059C2.93926 9.82092 2.92989 9.81201 2.9293 9.80068L2.90536 9.33978C2.89719 9.18279 2.76282 9.06252 2.60633 9.07033C2.44934 9.07853 2.32867 9.2124 2.33688 9.36939L2.36082 9.83029C2.37043 10.0156 2.46496 10.1766 2.60512 10.2779V10.9673C2.60512 11.3304 2.83688 11.6404 3.1602 11.7572V13.2437C3.1602 13.401 3.28762 13.5284 3.44485 13.5284C3.60208 13.5284 3.7295 13.401 3.7295 13.2437V11.7573C4.05282 11.6404 4.28458 11.3305 4.28458 10.9673V10.278C4.42473 10.1767 4.51923 10.0156 4.52884 9.83033L4.57251 8.99037L12.0224 9.62259C12.4757 9.67134 12.8759 9.89908 13.1494 10.2641C13.4235 10.6299 13.5296 11.079 13.4479 11.5297L12.9223 14.4828H1.88516C1.39707 14.4828 1 14.8798 1 15.3679V16.6243C1 17.1123 1.39707 17.5094 1.88516 17.5094H19.0455C19.5336 17.5094 19.9306 17.1123 19.9306 16.6243V15.3679C19.9306 14.8799 19.5336 14.4828 19.0455 14.4828H18.2898V8.51462H18.858V9.87463C18.858 10.4652 19.3384 10.9456 19.929 10.9456C20.5196 10.9456 21 10.4652 21 9.87463V5.51919C21 4.92864 20.5196 4.44817 19.929 4.44817ZM14.8914 3.55145C14.8886 3.55145 14.8863 3.54915 14.8863 3.54629V1.57438C14.8863 1.57156 14.8886 1.56926 14.8914 1.56926H15.4789C15.4818 1.56926 15.4841 1.57156 15.4841 1.57438V3.54629C15.4841 3.54915 15.4818 3.55145 15.4789 3.55145H14.8914ZM3.59829 4.76016H3.36465V4.56794C3.36465 4.50356 3.41708 4.45114 3.48149 4.45114C3.54586 4.45114 3.59829 4.50356 3.59829 4.56794V4.76016ZM3.71528 10.9673C3.71528 11.1165 3.59395 11.2378 3.44481 11.2378C3.29571 11.2378 3.17438 11.1165 3.17438 10.9673V10.3903H3.71528V10.9673ZM19.0455 15.0521C19.2196 15.0521 19.3614 15.1937 19.3614 15.3679V16.6243C19.3614 16.7985 19.2196 16.9401 19.0455 16.9401H1.88516C1.71098 16.9401 1.56926 16.7985 1.56926 16.6243V15.3679C1.56926 15.1937 1.71098 15.0521 1.88516 15.0521H19.0455ZM18.858 7.94537H18.2898V7.44845H18.858V7.94537ZM20.4308 9.87463C20.4308 10.1513 20.2057 10.3764 19.929 10.3764C19.6523 10.3764 19.4273 10.1513 19.4273 9.87463V5.51919C19.4273 5.24251 19.6523 5.01747 19.929 5.01747C20.2057 5.01747 20.4308 5.24255 20.4308 5.51919V9.87463Z"/>
</mask>
<path d="M19.929 4.44817C19.3385 4.44817 18.858 4.92864 18.858 5.51915V6.87915H18.2855C18.2474 6.20302 17.9431 5.56446 17.4371 5.10919C16.9017 4.62743 16.1861 4.39219 15.4698 4.46059V4.12067H15.4789C15.7957 4.12067 16.0534 3.86297 16.0534 3.54626V1.57438C16.0534 1.25766 15.7957 1 15.4789 1H14.8914C14.5747 1 14.317 1.25766 14.317 1.57438V3.54629C14.317 3.86301 14.5747 4.12071 14.8914 4.12071H14.9005V4.51216L13.9784 4.59614C13.8218 4.61036 13.7065 4.74884 13.7207 4.9054C13.735 5.06196 13.8732 5.17763 14.03 5.16305L15.2136 5.05528L15.2147 5.05516L15.4995 5.02923L15.5036 5.02884C16.0682 4.96915 16.6342 5.15259 17.0563 5.53239C17.4784 5.91216 17.7205 6.45564 17.7205 7.02345V14.4828H13.5005L14.0082 11.6303C14.1166 11.0319 13.9696 10.4095 13.6049 9.92279C13.2403 9.43611 12.6842 9.12021 12.0794 9.05623L12.0735 9.05568L4.60208 8.42158L4.72751 6.01017L14.03 5.16305C14.1865 5.14884 14.3019 5.01036 14.2876 4.8538C14.2734 4.6972 14.1349 4.58114 13.9784 4.59614L4.75739 5.43579L4.7602 5.38138C4.76856 5.2204 4.70973 5.06098 4.59872 4.94411C4.48774 4.8272 4.33161 4.76012 4.17044 4.76012H4.16755V4.5679C4.16755 4.18962 3.85977 3.88184 3.48149 3.88184C3.10317 3.88184 2.79539 4.18962 2.79539 4.5679V4.76012H2.71922C2.55801 4.76012 2.40192 4.82716 2.29094 4.94411C2.17992 5.06098 2.1211 5.2204 2.12946 5.38138L2.33688 9.36939C2.34504 9.52638 2.47871 9.64619 2.6359 9.63884C2.79289 9.63064 2.91352 9.49677 2.90536 9.33978L2.69793 5.35177C2.69782 5.3495 2.69746 5.34263 2.70375 5.33599C2.71004 5.32934 2.71692 5.32934 2.71918 5.32934H3.07997H3.88282H4.17036C4.17262 5.32934 4.1795 5.32934 4.18583 5.33599C4.19212 5.34266 4.19176 5.3495 4.19165 5.35177L3.96028 9.80068C3.95969 9.81201 3.95036 9.82092 3.93899 9.82092H2.95059C2.93926 9.82092 2.92989 9.81201 2.9293 9.80068L2.90536 9.33978C2.89719 9.18279 2.76282 9.06252 2.60633 9.07033C2.44934 9.07853 2.32867 9.2124 2.33688 9.36939L2.36082 9.83029C2.37043 10.0156 2.46496 10.1766 2.60512 10.2779V10.9673C2.60512 11.3304 2.83688 11.6404 3.1602 11.7572V13.2437C3.1602 13.401 3.28762 13.5284 3.44485 13.5284C3.60208 13.5284 3.7295 13.401 3.7295 13.2437V11.7573C4.05282 11.6404 4.28458 11.3305 4.28458 10.9673V10.278C4.42473 10.1767 4.51923 10.0156 4.52884 9.83033L4.57251 8.99037L12.0224 9.62259C12.4757 9.67134 12.8759 9.89908 13.1494 10.2641C13.4235 10.6299 13.5296 11.079 13.4479 11.5297L12.9223 14.4828H1.88516C1.39707 14.4828 1 14.8798 1 15.3679V16.6243C1 17.1123 1.39707 17.5094 1.88516 17.5094H19.0455C19.5336 17.5094 19.9306 17.1123 19.9306 16.6243V15.3679C19.9306 14.8799 19.5336 14.4828 19.0455 14.4828H18.2898V8.51462H18.858V9.87463C18.858 10.4652 19.3384 10.9456 19.929 10.9456C20.5196 10.9456 21 10.4652 21 9.87463V5.51919C21 4.92864 20.5196 4.44817 19.929 4.44817ZM14.8914 3.55145C14.8886 3.55145 14.8863 3.54915 14.8863 3.54629V1.57438C14.8863 1.57156 14.8886 1.56926 14.8914 1.56926H15.4789C15.4818 1.56926 15.4841 1.57156 15.4841 1.57438V3.54629C15.4841 3.54915 15.4818 3.55145 15.4789 3.55145H14.8914ZM3.59829 4.76016H3.36465V4.56794C3.36465 4.50356 3.41708 4.45114 3.48149 4.45114C3.54586 4.45114 3.59829 4.50356 3.59829 4.56794V4.76016ZM3.71528 10.9673C3.71528 11.1165 3.59395 11.2378 3.44481 11.2378C3.29571 11.2378 3.17438 11.1165 3.17438 10.9673V10.3903H3.71528V10.9673ZM19.0455 15.0521C19.2196 15.0521 19.3614 15.1937 19.3614 15.3679V16.6243C19.3614 16.7985 19.2196 16.9401 19.0455 16.9401H1.88516C1.71098 16.9401 1.56926 16.7985 1.56926 16.6243V15.3679C1.56926 15.1937 1.71098 15.0521 1.88516 15.0521H19.0455ZM18.858 7.94537H18.2898V7.44845H18.858V7.94537ZM20.4308 9.87463C20.4308 10.1513 20.2057 10.3764 19.929 10.3764C19.6523 10.3764 19.4273 10.1513 19.4273 9.87463V5.51919C19.4273 5.24251 19.6523 5.01747 19.929 5.01747C20.2057 5.01747 20.4308 5.24255 20.4308 5.51919V9.87463Z" fill="#57AB00"/>
<path d="M18.858 6.87915V7.07915H19.058V6.87915H18.858ZM18.2855 6.87915L18.0858 6.8904L18.0965 7.07915H18.2855V6.87915ZM17.4371 5.10919L17.3033 5.25786L17.3033 5.25787L17.4371 5.10919ZM15.4698 4.46059H15.2698V4.6806L15.4888 4.65969L15.4698 4.46059ZM15.4698 4.12067V3.92067H15.2698V4.12067H15.4698ZM14.9005 4.12071H15.1005V3.92071H14.9005V4.12071ZM14.9005 4.51216L14.9187 4.71133L15.1005 4.69477V4.51216H14.9005ZM13.9784 4.59614L13.9965 4.79532L13.9965 4.79532L13.9784 4.59614ZM14.03 5.16305L14.0119 4.96388L14.0118 4.96388L14.03 5.16305ZM15.2136 5.05528L15.2317 5.25447L15.2341 5.25423L15.2136 5.05528ZM15.2147 5.05516L15.1966 4.85597L15.1942 4.85622L15.2147 5.05516ZM15.4995 5.02923L15.5176 5.2284L15.5183 5.22834L15.4995 5.02923ZM15.5036 5.02884L15.5224 5.22796L15.5247 5.22773L15.5036 5.02884ZM17.0563 5.53239L16.9225 5.68107L16.9226 5.68107L17.0563 5.53239ZM17.7205 14.4828V14.6828H17.9205V14.4828H17.7205ZM13.5005 14.4828L13.3036 14.4478L13.2618 14.6828H13.5005V14.4828ZM14.0082 11.6303L13.8114 11.5947L13.8113 11.5953L14.0082 11.6303ZM13.6049 9.92279L13.765 9.80287L13.765 9.80286L13.6049 9.92279ZM12.0794 9.05623L12.1005 8.85732L12.0979 8.85708L12.0794 9.05623ZM12.0735 9.05568L12.092 8.85653L12.0905 8.8564L12.0735 9.05568ZM4.60208 8.42158L4.40235 8.41119L4.39229 8.60449L4.58516 8.62086L4.60208 8.42158ZM4.72751 6.01017L4.70937 5.81099L4.53678 5.82671L4.52778 5.99978L4.72751 6.01017ZM14.2876 4.8538L14.0885 4.87193V4.87194L14.2876 4.8538ZM4.75739 5.43579L4.55766 5.42547L4.54575 5.65589L4.77553 5.63497L4.75739 5.43579ZM4.7602 5.38138L4.56047 5.371L4.56047 5.37105L4.7602 5.38138ZM4.59872 4.94411L4.45366 5.0818L4.45371 5.08185L4.59872 4.94411ZM4.16755 4.76012H3.96755V4.96012H4.16755V4.76012ZM2.79539 4.76012V4.96012H2.99539V4.76012H2.79539ZM2.29094 4.94411L2.43595 5.08185L2.43602 5.08178L2.29094 4.94411ZM2.12946 5.38138L1.92972 5.39175L1.92973 5.39176L2.12946 5.38138ZM2.33688 9.36939L2.53661 9.359L2.53661 9.359L2.33688 9.36939ZM2.6359 9.63884L2.64524 9.83863L2.64634 9.83857L2.6359 9.63884ZM2.69793 5.35177L2.4982 5.3621L2.4982 5.36215L2.69793 5.35177ZM4.18583 5.33599L4.33144 5.19888L4.33061 5.19801L4.18583 5.33599ZM4.19165 5.35177L4.39138 5.36215L4.39138 5.3621L4.19165 5.35177ZM3.96028 9.80068L3.76055 9.79029L3.76055 9.79035L3.96028 9.80068ZM2.9293 9.80068L3.12903 9.79035L3.12903 9.7903L2.9293 9.80068ZM2.60633 9.07033L2.59636 8.87058L2.5959 8.8706L2.60633 9.07033ZM2.36082 9.83029L2.56055 9.81993L2.56055 9.81991L2.36082 9.83029ZM2.60512 10.2779H2.80512V10.1757L2.7223 10.1159L2.60512 10.2779ZM3.1602 11.7572H3.3602V11.6169L3.22819 11.5692L3.1602 11.7572ZM3.7295 11.7573L3.66151 11.5692L3.5295 11.6169V11.7573H3.7295ZM4.28458 10.278L4.1674 10.1159L4.08458 10.1758V10.278H4.28458ZM4.52884 9.83033L4.3291 9.81995L4.3291 9.81997L4.52884 9.83033ZM4.57251 8.99037L4.58942 8.79108L4.38351 8.77361L4.37278 8.97998L4.57251 8.99037ZM12.0224 9.62259L12.0438 9.42369L12.0393 9.42331L12.0224 9.62259ZM13.1494 10.2641L12.9893 10.384L12.9893 10.3841L13.1494 10.2641ZM13.4479 11.5297L13.2511 11.494L13.251 11.4946L13.4479 11.5297ZM12.9223 14.4828V14.6828H13.0899L13.1192 14.5178L12.9223 14.4828ZM1.88516 14.4828V14.2828H1.88514L1.88516 14.4828ZM18.2898 14.4828H18.0898V14.6828H18.2898V14.4828ZM18.2898 8.51462V8.31462H18.0898V8.51462H18.2898ZM18.858 8.51462H19.058V8.31462H18.858V8.51462ZM21 5.51919L20.8 5.51918V5.51919H21ZM3.59829 4.76016V4.96016H3.79829V4.76016H3.59829ZM3.36465 4.76016H3.16465V4.96016H3.36465V4.76016ZM3.17438 10.3903V10.1903H2.97438V10.3903H3.17438ZM3.71528 10.3903H3.91528V10.1903H3.71528V10.3903ZM18.858 7.94537V8.14537H19.058V7.94537H18.858ZM18.2898 7.94537H18.0898V8.14537H18.2898V7.94537ZM18.2898 7.44845V7.24845H18.0898V7.44845H18.2898ZM18.858 7.44845H19.058V7.24845H18.858V7.44845ZM19.929 4.24817C19.228 4.24817 18.658 4.81818 18.658 5.51915H19.058C19.058 5.0391 19.4489 4.64817 19.929 4.64817V4.24817ZM18.658 5.51915V6.87915H19.058V5.51915H18.658ZM18.858 6.67915H18.2855V7.07915H18.858V6.67915ZM18.4852 6.8679C18.4441 6.13929 18.1163 5.45125 17.5708 4.9605L17.3033 5.25787C17.7699 5.67767 18.0507 6.26674 18.0858 6.8904L18.4852 6.8679ZM17.5708 4.96052C16.9937 4.4412 16.2227 4.18779 15.4508 4.2615L15.4888 4.65969C16.1495 4.5966 16.8096 4.81366 17.3033 5.25786L17.5708 4.96052ZM15.6698 4.46059V4.12067H15.2698V4.46059H15.6698ZM15.4698 4.32067H15.4789V3.92067H15.4698V4.32067ZM15.4789 4.32067C15.9061 4.32067 16.2534 3.97343 16.2534 3.54626H15.8534C15.8534 3.75252 15.6852 3.92067 15.4789 3.92067V4.32067ZM16.2534 3.54626V1.57438H15.8534V3.54626H16.2534ZM16.2534 1.57438C16.2534 1.14718 15.9061 0.8 15.4789 0.8V1.2C15.6852 1.2 15.8534 1.36813 15.8534 1.57438H16.2534ZM15.4789 0.8H14.8914V1.2H15.4789V0.8ZM14.8914 0.8C14.4643 0.8 14.117 1.14718 14.117 1.57438H14.517C14.517 1.36813 14.6852 1.2 14.8914 1.2V0.8ZM14.117 1.57438V3.54629H14.517V1.57438H14.117ZM14.117 3.54629C14.117 3.97347 14.4643 4.32071 14.8914 4.32071V3.92071C14.6852 3.92071 14.517 3.75256 14.517 3.54629H14.117ZM14.8914 4.32071H14.9005V3.92071H14.8914V4.32071ZM14.7005 4.12071V4.51216H15.1005V4.12071H14.7005ZM14.8824 4.31298L13.9602 4.39696L13.9965 4.79532L14.9187 4.71133L14.8824 4.31298ZM13.9603 4.39696C13.6937 4.42117 13.4973 4.65699 13.5216 4.92354L13.9199 4.88726C13.9157 4.84068 13.95 4.79954 13.9965 4.79532L13.9603 4.39696ZM13.5216 4.92354C13.5458 5.18962 13.7809 5.38706 14.0485 5.3622L14.0115 4.96391C13.9654 4.96819 13.9242 4.9343 13.9199 4.88726L13.5216 4.92354ZM14.0481 5.36223L15.2317 5.25446L15.1954 4.85611L14.0119 4.96388L14.0481 5.36223ZM15.2341 5.25423L15.2352 5.25411L15.1942 4.85622L15.1931 4.85634L15.2341 5.25423ZM15.2329 5.25434L15.5176 5.2284L15.4813 4.83005L15.1966 4.85599L15.2329 5.25434ZM15.5183 5.22834L15.5224 5.22795L15.4848 4.82972L15.4807 4.83011L15.5183 5.22834ZM15.5247 5.22773C16.0328 5.174 16.5426 5.33921 16.9225 5.68107L17.1901 5.38372C16.7258 4.96596 16.1035 4.7643 15.4826 4.82994L15.5247 5.22773ZM16.9226 5.68107C17.3025 6.02291 17.5205 6.51234 17.5205 7.02345H17.9205C17.9205 6.39893 17.6544 5.80141 17.1901 5.38371L16.9226 5.68107ZM17.5205 7.02345V14.4828H17.9205V7.02345H17.5205ZM17.7205 14.2828H13.5005V14.6828H17.7205V14.2828ZM13.6974 14.5178L14.2051 11.6654L13.8113 11.5953L13.3036 14.4478L13.6974 14.5178ZM14.205 11.666C14.3233 11.0128 14.163 10.3341 13.765 9.80287L13.4449 10.0427C13.7762 10.4849 13.9099 11.051 13.8114 11.5947L14.205 11.666ZM13.765 9.80286C13.367 9.27169 12.7606 8.92717 12.1005 8.85734L12.0584 9.25512C12.6079 9.31325 13.1135 9.60053 13.4449 10.0427L13.765 9.80286ZM12.0979 8.85708L12.092 8.85653L12.0551 9.25483L12.061 9.25537L12.0979 8.85708ZM12.0905 8.8564L4.61899 8.22229L4.58516 8.62086L12.0566 9.25496L12.0905 8.8564ZM4.80181 8.43197L4.92724 6.02056L4.52778 5.99978L4.40235 8.41119L4.80181 8.43197ZM4.74565 6.20934L14.0481 5.36223L14.0118 4.96388L4.70937 5.81099L4.74565 6.20934ZM14.0481 5.36224C14.3147 5.33802 14.5111 5.1022 14.4868 4.83566L14.0885 4.87194C14.0927 4.91852 14.0584 4.95965 14.0119 4.96387L14.0481 5.36224ZM14.4868 4.83566C14.4626 4.56992 14.2273 4.37136 13.9593 4.39705L13.9975 4.79523C14.0424 4.79092 14.0841 4.82447 14.0885 4.87193L14.4868 4.83566ZM13.9602 4.39696L4.73925 5.23661L4.77553 5.63497L13.9965 4.79532L13.9602 4.39696ZM4.95712 5.44611L4.95994 5.3917L4.56047 5.37105L4.55766 5.42547L4.95712 5.44611ZM4.95993 5.39175C4.97114 5.17604 4.89257 4.96306 4.74373 4.80637L4.45371 5.08185C4.5269 5.15891 4.56599 5.26475 4.56047 5.371L4.95993 5.39175ZM4.74377 4.80642C4.59504 4.64973 4.38647 4.56012 4.17044 4.56012V4.96012C4.27675 4.96012 4.38044 5.00466 4.45366 5.0818L4.74377 4.80642ZM4.17044 4.56012H4.16755V4.96012H4.17044V4.56012ZM4.36755 4.76012V4.5679H3.96755V4.76012H4.36755ZM4.36755 4.5679C4.36755 4.07916 3.97023 3.68184 3.48149 3.68184V4.08184C3.74931 4.08184 3.96755 4.30007 3.96755 4.5679H4.36755ZM3.48149 3.68184C2.99272 3.68184 2.59539 4.07915 2.59539 4.5679H2.99539C2.99539 4.30008 3.21362 4.08184 3.48149 4.08184V3.68184ZM2.59539 4.5679V4.76012H2.99539V4.5679H2.59539ZM2.79539 4.56012H2.71922V4.96012H2.79539V4.56012ZM2.71922 4.56012C2.50318 4.56012 2.29462 4.64967 2.14586 4.80644L2.43602 5.08178C2.50921 5.00464 2.61285 4.96012 2.71922 4.96012V4.56012ZM2.14593 4.80637C1.99709 4.96306 1.91852 5.17604 1.92972 5.39175L2.32919 5.371C2.32367 5.26475 2.36276 5.15891 2.43595 5.08185L2.14593 4.80637ZM1.92973 5.39176L2.13715 9.37978L2.53661 9.359L2.32919 5.37099L1.92973 5.39176ZM2.13715 9.37978C2.15109 9.64797 2.37943 9.85104 2.64524 9.83863L2.62657 9.43906C2.578 9.44133 2.53899 9.4048 2.53661 9.359L2.13715 9.37978ZM2.64634 9.83857C2.91359 9.82461 3.11899 9.5967 3.10509 9.32939L2.70563 9.35017C2.70805 9.39685 2.67219 9.43667 2.62547 9.43912L2.64634 9.83857ZM3.10509 9.32939L2.89766 5.34138L2.4982 5.36215L2.70563 9.35017L3.10509 9.32939ZM2.89767 5.34143C2.89765 5.34122 2.89779 5.34362 2.89785 5.34662C2.89791 5.34976 2.89791 5.35377 2.8977 5.35842C2.89727 5.36774 2.89601 5.37937 2.89286 5.39245C2.8862 5.42004 2.87225 5.44892 2.84897 5.47351L2.55854 5.19846C2.49459 5.26599 2.49723 5.34339 2.4982 5.3621L2.89767 5.34143ZM2.84897 5.47351C2.82562 5.49817 2.79741 5.51371 2.77004 5.52186C2.75708 5.52572 2.74548 5.52759 2.73616 5.5285C2.7315 5.52895 2.72748 5.52916 2.72434 5.52926C2.72134 5.52935 2.71893 5.52934 2.71918 5.52934V5.12934C2.70047 5.12934 2.62272 5.13069 2.55854 5.19846L2.84897 5.47351ZM2.71918 5.52934H3.07997V5.12934H2.71918V5.52934ZM3.07997 5.52934H3.88282V5.12934H3.07997V5.52934ZM3.88282 5.52934H4.17036V5.12934H3.88282V5.52934ZM4.17036 5.52934C4.17061 5.52934 4.1682 5.52935 4.1652 5.52926C4.16206 5.52916 4.15805 5.52896 4.1534 5.5285C4.14408 5.52759 4.13251 5.52573 4.1196 5.52189C4.09233 5.51378 4.06429 5.49836 4.04104 5.47396L4.33061 5.19801C4.26653 5.13077 4.18926 5.12934 4.17036 5.12934V5.52934ZM4.04021 5.47308C4.01731 5.44876 4.00342 5.42014 3.99674 5.39254C3.99358 5.37946 3.99231 5.36781 3.99188 5.35845C3.99167 5.35378 3.99167 5.34976 3.99173 5.34661C3.99179 5.3436 3.99193 5.3412 3.99191 5.34143L4.39138 5.3621C4.39237 5.34291 4.39479 5.26616 4.33144 5.19889L4.04021 5.47308ZM3.99192 5.34138L3.76055 9.79029L4.16001 9.81107L4.39138 5.36215L3.99192 5.34138ZM3.76055 9.79035C3.76544 9.69576 3.84354 9.62092 3.93899 9.62092V10.0209C4.05718 10.0209 4.15395 9.92826 4.16001 9.81101L3.76055 9.79035ZM3.93899 9.62092H2.95059V10.0209H3.93899V9.62092ZM2.95059 9.62092C3.04585 9.62092 3.12413 9.69552 3.12903 9.79035L2.72957 9.81101C2.73564 9.9285 2.83268 10.0209 2.95059 10.0209V9.62092ZM3.12903 9.7903L3.10509 9.3294L2.70562 9.35016L2.72957 9.81106L3.12903 9.7903ZM3.10509 9.32939C3.09115 9.06147 2.86221 8.8573 2.59636 8.87058L2.6163 9.27008C2.66342 9.26773 2.70323 9.30411 2.70563 9.35017L3.10509 9.32939ZM2.5959 8.8706C2.32868 8.88456 2.12318 9.11244 2.13715 9.37983L2.53661 9.35895C2.53417 9.31236 2.56999 9.2725 2.61677 9.27006L2.5959 8.8706ZM2.13715 9.37977L2.16109 9.84067L2.56055 9.81991L2.53661 9.35901L2.13715 9.37977ZM2.16109 9.84065C2.17398 10.0892 2.30105 10.3049 2.48794 10.44L2.7223 10.1159C2.62888 10.0483 2.56688 9.94194 2.56055 9.81993L2.16109 9.84065ZM2.40512 10.2779V10.9673H2.80512V10.2779H2.40512ZM2.40512 10.9673C2.40512 11.4176 2.69244 11.8008 3.09221 11.9453L3.22819 11.5692C2.98132 11.4799 2.80512 11.2433 2.80512 10.9673H2.40512ZM2.9602 11.7572V13.2437H3.3602V11.7572H2.9602ZM2.9602 13.2437C2.9602 13.5114 3.17717 13.7284 3.44485 13.7284V13.3284C3.39808 13.3284 3.3602 13.2905 3.3602 13.2437H2.9602ZM3.44485 13.7284C3.71253 13.7284 3.9295 13.5114 3.9295 13.2437H3.5295C3.5295 13.2905 3.49162 13.3284 3.44485 13.3284V13.7284ZM3.9295 13.2437V11.7573H3.5295V13.2437H3.9295ZM3.79749 11.9454C4.19725 11.8009 4.48458 11.4176 4.48458 10.9673H4.08458C4.08458 11.2433 3.90838 11.48 3.66151 11.5692L3.79749 11.9454ZM4.48458 10.9673V10.278H4.08458V10.9673H4.48458ZM4.40175 10.4401C4.58868 10.3049 4.71568 10.0892 4.72857 9.84069L4.3291 9.81997C4.32277 9.94197 4.26078 10.0484 4.1674 10.1159L4.40175 10.4401ZM4.72857 9.84071L4.77224 9.00075L4.37278 8.97998L4.3291 9.81995L4.72857 9.84071ZM4.5556 9.18965L12.0055 9.82188L12.0393 9.42331L4.58942 8.79108L4.5556 9.18965ZM12.001 9.82145C12.3992 9.86426 12.7491 10.0634 12.9893 10.384L13.3095 10.1442C13.0027 9.73475 12.5523 9.47842 12.0437 9.42374L12.001 9.82145ZM12.9893 10.3841C13.2301 10.7053 13.3229 11.098 13.2511 11.494L13.6447 11.5653C13.7363 11.06 13.6169 10.5545 13.3094 10.1442L12.9893 10.3841ZM13.251 11.4946L12.7254 14.4477L13.1192 14.5178L13.6448 11.5647L13.251 11.4946ZM12.9223 14.2828H1.88516V14.6828H12.9223V14.2828ZM1.88514 14.2828C1.28663 14.2828 0.8 14.7694 0.8 15.3679H1.2C1.2 14.9903 1.50752 14.6828 1.88517 14.6828L1.88514 14.2828ZM0.8 15.3679V16.6243H1.2V15.3679H0.8ZM0.8 16.6243C0.8 17.2228 1.28662 17.7094 1.88516 17.7094V17.3094C1.50752 17.3094 1.2 17.0019 1.2 16.6243H0.8ZM1.88516 17.7094H19.0455V17.3094H1.88516V17.7094ZM19.0455 17.7094C19.644 17.7094 20.1306 17.2228 20.1306 16.6243H19.7306C19.7306 17.0019 19.4231 17.3094 19.0455 17.3094V17.7094ZM20.1306 16.6243V15.3679H19.7306V16.6243H20.1306ZM20.1306 15.3679C20.1306 14.7694 19.644 14.2828 19.0455 14.2828V14.6828C19.4231 14.6828 19.7306 14.9903 19.7306 15.3679H20.1306ZM19.0455 14.2828H18.2898V14.6828H19.0455V14.2828ZM18.4898 14.4828V8.51462H18.0898V14.4828H18.4898ZM18.2898 8.71462H18.858V8.31462H18.2898V8.71462ZM18.658 8.51462V9.87463H19.058V8.51462H18.658ZM18.658 9.87463C18.658 10.5757 19.228 11.1456 19.929 11.1456V10.7456C19.4489 10.7456 19.058 10.3548 19.058 9.87463H18.658ZM19.929 11.1456C20.63 11.1456 21.2 10.5756 21.2 9.87463H20.8C20.8 10.3547 20.4091 10.7456 19.929 10.7456V11.1456ZM21.2 9.87463V5.51919H20.8V9.87463H21.2ZM21.2 5.5192C21.2 4.81818 20.63 4.24817 19.929 4.24817V4.64817C20.4091 4.64817 20.8 5.0391 20.8 5.51918L21.2 5.5192ZM14.8914 3.35145C14.9991 3.35145 15.0863 3.43874 15.0863 3.54629H14.6863C14.6863 3.65955 14.7781 3.75145 14.8914 3.75145V3.35145ZM15.0863 3.54629V1.57438H14.6863V3.54629H15.0863ZM15.0863 1.57438C15.0863 1.68298 14.9981 1.76926 14.8914 1.76926V1.36926C14.7791 1.36926 14.6863 1.46015 14.6863 1.57438H15.0863ZM14.8914 1.76926H15.4789V1.36926H14.8914V1.76926ZM15.4789 1.76926C15.3723 1.76926 15.2841 1.68298 15.2841 1.57438H15.6841C15.6841 1.46015 15.5913 1.36926 15.4789 1.36926V1.76926ZM15.2841 1.57438V3.54629H15.6841V1.57438H15.2841ZM15.2841 3.54629C15.2841 3.43874 15.3713 3.35145 15.4789 3.35145V3.75145C15.5923 3.75145 15.6841 3.65955 15.6841 3.54629H15.2841ZM15.4789 3.35145H14.8914V3.75145H15.4789V3.35145ZM3.59829 4.56016H3.36465V4.96016H3.59829V4.56016ZM3.56465 4.76016V4.56794H3.16465V4.76016H3.56465ZM3.56465 4.56794C3.56465 4.61406 3.52749 4.65114 3.48149 4.65114V4.25114C3.30666 4.25114 3.16465 4.39306 3.16465 4.56794H3.56465ZM3.48149 4.65114C3.43541 4.65114 3.39829 4.61402 3.39829 4.56794H3.79829C3.79829 4.39311 3.65632 4.25114 3.48149 4.25114V4.65114ZM3.39829 4.56794V4.76016H3.79829V4.56794H3.39829ZM3.51528 10.9673C3.51528 11.006 3.48353 11.0378 3.44481 11.0378V11.4378C3.70437 11.4378 3.91528 11.227 3.91528 10.9673H3.51528ZM3.44481 11.0378C3.40615 11.0378 3.37438 11.006 3.37438 10.9673H2.97438C2.97438 11.2269 3.18527 11.4378 3.44481 11.4378V11.0378ZM3.37438 10.9673V10.3903H2.97438V10.9673H3.37438ZM3.17438 10.5903H3.71528V10.1903H3.17438V10.5903ZM3.51528 10.3903V10.9673H3.91528V10.3903H3.51528ZM19.0455 15.2521C19.1092 15.2521 19.1614 15.3042 19.1614 15.3679H19.5614C19.5614 15.0832 19.3301 14.8521 19.0455 14.8521V15.2521ZM19.1614 15.3679V16.6243H19.5614V15.3679H19.1614ZM19.1614 16.6243C19.1614 16.688 19.1092 16.7401 19.0455 16.7401V17.1401C19.3301 17.1401 19.5614 16.909 19.5614 16.6243H19.1614ZM19.0455 16.7401H1.88516V17.1401H19.0455V16.7401ZM1.88516 16.7401C1.8214 16.7401 1.76926 16.688 1.76926 16.6243H1.36926C1.36926 16.909 1.60055 17.1401 1.88516 17.1401V16.7401ZM1.76926 16.6243V15.3679H1.36926V16.6243H1.76926ZM1.76926 15.3679C1.76926 15.3042 1.8214 15.2521 1.88516 15.2521V14.8521C1.60055 14.8521 1.36926 15.0832 1.36926 15.3679H1.76926ZM1.88516 15.2521H19.0455V14.8521H1.88516V15.2521ZM18.858 7.74537H18.2898V8.14537H18.858V7.74537ZM18.4898 7.94537V7.44845H18.0898V7.94537H18.4898ZM18.2898 7.64845H18.858V7.24845H18.2898V7.64845ZM18.658 7.44845V7.94537H19.058V7.44845H18.658ZM20.2308 9.87463C20.2308 10.0409 20.0952 10.1764 19.929 10.1764V10.5764C20.3162 10.5764 20.6308 10.2618 20.6308 9.87463H20.2308ZM19.929 10.1764C19.7628 10.1764 19.6273 10.0408 19.6273 9.87463H19.2273C19.2273 10.2617 19.5419 10.5764 19.929 10.5764V10.1764ZM19.6273 9.87463V5.51919H19.2273V9.87463H19.6273ZM19.6273 5.51919C19.6273 5.35299 19.7628 5.21747 19.929 5.21747V4.81747C19.5419 4.81747 19.2273 5.13203 19.2273 5.51919H19.6273ZM19.929 5.21747C20.0953 5.21747 20.2308 5.35301 20.2308 5.51919H20.6308C20.6308 5.13208 20.3161 4.81747 19.929 4.81747V5.21747ZM20.2308 5.51919V9.87463H20.6308V5.51919H20.2308Z" fill="#57AB00" mask="url(#path-1-outside-1)"/>
</svg>
