<svg width="17" height="20" viewBox="0 0 17 20" fill="none" xmlns="http://www.w3.org/2000/svg">
<path d="M16.7345 16.9447L16.7345 16.9447C16.8041 17.0343 16.8353 17.1478 16.8212 17.2604C16.7918 17.4947 16.578 17.6608 16.3437 17.6314C16.3437 17.6314 16.3437 17.6314 16.3437 17.6314L14.0865 17.3495L13.5319 19.29C13.5318 19.29 13.5318 19.29 13.5318 19.29C13.4876 19.4448 13.3602 19.5616 13.2022 19.5923L13.2018 19.5924C13.1752 19.5974 13.1482 19.6 13.1209 19.6H13.1207C12.9885 19.5998 12.8639 19.5384 12.7831 19.4338C12.783 19.4338 12.783 19.4337 12.7829 19.4337L10.7586 16.8308C10.2379 17.3028 9.57238 17.5865 8.86903 17.6343L8.85543 17.6352L8.85549 17.6343C8.15215 17.5865 7.48667 17.3028 6.96597 16.8308L4.94138 19.4349L4.94136 19.435C4.86031 19.5391 4.73565 19.6001 4.60364 19.6L16.7345 16.9447ZM16.7345 16.9447L14.8285 14.4944M16.7345 16.9447L14.8285 14.4944M13.1831 19.4941C13.3042 19.4706 13.4018 19.3811 13.4357 19.2625L13.1831 19.4941ZM13.1831 19.4941C13.1626 19.498 13.1418 19.5 13.1209 19.5L13.1831 19.4941ZM14.8285 14.4944C15.4383 14.2795 15.9632 13.8718 16.3225 13.3312L16.3226 13.3313L16.3257 13.3259C16.5732 12.8983 16.6386 12.427 16.618 11.9469C16.5976 11.4693 16.4915 10.9752 16.3893 10.4995L16.3887 10.4966L16.3888 10.4966L16.3879 10.4931C16.2657 10.0097 16.1925 9.51524 16.1693 9.01723C16.1924 8.51877 16.2656 8.02387 16.3879 7.54009L16.388 7.54011L16.3887 7.53644L16.3921 7.52079C16.4927 7.04886 16.5971 6.55926 16.6175 6.08626C16.6383 5.60647 16.5732 5.1356 16.3257 4.70853C16.0701 4.26686 15.6865 3.96771 15.2522 3.742C14.8199 3.51739 14.3307 3.36233 13.8596 3.21301L13.8577 3.21241L13.8577 3.21235L13.8541 3.21133C13.3911 3.08377 12.9426 2.90834 12.516 2.68787C12.1296 2.4368 11.7707 2.14569 11.4453 1.81934L11.4454 1.81929L11.4426 1.81665L11.4418 1.81598C11.092 1.49129 10.7112 1.13782 10.2892 0.866407C9.86568 0.594022 9.39446 0.4 8.86226 0.4C8.33006 0.4 7.85884 0.594021 7.43531 0.86636C7.01391 1.13732 6.6335 1.49006 6.28397 1.81417L6.28168 1.81629L6.28163 1.81624L6.27884 1.81904C5.95359 2.14545 5.59482 2.43667 5.20851 2.68786C4.78197 2.90787 4.33368 3.08285 3.87087 3.21L3.87085 3.20993L3.86715 3.2111L3.86526 3.2117C3.39416 3.36102 2.90495 3.51608 2.47269 3.74069C2.03832 3.96639 1.65476 4.26555 1.39913 4.70722L1.39912 4.70723C1.1517 5.13491 1.08627 5.60622 1.10683 6.08631C1.12728 6.56386 1.23338 7.058 1.33552 7.53366L1.33615 7.53658L1.33608 7.53659L1.33696 7.54007C1.45914 8.0239 1.53228 8.51876 1.55526 9.01723C1.53216 9.5157 1.45893 10.0106 1.33664 10.4944L1.33657 10.4944L1.33579 10.498L1.33245 10.5137C1.23182 10.9856 1.12742 11.4752 1.10699 11.9482C1.08627 12.428 1.15135 12.8989 1.39883 13.326L1.39866 13.3261L1.40209 13.3312C1.76182 13.872 2.28727 14.2796 2.8975 14.4941L0.990078 16.9443L0.990041 16.9444C0.84509 17.1308 0.878708 17.3994 1.06518 17.5444C1.15475 17.614 1.26826 17.6452 1.38079 17.6311C1.38081 17.6311 1.38082 17.6311 1.38084 17.6311L3.63803 17.3492L4.19268 19.29C4.19268 19.29 4.19268 19.29 4.19268 19.29C4.23689 19.4448 4.36432 19.5616 4.52234 19.5923L4.52278 19.5924C4.54925 19.5974 4.5763 19.6 4.60356 19.6L14.8285 14.4944ZM5.64055 14.6081L5.64034 14.6085C6.08241 14.8917 6.49272 15.2216 6.86423 15.5926C7.20224 15.9059 7.52347 16.2032 7.85311 16.4232C8.18212 16.6427 8.51103 16.7793 8.86226 16.7793C9.21349 16.7793 9.54241 16.6427 9.87146 16.4232C10.2011 16.2032 10.5225 15.9059 10.8606 15.5925C11.232 15.2216 11.6422 14.8917 12.0842 14.6085L12.0916 14.6037L12.0917 14.6041C12.5723 14.3525 13.0781 14.1524 13.6008 14.0072C14.0349 13.8694 14.4471 13.7381 14.7959 13.5656C15.1444 13.3933 15.4192 13.1846 15.5855 12.8982C15.7428 12.6261 15.7845 12.2942 15.7602 11.9136C15.736 11.533 15.6469 11.1162 15.5528 10.6779C15.4163 10.1353 15.3363 9.5802 15.3141 9.02122L15.3137 9.01322L15.3141 9.01324C15.3365 8.45426 15.4166 7.89912 15.5531 7.35661M5.64055 14.6081L15.6725 5.08621M5.64055 14.6081L5.63278 14.6041C5.15211 14.3525 4.64615 14.1524 4.12341 14.0072C3.68931 13.8693 3.27676 13.7381 2.92776 13.5656C2.57904 13.3932 2.30429 13.1845 2.13863 12.8982C1.98137 12.6262 1.9397 12.2944 1.96396 11.9139C1.98822 11.5333 2.07732 11.1164 2.17142 10.6779C2.30793 10.1354 2.38805 9.58023 2.41046 9.02125L2.41078 9.02126L2.41046 9.01326C2.38818 8.45427 2.30818 7.89914 2.17175 7.35661C2.07764 6.91825 1.98855 6.50143 1.96429 6.12087C1.94003 5.74033 1.98169 5.40846 2.13895 5.1363C2.3053 4.84995 2.5801 4.64122 2.9286 4.46887C3.27743 4.29635 3.68967 4.16513 4.12375 4.02733C4.6464 3.88208 5.1522 3.68199 5.63278 3.4304L5.63296 3.43075L5.64036 3.42601C6.0823 3.1428 6.49251 2.81287 6.86389 2.44193M5.64055 14.6081L6.79454 2.36986M15.5531 7.35661C15.5532 7.35603 15.5534 7.35546 15.5535 7.35489L15.6505 7.37931L15.5527 7.35833C15.5529 7.35775 15.553 7.35718 15.5531 7.35661ZM15.5531 7.35661C15.6472 6.91808 15.7363 6.50119 15.7606 6.12063C15.7848 5.74005 15.7432 5.40826 15.5859 5.13626M15.5859 5.13626C15.5859 5.13627 15.5859 5.13628 15.5859 5.13629L15.6725 5.08621M15.5859 5.13626C15.4202 4.84999 15.1455 4.64126 14.7968 4.46888C14.4478 4.29636 14.0352 4.16514 13.6011 4.02733M15.5859 5.13626L15.6725 5.08621M15.6725 5.08621L13.6011 4.02733M13.6011 4.02733C13.6017 4.0275 13.6023 4.02766 13.6029 4.02782L13.6296 3.93147L13.5994 4.02678C13.6 4.02696 13.6005 4.02715 13.6011 4.02733ZM13.6011 4.02733C13.0784 3.88213 12.5724 3.68203 12.0917 3.43041L12.084 3.42634L12.0842 3.42601C11.6421 3.1428 11.2318 2.81291 10.8603 2.44193M13.6011 4.02733L8.86226 1.15517C8.10554 1.15517 7.46904 1.74483 6.79454 2.36986M10.8603 2.44193C10.8608 2.44235 10.8612 2.44277 10.8617 2.44319L10.9297 2.36986L10.859 2.4406C10.8594 2.44105 10.8599 2.44149 10.8603 2.44193ZM10.8603 2.44193C10.5223 2.12855 10.2011 1.83129 9.87141 1.61131C9.54241 1.39176 9.21349 1.25517 8.86226 1.25517C8.51103 1.25517 8.18212 1.39176 7.85307 1.61131C7.52338 1.83129 7.20207 2.12855 6.86389 2.44193M6.86389 2.44193C6.86433 2.44149 6.86478 2.44104 6.86522 2.4406L6.79454 2.36986M6.86389 2.44193C6.86343 2.44236 6.86297 2.44279 6.86251 2.44321L6.79454 2.36986M4.78325 18.245L4.35943 16.7617L4.35942 16.7617C4.30142 16.5592 4.10452 16.4291 3.89549 16.4551L3.89545 16.4551L2.30054 16.6545L3.75356 14.7866L3.86819 14.8233L3.86817 14.8234L3.87214 14.8245C4.33452 14.9517 4.78237 15.1267 5.20853 15.3466C5.59496 15.5977 5.95381 15.8888 6.27919 16.2151L6.27913 16.2152L6.28212 16.218L6.32738 16.2598L4.78325 18.245ZM13.8307 16.4551L13.8307 16.4551C13.6217 16.4291 13.4247 16.5592 13.3667 16.7617L12.9414 18.2451L11.3975 16.2601L11.4427 16.2183L11.4428 16.2184L11.4457 16.2154C11.7709 15.889 12.1297 15.5978 12.516 15.3466C12.9426 15.1266 13.3908 14.9516 13.8537 14.8245L13.8537 14.8246L13.8576 14.8233L13.9723 14.7866L15.4256 16.6545L13.8307 16.4551ZM8.86057 3.97062H8.86046C6.07432 3.97062 3.81571 6.22923 3.81571 9.01537C3.81571 11.8015 6.07432 14.0601 8.86046 14.0601C11.6466 14.0601 13.9052 11.8015 13.9052 9.01537V9.01525C13.902 6.23051 11.6453 3.97388 8.86057 3.97062ZM8.86034 13.3107C6.48816 13.3106 4.56512 11.3876 4.56512 9.01537C4.56512 6.64314 6.48823 4.72003 8.86046 4.72003C11.2326 4.72003 13.1557 6.64307 13.1558 9.01525C13.153 11.3864 11.2315 13.3079 8.86034 13.3107Z" fill="#57AB00" stroke="#57AB00" stroke-width="0.2"/>
</svg>
