<svg width="20" height="20" viewBox="0 0 20 20" fill="none" xmlns="http://www.w3.org/2000/svg">
<path d="M10 0C4.47305 0 0 4.47254 0 10C0 15.527 4.47254 20 10 20C15.527 20 20 15.5275 20 10C20 4.47305 15.5275 0 10 0ZM10 18.6667C5.22121 18.6667 1.33332 14.7788 1.33332 10C1.33332 5.22117 5.22121 1.33332 10 1.33332C14.7788 1.33332 18.6667 5.22121 18.6667 10C18.6667 14.7788 14.7788 18.6667 10 18.6667Z" fill="#57AB00"/>
<path d="M9.1582 11.3984V11.0234C9.1582 10.5938 9.23633 10.2363 9.39258 9.95117C9.54883 9.66602 9.82227 9.37109 10.2129 9.06641C10.6777 8.69922 10.9766 8.41406 11.1094 8.21094C11.2461 8.00781 11.3145 7.76562 11.3145 7.48438C11.3145 7.15625 11.2051 6.9043 10.9863 6.72852C10.7676 6.55273 10.4531 6.46484 10.043 6.46484C9.67188 6.46484 9.32812 6.51758 9.01172 6.62305C8.69531 6.72852 8.38672 6.85547 8.08594 7.00391L7.59375 5.97266C8.38672 5.53125 9.23633 5.31055 10.1426 5.31055C10.9082 5.31055 11.5156 5.49805 11.9648 5.87305C12.4141 6.24805 12.6387 6.76562 12.6387 7.42578C12.6387 7.71875 12.5957 7.98047 12.5098 8.21094C12.4238 8.4375 12.293 8.6543 12.1172 8.86133C11.9453 9.06836 11.6465 9.33789 11.2207 9.66992C10.8574 9.95508 10.6133 10.1914 10.4883 10.3789C10.3672 10.5664 10.3066 10.8184 10.3066 11.1348V11.3984H9.1582ZM8.91797 13.2676C8.91797 12.6777 9.20508 12.3828 9.7793 12.3828C10.0605 12.3828 10.2754 12.4609 10.4238 12.6172C10.5723 12.7695 10.6465 12.9863 10.6465 13.2676C10.6465 13.5449 10.5703 13.7656 10.418 13.9297C10.2695 14.0898 10.0566 14.1699 9.7793 14.1699C9.50195 14.1699 9.28906 14.0918 9.14062 13.9355C8.99219 13.7754 8.91797 13.5527 8.91797 13.2676Z" fill="#57AB00"/>
</svg>
