<svg width="20" height="20" viewBox="0 0 20 20" fill="none" xmlns="http://www.w3.org/2000/svg">
<g clip-path="url(#clip0)">
<path d="M10.2083 10C9.86333 10 9.58333 9.72 9.58333 9.375V8.75H3.75V9.375C3.75 9.72 3.47 10 3.125 10C2.78 10 2.5 9.72 2.5 9.375V8.125C2.5 7.78 2.78 7.5 3.125 7.5H10.2083C10.5533 7.5 10.8333 7.78 10.8333 8.125V9.375C10.8333 9.72 10.5533 10 10.2083 10Z" fill="#57AB00"/>
<path d="M6.66687 15.6251C6.32187 15.6251 6.04187 15.3451 6.04187 15.0002V8.3335C6.04187 7.9885 6.32187 7.7085 6.66687 7.7085C7.01187 7.7085 7.29187 7.9885 7.29187 8.3335V15.0002C7.29187 15.3451 7.01187 15.6251 6.66687 15.6251Z" fill="#57AB00"/>
<path d="M7.70833 15.8335H5.625C5.28 15.8335 5 15.5535 5 15.2085C5 14.8635 5.28 14.5835 5.625 14.5835H7.70833C8.05333 14.5835 8.33333 14.8635 8.33333 15.2085C8.33333 15.5535 8.05333 15.8335 7.70833 15.8335Z" fill="#57AB00"/>
<path d="M16.875 8.75H13.125C12.78 8.75 12.5 8.47 12.5 8.125C12.5 7.78 12.78 7.5 13.125 7.5H16.875C17.22 7.5 17.5 7.78 17.5 8.125C17.5 8.47 17.22 8.75 16.875 8.75Z" fill="#57AB00"/>
<path d="M16.875 12.0835H13.125C12.78 12.0835 12.5 11.8035 12.5 11.4585C12.5 11.1135 12.78 10.8335 13.125 10.8335H16.875C17.22 10.8335 17.5 11.1135 17.5 11.4585C17.5 11.8035 17.22 12.0835 16.875 12.0835Z" fill="#57AB00"/>
<path d="M16.875 15.4165H13.125C12.78 15.4165 12.5 15.1365 12.5 14.7915C12.5 14.4465 12.78 14.1665 13.125 14.1665H16.875C17.22 14.1665 17.5 14.4465 17.5 14.7915C17.5 15.1365 17.22 15.4165 16.875 15.4165Z" fill="#57AB00"/>
<path d="M17.7083 19.1668H2.29167C1.0275 19.1668 0 18.1393 0 16.8752V3.12516C0 1.861 1.0275 0.833496 2.29167 0.833496H17.7083C18.9725 0.833496 20 1.861 20 3.12516V16.8752C20 18.1393 18.9725 19.1668 17.7083 19.1668ZM2.29167 2.0835C1.7175 2.0835 1.25 2.551 1.25 3.12516V16.8752C1.25 17.4493 1.7175 17.9168 2.29167 17.9168H17.7083C18.2825 17.9168 18.75 17.4493 18.75 16.8752V3.12516C18.75 2.551 18.2825 2.0835 17.7083 2.0835H2.29167Z" fill="#57AB00"/>
<path d="M19.375 5H0.625C0.28 5 0 4.72 0 4.375C0 4.03 0.28 3.75 0.625 3.75H19.375C19.72 3.75 20 4.03 20 4.375C20 4.72 19.72 5 19.375 5Z" fill="#57AB00"/>
</g>
<defs>
<clipPath id="clip0">
<rect width="20" height="20" fill="white"/>
</clipPath>
</defs>
</svg>
