<svg width="20" height="20" viewBox="0 0 20 20" fill="none" xmlns="http://www.w3.org/2000/svg">
<path d="M12.8398 8.55035C12.5958 8.3064 12.1999 8.30629 11.9559 8.55035L10.7864 9.71982C10.0717 9.41955 8.8789 8.22933 8.57671 7.5101L9.74618 6.34063C9.99025 6.09656 9.99025 5.70082 9.74618 5.45675L7.31544 3.02601C7.07157 2.7821 6.67559 2.78194 6.43156 3.02601L5.10576 4.35185C4.44829 5.00928 4.36786 6.1036 4.87927 7.43319C6.35269 11.2641 11.8745 15.261 13.9447 13.1908L15.2706 11.865C15.5146 11.6209 15.5146 11.2252 15.2706 10.9811L12.8398 8.55035ZM13.0608 12.3069C12.7862 12.5814 12.1161 12.5599 11.312 12.2506C9.23442 11.4516 6.84735 9.06817 6.04589 6.98447C5.73659 6.18035 5.71503 5.51031 5.98956 5.23573L6.87344 4.35185L8.42026 5.89867L7.53642 6.78255C7.30079 7.01814 7.11575 7.47159 7.57248 8.29363C8.24256 9.49978 10.5322 11.7418 11.5139 10.7601L12.3978 9.87623L13.9446 11.4231L13.0608 12.3069Z" fill="#57AB00"/>
<path d="M15 0H4.99981C3.10435 0 1.56226 1.54209 1.56226 3.43755V13.4377C1.56226 15.3332 3.10435 16.8753 4.99981 16.8753H7.77099L9.46394 19.6968C9.70574 20.0998 10.2925 20.1023 10.5358 19.6968L12.2288 16.8753H15C16.8954 16.8753 18.4375 15.3332 18.4375 13.4377V3.43755C18.4375 1.54209 16.8955 0 15 0ZM17.1875 13.4377C17.1875 14.6439 16.2062 15.6252 15 15.6252H11.8749C11.6554 15.6252 11.4519 15.7404 11.339 15.9287L9.99989 18.1605L8.6608 15.9287C8.54783 15.7405 8.34439 15.6252 8.12486 15.6252H4.99981C3.79362 15.6252 2.81228 14.6439 2.81228 13.4377V3.43755C2.81228 2.23132 3.79362 1.25002 4.99981 1.25002H15C16.2062 1.25002 17.1875 2.23132 17.1875 3.43755V13.4377Z" fill="#57AB00"/>
</svg>
