<svg width="28" height="33" viewBox="0 0 28 33" fill="none" xmlns="http://www.w3.org/2000/svg">
<path d="M27.1976 31.6305L27.1973 31.6306L27.1985 31.6379C27.2081 31.6955 27.213 31.755 27.2131 31.8156C27.213 32.4144 26.7277 32.8998 26.1287 32.8998H26.1287H26.1286H26.1286H26.1286H26.1285H26.1285H26.1285H26.1284H26.1284H26.1284H26.1284H26.1283H26.1283H26.1283H26.1282H26.1282H26.1282H26.1281H26.1281H26.1281H26.1281H26.128H26.128H26.128H26.1279H26.1279H26.1279H26.1278H26.1278H26.1278H26.1277H26.1277H26.1277H26.1276H26.1276H26.1276H26.1276H26.1275H26.1275H26.1275H26.1274H26.1274H26.1274H26.1273H26.1273H26.1273H26.1272H26.1272H26.1272H26.1271H26.1271H26.1271H26.127H26.127H26.127H26.1269H26.1269H26.1269H26.1268H26.1268H26.1268H26.1267H26.1267H26.1267H26.1266H26.1266H26.1266H26.1266H26.1265H26.1265H26.1265H26.1264H26.1264H26.1264H26.1263H26.1263H26.1263H26.1262H26.1262H26.1262H26.1261H26.1261H26.1261H26.1261H26.126H26.126H26.126H26.1259H26.1259H26.1259H26.1258H26.1258H26.1258H26.1258H26.1257H26.1257H26.1257H26.1256H26.1256H26.1256H26.1255H26.1255H1.18446C0.880095 32.8998 0.589597 32.7719 0.384126 32.5472C0.178664 32.3225 0.0771557 32.0219 0.104335 31.7185C0.104336 31.7185 0.104336 31.7185 0.104337 31.7185L2.1203 9.26767L2.02079 9.25874L2.1203 9.26767C2.17047 8.70853 2.63909 8.28024 3.20042 8.28024H7.34432H7.44432V8.18023V6.31257C7.44432 2.88704 10.2309 0.1 13.6561 0.1C17.0815 0.1 19.8684 2.88704 19.8684 6.31257V8.18023V8.28024H19.9684H24.1094C24.6707 8.28024 25.1394 8.70853 25.1895 9.26767L27.1976 31.6305ZM17.5996 8.28024H17.6996V8.18023V6.31257C17.6996 4.08283 15.8859 2.26893 13.6563 2.26893C11.4268 2.26893 9.61325 4.08284 9.61325 6.31257V8.18023V8.28024H9.71325H17.5996ZM2.38051 30.6221L2.37073 30.7311H2.48011H24.8299H24.9393L24.9295 30.6221L23.1262 10.5402L23.1181 10.4492H23.0266H19.9685H19.8685V10.5492V12.6673C19.8685 13.2662 19.3831 13.7518 18.784 13.7518C18.185 13.7518 17.6996 13.2662 17.6996 12.6673V10.5492V10.4492H17.5996H9.71325H9.61325V10.5492V12.6673C9.61325 13.2662 9.12784 13.7518 8.52878 13.7518C7.92972 13.7518 7.44432 13.2662 7.44432 12.6673V10.5492V10.4492H7.34432H4.28334H4.19192L4.18374 10.5402L2.38051 30.6221Z" fill="white" stroke="white" stroke-width="0.2"/>
</svg>
