<svg width="40" height="40" viewBox="0 0 40 40" fill="none" xmlns="http://www.w3.org/2000/svg">
<path d="M15.3946 34.8113L15.3952 34.8114C15.575 34.8351 15.7391 34.9262 15.8544 35.0662C15.9696 35.2063 16.0273 35.3849 16.0159 35.5659C16.0045 35.747 15.9247 35.9169 15.7928 36.0414C15.6609 36.1658 15.4866 36.2356 15.3052 36.2364H15.305L15.3946 34.8113ZM15.3946 34.8113C12.8912 34.4909 10.9027 33.9287 9.78368 33.2412C9.70394 33.1904 9.61495 33.156 9.52183 33.1399C9.4282 33.1236 9.33228 33.1262 9.23965 33.1474L9.27316 33.2936M15.3946 34.8113L9.27316 33.2936M9.27316 33.2936L9.23964 33.1474C9.14702 33.1687 9.05955 33.2081 8.98235 33.2635C8.90514 33.3189 8.83975 33.3891 8.78997 33.4701C8.7402 33.551 8.70704 33.6411 8.69245 33.735C8.67785 33.8289 8.6821 33.9248 8.70495 34.017C8.7278 34.1092 8.76879 34.196 8.82554 34.2722C8.88201 34.3481 8.95295 34.412 9.03426 34.4603C10.3424 35.2639 12.5409 35.8889 15.2129 36.2307L9.27316 33.2936ZM21.6786 35.7808C21.6774 35.6865 21.6576 35.5934 21.62 35.5069C21.5824 35.4201 21.5277 35.3417 21.4593 35.2763C21.3909 35.211 21.3101 35.16 21.2217 35.1263C21.1336 35.0928 21.0396 35.0772 20.9453 35.0804C20.1602 35.0984 19.3426 35.0942 18.5449 35.0649C18.4509 35.0614 18.3572 35.0765 18.2691 35.1093C18.1809 35.142 18.1001 35.1918 18.0312 35.2558C17.9623 35.3198 17.9067 35.3967 17.8676 35.4822C17.8284 35.5677 17.8065 35.66 17.803 35.754C17.7996 35.848 17.8146 35.9417 17.8474 36.0298C17.8802 36.118 17.93 36.1988 17.9939 36.2677C18.0579 36.3365 18.1349 36.3922 18.2203 36.4313C18.3058 36.4705 18.3982 36.4924 18.4921 36.4959L18.4922 36.4959L20.9762 36.3618L20.9797 36.5118C21.1694 36.5074 21.3497 36.4278 21.4807 36.2905C21.6115 36.1535 21.6827 35.9702 21.6786 35.7808ZM21.6786 35.7808C21.6786 35.7811 21.6786 35.7814 21.6786 35.7817L21.5286 35.7833L21.6785 35.7798C21.6785 35.7801 21.6785 35.7805 21.6786 35.7808ZM14.5052 26.1324C11.0622 26.5787 8.18699 27.4196 6.1552 28.5226C4.08579 29.6461 2.85 31.0665 2.85 32.6515C2.85 33.6466 3.344 34.5738 4.21221 35.3983C5.07976 36.2221 6.32983 36.9527 7.86955 37.561C10.9498 38.7779 15.2195 39.5171 20 39.5171C24.7805 39.5171 29.0502 38.7779 32.1304 37.561C33.6702 36.9527 34.9202 36.2221 35.7878 35.3983C36.656 34.5738 37.15 33.6466 37.15 32.6515C37.15 31.0665 35.9142 29.6461 33.8448 28.5226C31.8131 27.4196 28.9379 26.5787 25.4952 26.1324C25.5293 26.0771 25.5635 26.0213 25.5975 25.9648M14.5052 26.1324L30.6422 11.4348C30.6666 15.5044 28.9616 20.3953 25.5975 25.9648M14.5052 26.1324C14.471 26.0771 14.4368 26.0213 14.4028 25.9648C11.0388 20.396 9.33337 15.5045 9.35816 11.4313C9.35816 11.4313 9.35816 11.4313 9.35816 11.4313L9.50816 11.4322L14.5052 26.1324ZM25.5975 25.9648C25.5975 25.9649 25.5975 25.9649 25.5975 25.9649L25.4691 25.8874L25.5975 25.9648ZM10.7893 11.4367L10.7893 11.4349C10.7824 10.2208 11.0156 9.01723 11.4755 7.89355C11.9355 6.76987 12.613 5.7482 13.4692 4.8873C14.3253 4.02641 15.3433 3.34328 16.4644 2.87721C17.5855 2.41114 18.7878 2.17132 20.0019 2.17155C21.2161 2.17179 22.4182 2.41206 23.5392 2.87856C24.6601 3.34505 25.6778 4.02857 26.5337 4.88978C27.3895 5.751 28.0666 6.77293 28.5261 7.89679C28.9856 9.02064 29.2184 10.2243 29.211 11.4384L29.211 11.4402C29.235 15.4169 27.3856 19.8743 25.2796 23.6473C23.2584 27.2686 21.0123 30.2394 20 31.5172C18.9877 30.2394 16.7416 27.2685 14.7203 23.6468C12.6143 19.8733 10.765 15.415 10.7893 11.4367ZM19.4532 33.1138L19.4548 33.1157C19.5219 33.1948 19.6054 33.2584 19.6996 33.3019C19.7937 33.3455 19.8962 33.3681 20 33.3681C20.1038 33.3681 20.2063 33.3455 20.3004 33.3019C20.3946 33.2584 20.4781 33.1948 20.5452 33.1157L20.5467 33.1138C22.0243 31.3146 23.3959 29.4309 24.6547 27.4723C27.8847 27.8356 30.6558 28.5639 32.6202 29.4912C33.6121 29.9594 34.3913 30.4751 34.9206 31.0144C35.4498 31.5536 35.7191 32.1057 35.7191 32.6515C35.7191 33.264 35.3562 33.9124 34.6258 34.5486C33.8975 35.1831 32.8213 35.7891 31.4408 36.3148C28.681 37.3659 24.7326 38.086 20 38.086C15.2674 38.086 11.319 37.3659 8.55928 36.3148C7.1788 35.7891 6.10259 35.1831 5.37432 34.5486C4.64402 33.9124 4.28118 33.264 4.28118 32.6515C4.28118 32.106 4.55046 31.5541 5.07953 31.0149C5.60863 30.4757 6.38777 29.9599 7.37953 29.4916C9.34368 28.5642 12.1148 27.8356 15.3457 27.4723C16.6043 29.4309 17.9758 31.3145 19.4532 33.1138ZM24.9256 11.4355V11.4353C24.9255 10.4611 24.6364 9.50868 24.095 8.69866C23.5537 7.88864 22.7842 7.25735 21.8841 6.88461C20.9839 6.51187 19.9934 6.41443 19.0379 6.60461C18.0823 6.79479 17.2046 7.26405 16.5158 7.95304C15.8269 8.64204 15.3578 9.51983 15.1679 10.4754C14.9779 11.431 15.0755 12.4215 15.4484 13.3215C15.8214 14.2216 16.4528 14.9909 17.2629 15.5322C18.0731 16.0734 19.0255 16.3622 19.9998 16.3622L20 16.3622C21.306 16.3606 22.5581 15.841 23.4815 14.9174C24.4049 13.9938 24.9243 12.7416 24.9256 11.4355ZM16.5048 11.4352C16.5049 10.7441 16.71 10.0685 17.0941 9.49385C17.4782 8.91918 18.0241 8.47132 18.6627 8.20689C19.3014 7.94246 20.0041 7.87333 20.682 8.00826C21.3599 8.14318 21.9826 8.4761 22.4713 8.9649C22.96 9.45371 23.2928 10.0765 23.4276 10.7544C23.5624 11.4323 23.4932 12.135 23.2286 12.7736C22.9641 13.4122 22.5161 13.958 21.9414 14.342C21.3667 14.726 20.6911 14.931 19.9999 14.931C19.0732 14.93 18.1846 14.5614 17.5294 13.906C16.8741 13.2506 16.5056 12.362 16.5048 11.4352Z" fill="#FFB000" stroke="#FFB000" stroke-width="0.3"/>
</svg>
