<svg width="40" height="40" viewBox="0 0 40 40" fill="none" xmlns="http://www.w3.org/2000/svg">
<path d="M28.551 9.28967L28.5509 9.28981L28.1149 9.72579C27.8152 10.0255 27.8152 10.5102 28.1149 10.8099C28.2643 10.9593 28.4608 11.0345 28.6569 11.0345C28.853 11.0345 29.0495 10.9593 29.199 10.8099L29.635 10.3739C29.9346 10.0742 29.9346 9.5895 29.635 9.28981C29.3351 8.98994 28.8505 8.99095 28.551 9.28967ZM19.5 0.85C9.21626 0.85 0.85 9.21626 0.85 19.5C0.85 29.7837 9.21626 38.15 19.5 38.15C29.7837 38.15 38.15 29.7837 38.15 19.5C38.15 9.21626 29.7837 0.85 19.5 0.85ZM19.5 36.6167C10.0621 36.6167 2.38333 28.9379 2.38333 19.5C2.38333 10.0621 10.0621 2.38333 19.5 2.38333C28.9379 2.38333 36.6167 10.0621 36.6167 19.5C36.6167 28.9379 28.9379 36.6167 19.5 36.6167ZM22.1167 19.4254C22.1167 18.2488 21.3338 17.2616 20.2667 16.933V10.7921C20.2667 10.3681 19.9231 10.0254 19.5 10.0254C19.0769 10.0254 18.7333 10.3681 18.7333 10.7921V16.933C17.909 17.1873 17.2619 17.8344 17.0076 18.6587H12.7167C12.2935 18.6587 11.95 19.0015 11.95 19.4254C11.95 19.8494 12.2935 20.1921 12.7167 20.1921H17.0076C17.3363 21.2593 18.324 22.0421 19.5 22.0421C20.9432 22.0421 22.1167 20.8686 22.1167 19.4254ZM19.5 20.5087C18.9027 20.5087 18.4167 20.0228 18.4167 19.4254C18.4167 18.8281 18.9027 18.3421 19.5 18.3421C20.0973 18.3421 20.5833 18.8281 20.5833 19.4254C20.5833 20.0228 20.0973 20.5087 19.5 20.5087ZM19.5 7.24208C19.9231 7.24208 20.2667 6.89937 20.2667 6.47541V5.85875C20.2667 5.43479 19.9231 5.09208 19.5 5.09208C19.0769 5.09208 18.7333 5.43479 18.7333 5.85875V6.47541C18.7333 6.89937 19.0769 7.24208 19.5 7.24208ZM19.5 31.6087C19.0769 31.6087 18.7333 31.9515 18.7333 32.3754V32.9921C18.7333 33.416 19.0769 33.7588 19.5 33.7588C19.9231 33.7588 20.2667 33.416 20.2667 32.9921V32.3754C20.2667 31.9515 19.9231 31.6087 19.5 31.6087ZM33.0667 18.6587H32.45C32.0269 18.6587 31.6833 19.0015 31.6833 19.4254C31.6833 19.8494 32.0269 20.1921 32.45 20.1921H33.0667C33.4898 20.1921 33.8333 19.8494 33.8333 19.4254C33.8333 19.0015 33.4898 18.6587 33.0667 18.6587ZM6.55 18.6587H5.93333C5.51019 18.6587 5.16667 19.0015 5.16667 19.4254C5.16667 19.8494 5.51019 20.1921 5.93333 20.1921H6.55C6.97314 20.1921 7.31667 19.8494 7.31667 19.4254C7.31667 19.0015 6.97315 18.6587 6.55 18.6587ZM9.80104 28.0403L9.36505 28.4762C9.06536 28.7759 9.06536 29.2606 9.36505 29.5603C9.5145 29.7098 9.71099 29.785 9.9071 29.785C10.1032 29.785 10.2997 29.7098 10.4492 29.5603L10.8851 29.1243C11.1848 28.8247 11.1848 28.3399 10.8851 28.0403C10.5853 27.7405 10.1 27.7413 9.80104 28.0403ZM28.1149 28.0403C27.8152 28.34 27.8152 28.8247 28.1149 29.1244L28.5509 29.5604C28.7003 29.7098 28.8968 29.785 29.0929 29.785C29.289 29.785 29.4855 29.7098 29.635 29.5604C29.9346 29.2607 29.9346 28.776 29.635 28.4763L29.199 28.0403C28.8993 27.7406 28.4146 27.7406 28.1149 28.0403ZM10.4492 9.28984C10.1495 8.99015 9.66475 8.99015 9.36505 9.28984C9.06536 9.58954 9.06536 10.0742 9.36505 10.3739L9.80104 10.8099C9.95048 10.9594 10.147 11.0345 10.3431 11.0345C10.5392 11.0345 10.7357 10.9594 10.8851 10.8099C11.1848 10.5102 11.1848 10.0255 10.8851 9.72583L10.4492 9.28984Z" fill="#FFB000" stroke="#FFB000" stroke-width="0.3"/>
</svg>
