<svg width="36" height="36" viewBox="0 0 36 36" fill="none" xmlns="http://www.w3.org/2000/svg">
<path d="M26.8769 22.2969L26.8764 22.2966C25.9789 21.7029 24.7759 21.8982 24.1123 22.7455L24.112 22.7459L22.2016 25.2021L22.2005 25.2036C22.0001 25.4678 21.6358 25.5445 21.3459 25.3834L21.3455 25.3832L20.9821 25.1829L20.9815 25.1825L20.9779 25.1806C19.785 24.5303 18.298 23.7198 15.2922 20.713C12.2875 17.7072 11.4748 16.219 10.8247 15.0284L10.8221 15.0236L10.822 15.0234L10.6227 14.66L10.6227 14.66L10.6219 14.6585C10.4586 14.3686 10.5338 14.0026 10.7982 13.8006L10.7992 13.7998L13.2539 11.89L13.2543 11.8896C14.1012 11.2261 14.2968 10.0234 13.7038 9.12569L13.7034 9.12514L9.32987 2.56698C8.72186 1.65241 7.50204 1.37787 6.5608 1.94368L3.8196 3.59033C3.81939 3.59046 3.81919 3.59058 3.81898 3.5907C2.92419 4.11696 2.26772 4.96905 1.98718 5.96851L1.98695 5.96935C0.979177 9.64129 1.76191 15.9045 10.9289 25.0725L11.035 24.9665C18.312 32.2429 23.7294 34.1997 27.453 34.1997L27.4523 34.3497C27.4525 34.3497 27.4528 34.3498 27.453 34.3498C28.3232 34.3534 29.1899 34.2402 30.03 34.013L30.0313 34.0127C31.0309 33.7325 31.8831 33.076 32.4091 32.1809C32.4092 32.1807 32.4094 32.1804 32.4095 32.1802L34.0578 29.4407C34.6244 28.4993 34.35 27.2788 33.435 26.6704L26.8769 22.2969ZM32.8704 28.7319L32.8702 28.7322L31.2249 31.4746L31.2241 31.4761C30.8802 32.0646 30.322 32.4974 29.6664 32.6838C26.42 33.5748 20.67 32.8614 11.905 24.0964C3.14008 15.3314 2.42669 9.58195 3.31766 6.33509C3.50435 5.67861 3.93767 5.11963 4.52695 4.77519L4.52695 4.7752L4.52842 4.77432L7.27088 3.12907L7.27105 3.12897C7.58089 2.94254 7.98256 3.03291 8.18271 3.334L8.18281 3.33414L12.5524 9.89147C12.5525 9.89152 12.5525 9.89157 12.5525 9.89162C12.7481 10.1875 12.6838 10.5839 12.4048 10.8029C12.4047 10.803 12.4047 10.803 12.4046 10.803L9.95092 12.7117C9.95076 12.7118 9.95059 12.712 9.95043 12.7121C9.14453 13.3287 8.91435 14.4439 9.41037 15.3292C9.41047 15.3294 9.41058 15.3296 9.41068 15.3297L9.60478 15.6824C9.60483 15.6825 9.60487 15.6826 9.60492 15.6827C10.3009 16.9592 11.1673 18.5456 14.3108 21.6886C17.4542 24.8315 19.0401 25.6979 20.316 26.3938C20.3162 26.3939 20.3163 26.394 20.3164 26.394L20.6696 26.5887C20.6698 26.5888 20.67 26.5889 20.6702 26.589C21.5554 27.0849 22.6705 26.8548 23.2871 26.0491C23.2873 26.0488 23.2875 26.0486 23.2876 26.0484L25.1963 23.5947C25.1964 23.5946 25.1965 23.5945 25.1966 23.5943C25.4156 23.3157 25.8117 23.2515 26.1077 23.4468C26.1078 23.4468 26.1079 23.4469 26.108 23.447L32.6652 27.8202L32.6654 27.8204C32.9667 28.0204 33.057 28.4222 32.8704 28.7319ZM30.5696 16.3811V16.3809C30.5633 10.6348 25.9067 5.97821 20.1606 5.97192H20.1604C19.7794 5.97192 19.4705 6.28079 19.4705 6.66186C19.4705 7.04287 19.7793 7.35171 20.1603 7.3518C25.1448 7.35734 29.1841 11.3968 29.1897 16.3813C29.1898 16.7623 29.4987 17.071 29.8797 17.071C30.2607 17.071 30.5696 16.7622 30.5696 16.3811ZM27.3299 16.3813V16.3812C27.3253 12.4235 24.1182 9.21642 20.1606 9.21189H20.1604C19.7794 9.21189 19.4705 9.52077 19.4705 9.90183C19.4705 10.2828 19.7793 10.5917 20.1603 10.5918C23.3563 10.5955 25.9462 13.1855 25.95 16.3815C25.9501 16.7625 26.259 17.0713 26.6399 17.0713C27.021 17.0713 27.3299 16.7624 27.3299 16.3813ZM24.0901 16.3812V16.381C24.0876 14.2118 22.3298 12.4539 20.1606 12.4515H20.1604C19.7794 12.4515 19.4705 12.7604 19.4705 13.1414C19.4705 13.5224 19.7793 13.8313 20.1603 13.8314C21.5678 13.833 22.7085 14.9737 22.7102 16.3814C22.7103 16.7624 23.0193 17.0711 23.4002 17.0711C23.7812 17.0711 24.0901 16.7623 24.0901 16.3812Z" fill="#FFB000" stroke="#FFB000" stroke-width="0.3"/>
</svg>
