<svg width="22" height="22" viewBox="0 0 22 22" fill="none" xmlns="http://www.w3.org/2000/svg">
<path d="M11 0.95C5.45854 0.95 0.95 5.45823 0.95 11C0.95 16.5418 5.45854 21.05 11 21.05C16.5415 21.05 21.05 16.5418 21.05 11C21.05 5.45823 16.5415 0.95 11 0.95ZM11 19.7192C6.19223 19.7192 2.28077 15.8078 2.28077 11C2.28077 6.19223 6.19223 2.28077 11 2.28077C15.8078 2.28077 19.7192 6.19223 19.7192 11C19.7192 15.8078 15.8078 19.7192 11 19.7192Z" fill="#57AB00" stroke="#57AB00" stroke-width="0.1"/>
<path d="M11.1579 8.09186C11.7539 8.09186 12.2371 7.60867 12.2371 7.01263C12.2371 6.41659 11.7539 5.9334 11.1579 5.9334C10.5619 5.9334 10.0787 6.41659 10.0787 7.01263C10.0787 7.60867 10.5619 8.09186 11.1579 8.09186Z" fill="#57AB00" stroke="#57AB00" stroke-width="0.1"/>
<path d="M10.8886 9.67058C10.5213 9.67058 10.2232 9.96866 10.2232 10.336V15.5667C10.2232 15.934 10.5213 16.2321 10.8886 16.2321C11.2559 16.2321 11.554 15.934 11.554 15.5667V10.336C11.554 9.96834 11.2559 9.67058 10.8886 9.67058Z" fill="#57AB00" stroke="#57AB00" stroke-width="0.1"/>
</svg>
