<svg width="30" height="27" viewBox="0 0 30 27" fill="none" xmlns="http://www.w3.org/2000/svg">
<path d="M15.4827 1.1004L15.4827 1.1004L28.7765 10.8339L28.747 10.8743L28.7766 10.8339C29.1235 11.088 29.1989 11.5752 28.9448 11.9222C28.9448 11.9222 28.9448 11.9222 28.9448 11.9222L28.9044 11.8926C28.7617 12.0876 28.5403 12.1909 28.3159 12.1909C28.1665 12.1909 28.0158 12.1452 27.886 12.0501L15.4827 1.1004ZM15.4827 1.1004C15.2087 0.89987 14.8366 0.899861 14.5627 1.1004C14.5627 1.10041 14.5627 1.10041 14.5627 1.10041L1.26875 10.8339L1.29829 10.8743L1.26875 10.8339C0.921764 11.088 0.846362 11.5752 1.10047 11.9222C1.35456 12.2692 1.84185 12.3445 2.18879 12.0905L2.15925 12.0502L2.18879 12.0905L15.0226 2.69377L27.8565 12.0905L15.4827 1.1004ZM24.4457 12.9438C24.4457 12.5137 24.7944 12.1651 25.2244 12.1651C25.6545 12.1651 26.0031 12.5137 26.0032 12.9438V25.2713C26.0032 25.7014 25.6545 26.05 25.2245 26.05H17.9377C17.5281 26.05 17.1931 25.7335 17.1621 25.3319M24.4457 12.9438L12.8335 25.3281M24.4457 12.9438V24.4925M24.4457 12.9438L24.4957 24.4925H24.4457M17.1621 25.3319C17.1602 25.3136 17.159 25.2938 17.159 25.2713V18.2113C17.159 17.0334 16.2006 16.0749 15.0227 16.0749C13.8448 16.0749 12.8864 17.0333 12.8864 18.2113V25.2713C12.8864 25.2939 12.8852 25.314 12.8833 25.3325M17.1621 25.3319C17.1621 25.3317 17.162 25.3314 17.162 25.3312L17.2119 25.3274L17.1621 25.3326C17.1621 25.3324 17.1621 25.3321 17.1621 25.3319ZM12.8833 25.3325C12.8833 25.3328 12.8833 25.333 12.8833 25.3332L12.8335 25.3281M12.8833 25.3325C12.8833 25.3323 12.8834 25.3321 12.8834 25.3319L12.8335 25.3281M12.8833 25.3325C12.852 25.7339 12.5171 26.05 12.1077 26.05H4.82092C4.39092 26.05 4.04223 25.7014 4.04223 25.2713V12.9438C4.04223 12.5138 4.39092 12.1652 4.82092 12.1652C5.25091 12.1652 5.5996 12.5138 5.5996 12.9438V24.4926M12.8335 25.3281C12.8045 25.7039 12.4909 26 12.1077 26H4.82092C4.41853 26 4.09223 25.6738 4.09223 25.2713V12.9438C4.09223 12.5414 4.41853 12.2152 4.82092 12.2152C5.2233 12.2152 5.5496 12.5414 5.5496 12.9438V24.4926H5.5996M5.5996 24.4926V24.5426H11.329V24.4926M5.5996 24.4926H11.329M11.329 24.4926H11.379V18.2112C11.379 16.2021 13.0136 14.5675 15.0227 14.5675C17.0318 14.5675 18.6664 16.202 18.6664 18.2112V24.4925H18.7164M11.329 24.4926V18.2112C11.329 16.1745 12.986 14.5175 15.0227 14.5175C17.0594 14.5175 18.7164 16.1744 18.7164 18.2112V24.4925M18.7164 24.4925V24.5425H24.4457V24.4925M18.7164 24.4925H24.4457" fill="white" stroke="white" stroke-width="0.1"/>
</svg>
