<svg width="50" height="50" viewBox="0 0 50 50" fill="none" xmlns="http://www.w3.org/2000/svg">
<rect width="50" height="50" rx="25" fill="#E0E0E0"/>
<path fill-rule="evenodd" clip-rule="evenodd" d="M27.9833 28.9769V26.9882C28.4308 26.7664 29.7105 25.2431 29.8447 24.0528C30.1967 24.026 30.7496 23.7028 30.9127 22.427C31.0002 21.7419 30.6522 21.3571 30.4413 21.2358C30.4413 21.2358 30.9664 20.2384 30.9664 19.0343C30.9664 16.62 30.0187 14.5597 27.9833 14.5597C27.9833 14.5597 27.2763 13.0681 25.0002 13.0681C20.7821 13.0681 19.034 15.7738 19.034 19.0343C19.034 20.132 19.559 21.2358 19.559 21.2358C19.3483 21.3571 19.0002 21.7429 19.0877 22.427C19.2508 23.7028 19.8037 24.026 20.1557 24.0528C20.2899 25.2431 21.5697 26.7664 22.0171 26.9882V28.9769C21.0227 31.9599 13.0679 29.9713 13.0679 36.9318H36.9324C36.9324 29.9713 28.9776 31.9599 27.9833 28.9769Z" fill="white"/>
</svg>
