<svg width="13" height="10" viewBox="0 0 13 10" fill="none" xmlns="http://www.w3.org/2000/svg">
<path d="M0.271614 0.79107C2.05581 2.30209 5.18652 4.96044 6.10668 5.78932C6.2302 5.90119 6.36269 5.95806 6.50023 5.95806C6.63749 5.95806 6.76975 5.90172 6.893 5.79038C7.81394 4.96069 10.9447 2.30209 12.7289 0.79107C12.84 0.697176 12.8569 0.532137 12.767 0.417346C12.5591 0.15209 12.2491 0 11.9169 0H1.08358C0.751394 0 0.441401 0.15209 0.233528 0.417371C0.143594 0.532137 0.16053 0.697176 0.271614 0.79107Z" fill="#FFB000"/>
<path d="M12.843 1.60984C12.747 1.56516 12.634 1.58075 12.5542 1.649C11.3857 2.63948 9.8461 3.94817 8.68501 4.94686C8.62392 4.99924 8.58954 5.0762 8.59086 5.15686C8.59218 5.23728 8.62948 5.31317 8.69242 5.36342C9.77127 6.22749 11.3971 7.4161 12.5711 8.26087C12.6179 8.29471 12.6735 8.3119 12.7293 8.3119C12.7716 8.3119 12.8139 8.30213 12.8528 8.28202C12.9433 8.23573 13.0001 8.14262 13.0001 8.04106V1.85555C13.0001 1.75003 12.9387 1.65402 12.843 1.60984Z" fill="#FFB000"/>
<path d="M0.429 8.26076C1.60332 7.41599 3.22938 6.2274 4.30795 5.36331C4.37089 5.31306 4.40819 5.23714 4.40951 5.15675C4.41083 5.07609 4.37645 4.99913 4.31537 4.94675C3.15425 3.94806 1.61441 2.63937 0.445936 1.64889C0.365523 1.58064 0.252332 1.56558 0.157117 1.60973C0.0613691 1.65391 0 1.74991 0 1.85544V8.04098C0 8.14254 0.056875 8.23565 0.147316 8.28193C0.186189 8.30204 0.228516 8.31182 0.270842 8.31182C0.32665 8.31182 0.38218 8.29463 0.429 8.26076Z" fill="#FFB000"/>
<path d="M12.6679 8.99769C11.534 8.1865 9.44536 6.67418 8.19858 5.66224C8.09702 5.57946 7.94995 5.5821 7.84999 5.66833C7.60535 5.88176 7.40063 6.06163 7.25542 6.19227C6.80948 6.59481 6.19059 6.59481 5.74361 6.19173C5.59893 6.06135 5.39424 5.88095 5.14957 5.6683C5.0504 5.58154 4.90308 5.5789 4.80124 5.66221C3.55867 6.6707 1.46765 8.18488 0.331954 8.99766C0.268731 9.04316 0.228005 9.11324 0.220083 9.19073C0.212415 9.26822 0.238059 9.34518 0.291227 9.40231C0.496231 9.62319 0.78505 9.74988 1.08314 9.74988H11.9165C12.2146 9.74988 12.5031 9.62319 12.7086 9.40234C12.7615 9.34546 12.7874 9.2685 12.7798 9.19101C12.7718 9.11354 12.7311 9.04319 12.6679 8.99769Z" fill="#FFB000"/>
</svg>
