<svg width="11" height="13" viewBox="0 0 11 13" fill="none" xmlns="http://www.w3.org/2000/svg">
<path fill-rule="evenodd" clip-rule="evenodd" d="M5.25 12.8333C5.25 12.8333 10.5 9.33333 10.5 5.25C10.5 3.85761 9.94688 2.52225 8.96231 1.53769C7.97774 0.553123 6.64239 0 5.25 0C3.85761 0 2.52225 0.553123 1.53769 1.53769C0.553123 2.52225 0 3.85761 0 5.25C0 9.33333 5.25 12.8333 5.25 12.8333ZM5.24988 7.50553C6.53854 7.50553 7.58321 6.46086 7.58321 5.1722C7.58321 3.88353 6.53854 2.83887 5.24988 2.83887C3.96121 2.83887 2.91654 3.88353 2.91654 5.1722C2.91654 6.46086 3.96121 7.50553 5.24988 7.50553Z" fill="#FFB000"/>
</svg>
