<svg width="12" height="12" viewBox="0 0 12 12" fill="none" xmlns="http://www.w3.org/2000/svg">
<path d="M11.6014 8.70339V10.4534C11.6021 10.6158 11.5688 10.7767 11.5037 10.9255C11.4386 11.0744 11.3432 11.208 11.2234 11.3178C11.1037 11.4276 10.9624 11.5113 10.8085 11.5633C10.6546 11.6153 10.4915 11.6347 10.3297 11.6201C8.53472 11.425 6.81048 10.8116 5.29557 9.82922C3.88613 8.93361 2.69118 7.73866 1.79557 6.32922C0.809722 4.80743 0.19621 3.0748 0.00473475 1.27172C-0.00984246 1.11041 0.00932845 0.947833 0.0610266 0.794337C0.112725 0.640842 0.195818 0.499792 0.305015 0.380169C0.414212 0.260546 0.547121 0.16497 0.695279 0.0995277C0.843438 0.0340851 1.0036 0.000209085 1.16557 5.65555e-05H2.91557C3.19866 -0.0027297 3.47311 0.0975191 3.68776 0.282117C3.90241 0.466715 4.04261 0.723067 4.08223 1.00339C4.1561 1.56343 4.29308 2.11331 4.49057 2.64256C4.56905 2.85135 4.58604 3.07826 4.53951 3.2964C4.49299 3.51455 4.3849 3.71479 4.22807 3.87339L3.48723 4.61422C4.31764 6.07462 5.52683 7.28382 6.98723 8.11422L7.72807 7.37339C7.88667 7.21655 8.08691 7.10847 8.30505 7.06194C8.5232 7.01542 8.75011 7.03241 8.9589 7.11089C9.48814 7.30838 10.038 7.44536 10.5981 7.51922C10.8814 7.5592 11.1402 7.70193 11.3252 7.92026C11.5102 8.1386 11.6085 8.41731 11.6014 8.70339Z" fill="#FFB000"/>
</svg>
