<svg width="13" height="13" viewBox="0 0 13 13" fill="none" xmlns="http://www.w3.org/2000/svg">
<path d="M6.5 0C2.91031 0 0 2.91031 0 6.5C0 10.0897 2.91031 13 6.5 13C10.0897 13 13 10.0897 13 6.5C13 2.91031 10.0897 0 6.5 0ZM9.5 7.5H6.5C6.36739 7.5 6.24021 7.44732 6.14645 7.35355C6.05268 7.25979 6 7.13261 6 7V2.5C6 2.36739 6.05268 2.24021 6.14645 2.14645C6.24021 2.05268 6.36739 2 6.5 2C6.63261 2 6.75979 2.05268 6.85355 2.14645C6.94732 2.24021 7 2.36739 7 2.5V6.5H9.5C9.63261 6.5 9.75979 6.55268 9.85355 6.64645C9.94732 6.74021 10 6.86739 10 7C10 7.13261 9.94732 7.25979 9.85355 7.35355C9.75979 7.44732 9.63261 7.5 9.5 7.5Z" fill="#FFB000"/>
</svg>
