<svg width="178" height="70" viewBox="0 0 178 70" fill="none" xmlns="http://www.w3.org/2000/svg">
<path d="M0 0H178V70H0V0Z" fill="#FFB000"/>
<mask id="mask0" mask-type="alpha" maskUnits="userSpaceOnUse" x="0" y="0" width="178" height="70">
<path d="M0 0H143C162.33 0 178 15.67 178 35C178 54.33 162.33 70 143 70H0V0Z" fill="#FFB000"/>
</mask>
<g mask="url(#mask0)">
<g opacity="0.15">
<path d="M8.39519 16.3151C7.81918 16.5248 7.27593 16.4836 6.76542 16.1917C6.26007 15.8887 5.8819 15.3924 5.63091 14.7028C5.37992 14.0132 5.35208 13.394 5.54738 12.8452C5.74785 12.2853 6.13608 11.9005 6.71209 11.6908C7.27998 11.4841 7.81918 11.5268 8.32969 11.8187C8.8402 12.1106 9.22243 12.6055 9.47637 13.3032C9.73031 14.0009 9.75557 14.6256 9.55216 15.1774C9.34874 15.7292 8.96309 16.1084 8.39519 16.3151ZM11.894 9.8737L12.6119 9.61237L9.89553 20.248L9.17755 20.5093L11.894 9.8737ZM8.19588 15.7675C8.5934 15.6228 8.8537 15.3535 8.97676 14.9596C9.10498 14.5546 9.0687 14.0763 8.86791 13.5246C8.66712 12.973 8.38893 12.5873 8.03334 12.3676C7.68291 12.1368 7.30893 12.0938 6.9114 12.2384C6.50576 12.3861 6.24289 12.6609 6.12278 13.063C6.00267 13.465 6.04153 13.9378 6.23937 14.4813C6.43721 15.0249 6.71134 15.4121 7.06177 15.6428C7.4122 15.8736 7.79024 15.9151 8.19588 15.7675ZM15.0774 18.4308C14.5095 18.6375 13.9703 18.5949 13.4598 18.3029C12.9463 18.0029 12.5641 17.5081 12.3131 16.8185C12.0621 16.1289 12.0384 15.5082 12.2418 14.9564C12.4422 14.3965 12.8264 14.0132 13.3943 13.8065C13.9703 13.5969 14.511 13.6436 15.0163 13.9466C15.5268 14.2385 15.9076 14.7293 16.1586 15.4189C16.4096 16.1084 16.4348 16.7332 16.2344 17.2931C16.0391 17.8419 15.6534 18.2212 15.0774 18.4308ZM14.8781 17.8832C15.2837 17.7356 15.5466 17.4607 15.6667 17.0587C15.7868 16.6567 15.748 16.1839 15.5501 15.6403C15.3523 15.0968 15.0782 14.7096 14.7277 14.4788C14.3773 14.2481 13.9993 14.2065 13.5936 14.3541C13.1961 14.4988 12.9332 14.7737 12.805 15.1786C12.6819 15.5726 12.7208 16.0454 12.9216 16.597C13.1224 17.1487 13.398 17.5399 13.7484 17.7707C14.104 17.9904 14.4806 18.0279 14.8781 17.8832Z" fill="white"/>
<path d="M34.2551 6.90301C33.679 7.11266 33.1358 7.07152 32.6253 6.77958C32.1199 6.47657 31.7418 5.98027 31.4908 5.29069C31.2398 4.6011 31.2119 3.98189 31.4072 3.43305C31.6077 2.87315 31.9959 2.48838 32.572 2.27873C33.1398 2.07203 33.679 2.11465 34.1896 2.40659C34.7001 2.69854 35.0823 3.19336 35.3362 3.89105C35.5902 4.58875 35.6154 5.2135 35.412 5.76529C35.2086 6.31707 34.8229 6.69632 34.2551 6.90301ZM37.7538 0.461586L38.4718 0.200262L35.7554 10.8358L35.0374 11.0972L37.7538 0.461586ZM34.0557 6.3554C34.4533 6.21071 34.7136 5.94141 34.8366 5.54749C34.9648 5.14251 34.9286 4.66418 34.7278 4.11251C34.527 3.56085 34.2488 3.17516 33.8932 2.95546C33.5428 2.72469 33.1688 2.68165 32.7713 2.82634C32.3656 2.97398 32.1028 3.24882 31.9826 3.65085C31.8625 4.05288 31.9014 4.52567 32.0992 5.06923C32.2971 5.61278 32.5712 5.99994 32.9216 6.23071C33.2721 6.46148 33.6501 6.50304 34.0557 6.3554ZM40.9373 9.01871C40.3694 9.2254 39.8302 9.18278 39.3197 8.89084C38.8062 8.59079 38.424 8.09597 38.173 7.40638C37.922 6.71679 37.8982 6.09611 38.1016 5.54432C38.3021 4.98442 38.6863 4.60112 39.2542 4.39442C39.8302 4.18477 40.3709 4.23145 40.8762 4.53446C41.3867 4.8264 41.7675 5.31716 42.0184 6.00675C42.2694 6.69633 42.2947 7.32108 42.0942 7.88098C41.8989 8.42981 41.5133 8.80906 40.9373 9.01871ZM40.738 8.47109C41.1436 8.32345 41.4065 8.04862 41.5266 7.64659C41.6467 7.24456 41.6078 6.77176 41.41 6.22821C41.2122 5.68465 40.938 5.29749 40.5876 5.06672C40.2372 4.83596 39.8591 4.79439 39.4535 4.94203C39.056 5.08672 38.7931 5.36156 38.6649 5.76654C38.5418 6.16046 38.5807 6.63325 38.7814 7.18492C38.9822 7.73659 39.2578 8.12781 39.6083 8.35857C39.9639 8.57827 40.3404 8.61578 40.738 8.47109Z" fill="white"/>
<path d="M60.1144 -2.5091C59.5384 -2.29945 58.9952 -2.34059 58.4847 -2.63253C57.9793 -2.93554 57.6011 -3.43184 57.3501 -4.12142C57.0992 -4.81101 57.0713 -5.43022 57.2666 -5.97906C57.4671 -6.53896 57.8553 -6.92373 58.4313 -7.13338C58.9992 -7.34008 59.5384 -7.29746 60.0489 -7.00552C60.5594 -6.71357 60.9417 -6.21875 61.1956 -5.52106C61.4495 -4.82336 61.4748 -4.19861 61.2714 -3.64682C61.068 -3.09504 60.6823 -2.71579 60.1144 -2.5091ZM63.6132 -8.95052L64.3312 -9.21185L61.6148 1.42374L60.8968 1.68506L63.6132 -8.95052ZM59.9151 -3.05671C60.3126 -3.2014 60.5729 -3.4707 60.696 -3.86462C60.8242 -4.2696 60.7879 -4.74793 60.5871 -5.29959C60.3864 -5.85126 60.1082 -6.23695 59.7526 -6.45665C59.4021 -6.68742 59.0282 -6.73046 58.6306 -6.58577C58.225 -6.43813 57.9621 -6.16329 57.842 -5.76126C57.7219 -5.35923 57.7608 -4.88644 57.9586 -4.34288C58.1564 -3.79933 58.4306 -3.41217 58.781 -3.1814C59.1314 -2.95063 59.5095 -2.90907 59.9151 -3.05671ZM66.7966 -0.393404C66.2287 -0.186707 65.6895 -0.229329 65.179 -0.52127C64.6656 -0.821324 64.2834 -1.31614 64.0324 -2.00573C63.7814 -2.69532 63.7576 -3.316 63.961 -3.86779C64.1615 -4.42769 64.5456 -4.81099 65.1135 -5.01769C65.6895 -5.22734 66.2302 -5.18066 66.7356 -4.87765C67.2461 -4.58571 67.6268 -4.09495 67.8778 -3.40536C68.1288 -2.71578 68.1541 -2.09103 67.9536 -1.53113C67.7583 -0.982296 67.3727 -0.603054 66.7966 -0.393404ZM66.5973 -0.941017C67.003 -1.08866 67.2658 -1.36349 67.386 -1.76552C67.5061 -2.16755 67.4672 -2.64035 67.2694 -3.1839C67.0715 -3.72746 66.7974 -4.11462 66.447 -4.34539C66.0965 -4.57615 65.7185 -4.61772 65.3129 -4.47008C64.9153 -4.32539 64.6525 -4.05055 64.5242 -3.64557C64.4012 -3.25165 64.44 -2.77886 64.6408 -2.22719C64.8416 -1.67552 65.1172 -1.2843 65.4677 -1.05354C65.8232 -0.833836 66.1998 -0.796329 66.5973 -0.941017Z" fill="white"/>
<path d="M-6.39094 56.1501C-6.96695 56.3597 -7.51021 56.3186 -8.02072 56.0266C-8.52606 55.7236 -8.90423 55.2273 -9.15522 54.5378C-9.40621 53.8482 -9.43405 53.229 -9.23875 52.6801C-9.03829 52.1202 -8.65005 51.7354 -8.07404 51.5258C-7.50615 51.3191 -6.96695 51.3617 -6.45644 51.6537C-5.94593 51.9456 -5.56371 52.4404 -5.30976 53.1381C-5.05582 53.8358 -5.03056 54.4606 -5.23398 55.0124C-5.43739 55.5641 -5.82305 55.9434 -6.39094 56.1501ZM-2.89217 49.7087L-2.17419 49.4473L-4.8906 60.0829L-5.60858 60.3442L-2.89217 49.7087ZM-6.59026 55.6025C-6.19273 55.4578 -5.93244 55.1885 -5.80937 54.7946C-5.68115 54.3896 -5.71743 53.9113 -5.91822 53.3596C-6.11901 52.8079 -6.3972 52.4222 -6.75279 52.2025C-7.10323 51.9718 -7.4772 51.9287 -7.87473 52.0734C-8.28037 52.2211 -8.54324 52.4959 -8.66335 52.8979C-8.78347 53.2999 -8.7446 53.7727 -8.54676 54.3163C-8.34893 54.8599 -8.07479 55.247 -7.72436 55.4778C-7.37393 55.7085 -6.9959 55.7501 -6.59026 55.6025ZM0.291273 58.2658C-0.276622 58.4725 -0.815823 58.4299 -1.32633 58.1379C-1.83979 57.8379 -2.22202 57.343 -2.47301 56.6534C-2.724 55.9639 -2.74778 55.3432 -2.54437 54.7914C-2.3439 54.2315 -1.95972 53.8482 -1.39183 53.6415C-0.815822 53.4318 -0.275144 53.4785 0.230205 53.7815C0.740713 54.0735 1.12146 54.5642 1.37245 55.2538C1.62344 55.9434 1.6487 56.5681 1.44824 57.128C1.25294 57.6769 0.86728 58.0561 0.291273 58.2658ZM0.0919579 57.7182C0.497597 57.5705 0.760472 57.2957 0.880583 56.8937C1.00069 56.4916 0.961831 56.0188 0.763992 55.4753C0.566154 54.9317 0.29202 54.5446 -0.0584108 54.3138C-0.408841 54.083 -0.786876 54.0415 -1.19251 54.1891C-1.59004 54.3338 -1.85292 54.6086 -1.98114 55.0136C-2.1042 55.4075 -2.06534 55.8803 -1.86455 56.432C-1.66376 56.9837 -1.38815 57.3749 -1.03772 57.6056C-0.682126 57.8253 -0.305568 57.8629 0.0919579 57.7182Z" fill="white"/>
<path d="M19.4684 46.738C18.8924 46.9476 18.3492 46.9065 17.8387 46.6145C17.3333 46.3115 16.9551 45.8152 16.7042 45.1256C16.4532 44.4361 16.4253 43.8169 16.6206 43.268C16.8211 42.7081 17.2093 42.3233 17.7853 42.1137C18.3532 41.907 18.8924 41.9496 19.4029 42.2416C19.9134 42.5335 20.2957 43.0283 20.5496 43.726C20.8036 44.4237 20.8288 45.0485 20.6254 45.6002C20.422 46.152 20.0363 46.5313 19.4684 46.738ZM22.9672 40.2965L23.6852 40.0352L20.9688 50.6708L20.2508 50.9321L22.9672 40.2965ZM19.2691 46.1904C19.6666 46.0457 19.9269 45.7764 20.05 45.3825C20.1782 44.9775 20.1419 44.4991 19.9412 43.9475C19.7404 43.3958 19.4622 43.0101 19.1066 42.7904C18.7561 42.5597 18.3822 42.5166 17.9846 42.6613C17.579 42.8089 17.3161 43.0838 17.196 43.4858C17.0759 43.8878 17.1148 44.3606 17.3126 44.9042C17.5104 45.4477 17.7846 45.8349 18.135 46.0657C18.4854 46.2964 18.8635 46.338 19.2691 46.1904ZM26.1506 48.8537C25.5828 49.0604 25.0436 49.0177 24.533 48.7258C24.0196 48.4257 23.6374 47.9309 23.3864 47.2413C23.1354 46.5518 23.1116 45.9311 23.315 45.3793C23.5155 44.8194 23.8997 44.4361 24.4675 44.2294C25.0436 44.0197 25.5842 44.0664 26.0896 44.3694C26.6001 44.6614 26.9808 45.1521 27.2318 45.8417C27.4828 46.5313 27.5081 47.156 27.3076 47.7159C27.1123 48.2648 26.7267 48.644 26.1506 48.8537ZM25.9513 48.3061C26.357 48.1584 26.6198 47.8836 26.74 47.4815C26.8601 47.0795 26.8212 46.6067 26.6234 46.0632C26.4255 45.5196 26.1514 45.1325 25.801 44.9017C25.4505 44.6709 25.0725 44.6294 24.6669 44.777C24.2693 44.9217 24.0065 45.1965 23.8782 45.6015C23.7552 45.9954 23.794 46.4682 23.9948 47.0199C24.1956 47.5715 24.4712 47.9628 24.8217 48.1935C25.1772 48.4132 25.5538 48.4507 25.9513 48.3061Z" fill="white"/>
<path d="M45.3283 37.3259C44.7523 37.5355 44.209 37.4944 43.6985 37.2024C43.1932 36.8994 42.815 36.4031 42.564 35.7135C42.313 35.024 42.2852 34.4047 42.4805 33.8559C42.681 33.296 43.0692 32.9112 43.6452 32.7016C44.2131 32.4949 44.7523 32.5375 45.2628 32.8294C45.7733 33.1214 46.1555 33.6162 46.4095 34.3139C46.6634 35.0116 46.6887 35.6363 46.4853 36.1881C46.2818 36.7399 45.8962 37.1192 45.3283 37.3259ZM48.8271 30.8844L49.545 30.6231L46.8286 41.2587L46.1107 41.52L48.8271 30.8844ZM45.129 36.7783C45.5265 36.6336 45.7868 36.3643 45.9099 35.9703C46.0381 35.5654 46.0018 35.087 45.801 34.5354C45.6002 33.9837 45.322 33.598 44.9664 33.3783C44.616 33.1475 44.242 33.1045 43.8445 33.2492C43.4389 33.3968 43.176 33.6717 43.0559 34.0737C42.9358 34.4757 42.9746 34.9485 43.1725 35.4921C43.3703 36.0356 43.6444 36.4228 43.9949 36.6536C44.3453 36.8843 44.7233 36.9259 45.129 36.7783ZM52.0105 39.4416C51.4426 39.6483 50.9034 39.6056 50.3929 39.3137C49.8794 39.0136 49.4972 38.5188 49.2462 37.8292C48.9952 37.1396 48.9715 36.519 49.1749 35.9672C49.3753 35.4073 49.7595 35.024 50.3274 34.8173C50.9034 34.6076 51.4441 34.6543 51.9494 34.9573C52.46 35.2492 52.8407 35.74 53.0917 36.4296C53.3427 37.1192 53.3679 37.7439 53.1675 38.3038C52.9722 38.8527 52.5865 39.2319 52.0105 39.4416ZM51.8112 38.8939C52.2168 38.7463 52.4797 38.4715 52.5998 38.0694C52.7199 37.6674 52.6811 37.1946 52.4832 36.6511C52.2854 36.1075 52.0113 35.7203 51.6608 35.4896C51.3104 35.2588 50.9324 35.2172 50.5267 35.3649C50.1292 35.5096 49.8663 35.7844 49.7381 36.1894C49.615 36.5833 49.6539 37.0561 49.8547 37.6078C50.0555 38.1594 50.3311 38.5507 50.6815 38.7814C51.0371 39.0011 51.4137 39.0386 51.8112 38.8939Z" fill="white"/>
<path d="M71.1877 27.9138C70.6117 28.1234 70.0684 28.0823 69.5579 27.7903C69.0525 27.4873 68.6744 26.991 68.4234 26.3014C68.1724 25.6118 68.1446 24.9926 68.3399 24.4438C68.5403 23.8839 68.9286 23.4991 69.5046 23.2895C70.0725 23.0828 70.6117 23.1254 71.1222 23.4173C71.6327 23.7093 72.0149 24.2041 72.2688 24.9018C72.5228 25.5995 72.5481 26.2242 72.3446 26.776C72.1412 27.3278 71.7556 27.7071 71.1877 27.9138ZM74.6864 21.4723L75.4044 21.211L72.688 31.8466L71.97 32.1079L74.6864 21.4723ZM70.9884 27.3661C71.3859 27.2215 71.6462 26.9522 71.7692 26.5582C71.8975 26.1533 71.8612 25.6749 71.6604 25.1233C71.4596 24.5716 71.1814 24.1859 70.8258 23.9662C70.4754 23.7354 70.1014 23.6924 69.7039 23.8371C69.2982 23.9847 69.0354 24.2596 68.9153 24.6616C68.7951 25.0636 68.834 25.5364 69.0318 26.08C69.2297 26.6235 69.5038 27.0107 69.8543 27.2415C70.2047 27.4722 70.5827 27.5138 70.9884 27.3661ZM77.8699 30.0294C77.302 30.2361 76.7628 30.1935 76.2523 29.9016C75.7388 29.6015 75.3566 29.1067 75.1056 28.4171C74.8546 27.7275 74.8308 27.1068 75.0342 26.5551C75.2347 25.9952 75.6189 25.6119 76.1868 25.4052C76.7628 25.1955 77.3035 25.2422 77.8088 25.5452C78.3193 25.8371 78.7001 26.3279 78.9511 27.0175C79.2021 27.7071 79.2273 28.3318 79.0269 28.8917C78.8315 29.4406 78.4459 29.8198 77.8699 30.0294ZM77.6706 29.4818C78.0762 29.3342 78.3391 29.0594 78.4592 28.6573C78.5793 28.2553 78.5404 27.7825 78.3426 27.2389C78.1448 26.6954 77.8706 26.3082 77.5202 26.0775C77.1698 25.8467 76.7917 25.8051 76.3861 25.9528C75.9886 26.0975 75.7257 26.3723 75.5975 26.7773C75.4744 27.1712 75.5133 27.644 75.7141 28.1957C75.9149 28.7473 76.1905 29.1385 76.5409 29.3693C76.8965 29.589 77.273 29.6265 77.6706 29.4818Z" fill="white"/>
<path d="M30.5412 77.1611C29.9652 77.3707 29.4219 77.3296 28.9114 77.0376C28.4061 76.7346 28.0279 76.2383 27.7769 75.5487C27.5259 74.8592 27.4981 74.2399 27.6934 73.6911C27.8938 73.1312 28.2821 72.7464 28.8581 72.5368C29.426 72.3301 29.9652 72.3727 30.4757 72.6647C30.9862 72.9566 31.3684 73.4514 31.6224 74.1491C31.8763 74.8468 31.9016 75.4716 31.6982 76.0233C31.4947 76.5751 31.1091 76.9544 30.5412 77.1611ZM34.04 70.7196L34.7579 70.4583L32.0415 81.0939L31.3235 81.3552L34.04 70.7196ZM30.3419 76.6135C30.7394 76.4688 30.9997 76.1995 31.1228 75.8055C31.251 75.4006 31.2147 74.9222 31.0139 74.3706C30.8131 73.8189 30.5349 73.4332 30.1793 73.2135C29.8289 72.9827 29.4549 72.9397 29.0574 73.0844C28.6518 73.232 28.3889 73.5069 28.2688 73.9089C28.1487 74.3109 28.1875 74.7837 28.3854 75.3273C28.5832 75.8708 28.8573 76.258 29.2078 76.4888C29.5582 76.7195 29.9362 76.7611 30.3419 76.6135ZM37.2234 79.2768C36.6555 79.4835 36.1163 79.4408 35.6058 79.1489C35.0923 78.8488 34.7101 78.354 34.4591 77.6644C34.2081 76.9748 34.1843 76.3542 34.3878 75.8024C34.5882 75.2425 34.9724 74.8592 35.5403 74.6525C36.1163 74.4428 36.657 74.4895 37.1623 74.7925C37.6728 75.0845 38.0536 75.5752 38.3046 76.2648C38.5556 76.9544 38.5808 77.5791 38.3804 78.139C38.1851 78.6879 37.7994 79.0671 37.2234 79.2768ZM37.0241 78.7291C37.4297 78.5815 37.6926 78.3067 37.8127 77.9046C37.9328 77.5026 37.894 77.0298 37.6961 76.4863C37.4983 75.9427 37.2241 75.5555 36.8737 75.3248C36.5233 75.094 36.1453 75.0524 35.7396 75.2001C35.3421 75.3448 35.0792 75.6196 34.951 76.0246C34.8279 76.4185 34.8668 76.8913 35.0676 77.443C35.2684 77.9946 35.544 78.3859 35.8944 78.6166C36.25 78.8363 36.6266 78.8738 37.0241 78.7291Z" fill="white"/>
<path d="M56.4006 67.7487C55.8246 67.9584 55.2813 67.9172 54.7708 67.6253C54.2654 67.3223 53.8873 66.826 53.6363 66.1364C53.3853 65.4468 53.3575 64.8276 53.5528 64.2788C53.7532 63.7189 54.1415 63.3341 54.7175 63.1244C55.2854 62.9177 55.8246 62.9604 56.3351 63.2523C56.8456 63.5442 57.2278 64.0391 57.4817 64.7368C57.7357 65.4345 57.7609 66.0592 57.5575 66.611C57.3541 67.1628 56.9685 67.542 56.4006 67.7487ZM59.8993 61.3073L60.6173 61.046L57.9009 71.6815L57.1829 71.9429L59.8993 61.3073ZM56.2012 67.2011C56.5988 67.0564 56.8591 66.7871 56.9821 66.3932C57.1104 65.9882 57.0741 65.5099 56.8733 64.9582C56.6725 64.4065 56.3943 64.0209 56.0387 63.8012C55.6883 63.5704 55.3143 63.5274 54.9168 63.672C54.5111 63.8197 54.2483 64.0945 54.1281 64.4965C54.008 64.8986 54.0469 65.3714 54.2447 65.9149C54.4426 66.4585 54.7167 66.8456 55.0671 67.0764C55.4176 67.3072 55.7956 67.3487 56.2012 67.2011ZM63.0828 69.8644C62.5149 70.0711 61.9757 70.0285 61.4652 69.7365C60.9517 69.4365 60.5695 68.9417 60.3185 68.2521C60.0675 67.5625 60.0437 66.9418 60.2471 66.39C60.4476 65.8301 60.8318 65.4468 61.3997 65.2401C61.9757 65.0305 62.5164 65.0772 63.0217 65.3802C63.5322 65.6721 63.913 66.1629 64.164 66.8524C64.4149 67.542 64.4402 68.1668 64.2397 68.7267C64.0444 69.2755 63.6588 69.6548 63.0828 69.8644ZM62.8835 69.3168C63.2891 69.1692 63.552 68.8943 63.6721 68.4923C63.7922 68.0903 63.7533 67.6175 63.5555 67.0739C63.3577 66.5304 63.0835 66.1432 62.7331 65.9124C62.3827 65.6817 62.0046 65.6401 61.599 65.7877C61.2015 65.9324 60.9386 66.2073 60.8104 66.6122C60.6873 67.0062 60.7262 67.479 60.927 68.0306C61.1277 68.5823 61.4034 68.9735 61.7538 69.2043C62.1094 69.424 62.4859 69.4615 62.8835 69.3168Z" fill="white"/>
<path d="M82.2604 58.3366C81.6844 58.5463 81.1412 58.5051 80.6307 58.2132C80.1253 57.9102 79.7471 57.4139 79.4961 56.7243C79.2452 56.0347 79.2173 55.4155 79.4126 54.8666C79.6131 54.3067 80.0013 53.922 80.5773 53.7123C81.1452 53.5056 81.6844 53.5482 82.1949 53.8402C82.7054 54.1321 83.0877 54.6269 83.3416 55.3246C83.5955 56.0223 83.6208 56.6471 83.4174 57.1989C83.214 57.7507 82.8283 58.1299 82.2604 58.3366ZM85.7592 51.8952L86.4772 51.6339L83.7608 62.2694L83.0428 62.5308L85.7592 51.8952ZM82.0611 57.789C82.4586 57.6443 82.7189 57.375 82.842 56.9811C82.9702 56.5761 82.9339 56.0978 82.7331 55.5461C82.5324 54.9944 82.2542 54.6088 81.8986 54.3891C81.5481 54.1583 81.1742 54.1152 80.7766 54.2599C80.371 54.4076 80.1081 54.6824 79.988 55.0844C79.8679 55.4865 79.9068 55.9593 80.1046 56.5028C80.3024 57.0464 80.5766 57.4335 80.927 57.6643C81.2774 57.8951 81.6555 57.9366 82.0611 57.789ZM88.9426 60.4523C88.3747 60.659 87.8355 60.6164 87.325 60.3244C86.8116 60.0244 86.4293 59.5296 86.1784 58.84C85.9274 58.1504 85.9036 57.5297 86.107 56.9779C86.3075 56.418 86.6916 56.0347 87.2595 55.828C87.8355 55.6184 88.3762 55.665 88.8816 55.968C89.3921 56.26 89.7728 56.7508 90.0238 57.4403C90.2748 58.1299 90.3001 58.7547 90.0996 59.3146C89.9043 59.8634 89.5186 60.2426 88.9426 60.4523ZM88.7433 59.9047C89.149 59.757 89.4118 59.4822 89.532 59.0802C89.6521 58.6782 89.6132 58.2054 89.4154 57.6618C89.2175 57.1182 88.9434 56.7311 88.593 56.5003C88.2425 56.2695 87.8645 56.228 87.4589 56.3756C87.0613 56.5203 86.7985 56.7951 86.6702 57.2001C86.5472 57.594 86.586 58.0668 86.7868 58.6185C86.9876 59.1702 87.2632 59.5614 87.6137 59.7922C87.9692 60.0119 88.3458 60.0494 88.7433 59.9047Z" fill="white"/>
<path d="M97.047 18.5016C96.471 18.7113 95.9278 18.6701 95.4173 18.3782C94.9119 18.0752 94.5338 17.5789 94.2828 16.8893C94.0318 16.1997 94.0039 15.5805 94.1992 15.0317C94.3997 14.4718 94.7879 14.087 95.3639 13.8774C95.9318 13.6707 96.471 13.7133 96.9815 14.0052C97.4921 14.2972 97.8743 14.792 98.1282 15.4897C98.3822 16.1874 98.4074 16.8121 98.204 17.3639C98.0006 17.9157 97.6149 18.2949 97.047 18.5016ZM100.546 12.0602L101.264 11.7989L98.5474 22.4345L97.8294 22.6958L100.546 12.0602ZM96.8477 17.954C97.2453 17.8093 97.5056 17.54 97.6286 17.1461C97.7568 16.7411 97.7206 16.2628 97.5198 15.7111C97.319 15.1595 97.0408 14.7738 96.6852 14.5541C96.3348 14.3233 95.9608 14.2803 95.5633 14.425C95.1576 14.5726 94.8947 14.8474 94.7746 15.2495C94.6545 15.6515 94.6934 16.1243 94.8912 16.6679C95.0891 17.2114 95.3632 17.5986 95.7136 17.8293C96.0641 18.0601 96.4421 18.1017 96.8477 17.954ZM103.729 20.6173C103.161 20.824 102.622 20.7814 102.112 20.4895C101.598 20.1894 101.216 19.6946 100.965 19.005C100.714 18.3154 100.69 17.6947 100.894 17.1429C101.094 16.583 101.478 16.1998 102.046 15.9931C102.622 15.7834 103.163 15.8301 103.668 16.1331C104.179 16.425 104.559 16.9158 104.81 17.6054C105.061 18.295 105.087 18.9197 104.886 19.4796C104.691 20.0284 104.305 20.4077 103.729 20.6173ZM103.53 20.0697C103.936 19.9221 104.198 19.6472 104.319 19.2452C104.439 18.8432 104.4 18.3704 104.202 17.8268C104.004 17.2833 103.73 16.8961 103.38 16.6654C103.029 16.4346 102.651 16.393 102.245 16.5407C101.848 16.6854 101.585 16.9602 101.457 17.3652C101.334 17.7591 101.373 18.2319 101.573 18.7836C101.774 19.3352 102.05 19.7264 102.4 19.9572C102.756 20.1769 103.132 20.2144 103.53 20.0697Z" fill="white"/>
<path d="M122.906 9.09002C122.33 9.29967 121.787 9.25853 121.277 8.96659C120.771 8.66358 120.393 8.16728 120.142 7.4777C119.891 6.78811 119.863 6.1689 120.059 5.62007C120.259 5.06016 120.647 4.67539 121.223 4.46574C121.791 4.25904 122.33 4.30166 122.841 4.59361C123.351 4.88555 123.734 5.38037 123.988 6.07807C124.242 6.77576 124.267 7.40051 124.063 7.9523C123.86 8.50409 123.474 8.88333 122.906 9.09002ZM126.405 2.6486L127.123 2.38727L124.407 13.0229L123.689 13.2842L126.405 2.6486ZM122.707 8.54241C123.105 8.39772 123.365 8.12842 123.488 7.7345C123.616 7.32952 123.58 6.8512 123.379 6.29953C123.178 5.74786 122.9 5.36217 122.545 5.14247C122.194 4.9117 121.82 4.86866 121.423 5.01335C121.017 5.16099 120.754 5.43583 120.634 5.83786C120.514 6.23989 120.553 6.71268 120.751 7.25624C120.948 7.79979 121.223 8.18696 121.573 8.41772C121.923 8.64849 122.301 8.69005 122.707 8.54241ZM129.589 11.2057C129.021 11.4124 128.482 11.3698 127.971 11.0779C127.458 10.7778 127.075 10.283 126.824 9.59339C126.573 8.9038 126.55 8.28312 126.753 7.73133C126.953 7.17143 127.338 6.78813 127.906 6.58143C128.482 6.37178 129.022 6.41846 129.528 6.72147C130.038 7.01341 130.419 7.50417 130.67 8.19376C130.921 8.88334 130.946 9.50809 130.746 10.068C130.55 10.6168 130.165 10.9961 129.589 11.2057ZM129.389 10.6581C129.795 10.5105 130.058 10.2356 130.178 9.8336C130.298 9.43157 130.259 8.95878 130.061 8.41522C129.864 7.87166 129.589 7.4845 129.239 7.25373C128.889 7.02297 128.51 6.9814 128.105 7.12905C127.707 7.27373 127.444 7.54857 127.316 7.95355C127.193 8.34747 127.232 8.82026 127.433 9.37193C127.634 9.9236 127.909 10.3148 128.26 10.5456C128.615 10.7653 128.992 10.8028 129.389 10.6581Z" fill="white"/>
<path d="M148.766 -0.322085C148.19 -0.112436 147.647 -0.153581 147.137 -0.445522C146.631 -0.748528 146.253 -1.24483 146.002 -1.93441C145.751 -2.624 145.723 -3.24321 145.918 -3.79204C146.119 -4.35194 146.507 -4.73672 147.083 -4.94637C147.651 -5.15307 148.19 -5.11044 148.701 -4.8185C149.211 -4.52656 149.594 -4.03174 149.847 -3.33404C150.101 -2.63634 150.127 -2.0116 149.923 -1.45981C149.72 -0.908024 149.334 -0.528782 148.766 -0.322085ZM152.265 -6.76351L152.983 -7.02484L150.267 3.61075L149.549 3.87207L152.265 -6.76351ZM148.567 -0.869698C148.964 -1.01439 149.225 -1.28369 149.348 -1.67761C149.476 -2.08259 149.44 -2.56091 149.239 -3.11258C149.038 -3.66425 148.76 -4.04994 148.404 -4.26964C148.054 -4.50041 147.68 -4.54344 147.282 -4.39876C146.877 -4.25112 146.614 -3.97628 146.494 -3.57425C146.374 -3.17222 146.413 -2.69943 146.61 -2.15587C146.808 -1.61232 147.082 -1.22515 147.433 -0.994387C147.783 -0.76362 148.161 -0.722057 148.567 -0.869698ZM155.448 1.79361C154.881 2.0003 154.341 1.95768 153.831 1.66574C153.317 1.36569 152.935 0.870868 152.684 0.181281C152.433 -0.508305 152.409 -1.12899 152.613 -1.68078C152.813 -2.24068 153.198 -2.62398 153.765 -2.83068C154.341 -3.04033 154.882 -2.99365 155.387 -2.69064C155.898 -2.3987 156.279 -1.90794 156.53 -1.21835C156.781 -0.528764 156.806 0.0959792 156.605 0.65588C156.41 1.20472 156.025 1.58396 155.448 1.79361ZM155.249 1.246C155.655 1.09835 155.918 0.823519 156.038 0.421489C156.158 0.0194594 156.119 -0.453334 155.921 -0.99689C155.723 -1.54045 155.449 -1.92761 155.099 -2.15837C154.748 -2.38914 154.37 -2.4307 153.965 -2.28306C153.567 -2.13838 153.304 -1.86354 153.176 -1.45856C153.053 -1.06464 153.092 -0.591849 153.293 -0.0401794C153.493 0.51149 153.769 0.902708 154.12 1.13347C154.475 1.35318 154.852 1.39068 155.249 1.246Z" fill="white"/>
<path d="M108.12 48.925C107.544 49.1346 107.001 49.0935 106.49 48.8015C105.985 48.4985 105.607 48.0022 105.356 47.3127C105.105 46.6231 105.077 46.0039 105.272 45.455C105.472 44.8951 105.861 44.5103 106.437 44.3007C107.005 44.094 107.544 44.1366 108.054 44.4286C108.565 44.7205 108.947 45.2153 109.201 45.913C109.455 46.6107 109.48 47.2355 109.277 47.7873C109.073 48.339 108.688 48.7183 108.12 48.925ZM111.619 42.4836L112.337 42.2222L109.62 52.8578L108.902 53.1191L111.619 42.4836ZM107.92 48.3774C108.318 48.2327 108.578 47.9634 108.701 47.5695C108.83 47.1645 108.793 46.6862 108.593 46.1345C108.392 45.5828 108.114 45.1971 107.758 44.9774C107.408 44.7467 107.034 44.7036 106.636 44.8483C106.23 44.996 105.967 45.2708 105.847 45.6728C105.727 46.0748 105.766 46.5476 105.964 47.0912C106.162 47.6348 106.436 48.0219 106.786 48.2527C107.137 48.4835 107.515 48.525 107.92 48.3774ZM114.802 51.0407C114.234 51.2474 113.695 51.2048 113.184 50.9128C112.671 50.6128 112.289 50.1179 112.038 49.4284C111.787 48.7388 111.763 48.1181 111.966 47.5663C112.167 47.0064 112.551 46.6231 113.119 46.4164C113.695 46.2067 114.236 46.2534 114.741 46.5564C115.251 46.8484 115.632 47.3391 115.883 48.0287C116.134 48.7183 116.159 49.343 115.959 49.903C115.764 50.4518 115.378 50.831 114.802 51.0407ZM114.603 50.4931C115.008 50.3454 115.271 50.0706 115.391 49.6686C115.511 49.2665 115.473 48.7937 115.275 48.2502C115.077 47.7066 114.803 47.3195 114.452 47.0887C114.102 46.8579 113.724 46.8164 113.318 46.964C112.921 47.1087 112.658 47.3835 112.53 47.7885C112.407 48.1824 112.445 48.6552 112.646 49.2069C112.847 49.7586 113.123 50.1498 113.473 50.3805C113.829 50.6002 114.205 50.6378 114.603 50.4931Z" fill="white"/>
<path d="M133.979 39.5124C133.403 39.722 132.86 39.6809 132.349 39.389C131.844 39.0859 131.466 38.5896 131.215 37.9001C130.964 37.2105 130.936 36.5913 131.131 36.0424C131.332 35.4825 131.72 35.0978 132.296 34.8881C132.864 34.6814 133.403 34.724 133.914 35.016C134.424 35.3079 134.806 35.8027 135.06 36.5004C135.314 37.1981 135.34 37.8229 135.136 38.3747C134.933 38.9264 134.547 39.3057 133.979 39.5124ZM137.478 33.071L138.196 32.8096L135.48 43.4452L134.762 43.7065L137.478 33.071ZM133.78 38.9648C134.177 38.8201 134.438 38.5508 134.561 38.1569C134.689 37.7519 134.653 37.2736 134.452 36.7219C134.251 36.1702 133.973 35.7845 133.617 35.5648C133.267 35.3341 132.893 35.291 132.495 35.4357C132.09 35.5834 131.827 35.8582 131.707 36.2602C131.587 36.6623 131.626 37.135 131.823 37.6786C132.021 38.2222 132.295 38.6093 132.646 38.8401C132.996 39.0709 133.374 39.1124 133.78 38.9648ZM140.661 41.6281C140.093 41.8348 139.554 41.7922 139.044 41.5002C138.53 41.2002 138.148 40.7053 137.897 40.0158C137.646 39.3262 137.622 38.7055 137.826 38.1537C138.026 37.5938 138.41 37.2105 138.978 37.0038C139.554 36.7941 140.095 36.8408 140.6 37.1438C141.111 37.4358 141.492 37.9265 141.743 38.6161C141.994 39.3057 142.019 39.9305 141.818 40.4904C141.623 41.0392 141.237 41.4184 140.661 41.6281ZM140.462 41.0805C140.868 40.9328 141.131 40.658 141.251 40.256C141.371 39.8539 141.332 39.3811 141.134 38.8376C140.936 38.294 140.662 37.9069 140.312 37.6761C139.961 37.4453 139.583 37.4038 139.178 37.5514C138.78 37.6961 138.517 37.9709 138.389 38.3759C138.266 38.7698 138.305 39.2426 138.506 39.7943C138.706 40.346 138.982 40.7372 139.332 40.9679C139.688 41.1876 140.065 41.2252 140.462 41.0805Z" fill="white"/>
<path d="M159.839 30.1008C159.263 30.3104 158.72 30.2693 158.209 29.9773C157.704 29.6743 157.326 29.178 157.075 28.4884C156.824 27.7989 156.796 27.1796 156.991 26.6308C157.192 26.0709 157.58 25.6861 158.156 25.4765C158.724 25.2698 159.263 25.3124 159.774 25.6043C160.284 25.8963 160.666 26.3911 160.92 27.0888C161.174 27.7865 161.199 28.4113 160.996 28.963C160.793 29.5148 160.407 29.8941 159.839 30.1008ZM163.338 23.6593L164.056 23.398L161.339 34.0336L160.621 34.2949L163.338 23.6593ZM159.64 29.5532C160.037 29.4085 160.298 29.1392 160.421 28.7452C160.549 28.3403 160.513 27.8619 160.312 27.3103C160.111 26.7586 159.833 26.3729 159.477 26.1532C159.127 25.9224 158.753 25.8794 158.355 26.0241C157.95 26.1717 157.687 26.4466 157.567 26.8486C157.447 27.2506 157.485 27.7234 157.683 28.267C157.881 28.8105 158.155 29.1977 158.506 29.4285C158.856 29.6592 159.234 29.7008 159.64 29.5532ZM166.521 32.2165C165.953 32.4232 165.414 32.3805 164.904 32.0886C164.39 31.7885 164.008 31.2937 163.757 30.6041C163.506 29.9145 163.482 29.2939 163.686 28.7421C163.886 28.1822 164.27 27.7989 164.838 27.5922C165.414 27.3825 165.955 27.4292 166.46 27.7322C166.971 28.0242 167.351 28.5149 167.602 29.2045C167.853 29.8941 167.879 30.5188 167.678 31.0787C167.483 31.6276 167.097 32.0068 166.521 32.2165ZM166.322 31.6688C166.728 31.5212 166.99 31.2464 167.111 30.8443C167.231 30.4423 167.192 29.9695 166.994 29.426C166.796 28.8824 166.522 28.4952 166.172 28.2645C165.821 28.0337 165.443 27.9921 165.037 28.1398C164.64 28.2845 164.377 28.5593 164.249 28.9643C164.126 29.3582 164.165 29.831 164.365 30.3827C164.566 30.9343 164.842 31.3256 165.192 31.5563C165.548 31.776 165.924 31.8135 166.322 31.6688Z" fill="white"/>
<path d="M145.052 69.9352C144.476 70.1449 143.933 70.1037 143.423 69.8118C142.917 69.5088 142.539 69.0125 142.288 68.3229C142.037 67.6333 142.009 67.0141 142.205 66.4653C142.405 65.9054 142.793 65.5206 143.369 65.311C143.937 65.1043 144.476 65.1469 144.987 65.4388C145.497 65.7308 145.88 66.2256 146.134 66.9233C146.388 67.621 146.413 68.2457 146.209 68.7975C146.006 69.3493 145.62 69.7285 145.052 69.9352ZM148.551 63.4938L149.269 63.2325L146.553 73.8681L145.835 74.1294L148.551 63.4938ZM144.853 69.3876C145.251 69.2429 145.511 68.9736 145.634 68.5797C145.762 68.1747 145.726 67.6964 145.525 67.1447C145.324 66.5931 145.046 66.2074 144.691 65.9877C144.34 65.7569 143.966 65.7139 143.569 65.8586C143.163 66.0062 142.9 66.281 142.78 66.6831C142.66 67.0851 142.699 67.5579 142.897 68.1015C143.094 68.645 143.369 69.0322 143.719 69.2629C144.069 69.4937 144.447 69.5353 144.853 69.3876ZM151.735 72.0509C151.167 72.2576 150.628 72.215 150.117 71.9231C149.604 71.623 149.221 71.1282 148.97 70.4386C148.719 69.749 148.696 69.1283 148.899 68.5765C149.099 68.0166 149.484 67.6333 150.052 67.4266C150.628 67.217 151.168 67.2637 151.674 67.5667C152.184 67.8586 152.565 68.3494 152.816 69.039C153.067 69.7286 153.092 70.3533 152.892 70.9132C152.696 71.462 152.311 71.8413 151.735 72.0509ZM151.535 71.5033C151.941 71.3557 152.204 71.0808 152.324 70.6788C152.444 70.2768 152.405 69.804 152.207 69.2604C152.01 68.7169 151.735 68.3297 151.385 68.0989C151.035 67.8682 150.656 67.8266 150.251 67.9743C149.853 68.1189 149.59 68.3938 149.462 68.7988C149.339 69.1927 149.378 69.6655 149.579 70.2171C149.78 70.7688 150.055 71.16 150.406 71.3908C150.761 71.6105 151.138 71.648 151.535 71.5033Z" fill="white"/>
<path d="M170.912 60.5231C170.336 60.7328 169.793 60.6916 169.283 60.3997C168.777 60.0967 168.399 59.6004 168.148 58.9108C167.897 58.2212 167.869 57.602 168.064 57.0532C168.265 56.4933 168.653 56.1085 169.229 55.8988C169.797 55.6921 170.336 55.7348 170.847 56.0267C171.357 56.3187 171.74 56.8135 171.993 57.5112C172.247 58.2089 172.273 58.8336 172.069 59.3854C171.866 59.9372 171.48 60.3164 170.912 60.5231ZM174.411 54.0817L175.129 53.8204L172.413 64.456L171.695 64.7173L174.411 54.0817ZM170.713 59.9755C171.11 59.8308 171.371 59.5615 171.494 59.1676C171.622 58.7626 171.586 58.2843 171.385 57.7326C171.184 57.181 170.906 56.7953 170.55 56.5756C170.2 56.3448 169.826 56.3018 169.428 56.4465C169.023 56.5941 168.76 56.8689 168.64 57.271C168.52 57.673 168.559 58.1458 168.756 58.6893C168.954 59.2329 169.228 59.6201 169.579 59.8508C169.929 60.0816 170.307 60.1232 170.713 59.9755ZM177.594 62.6388C177.027 62.8455 176.487 62.8029 175.977 62.511C175.463 62.2109 175.081 61.7161 174.83 61.0265C174.579 60.3369 174.555 59.7162 174.759 59.1644C174.959 58.6045 175.343 58.2212 175.911 58.0145C176.487 57.8049 177.028 57.8516 177.533 58.1546C178.044 58.4465 178.425 58.9373 178.676 59.6269C178.927 60.3165 178.952 60.9412 178.751 61.5011C178.556 62.0499 178.171 62.4292 177.594 62.6388ZM177.395 62.0912C177.801 61.9436 178.064 61.6687 178.184 61.2667C178.304 60.8647 178.265 60.3919 178.067 59.8483C177.869 59.3048 177.595 58.9176 177.245 58.6868C176.894 58.4561 176.516 58.4145 176.111 58.5622C175.713 58.7068 175.45 58.9817 175.322 59.3867C175.199 59.7806 175.238 60.2534 175.439 60.805C175.639 61.3567 175.915 61.7479 176.266 61.9787C176.621 62.1984 176.998 62.2359 177.395 62.0912Z" fill="white"/>
</g>
</g>
</svg>
