<svg width="50" height="50" viewBox="0 0 50 50" fill="none" xmlns="http://www.w3.org/2000/svg">
<path d="M47.2922 20.5657C48.5017 19.141 48.8126 17.1595 48.0975 15.4328C47.3824 13.7062 45.7615 12.5247 43.8989 12.3724C44.4703 10.5931 43.9988 8.64363 42.6774 7.32218C41.3559 6.00074 39.4065 5.52923 37.6272 6.10071C37.4743 4.23839 36.2928 2.61797 34.5664 1.90297C32.84 1.18798 30.8587 1.4985 29.4339 2.70738C28.58 1.04523 26.8683 0.000183105 24.9997 0.000183105C23.1311 0.000183105 21.4194 1.04523 20.5655 2.70738C19.1407 1.4985 17.1594 1.18798 15.433 1.90297C13.7066 2.61797 12.5251 4.23839 12.3722 6.10071C10.5929 5.52923 8.64345 6.00074 7.322 7.32218C6.00055 8.64363 5.52904 10.5931 6.10053 12.3724C4.23821 12.5253 2.61778 13.7068 1.90279 15.4332C1.18779 17.1596 1.49831 19.1409 2.7072 20.5657C1.04505 21.4195 0 23.1313 0 24.9999C0 26.8685 1.04505 28.5802 2.7072 29.434C1.49831 30.8589 1.18779 32.8402 1.90279 34.5666C2.61778 36.2929 4.23821 37.4745 6.10053 37.6274C5.52904 39.4067 6.00055 41.3561 7.322 42.6776C8.64345 43.999 10.5929 44.4705 12.3722 43.899C12.5251 45.7614 13.7066 47.3818 15.433 48.0968C17.1594 48.8118 19.1407 48.5013 20.5655 47.2924C21.4194 48.9545 23.1311 49.9996 24.9997 49.9996C26.8683 49.9996 28.58 48.9545 29.4339 47.2924C30.8587 48.5013 32.84 48.8118 34.5664 48.0968C36.2928 47.3818 37.4743 45.7614 37.6272 43.899C39.4065 44.4705 41.3559 43.999 42.6774 42.6776C43.9988 41.3561 44.4703 39.4067 43.8989 37.6274C45.7615 37.4751 47.3824 36.2936 48.0975 34.5669C48.8126 32.8403 48.5017 30.8587 47.2922 29.434C48.9543 28.5802 49.9994 26.8685 49.9994 24.9999C49.9994 23.1313 48.9543 21.4195 47.2922 20.5657ZM45.4997 28.279C45.1529 28.3317 44.8762 28.5959 44.8076 28.9398C44.7389 29.2838 44.893 29.634 45.193 29.8157C46.6037 30.6596 47.1829 32.4099 46.554 33.9287C45.9251 35.4475 44.2782 36.276 42.6839 35.8757C42.3431 35.7915 41.986 35.9298 41.791 36.2217C41.596 36.5136 41.6048 36.8964 41.813 37.179C42.7933 38.4988 42.6582 40.3376 41.4956 41.4999C40.3331 42.6623 38.4943 42.797 37.1747 41.8165C36.8921 41.6089 36.5097 41.6005 36.2182 41.7954C35.9267 41.9903 35.7884 42.3469 35.8722 42.6874C36.2733 44.282 35.445 45.9296 33.9259 46.5588C32.4068 47.188 30.656 46.6086 29.8122 45.1974C29.6306 44.8974 29.2806 44.7432 28.9367 44.8116C28.5927 44.8801 28.3284 45.1565 28.2755 45.5032C28.0346 47.1285 26.6394 48.3321 24.9964 48.3321C23.3533 48.3321 21.9581 47.1285 21.7172 45.5032C21.6646 45.156 21.4 44.8791 21.0555 44.8107C21.0006 44.8002 20.9448 44.7949 20.8889 44.7949C20.5973 44.7952 20.3271 44.9478 20.1764 45.1974C19.3325 46.6086 17.5818 47.188 16.0627 46.5588C14.5435 45.9296 13.7152 44.282 14.1164 42.6874C14.2002 42.3469 14.0619 41.9903 13.7704 41.7954C13.4788 41.6005 13.0965 41.6089 12.8139 41.8165C11.4936 42.7859 9.66325 42.6457 8.506 41.4866C7.34875 40.3275 7.21153 38.4969 8.18303 37.1782C8.39063 36.8956 8.39908 36.5132 8.20417 36.2217C8.00926 35.9302 7.65271 35.7919 7.3122 35.8757C5.71762 36.2769 4.06996 35.4485 3.44076 33.9294C2.81156 32.4103 3.39097 30.6595 4.8022 29.8157C5.10206 29.6346 5.25661 29.2852 5.18894 28.9415C5.12128 28.5977 4.84585 28.333 4.4997 28.279C2.87438 28.0381 1.67079 26.643 1.67079 24.9999C1.67079 23.3568 2.87438 21.9616 4.4997 21.7207C4.84636 21.6678 5.12281 21.4035 5.19126 21.0596C5.25971 20.7156 5.10552 20.3657 4.80553 20.184C3.39431 19.3402 2.81489 17.5895 3.44409 16.0703C4.0733 14.5512 5.72095 13.7229 7.31553 14.124C7.65578 14.2063 8.01118 14.0672 8.20515 13.7758C8.39911 13.4844 8.39027 13.1028 8.18303 12.8207C7.20281 11.501 7.33788 9.66219 8.50044 8.49984C9.66299 7.3375 11.5018 7.20275 12.8214 8.18321C13.104 8.39081 13.4863 8.39926 13.7779 8.20436C14.0694 8.00945 14.2077 7.65289 14.1239 7.31238C13.7227 5.7178 14.551 4.07015 16.0702 3.44094C17.5893 2.81174 19.34 3.39116 20.1839 4.80238C20.365 5.10224 20.7144 5.25679 21.0581 5.18913C21.4018 5.12146 21.6666 4.84603 21.7205 4.49988C21.9615 2.87456 23.3566 1.67098 24.9997 1.67098C26.6428 1.67098 28.0379 2.87456 28.2789 4.49988C28.3318 4.84655 28.5961 5.12299 28.94 5.19144C29.2839 5.25989 29.6339 5.1057 29.8155 4.80571C30.6594 3.39449 32.4101 2.81507 33.9292 3.44428C35.4483 4.07348 36.2767 5.72113 35.8755 7.31571C35.7936 7.65568 35.9327 8.01061 36.2237 8.20445C36.5148 8.39829 36.8959 8.38981 37.178 8.18321C38.4976 7.20275 40.3364 7.3375 41.499 8.49984C42.6615 9.66219 42.7966 11.501 41.8164 12.8207C41.6081 13.1033 41.5993 13.4861 41.7943 13.778C41.9894 14.0699 42.3464 14.2083 42.6872 14.124C44.2816 13.7237 45.9285 14.5523 46.5573 16.0711C47.1862 17.5899 46.6071 19.3401 45.1964 20.184C44.8963 20.3658 44.7422 20.7159 44.8109 21.0599C44.8795 21.4039 45.1562 21.6681 45.503 21.7207C47.1283 21.9616 48.3319 23.3568 48.3319 24.9999C48.3319 26.643 47.1283 28.0381 45.503 28.279H45.4997Z" fill="white"/>
<path d="M40.26 19.4242C39.0623 18.8586 37.9715 18.09 37.0359 17.1525C37.3402 16.5051 37.4983 15.7987 37.4992 15.0833C37.4009 12.1406 34.9423 9.83105 31.9992 9.91666C31.3875 9.91763 30.7799 10.0175 30.2 10.2125C29.3635 8.07028 27.299 6.66016 24.9992 6.66016C22.6994 6.66016 20.6349 8.07028 19.7984 10.2125C19.2185 10.0175 18.611 9.91763 17.9992 9.91666C15.0561 9.83105 12.5975 12.1406 12.4992 15.0833C12.5001 15.7987 12.6582 16.5051 12.9625 17.1525C12.0274 18.0896 10.9371 18.8579 9.74003 19.4233C9.07329 19.7417 8.5841 20.3419 8.4067 21.0592C8.22211 21.7934 8.3749 22.5717 8.82337 23.1817C10.1165 24.9837 12.0804 26.1896 14.2725 26.5275C14.9717 32.635 19.6559 37.5 24.9992 37.5C30.3425 37.5 35.0384 32.6233 35.725 26.5275C37.9156 26.1906 39.8782 24.9858 41.17 23.185C41.6196 22.5743 41.7725 21.7944 41.5867 21.0592C41.4109 20.3434 40.9243 19.7437 40.26 19.4242ZM17.9992 11.5833C18.6924 11.584 19.3738 11.7634 19.9775 12.1042C20.2208 12.2393 20.5155 12.244 20.763 12.1169C21.0106 11.9897 21.1782 11.7473 21.21 11.4708C21.4942 9.61517 23.1231 8.26645 24.9992 8.33333C26.8753 8.26645 28.5042 9.61517 28.7884 11.4708C28.8202 11.7473 28.9879 11.9897 29.2354 12.1169C29.4829 12.244 29.7776 12.2393 30.0209 12.1042C30.6246 11.7634 31.306 11.584 31.9992 11.5833C34.022 11.4975 35.7345 13.0611 35.8325 15.0833C35.7345 17.1055 34.022 18.6691 31.9992 18.5833C31.2336 18.5864 30.4827 18.3735 29.8325 17.9692C29.6208 17.8363 29.3606 17.8056 29.1237 17.8853C28.8869 17.9651 28.6983 18.147 28.61 18.3808C27.9869 19.819 26.5691 20.7498 25.0017 20.7498C23.4343 20.7498 22.0165 19.819 21.3934 18.3808C21.3051 18.147 21.1165 17.9651 20.8797 17.8853C20.6428 17.8056 20.3826 17.8363 20.1709 17.9692C19.5207 18.3735 18.7698 18.5864 18.0042 18.5833C15.9795 18.6719 14.2639 17.1076 14.1659 15.0833C14.2639 13.0611 15.9764 11.4975 17.9992 11.5833ZM10.1709 22.1983C10.0153 21.9876 9.96184 21.7184 10.025 21.4642C10.0819 21.2285 10.2416 21.0309 10.46 20.9258C11.7348 20.3207 12.9052 19.5168 13.9275 18.5442C14.3705 19.0045 14.8902 19.3844 15.4634 19.6667C14.624 21.2601 14.1809 23.0323 14.1717 24.8333C12.5557 24.4858 11.1284 23.5457 10.1709 22.1983ZM25.8325 35.7817V32.5C26.2928 32.5 26.6659 32.1269 26.6659 31.6667C26.6659 31.2064 26.2928 30.8333 25.8325 30.8333H24.1659C23.7056 30.8333 23.3325 31.2064 23.3325 31.6667C23.3325 32.1269 23.7056 32.5 24.1659 32.5V35.7817C19.9059 35.2667 16.1959 30.88 15.8625 25.7217C15.8392 25.4808 15.8325 25.2408 15.8325 25C15.8126 23.3083 16.2441 21.6419 17.0825 20.1725C17.3856 20.2221 17.6921 20.2481 17.9992 20.25C18.7678 20.2515 19.529 20.1 20.2384 19.8042C21.2746 21.4314 23.0701 22.4166 24.9992 22.4166C26.9283 22.4166 28.7238 21.4314 29.76 19.8042C30.4694 20.1 31.2306 20.2515 31.9992 20.25C32.3063 20.2481 32.6128 20.2221 32.9159 20.1725C33.7543 21.6419 34.1858 23.3083 34.1659 25C34.1659 25.2408 34.1592 25.4808 34.1342 25.75C33.8025 30.8817 30.0925 35.2667 25.8325 35.7817ZM39.8242 22.1983C38.8662 23.5432 37.439 24.4804 35.8242 24.825C35.8149 23.024 35.3718 21.2518 34.5325 19.6583C35.1054 19.377 35.6251 18.9984 36.0684 18.5392C37.091 19.512 38.2617 20.3162 39.5367 20.9217C39.7549 21.0264 39.9144 21.2238 39.9709 21.4592C40.0365 21.7164 39.9826 21.9895 39.8242 22.2025V22.1983Z" fill="white"/>
<path d="M19.9995 23.3333C18.6188 23.3333 17.4995 24.4526 17.4995 25.8333C17.4995 27.214 18.6188 28.3333 19.9995 28.3333C21.3802 28.3333 22.4995 27.214 22.4995 25.8333C22.4995 24.4526 21.3802 23.3333 19.9995 23.3333ZM19.9995 26.6666C19.5393 26.6666 19.1662 26.2935 19.1662 25.8333C19.1662 25.3731 19.5393 25 19.9995 25C20.4597 25 20.8328 25.3731 20.8328 25.8333C20.8328 26.2935 20.4597 26.6666 19.9995 26.6666Z" fill="white"/>
<path d="M30 23.3333C28.6193 23.3333 27.5 24.4526 27.5 25.8333C27.5 27.214 28.6193 28.3333 30 28.3333C31.3807 28.3333 32.5 27.214 32.5 25.8333C32.5 24.4526 31.3807 23.3333 30 23.3333ZM30 26.6666C29.5398 26.6666 29.1667 26.2935 29.1667 25.8333C29.1667 25.3731 29.5398 25 30 25C30.4602 25 30.8333 25.3731 30.8333 25.8333C30.8333 26.2935 30.4602 26.6666 30 26.6666Z" fill="white"/>
</svg>
