<svg width="50" height="50" viewBox="0 0 50 50" fill="none" xmlns="http://www.w3.org/2000/svg">
<path d="M46.4998 22.5941L45.205 17.4149C45.559 17.3397 45.8246 17.0256 45.8246 16.6494V15.8143C45.8246 14.0012 44.3495 12.5262 42.5365 12.5262H36.6389V10.8038C36.6389 9.91157 35.9131 9.18579 35.0209 9.18579H4.9582C4.06602 9.18579 3.34023 9.91157 3.34023 10.8038V25C3.34023 25.4324 3.69072 25.7829 4.12314 25.7829C4.55547 25.7829 4.90605 25.4325 4.90605 25V10.8038C4.90605 10.7749 4.92939 10.7516 4.9582 10.7516H35.0208C35.0496 10.7516 35.0729 10.7749 35.0729 10.8038V25.0002C35.0729 25.4326 35.4234 25.7831 35.8559 25.7831C36.2882 25.7831 36.6388 25.4327 36.6388 25.0002V24.1127H45.874C45.8748 24.1127 45.8754 24.1129 45.8761 24.1129C45.8769 24.1129 45.8775 24.1128 45.8782 24.1128C47.0146 24.1136 47.9796 24.8595 48.311 25.8873H45.8767C45.4443 25.8873 45.0938 26.2378 45.0938 26.6702V28.3404C45.0938 29.693 46.1941 30.7934 47.5468 30.7934H48.4341V34.238H46.387C45.7146 32.2963 43.8687 30.8977 41.7013 30.8977C39.5338 30.8977 37.6879 32.2963 37.0155 34.238H36.6386V28.3403C36.6386 27.9079 36.2881 27.5574 35.8557 27.5574C35.4233 27.5574 35.0728 27.9078 35.0728 28.3403V34.2378H18.8298C18.1573 32.2961 16.3115 30.8975 14.144 30.8975C11.9766 30.8975 10.1307 32.2961 9.4583 34.2378H4.9582C4.92939 34.2378 4.90605 34.2145 4.90605 34.1857V32.4633H8.29854C8.73086 32.4633 9.08145 32.1128 9.08145 31.6804C9.08145 31.248 8.73096 30.8975 8.29854 30.8975H0.78291C0.350586 30.8975 0 31.248 0 31.6804C0 32.1128 0.350488 32.4633 0.78291 32.4633H3.34033V34.1857C3.34033 35.0779 4.06611 35.8036 4.9583 35.8036H9.18721C9.18701 35.821 9.18584 35.8383 9.18584 35.8558C9.18584 38.5898 11.4102 40.814 14.144 40.814C16.8779 40.814 19.1022 38.5898 19.1022 35.8558C19.1022 35.8382 19.1011 35.821 19.1009 35.8036H36.7444C36.7442 35.821 36.7431 35.8383 36.7431 35.8558C36.7431 38.5898 38.9674 40.814 41.7013 40.814C44.4352 40.814 46.6595 38.5898 46.6595 35.8558C46.6595 35.8382 46.6583 35.821 46.6581 35.8036H49.217C49.6493 35.8036 49.9999 35.4531 49.9999 35.0207V26.6701C50 24.6083 48.4788 22.8953 46.4998 22.5941ZM36.6389 14.0919H42.5365C43.4862 14.0919 44.2589 14.8646 44.2589 15.8143V15.8664H36.6389V14.0919ZM36.6389 22.547V17.4322H43.5954L44.8741 22.547H36.6389ZM14.144 39.2485C12.2734 39.2485 10.7516 37.7267 10.7516 35.856C10.7516 33.9853 12.2734 32.4635 14.144 32.4635C16.0146 32.4635 17.5365 33.9853 17.5365 35.856C17.5365 37.7267 16.0146 39.2485 14.144 39.2485ZM41.7015 39.2485C39.8309 39.2485 38.309 37.7267 38.309 35.856C38.309 33.9853 39.8309 32.4635 41.7015 32.4635C43.5721 32.4635 45.0939 33.9853 45.0939 35.856C45.0939 37.7267 43.5721 39.2485 41.7015 39.2485ZM48.4343 29.2276H47.547C47.0577 29.2276 46.6597 28.8295 46.6597 28.3403V27.453H48.4342V29.2276H48.4343Z" fill="white"/>
<path d="M14.1438 34.238C13.2517 34.238 12.5259 34.9638 12.5259 35.8559C12.5259 36.7481 13.2517 37.4739 14.1438 37.4739C15.036 37.4739 15.7618 36.7481 15.7618 35.8559C15.7618 34.9638 15.036 34.238 14.1438 34.238Z" fill="white"/>
<path d="M41.701 34.238C40.8088 34.238 40.083 34.9638 40.083 35.8559C40.083 36.7481 40.8088 37.4739 41.701 37.4739C42.5932 37.4739 43.3189 36.7481 43.3189 35.8559C43.3189 34.9638 42.5932 34.238 41.701 34.238Z" fill="white"/>
<path d="M32.5154 30.8978H20.8244C20.3921 30.8978 20.0415 31.2483 20.0415 31.6807C20.0415 32.1131 20.392 32.4636 20.8244 32.4636H32.5154C32.9477 32.4636 33.2983 32.1131 33.2983 31.6807C33.2983 31.2483 32.9478 30.8978 32.5154 30.8978Z" fill="white"/>
<path d="M12.4737 27.5574H2.45283C2.02051 27.5574 1.66992 27.9079 1.66992 28.3403C1.66992 28.7727 2.02041 29.1232 2.45283 29.1232H12.4737C12.906 29.1232 13.2566 28.7727 13.2566 28.3403C13.2566 27.9079 12.906 27.5574 12.4737 27.5574Z" fill="white"/>
<path d="M27.2243 16.9307C26.9186 16.625 26.4228 16.625 26.1171 16.9308L19.155 23.8928L15.5332 20.271C15.2275 19.9652 14.7318 19.9652 14.4261 20.271C14.1203 20.5768 14.1203 21.0724 14.4261 21.3781L18.6015 25.5535C18.7543 25.7064 18.9547 25.7828 19.155 25.7828C19.3553 25.7828 19.5558 25.7064 19.7085 25.5535L27.2242 18.0379C27.5299 17.732 27.5299 17.2364 27.2243 16.9307Z" fill="white"/>
</svg>
