<svg width="50" height="50" viewBox="0 0 50 50" fill="none" xmlns="http://www.w3.org/2000/svg">
<path d="M43.75 13.2626V10.1562C43.75 9.94901 43.6677 9.7503 43.5212 9.60379C43.3747 9.45728 43.176 9.37497 42.9688 9.37497H40.0803L36.9181 7.26676C37.3627 6.96304 37.7213 6.54956 37.959 6.06644C38.1968 5.58333 38.3056 5.04696 38.275 4.50938C38.2444 3.9718 38.0755 3.45125 37.7844 2.99822C37.4934 2.54518 37.0903 2.17505 36.6141 1.92371C36.1379 1.67237 35.6048 1.54836 35.0666 1.56372C34.5284 1.57907 34.0032 1.73325 33.5421 2.01132C33.081 2.28939 32.6996 2.68191 32.4349 3.15079C32.1702 3.61968 32.0311 4.14901 32.0313 4.68747C32.0313 4.89467 32.1136 5.09338 32.2601 5.23989C32.4066 5.38641 32.6053 5.46872 32.8125 5.46872C33.0197 5.46872 33.2184 5.38641 33.3649 5.23989C33.5114 5.09338 33.5938 4.89467 33.5938 4.68747C33.5938 4.37843 33.6854 4.07634 33.8571 3.81939C34.0288 3.56244 34.2728 3.36217 34.5583 3.2439C34.8438 3.12564 35.158 3.0947 35.4611 3.15499C35.7642 3.21528 36.0426 3.36409 36.2611 3.58261C36.4796 3.80113 36.6284 4.07954 36.6887 4.38264C36.749 4.68573 36.7181 4.9999 36.5998 5.28541C36.4816 5.57092 36.2813 5.81495 36.0243 5.98664C35.7674 6.15833 35.4653 6.24997 35.1563 6.24997C35.002 6.24992 34.8512 6.2956 34.7229 6.38122L30.2322 9.37497H27.3438C27.334 9.37497 27.3249 9.37604 27.3154 9.37643C27.2928 9.37643 27.2703 9.37497 27.2477 9.37497H23.674L20.5117 7.26676C20.9563 6.96305 21.3149 6.54958 21.5527 6.06646C21.7905 5.58334 21.8994 5.04698 21.8688 4.50939C21.8382 3.9718 21.6692 3.45123 21.3782 2.99819C21.0872 2.54515 20.684 2.175 20.2078 1.92365C19.7317 1.67231 19.1986 1.5483 18.6603 1.56365C18.1221 1.579 17.597 1.73319 17.1359 2.01127C16.6748 2.28935 16.2934 2.68187 16.0286 3.15076C15.7639 3.61966 15.6249 4.14901 15.625 4.68747C15.625 4.89467 15.7073 5.09338 15.8538 5.23989C16.0003 5.38641 16.1991 5.46872 16.4063 5.46872C16.6135 5.46872 16.8122 5.38641 16.9587 5.23989C17.1052 5.09338 17.1875 4.89467 17.1875 4.68747C17.1875 4.37843 17.2791 4.07634 17.4508 3.81939C17.6225 3.56244 17.8665 3.36217 18.1521 3.2439C18.4376 3.12564 18.7517 3.0947 19.0548 3.15499C19.3579 3.21528 19.6363 3.36409 19.8549 3.58261C20.0734 3.80113 20.2222 4.07954 20.2825 4.38264C20.3428 4.68573 20.3118 4.9999 20.1936 5.28541C20.0753 5.57092 19.875 5.81495 19.6181 5.98664C19.3611 6.15833 19.059 6.24997 18.75 6.24997C18.5957 6.24992 18.4449 6.2956 18.3166 6.38122L13.826 9.37497H10.2523C9.38101 9.37409 8.53448 9.665 7.84774 10.2013C7.161 10.7376 6.6736 11.4884 6.46328 12.334C6.4571 12.3582 6.45215 12.3828 6.44844 12.4077L4.69648 24.103C4.69062 24.1413 4.68762 24.18 4.6875 24.2187V39.8437C4.6875 40.0509 4.76981 40.2496 4.91632 40.3961C5.06284 40.5427 5.26155 40.625 5.46875 40.625H10.1563C10.3635 40.625 10.5622 40.5427 10.7087 40.3961C10.8552 40.2496 10.9375 40.0509 10.9375 39.8437V39.0625H15.625C15.8322 39.0625 16.0309 38.9802 16.1774 38.8336C16.3239 38.6871 16.4063 38.4884 16.4063 38.2812V37.5H21.0938V38.2812C21.0938 38.4884 21.1761 38.6871 21.3226 38.8336C21.4691 38.9802 21.6678 39.0625 21.875 39.0625H25.3897L25.0008 47.6208C24.996 47.7262 25.0126 47.8316 25.0497 47.9305C25.0868 48.0293 25.1435 48.1196 25.2164 48.196C25.2894 48.2723 25.377 48.3331 25.4741 48.3746C25.5712 48.4161 25.6757 48.4375 25.7813 48.4375H44.5313C44.6368 48.4375 44.7413 48.4161 44.8384 48.3746C44.9355 48.3331 45.0231 48.2723 45.0961 48.196C45.169 48.1196 45.2258 48.0293 45.2628 47.9305C45.2999 47.8316 45.3165 47.7262 45.3117 47.6208L43.75 13.2626ZM42.3248 16.3212C41.7171 16.147 41.2718 15.7034 40.9734 14.9779C40.8548 14.6826 40.7668 14.3758 40.7109 14.0625H42.2222L42.3248 16.3212ZM42.1875 12.5H31.0658L31.052 12.4076C31.0482 12.3828 31.0433 12.3582 31.0371 12.3339C30.9111 11.8287 30.6853 11.3539 30.373 10.9374H42.1875V12.5ZM35.1563 7.97018L37.2635 9.37497H33.049L35.1563 7.97018ZM25.6519 10.9375L25.2905 13.2873C25.247 13.5686 25.1213 13.8307 24.9293 14.0408C24.7373 14.251 24.4874 14.3997 24.2112 14.4683C23.9349 14.5369 23.6445 14.5223 23.3765 14.4265C23.1085 14.3306 22.8748 14.1577 22.7047 13.9295C23.4906 13.1084 24.0005 12.0624 24.1632 10.9375H25.6519ZM14.9224 10.9375H22.5781C22.3983 11.82 21.9191 12.6133 21.2216 13.183C20.5241 13.7528 19.6511 14.064 18.7505 14.064C17.8499 14.064 16.9769 13.7528 16.2794 13.183C15.5818 12.6133 15.1026 11.82 14.9229 10.9375H14.9224ZM18.75 7.97018L20.8572 9.37497H16.6428L18.75 7.97018ZM13.3368 10.9375C13.4996 12.0624 14.0095 13.1084 14.7955 13.9295C14.6254 14.1577 14.3917 14.3306 14.1237 14.4265C13.8557 14.5223 13.5653 14.5369 13.289 14.4683C13.0128 14.3997 12.7629 14.251 12.5709 14.0408C12.3789 13.8307 12.2532 13.5686 12.2097 13.2873L11.8481 10.9375H13.3368ZM14.8438 37.5H10.9375V22.6562C10.9375 22.449 10.8552 22.2503 10.7087 22.1038C10.5622 21.9573 10.3635 21.875 10.1563 21.875C9.94905 21.875 9.75034 21.9573 9.60382 22.1038C9.45731 22.2503 9.375 22.449 9.375 22.6562V39.0625H6.25V24.2773L7.9874 12.679C8.11963 12.1793 8.41355 11.7375 8.82328 11.4225C9.233 11.1074 9.7355 10.9369 10.2523 10.9375H10.2672L10.6653 13.5254C10.7551 14.1586 11.0478 14.7457 11.4994 15.1986C11.951 15.6515 12.5373 15.9459 13.1703 16.0375C13.7363 16.1298 14.3168 16.0587 14.8438 15.8324V37.5ZM16.4063 35.9375V15.0958C17.1385 15.4442 17.9391 15.625 18.75 15.625C19.5609 15.625 20.3615 15.4442 21.0938 15.0958V35.9375H16.4063ZM22.6563 15.8321C23.1832 16.0584 23.7637 16.1295 24.3297 16.0372C24.9627 15.9456 25.5489 15.6513 26.0005 15.1985C26.4521 14.7456 26.7448 14.1586 26.8347 13.5254L27.2328 10.9375H27.2477C27.7645 10.9369 28.267 11.1074 28.6767 11.4225C29.0865 11.7375 29.3804 12.1793 29.5126 12.679L31.25 24.2773V39.0625H28.125V22.6562C28.125 22.449 28.0427 22.2503 27.8962 22.1038C27.7497 21.9573 27.551 21.875 27.3438 21.875C27.1366 21.875 26.9378 21.9573 26.7913 22.1038C26.6448 22.2503 26.5625 22.449 26.5625 22.6562V37.5H22.6563V15.8321ZM34.375 46.875H26.5988L26.8896 40.4785C27.0218 40.5738 27.1807 40.625 27.3438 40.625H32.0313C32.2385 40.625 32.4372 40.5427 32.5837 40.3961C32.7302 40.2496 32.8125 40.0509 32.8125 39.8437V24.2187C32.8125 24.1799 32.8096 24.1412 32.8039 24.1029L31.2998 14.0625H34.375V46.875ZM35.9375 46.875V14.0625H39.1281C39.1974 14.563 39.3252 15.0537 39.509 15.5245C40.0623 16.9076 41.0764 17.7451 42.398 17.9296L43.7137 46.875H35.9375Z" fill="white"/>
</svg>
