<svg width="50" height="50" viewBox="0 0 50 50" fill="none" xmlns="http://www.w3.org/2000/svg">
<path d="M44.767 38.1554C45.504 37.2932 45.9503 36.1755 45.9503 34.9548V34.4269C45.9503 31.7059 43.7366 29.4922 41.0156 29.4922C38.2946 29.4922 36.0809 31.7059 36.0809 34.4269V34.9548C36.0809 36.1755 36.5273 37.2932 37.2643 38.1554C35.4603 38.6196 33.9378 39.7903 33.0078 41.3532C32.0778 39.7903 30.5553 38.6196 28.7514 38.1554C29.4884 37.2932 29.9347 36.1755 29.9347 34.9548V34.4269C29.9347 31.7059 27.721 29.4922 25 29.4922C22.279 29.4922 20.0653 31.7059 20.0653 34.4269V34.9548C20.0653 36.1755 20.5116 37.2932 21.2486 38.1554C19.4447 38.6196 17.9222 39.7903 16.9922 41.3532C16.0622 39.7903 14.5397 38.6196 12.7357 38.1554C13.4727 37.2932 13.9191 36.1755 13.9191 34.9548V34.4269C13.9191 31.7059 11.7054 29.4922 8.98438 29.4922C6.26335 29.4922 4.04968 31.7059 4.04968 34.4269V34.9548C4.04968 36.1755 4.496 37.2932 5.233 38.1554C2.2274 38.929 0 41.6618 0 44.9055V49.0234C0 49.5628 0.437164 50 0.976562 50H49.0234C49.5628 50 50 49.5628 50 49.0234V44.9055C50 41.6618 47.7726 38.929 44.767 38.1554ZM38.0341 34.4269C38.0341 32.7827 39.3715 31.4453 41.0156 31.4453C42.6598 31.4453 43.9972 32.7827 43.9972 34.4269V34.9548C43.9972 36.599 42.6598 37.9364 41.0156 37.9364C39.3715 37.9364 38.0341 36.599 38.0341 34.9548V34.4269ZM22.0184 34.4269C22.0184 32.7827 23.3559 31.4453 25 31.4453C26.6441 31.4453 27.9816 32.7827 27.9816 34.4269V34.9548C27.9816 36.599 26.6441 37.9364 25 37.9364C23.3559 37.9364 22.0184 36.599 22.0184 34.9548V34.4269ZM6.00281 34.4269C6.00281 32.7827 7.34024 31.4453 8.98438 31.4453C10.6285 31.4453 11.9659 32.7827 11.9659 34.4269V34.9548C11.9659 36.599 10.6285 37.9364 8.98438 37.9364C7.34024 37.9364 6.00281 36.599 6.00281 34.9548V34.4269ZM1.95312 44.9055C1.95312 42.1398 4.20303 39.8895 6.96907 39.8895H10.9997C13.7653 39.8895 16.0156 42.1398 16.0156 44.9055V48.0469H1.95312V44.9055ZM17.9688 44.9055C17.9688 42.1398 20.2187 39.8895 22.9847 39.8895H27.0153C29.781 39.8895 32.0312 42.1398 32.0312 44.9055V48.0469H17.9688V44.9055ZM48.0469 48.0469H33.9844V44.9055C33.9844 42.1398 36.2343 39.8895 39.0003 39.8895H43.0309C45.7966 39.8895 48.0469 42.1398 48.0469 44.9055V48.0469Z" fill="white"/>
<path d="M7.55272 19.5885L7.54395 25.0107C7.54318 25.3883 7.76062 25.7328 8.10165 25.8945C8.23517 25.9579 8.37822 25.9892 8.52013 25.9892C8.74176 25.9892 8.96111 25.9136 9.13887 25.7679L14.6553 21.2528H20.7581L24.2493 25.6218C24.44 25.8606 24.7326 25.9979 25.037 25.9884C25.3426 25.9808 25.6268 25.8305 25.8049 25.5825L28.9185 21.2524H35.384L40.8752 25.7668C41.1671 26.0067 41.571 26.0567 41.9125 25.8953C42.2543 25.7339 42.4721 25.3899 42.4721 25.0122V19.5728C45.5029 17.6258 47.3633 14.2494 47.3633 10.6262C47.3633 4.76685 42.5964 0 36.7371 0H13.2629C7.40356 0 2.63672 4.76685 2.63672 10.6262C2.63672 14.2616 4.5063 17.6441 7.55272 19.5885ZM13.2629 1.95312H36.7371C41.5195 1.95312 45.4102 5.84412 45.4102 10.6262C45.4102 13.7413 43.7252 16.6328 41.0133 18.1736C40.7078 18.3468 40.519 18.671 40.519 19.0224V22.9454L36.3537 19.5217C36.179 19.3779 35.96 19.2993 35.7338 19.2993H28.418C28.1036 19.2993 27.8088 19.4508 27.6253 19.706L24.9714 23.3963L21.991 19.6663C21.8056 19.4344 21.5248 19.2993 21.228 19.2993H14.3066C14.0812 19.2993 13.8626 19.3775 13.6879 19.5202L9.5005 22.9481L9.50661 19.0384C9.50737 18.6852 9.3174 18.3594 9.00993 18.1862C6.28357 16.6489 4.58984 13.752 4.58984 10.6262C4.58984 5.84412 8.48045 1.95312 13.2629 1.95312Z" fill="white"/>
<path d="M39.8678 7.03542C40.9073 7.94332 41.5036 9.25214 41.5036 10.6262C41.5036 11.9274 40.9867 13.1435 40.0483 14.0514C39.6607 14.4264 39.6504 15.0444 40.025 15.4323C40.2169 15.6303 40.4717 15.7299 40.7273 15.7299C40.9718 15.7299 41.2163 15.6387 41.4059 15.4552C42.7285 14.1762 43.4567 12.4614 43.4567 10.6262C43.4567 8.68795 42.6167 6.84278 41.1526 5.56409C40.7464 5.20933 40.1295 5.25129 39.7748 5.65755C39.42 6.06382 39.4616 6.68066 39.8678 7.03542Z" fill="white"/>
<path d="M21.9981 13.6978C23.213 14.822 24.4128 15.6411 24.4631 15.6754C24.6287 15.7883 24.8206 15.8444 25.0124 15.8444C25.2039 15.8444 25.3958 15.7879 25.5614 15.6754C25.6117 15.6411 26.8114 14.822 28.0264 13.6978C29.8197 12.0392 30.691 10.6217 30.691 9.36511C30.691 7.18349 29.0312 5.40851 26.9907 5.40851C26.2862 5.40851 25.5991 5.62556 25.0124 6.02191C24.425 5.62556 23.7383 5.40851 23.0338 5.40851C20.9933 5.40851 19.3335 7.18311 19.3335 9.36511C19.3335 10.6217 20.2048 12.0388 21.9981 13.6978ZM23.0338 7.36163C23.5018 7.36163 23.942 7.57259 24.2735 7.95596C24.4593 8.17035 24.7286 8.29356 25.0124 8.29356C25.2959 8.29356 25.5652 8.17035 25.751 7.95596C26.0825 7.57259 26.5227 7.36163 26.9907 7.36163C27.9543 7.36163 28.7379 8.26038 28.7379 9.36511C28.7379 10.4576 26.6798 12.4279 25.0117 13.6689C23.3435 12.4295 21.2862 10.4607 21.2862 9.36511C21.2866 8.26038 22.0702 7.36163 23.0338 7.36163Z" fill="white"/>
</svg>
