<svg width="50" height="50" viewBox="0 0 50 50" fill="none" xmlns="http://www.w3.org/2000/svg">
<path d="M42.7963 35.5933H36.0166V46.6102H42.7963V35.5933ZM41.1013 44.9153H37.7115V37.2882H41.1013V44.9153Z" fill="white"/>
<path d="M27.542 27.9661H7.20302C5.79889 27.9661 4.66064 29.1044 4.66064 30.5085V46.6102H30.0844V30.5085C30.0844 29.1044 28.9461 27.9661 27.542 27.9661ZM28.3895 44.9153H6.35556V33.8983H28.3895V44.9153ZM28.3895 32.2034H6.35556V30.5085C6.35556 30.0405 6.73501 29.661 7.20302 29.661H27.542C28.01 29.661 28.3895 30.0405 28.3895 30.5085V32.2034Z" fill="white"/>
<path d="M49.5172 11.5754C49.5087 11.5517 49.5002 11.5288 49.4901 11.5059C49.4799 11.4831 49.4782 11.4695 49.4689 11.4534L45.3384 4.0178V0.847458C45.3384 0.379449 44.9589 0 44.4909 0H4.6604C4.19239 0 3.81294 0.379449 3.81294 0.847458V4.05763L0.495991 11.5203V11.528C0.495991 11.5373 0.490906 11.5483 0.486669 11.5576C0.453724 11.6441 0.435398 11.7355 0.432432 11.828C0.432432 11.8407 0.424805 11.8517 0.424805 11.8644V50H49.5757V11.8644C49.5757 11.8593 49.5757 11.8542 49.5757 11.8492C49.5718 11.7553 49.552 11.6627 49.5172 11.5754ZM47.2875 11.0169H37.4748L35.4977 5.08475H43.9926L47.2875 11.0169ZM36.0163 12.7119V21.1864C36.0163 23.0586 34.4986 24.5763 32.6265 24.5763H29.2367C27.3645 24.5763 25.8468 23.0586 25.8468 21.1864V20.339V12.7119H36.0163ZM25.8468 11.0169V5.08475H33.7104L35.6875 11.0169H25.8468ZM5.50786 1.69492H43.6435V3.38983H5.50786V1.69492ZM14.3112 11.0169L16.2884 5.08475H24.1519V11.0169H14.3112ZM24.1519 12.7119V20.339C24.1492 22.678 22.2536 24.5735 19.9146 24.5763H18.2197C15.8807 24.5735 13.9852 22.678 13.9824 20.339V12.7119H24.1519ZM5.21125 5.08475H14.5011L12.524 11.0169H2.5748L5.21125 5.08475ZM2.11803 12.7119H12.2875V20C12.2848 22.5263 10.2375 24.5735 7.71125 24.5763H6.35531C4.01633 24.5735 2.12078 22.678 2.11803 20.339V12.7119ZM44.4909 48.3051H34.3214V33.8983H44.4909V48.3051ZM44.4909 32.2034H34.3214V31.1864C34.3214 30.344 35.0044 29.661 35.8468 29.661H42.9655C43.808 29.661 44.4909 30.344 44.4909 31.1864V32.2034ZM47.8807 48.3051H46.1858V31.1864C46.1858 29.4079 44.744 27.9661 42.9655 27.9661H35.8468C34.0683 27.9661 32.6265 29.4079 32.6265 31.1864V48.3051H2.11803V24.4822C3.23095 25.6263 4.75923 26.2716 6.35531 26.2712H7.71125C9.89843 26.2689 11.926 25.126 13.0604 23.2559C14.1114 25.1171 16.0823 26.269 18.2197 26.2712H19.9146C21.8744 26.2697 23.707 25.3004 24.8112 23.6814C25.7112 25.2797 27.4023 26.2693 29.2367 26.2712H32.6265C34.4608 26.2693 36.1519 25.2797 37.0519 23.6814C38.1562 25.3004 39.9888 26.2697 41.9485 26.2712H43.6435C45.2395 26.2716 46.7678 25.6263 47.8807 24.4822V48.3051ZM47.8807 20.339C47.878 22.678 45.9824 24.5735 43.6435 24.5763H41.9485C39.6096 24.5735 37.714 22.678 37.7112 20.339V12.7119H47.8807V20.339Z" fill="white"/>
</svg>
