<svg width="50" height="50" viewBox="0 0 50 50" fill="none" xmlns="http://www.w3.org/2000/svg">
<path d="M45.5088 43.4371L40.2632 36.6931C41.9629 36.1852 43.4313 35.0982 44.4132 33.6207C45.6485 31.4853 45.0899 28.8793 44.5494 26.3621C44.2225 25.069 44.027 23.7461 43.9657 22.4138C44.0267 21.0803 44.2222 19.7563 44.5494 18.4621C45.0864 15.9431 45.6485 13.3388 44.4132 11.2069C43.1338 8.99655 40.558 8.17845 38.0666 7.38879C36.8264 7.04709 35.6253 6.57672 34.483 5.98534C33.4463 5.31293 32.4838 4.53276 31.6114 3.65776C29.7632 1.94224 27.6675 0 25.0002 0C22.333 0 20.2373 1.94224 18.3882 3.6569C17.5161 4.53211 16.5538 5.31261 15.5175 5.98534C14.3752 6.57554 13.1745 7.04472 11.9347 7.38534C9.44333 8.175 6.86746 8.9931 5.58815 11.2034C4.35281 13.3388 4.91143 15.9448 5.45195 18.4621C5.77878 19.7564 5.97404 21.0803 6.03471 22.4138C5.97371 23.7473 5.77824 25.0713 5.45108 26.3655C4.91402 28.8845 4.35195 31.4888 5.58729 33.6207C6.57048 35.0987 8.04042 36.1855 9.7416 36.6922L4.4916 43.4362C4.19936 43.8121 4.26714 44.3537 4.64311 44.6459C4.82371 44.7863 5.05259 44.8491 5.27953 44.8207L11.4433 44.0509L12.9649 49.375C13.054 49.6871 13.3109 49.9226 13.6295 49.9845C13.6835 49.9947 13.7384 50 13.7933 50C14.0595 50.0002 14.3109 49.8774 14.4744 49.6672L19.9795 42.5862C21.3343 43.9051 23.1138 44.6996 25.0002 44.8276C26.8866 44.6996 28.6662 43.9051 30.0209 42.5862L35.5261 49.6647C35.689 49.8758 35.9404 49.9996 36.2071 50C36.2621 50 36.3169 49.9947 36.3709 49.9845C36.6896 49.9226 36.9465 49.6871 37.0356 49.375L38.5571 44.0517L44.7209 44.8216C45.1933 44.8808 45.6244 44.5459 45.6836 44.0735C45.7121 43.8466 45.6493 43.6177 45.5088 43.4371ZM14.1554 47.2681L12.8976 42.8664C12.7807 42.4581 12.3837 42.1958 11.9623 42.2483L7.13471 42.8517L11.4614 37.2897L11.9382 37.4422C13.1767 37.7831 14.3763 38.2523 15.5175 38.8422C16.5541 39.5147 17.5166 40.2948 18.389 41.1698L18.6856 41.444L14.1554 47.2681ZM25.0002 43.1034C23.0088 43.1034 21.3338 41.5517 19.5597 39.9069C18.5945 38.9426 17.5283 38.0851 16.3795 37.3491C15.1296 36.6948 13.8139 36.1747 12.4545 35.7974C10.1761 35.0741 8.0235 34.3914 7.07867 32.7586C6.17695 31.1991 6.64246 29.0259 7.13643 26.7241C7.49193 25.3126 7.70055 23.8682 7.75884 22.4138C7.70087 20.9594 7.49257 19.515 7.13729 18.1034C6.64333 15.8026 6.17781 13.6293 7.07953 12.069C8.02781 10.4362 10.1769 9.75345 12.4554 9.03017C13.8146 8.6528 15.1299 8.13265 16.3795 7.47845C17.528 6.74246 18.594 5.88491 19.5588 4.92069C21.3338 3.27586 23.0088 1.72414 25.0002 1.72414C26.9916 1.72414 28.6666 3.27586 30.4407 4.92069C31.4059 5.88502 32.4721 6.74246 33.6209 7.47845C34.8708 8.13276 36.1865 8.65291 37.5459 9.03017C39.8244 9.75345 41.977 10.4362 42.9218 12.069C43.8235 13.6284 43.358 15.8017 42.864 18.1034C42.5085 19.515 42.2999 20.9594 42.2416 22.4138C42.2996 23.8682 42.5079 25.3126 42.8632 26.7241C43.3571 29.025 43.8226 31.1983 42.9209 32.7586C41.9726 34.3914 39.8235 35.0741 37.5451 35.7974C36.1859 36.1748 34.8706 36.6949 33.6209 37.3491C32.4724 38.0851 31.4065 38.9427 30.4416 39.9069C28.6666 41.5517 26.9916 43.1034 25.0002 43.1034ZM38.0425 42.2483C37.621 42.1958 37.224 42.4581 37.1071 42.8664L35.8451 47.2681L31.3157 41.4448L31.6123 41.1707C32.4844 40.2955 33.4467 39.515 34.483 38.8422C35.6252 38.252 36.826 37.7829 38.0657 37.4422L38.5425 37.2897L42.8701 42.8517L38.0425 42.2483Z" fill="white"/>
<path d="M24.9997 6.89655C16.4297 6.89655 9.48242 13.8439 9.48242 22.4138C9.48242 30.9837 16.4297 37.931 24.9997 37.931C33.5696 37.931 40.5169 30.9837 40.5169 22.4138C40.507 13.8479 33.5655 6.90657 24.9997 6.89655ZM24.9997 36.2069C17.382 36.2069 11.2066 30.0315 11.2066 22.4138C11.2066 14.7961 17.382 8.62068 24.9997 8.62068C32.6173 8.62068 38.7928 14.7961 38.7928 22.4138C38.7837 30.0278 32.6137 36.1978 24.9997 36.2069Z" fill="white"/>
<path d="M34.9467 18.8129C34.6223 18.3673 34.1047 18.1036 33.5536 18.1034H28.276L26.6381 13.0802C26.3408 12.1755 25.3664 11.6833 24.4618 11.9806C23.9414 12.1516 23.5332 12.5598 23.3622 13.0802L21.7286 18.1034H16.4467C15.4944 18.103 14.7221 18.8744 14.7217 19.8267C14.7214 20.3784 14.9851 20.8968 15.4312 21.2215L19.7036 24.325L18.0717 29.3482C17.7773 30.2538 18.2729 31.2266 19.1784 31.5209C19.7035 31.6916 20.2785 31.6004 20.7251 31.2758L25.0001 28.1732L29.2734 31.2767C29.8753 31.7239 30.699 31.7239 31.301 31.2767C31.9119 30.8425 32.1662 30.0593 31.9268 29.3491L30.295 24.325L34.5674 21.2215C35.3373 20.6612 35.5071 19.5827 34.9467 18.8129ZM28.7743 23.2991C28.4719 23.5188 28.3455 23.9084 28.4613 24.2638L30.2872 29.8827L25.507 26.4103C25.205 26.191 24.7961 26.191 24.4941 26.4103L19.7139 29.8827L21.5389 24.2638C21.6543 23.9086 21.528 23.5196 21.226 23.3L16.4467 19.8276H22.3544C22.7279 19.8276 23.0589 19.587 23.1743 19.2319L25.0001 13.6129L26.826 19.231C26.9414 19.5862 27.2723 19.8267 27.6458 19.8267L33.5536 19.8276L28.7743 23.2991Z" fill="white"/>
</svg>
