<svg width="165" height="160" viewBox="0 0 165 160" fill="none" xmlns="http://www.w3.org/2000/svg">
<path fill-rule="evenodd" clip-rule="evenodd" d="M245.144 117.735C232.043 130.835 216.766 141.137 199.735 148.36C182.073 155.793 163.356 159.587 144.076 159.6C124.796 159.614 106.074 155.847 88.4011 148.438C71.3594 141.24 56.0683 130.959 42.9484 117.877C29.8285 104.796 19.512 89.5411 12.2787 72.5345C4.83447 54.9679 1.03554 36.2085 1.02196 16.9564C1.00839 -2.29569 4.78091 -20.9902 12.2003 -38.6375C19.4096 -55.6542 29.7046 -70.923 42.806 -84.0235C55.9075 -97.1241 71.184 -107.426 88.2156 -114.649C105.808 -122.082 124.595 -125.876 143.874 -125.889C163.154 -125.903 181.877 -122.136 199.549 -114.727C216.591 -107.529 231.882 -97.2482 245.002 -84.1661C258.121 -71.084 268.438 -55.8298 275.672 -38.8233C283.116 -21.2566 286.915 -2.49731 286.928 16.7548C286.942 36.0069 283.169 54.7014 275.75 72.3487C268.541 89.3654 258.245 104.635 245.144 117.735ZM143.885 -110.628C73.4952 -110.578 16.3263 -53.3419 16.3758 16.8754C16.4254 87.163 73.6749 144.249 144.065 144.199C214.455 144.149 271.624 86.983 271.574 16.6955C271.525 -53.5915 214.275 -110.677 143.885 -110.628Z" fill="#57AB00"/>
<path fill-rule="evenodd" clip-rule="evenodd" d="M183.34 -22.2913C193.787 -11.8527 199.541 2.02402 199.552 16.8165C199.562 31.6091 193.827 45.4939 183.395 55.9472C172.963 66.4005 159.095 72.1587 144.312 72.1691C129.528 72.1796 115.652 66.4409 105.205 56.0023C94.7584 45.5637 89.0038 31.687 88.9933 16.8945C88.9829 2.10198 94.718 -11.7828 105.15 -22.2361C115.582 -32.6894 129.45 -38.4477 144.234 -38.4581C159.017 -38.4685 172.893 -32.7298 183.34 -22.2913ZM144.244 -23.0351C122.245 -23.0196 104.392 -5.1294 104.407 16.8836C104.423 38.8967 122.301 56.7611 144.301 56.7456C166.3 56.73 184.153 38.8404 184.138 16.8274C184.122 -5.18563 166.244 -23.0506 144.244 -23.0351Z" fill="#57AB00"/>
<path fill-rule="evenodd" clip-rule="evenodd" d="M244.726 16.4871C244.735 30.0877 242.082 43.3399 236.836 55.7523C231.8 67.744 224.521 78.546 215.28 87.8065C206.038 97.0671 195.253 104.366 183.276 109.422C170.808 114.689 157.638 117.362 144.046 117.372C130.454 117.381 117.21 114.727 104.805 109.477C92.8212 104.438 82.0259 97.1545 72.7711 87.907C63.5163 78.6595 56.222 67.8678 51.1694 55.8832C45.9055 43.408 43.2339 30.2298 43.2243 16.6292C43.2147 3.02859 45.8677 -10.2236 51.1141 -22.636C56.1497 -34.6277 63.4288 -45.4297 72.6706 -54.6903C81.9123 -63.9508 92.6973 -71.2495 104.674 -76.3057C117.142 -81.5725 130.312 -84.2458 143.904 -84.2554C157.496 -84.265 170.74 -81.6103 183.145 -76.361C195.129 -71.3218 205.924 -64.0383 215.179 -54.7907C224.434 -45.5432 231.728 -34.7515 236.781 -22.7669C242.045 -10.2917 244.716 2.88649 244.726 16.4871ZM143.915 -68.8319C96.8325 -68.7987 58.6051 -30.4934 58.6383 16.6183C58.6715 63.7301 96.9529 101.981 144.035 101.948C191.118 101.915 229.345 63.6097 229.312 16.498C229.279 -30.6138 190.997 -68.8651 143.915 -68.8319Z" fill="#57AB00"/>
</svg>
