<svg width="15" height="15" viewBox="0 0 15 15" fill="none" xmlns="http://www.w3.org/2000/svg">
<g clip-path="url(#clip0)">
<path d="M14.4925 2.95519L9.94759 7.50057L14.4925 12.0457C15.1685 12.722 15.1685 13.8175 14.4925 14.4938C14.1547 14.8316 13.7119 15.0006 13.2692 15.0006C12.8259 15.0006 12.383 14.8319 12.0455 14.4938L7.49954 9.94814L2.95398 14.4938C2.61624 14.8316 2.17335 15.0006 1.73032 15.0006C1.28743 15.0006 0.844834 14.8318 0.506796 14.4938C-0.169238 13.8178 -0.169238 12.7222 0.506796 12.0457L5.05158 7.50053L0.506537 2.95519C-0.169497 2.27916 -0.169497 1.1834 0.506537 0.507369C1.18244 -0.168146 2.27756 -0.168146 2.95372 0.507369L7.4995 5.05275L12.0449 0.507369C12.7212 -0.168146 13.8165 -0.168146 14.4922 0.507369C15.1685 1.1834 15.1685 2.27916 14.4925 2.95519Z" fill="#828282"/>
</g>
<defs>
<clipPath id="clip0">
<rect width="15" height="15" fill="white"/>
</clipPath>
</defs>
</svg>
