<svg width="288" height="403" viewBox="0 0 288 403" fill="none" xmlns="http://www.w3.org/2000/svg">
<mask id="path-1-outside-1" maskUnits="userSpaceOnUse" x="0" y="0" width="288" height="403" fill="black">
<rect fill="white" width="288" height="403"/>
<path fill-rule="evenodd" clip-rule="evenodd" d="M21 1C9.9543 1 1 9.95431 1 21V364C1 375.046 9.95431 384 21 384H236V399.561C236 401.284 238.034 402.2 239.325 401.059L258.046 384.498C258.217 384.346 258.354 384.178 258.459 384H267C278.046 384 287 375.046 287 364V21C287 9.95431 278.046 1 267 1H21Z"/>
</mask>
<path fill-rule="evenodd" clip-rule="evenodd" d="M21 1C9.9543 1 1 9.95431 1 21V364C1 375.046 9.95431 384 21 384H236V399.561C236 401.284 238.034 402.2 239.325 401.059L258.046 384.498C258.217 384.346 258.354 384.178 258.459 384H267C278.046 384 287 375.046 287 364V21C287 9.95431 278.046 1 267 1H21Z" fill="white"/>
<path d="M236 384H237V383H236V384ZM239.325 401.059L238.663 400.31H238.663L239.325 401.059ZM258.046 384.498L257.383 383.749L257.383 383.749L258.046 384.498ZM258.459 384V383H257.886L257.597 383.493L258.459 384ZM2 21C2 10.5066 10.5066 2 21 2V0C9.40202 0 0 9.40203 0 21H2ZM2 364V21H0V364H2ZM21 383C10.5066 383 2 374.493 2 364H0C0 375.598 9.40202 385 21 385V383ZM236 383H21V385H236V383ZM237 399.561V384H235V399.561H237ZM238.663 400.31C238.017 400.88 237 400.422 237 399.561H235C235 402.146 238.051 403.52 239.988 401.808L238.663 400.31ZM257.383 383.749L238.663 400.31L239.988 401.808L258.708 385.247L257.383 383.749ZM257.597 383.493C257.546 383.579 257.477 383.666 257.383 383.749L258.708 385.247C258.958 385.027 259.162 384.777 259.321 384.507L257.597 383.493ZM267 383H258.459V385H267V383ZM286 364C286 374.493 277.493 383 267 383V385C278.598 385 288 375.598 288 364H286ZM286 21V364H288V21H286ZM267 2C277.493 2 286 10.5066 286 21H288C288 9.40202 278.598 0 267 0V2ZM21 2H267V0H21V2Z" fill="black" fill-opacity="0.05" mask="url(#path-1-outside-1)"/>
</svg>
