<svg width="18" height="16" viewBox="0 0 18 16" fill="none" xmlns="http://www.w3.org/2000/svg">
<path d="M2.2482 8.67256L1.50343 9.41717L1.50306 9.41754C1.34215 9.57756 1.08179 9.57812 0.920812 9.41715C0.840446 9.33678 0.799901 9.231 0.799901 9.12572C0.799901 9.02162 0.839458 8.91519 0.921592 8.83465L2.58482 7.17051L2.72628 7.02897L2.86774 7.17051L4.53155 8.83523C4.53159 8.83527 4.53164 8.83532 4.53168 8.83536L4.53179 8.83547L4.39033 8.97685C4.47298 9.05928 4.47298 9.19376 4.39033 9.27641L2.2482 8.67256ZM2.2482 8.67256C2.58153 12.1015 5.47396 14.7937 8.9902 14.7937C10.8019 14.7937 12.5053 14.0884 13.7861 12.8073C13.9478 12.6465 13.9468 12.3852 13.7863 12.2247L13.7857 12.2241C13.6247 12.0645 13.364 12.0636 13.203 12.2247C12.0774 13.3503 10.582 13.9697 8.99043 13.9697C5.87887 13.9697 3.3157 11.5698 3.05536 8.52398M2.2482 8.67256L3.05536 8.52398M3.05536 8.52398L3.94886 9.41781L3.94947 9.41842C4.11023 9.57786 4.37121 9.57926 4.53214 9.41744L3.05536 8.52398Z" fill="#2F80ED" stroke="#2F80ED" stroke-width="0.4"/>
<path d="M15.7523 7.3265L16.4957 6.58321L16.496 6.583L16.6374 6.72444L15.7523 7.3265ZM15.7523 7.3265C15.603 5.76588 14.9276 4.31556 13.8049 3.19218L13.8048 3.19212C12.5241 1.9116 10.8201 1.20625 9.00942 1.20625C7.19804 1.20625 5.49479 1.91161 4.21338 3.19208L4.21332 3.19214C4.13277 3.27269 4.09218 3.37891 4.09218 3.48357C4.09218 3.58658 4.13192 3.69444 4.21399 3.77476C4.37467 3.93586 4.63574 3.93496 4.79592 3.77413C5.92153 2.64918 7.41691 2.02957 9.00919 2.02957C10.6004 2.02957 12.0959 2.64852 13.2213 3.77407C14.225 4.77903 14.8262 6.07698 14.944 7.47552L14.0511 6.58314C14.051 6.58302 14.0508 6.5829 14.0507 6.58278C13.8899 6.42099 13.6294 6.42155 13.4683 6.5814C13.3854 6.66233 13.346 6.77036 13.346 6.87376C13.346 6.97783 13.3862 7.08453 13.4677 7.165C13.4679 7.16523 13.4681 7.16545 13.4684 7.16567L15.1317 8.82858L15.2731 8.96989L15.4145 8.82862L17.0787 7.16601C17.0788 7.16589 17.0789 7.16577 17.079 7.16565L15.7523 7.3265Z" fill="#2F80ED" stroke="#2F80ED" stroke-width="0.4"/>
</svg>
