<svg width="20" height="20" viewBox="0 0 20 20" fill="none" xmlns="http://www.w3.org/2000/svg">
<g clip-path="url(#clip0)">
<path d="M16.2065 13.8582C15.5223 12.2836 14.5367 10.8997 13.2759 9.74012V7.47582L14.1221 6.09766C14.4906 5.49754 14.6508 4.80973 14.5852 4.10855C14.5197 3.40738 14.2349 2.76117 13.7616 2.23969L13.2759 1.70453V0H12.104V0.413437V1.93078C12.104 2.48184 11.8978 2.92246 11.491 3.24039C11.1129 3.53586 10.5718 3.70535 10.0065 3.70535C9.22279 3.70535 7.89646 3.3316 7.89646 1.93078V0.413437V0H6.72459V1.70457L6.23885 2.23973C5.76557 2.76117 5.48076 3.40742 5.41525 4.10855C5.34975 4.80969 5.50986 5.49754 5.87834 6.09766L6.72459 7.47582V9.74012C5.46381 10.8997 4.47818 12.2836 3.79396 13.8582C3.06139 15.5441 2.68994 17.4134 2.68994 19.4141V20H17.3105V19.4141C17.3105 17.4134 16.939 15.5441 16.2065 13.8582ZM6.98943 3.16867C7.5201 4.29469 8.76904 4.87723 10.0065 4.87723C10.8404 4.87723 11.6238 4.62383 12.2126 4.16375C12.5609 3.89152 12.8297 3.55301 13.0099 3.16723C13.5146 3.83457 13.5669 4.7623 13.1235 5.48441L12.3622 6.7243H7.63834L6.87701 5.48441C6.43385 4.76285 6.4858 3.83594 6.98943 3.16867ZM10.5336 10.5859C11.2414 12.5938 11.7066 15.7218 11.7592 18.8281H8.24127C8.29389 15.7218 8.759 12.5938 9.46682 10.5859H10.5336ZM7.89643 9.41406V7.89621H12.104V9.41406H7.89643ZM7.536 10.5859H8.23182C7.55713 12.7134 7.11975 15.7918 7.06928 18.8281H3.8733C4.00494 15.5012 5.264 12.6656 7.536 10.5859ZM12.9311 18.8281C12.8806 15.7918 12.4433 12.7134 11.7686 10.5859H12.4644C14.7364 12.6656 15.9955 15.5012 16.1271 18.8281H12.9311Z" fill="#57AB00"/>
</g>
<defs>
<clipPath id="clip0">
<rect width="20" height="20" fill="white"/>
</clipPath>
</defs>
</svg>
