<svg width="20" height="20" viewBox="0 0 20 20" fill="none" xmlns="http://www.w3.org/2000/svg">
<g clip-path="url(#clip0)">
<path d="M8.82837 11.7188C9.15197 11.7188 9.41431 11.4564 9.41431 11.1328C9.41431 10.8092 9.15197 10.5469 8.82837 10.5469C8.50476 10.5469 8.24243 10.8092 8.24243 11.1328C8.24243 11.4564 8.50476 11.7188 8.82837 11.7188Z" fill="#57AB00"/>
<path d="M8.82837 14.0625C9.15197 14.0625 9.41431 13.8002 9.41431 13.4766C9.41431 13.153 9.15197 12.8906 8.82837 12.8906C8.50476 12.8906 8.24243 13.153 8.24243 13.4766C8.24243 13.8002 8.50476 14.0625 8.82837 14.0625Z" fill="#57AB00"/>
<path d="M3.294 9.4734C2.8685 9.18977 2.30771 9.55145 2.39084 10.0562L3.56271 17.1656C3.58916 17.3257 3.68076 17.4678 3.81584 17.5579L7.33147 19.9016C7.52834 20.0328 7.78463 20.0328 7.9815 19.9016L10.0003 18.5558L12.019 19.9016C12.2159 20.0328 12.4722 20.0328 12.669 19.9016L16.1847 17.5579C16.3197 17.4678 16.4114 17.3258 16.4378 17.1656L17.6097 10.0562C17.6813 9.62156 17.2643 9.26574 16.8462 9.40504C15.6095 9.81742 14.3638 8.80781 14.5075 7.51437L15.2701 0.650664C15.3087 0.303984 15.037 0 14.6878 0H13.5159C13.2939 0 13.091 0.125391 12.9918 0.323906L12.4807 1.34605C10.8723 1.86621 9.12822 1.86621 7.51975 1.34605L7.00869 0.323906C6.90943 0.125391 6.70654 0 6.48459 0H5.31271C4.96604 0 4.69521 0.299688 4.72967 0.644258L5.48111 8.15871C5.59998 9.34695 4.28853 10.1364 3.294 9.4734ZM13.878 1.17188H14.0331L13.3428 7.385C13.1419 9.1923 14.5876 10.6962 16.3208 10.6696L15.3228 16.7239L12.344 18.7098L11.0565 17.8516L11.4971 17.5579C11.6601 17.4492 11.7581 17.2662 11.7581 17.0703V9.96094C11.7581 9.86996 11.7369 9.78027 11.6962 9.69891L10.6553 7.61719L13.878 1.17188ZM11.7866 2.7343L10.0002 6.30703L8.21385 2.7343C9.39311 2.96609 10.6058 2.96641 11.7866 2.7343ZM6.64725 8.04211L5.96022 1.17188H6.12248L10.5862 10.0993V16.7567C10.2737 16.965 7.95725 18.5093 7.6565 18.7098L4.67764 16.7239L3.71107 10.8601C5.309 11.0918 6.81982 9.76844 6.64725 8.04211Z" fill="#57AB00"/>
</g>
<defs>
<clipPath id="clip0">
<rect width="20" height="20" fill="white"/>
</clipPath>
</defs>
</svg>
