<svg width="20" height="20" viewBox="0 0 20 20" fill="none" xmlns="http://www.w3.org/2000/svg">
<path d="M19.4141 0H12.5104C12.3427 0 12.1914 0.0705078 12.0846 0.183477C11.5343 0.728008 10.7754 1.04004 10 1.04004C9.22457 1.04004 8.46574 0.728008 7.91543 0.183437C7.80863 0.0705078 7.65734 0 7.48957 0H0.585938C0.262344 0 0 0.262344 0 0.585938V5.60676C0 5.93035 0.262344 6.1927 0.585938 6.1927H3.13801V14.3939C3.13801 17.4851 5.6532 20 8.7448 20H11.2552C14.3468 20 16.862 17.4851 16.862 14.3932V6.1927H19.4141C19.7377 6.1927 20 5.93035 20 5.60676V0.585938C20 0.262344 19.7377 0 19.4141 0ZM8.07551 1.73488C8.66539 2.04406 9.32828 2.21195 10 2.21195C10.6717 2.21195 11.3346 2.04406 11.9245 1.73488V1.84117C11.9245 2.90234 11.0612 3.76566 10 3.76566C8.93883 3.76566 8.07551 2.90234 8.07551 1.84117V1.73488ZM4.35461 15.0239C6.29656 15.3014 7.83684 16.8417 8.11426 18.7834C6.17242 18.5059 4.63219 16.9658 4.35461 15.0239ZM11.8857 18.7834C12.1632 16.8417 13.7035 15.3014 15.6455 15.0239C15.368 16.9656 13.8277 18.5059 11.8857 18.7834ZM18.8281 5.02082H16.2761C15.9525 5.02082 15.6901 5.28316 15.6901 5.60676V13.8377C13.0652 14.1113 10.9733 16.2031 10.6996 18.8281H9.30039C9.02695 16.2033 6.93492 14.1114 4.30988 13.8377V5.60676C4.30988 5.28316 4.04754 5.02082 3.72395 5.02082H1.17188V1.17188H6.90363V1.84113C6.90363 3.54848 8.29266 4.9375 10 4.9375C11.7073 4.9375 13.0964 3.54848 13.0964 1.84113V1.17188H18.8281V5.02082Z" fill="#57AB00"/>
<path d="M10.4745 6.51758C10.3674 6.37016 10.198 6.2809 10.0159 6.27606C9.83377 6.27157 9.65979 6.35133 9.5451 6.49286L8.3792 7.93145L6.6522 8.59481C6.48216 8.66012 6.35216 8.80079 6.30048 8.97543C6.24876 9.15008 6.28123 9.33883 6.3883 9.48622L7.4751 10.982V12.8309C7.4751 13.0131 7.55982 13.1849 7.70439 13.2958C7.84889 13.4067 8.0367 13.4441 8.21279 13.3969L10.0003 12.9177L11.7879 13.3969C12.0701 13.4725 12.2712 13.315 12.2963 13.2959C12.4408 13.185 12.5256 13.0132 12.5256 12.831V10.982L13.6124 9.48625C13.7195 9.33887 13.7519 9.15004 13.7001 8.97536C13.6484 8.80067 13.5183 8.66 13.3482 8.59477L11.455 7.8684L10.4745 6.51758ZM11.4656 10.4472C11.3929 10.5473 11.3537 10.6678 11.3537 10.7916V12.0672L10.1521 11.745C10.1024 11.7317 10.0514 11.725 10.0003 11.725C9.94932 11.725 9.8983 11.7317 9.84862 11.745L8.64697 12.0672V10.7916C8.64697 10.6678 8.60779 10.5473 8.53506 10.4472L7.78514 9.41504L8.94584 8.96918C9.04174 8.93235 9.12627 8.87094 9.19096 8.79114L9.97479 7.82399L10.6088 8.69743C10.6755 8.78918 10.7673 8.85965 10.8731 8.90028L12.2155 9.41528L11.4656 10.4472Z" fill="#57AB00"/>
</svg>
