<svg width="20" height="20" viewBox="0 0 20 20" fill="none" xmlns="http://www.w3.org/2000/svg">
<g clip-path="url(#clip0)">
<path d="M17.4072 9.7016C17.9233 9.1732 18.2422 8.45145 18.2422 7.65625C18.2422 6.04082 16.9279 4.72656 15.3125 4.72656C13.6971 4.72656 12.3828 6.04082 12.3828 7.65625C12.3828 8.44699 12.6982 9.16508 13.2093 9.6927C12.6342 9.91609 12.1125 10.267 11.688 10.7204C10.7635 9.75934 9.23551 9.76039 8.31195 10.7204C7.88754 10.2671 7.36578 9.91613 6.79074 9.69273C7.30172 9.16512 7.61719 8.44703 7.61719 7.65625C7.61719 6.04082 6.30293 4.72656 4.6875 4.72656C3.07207 4.72656 1.75781 6.04082 1.75781 7.65625C1.75781 8.45145 2.07672 9.1732 2.59277 9.7016C1.07555 10.3039 0 11.7865 0 13.5156V19.375C0 19.6986 0.262344 19.9609 0.585938 19.9609H19.4141C19.7377 19.9609 20 19.6986 20 19.375V13.5156C20 11.7865 18.9245 10.3039 17.4072 9.7016ZM15.3125 5.89844C16.2818 5.89844 17.0703 6.68699 17.0703 7.65625C17.0703 8.62551 16.2818 9.41406 15.3125 9.41406C14.3432 9.41406 13.5547 8.62551 13.5547 7.65625C13.5547 6.68699 14.3432 5.89844 15.3125 5.89844ZM10 11.1719C10.6462 11.1719 11.1719 11.6976 11.1719 12.3437C11.1719 12.9899 10.6462 13.5156 10 13.5156C9.35383 13.5156 8.82812 12.9899 8.82812 12.3437C8.82812 11.6976 9.35383 11.1719 10 11.1719ZM4.6875 5.89844C5.65676 5.89844 6.44531 6.68699 6.44531 7.65625C6.44531 8.62551 5.65676 9.41406 4.6875 9.41406C3.71824 9.41406 2.92969 8.62551 2.92969 7.65625C2.92969 6.68699 3.71824 5.89844 4.6875 5.89844ZM1.17188 13.5156C1.17188 11.9002 2.48613 10.5859 4.10156 10.5859H5.3125C6.26715 10.5859 7.16707 11.0597 7.71238 11.8355C7.5584 12.5289 7.725 13.2442 8.16309 13.7968C7.17176 14.267 6.48438 15.2772 6.48438 16.4453V18.7891H1.17188V13.5156ZM7.65625 18.7891V16.4453C7.65625 15.4761 8.44481 14.6875 9.41406 14.6875H10.5859C11.5552 14.6875 12.3438 15.4761 12.3438 16.4453V18.7891H7.65625ZM18.8281 18.7891H13.5156V16.4453C13.5156 15.2772 12.8282 14.267 11.8369 13.7968C12.2746 13.2447 12.4417 12.5296 12.2876 11.8355C12.8329 11.0597 13.7327 10.5859 14.6875 10.5859H15.8984C17.5139 10.5859 18.8281 11.9002 18.8281 13.5156V18.7891Z" fill="#57AB00"/>
<path d="M8.33277 4.76498C9.00176 5.38326 9.66492 5.79389 9.69281 5.81108C9.88121 5.92701 10.1188 5.92701 10.3071 5.81108C10.3351 5.79389 10.9982 5.38326 11.6672 4.76498C12.6345 3.871 13.125 3.0019 13.125 2.18186C13.125 0.319513 11.273 -0.554667 10 0.479904C8.7241 -0.556971 6.875 0.324435 6.875 2.18186C6.875 3.0019 7.36547 3.871 8.33277 4.76498ZM9.5068 1.66963C9.7373 2.02897 10.263 2.02842 10.4932 1.66963C11.03 0.832599 11.9531 1.22315 11.9531 2.18186C11.9531 2.98104 10.8583 4.01127 10.0014 4.60967C9.28133 4.10162 8.04688 3.051 8.04688 2.18186C8.04688 1.22588 8.96836 0.830216 9.5068 1.66963Z" fill="#57AB00"/>
</g>
<defs>
<clipPath id="clip0">
<rect width="20" height="20" fill="white"/>
</clipPath>
</defs>
</svg>
