<svg width="20" height="20" viewBox="0 0 20 20" fill="none" xmlns="http://www.w3.org/2000/svg">
<g clip-path="url(#clip0)">
<mask id="path-1-outside-1" maskUnits="userSpaceOnUse" x="-1" y="0.304688" width="22" height="19" fill="black">
<rect fill="white" x="-1" y="0.304688" width="22" height="19"/>
<path d="M6.52265 16.9567C6.28266 16.9567 6.08786 17.1515 6.08786 17.3915V18.261C6.08786 18.501 6.28266 18.6958 6.52265 18.6958C6.76265 18.6958 6.95744 18.501 6.95744 18.261V17.3914C6.95744 17.1514 6.76265 16.9567 6.52265 16.9567Z"/>
<path d="M8.26177 16.9567C8.02177 16.9567 7.82698 17.1515 7.82698 17.3915V18.261C7.82698 18.501 8.02177 18.6958 8.26177 18.6958C8.50177 18.6958 8.69656 18.501 8.69656 18.261V17.3914C8.69652 17.1514 8.50177 16.9567 8.26177 16.9567Z"/>
<path d="M10.0008 16.9567C9.76085 16.9567 9.56606 17.1515 9.56606 17.3915V18.261C9.56606 18.501 9.76085 18.6958 10.0008 18.6958C10.2408 18.6958 10.4356 18.501 10.4356 18.261V17.3914C10.4356 17.1514 10.2408 16.9567 10.0008 16.9567Z"/>
<path d="M11.74 16.9567C11.5 16.9567 11.3052 17.1515 11.3052 17.3915V18.261C11.3052 18.501 11.5 18.6958 11.74 18.6958C11.98 18.6958 12.1748 18.501 12.1748 18.261V17.3914C12.1748 17.1514 11.98 16.9567 11.74 16.9567Z"/>
<path d="M13.4791 16.9567C13.2391 16.9567 13.0443 17.1515 13.0443 17.3915V18.261C13.0443 18.501 13.2391 18.6958 13.4791 18.6958C13.7191 18.6958 13.9139 18.501 13.9139 18.261V17.3914C13.9138 17.1514 13.7191 16.9567 13.4791 16.9567Z"/>
<path d="M19.9885 14.4515L18.7346 5.49073C18.4338 3.1038 16.3947 1.30469 13.9886 1.30469H13.4791C13.3147 1.30469 13.1652 1.39685 13.0913 1.54383C12.8756 1.97165 11.3452 2.63425 10.0017 3.02555C8.65307 2.62817 7.12093 1.96382 6.91134 1.54468C6.83744 1.39774 6.687 1.30469 6.52265 1.30469H6.01311C3.60617 1.30469 1.5662 3.10552 1.26796 5.48812L0.0114455 14.4558C-0.0807134 15.1558 0.393165 15.7958 1.09057 15.9115L2.04098 16.0697C2.74096 16.1854 3.39573 15.7332 3.53313 15.0428L4.34879 11.1524V17.3914C4.34879 18.1106 4.93398 18.6957 5.65311 18.6957H14.3486C15.0678 18.6957 15.653 18.1106 15.653 17.3914V11.1515L16.4669 15.0376C16.6051 15.7323 17.259 16.1845 17.9599 16.0688L18.9103 15.9106C19.6077 15.7949 20.0807 15.1558 19.9885 14.4515ZM18.7677 15.0532L17.8173 15.2115C17.5799 15.2515 17.366 15.0993 17.319 14.8637L15.6434 6.86724C15.5982 6.64987 15.4034 6.50464 15.173 6.52375C14.9512 6.54723 14.7834 6.7342 14.7834 6.95679V17.3914C14.7834 17.6314 14.5878 17.8262 14.3486 17.8262H5.65311C5.41397 17.8262 5.21832 17.6314 5.21832 17.3914V6.95679C5.21832 6.7342 5.05051 6.54723 4.82878 6.52375C4.81313 6.5229 4.79833 6.522 4.78358 6.522C4.5801 6.522 4.40096 6.66462 4.35836 6.8672L2.68185 14.868C2.63575 15.0993 2.41752 15.2515 2.18446 15.2115L1.23405 15.0532C1.00102 15.0149 0.843607 14.8019 0.874055 14.5724L2.12967 5.60204C2.37403 3.64816 4.04357 2.17427 6.01311 2.17427H6.29831C7.06004 3.05424 9.38696 3.75511 9.88175 3.89684C9.95915 3.91856 10.0409 3.91771 10.1191 3.89684C10.6122 3.75772 12.9391 3.06553 13.7043 2.17427H13.9886C15.9582 2.17427 17.6277 3.64816 17.8721 5.60204C17.8721 5.60379 17.8729 5.6064 17.8729 5.60812L19.1268 14.5689C19.1581 14.8019 19.0007 15.0149 18.7677 15.0532Z"/>
<path d="M13.673 1.35079C13.4582 1.24559 13.1982 1.33077 13.0895 1.54558L11.6208 4.48378L10.3078 3.17163C10.1383 3.00207 9.86259 3.00207 9.69303 3.17163L8.38002 4.48378L6.91134 1.54558C6.80353 1.33081 6.54352 1.24473 6.32786 1.35079C6.11309 1.45774 6.02701 1.71946 6.13396 1.93427L7.87308 5.41247C7.93569 5.53768 8.05483 5.62462 8.19219 5.64724C8.3296 5.67072 8.47046 5.62377 8.56959 5.52549L10.0009 4.09334L11.4322 5.52549C11.5148 5.60722 11.6252 5.65246 11.74 5.65246C11.7626 5.65246 11.787 5.65071 11.8096 5.64724C11.947 5.62462 12.0661 5.53768 12.1287 5.41247L13.8678 1.93427C13.9747 1.7195 13.8877 1.45864 13.673 1.35079Z"/>
<path d="M12.8799 12.0846C12.8773 12.0559 12.8695 12.0272 12.8599 11.9993L12.0417 9.68284C12.0321 9.65589 12.0208 9.63066 12.006 9.60719C11.6721 8.79936 10.8747 8.26112 10.0008 8.26112C9.1243 8.26112 8.3278 8.80025 7.99389 9.61155C7.97999 9.63503 7.96781 9.66111 7.95823 9.68805L7.14086 12.0002C7.13218 12.0271 7.12521 12.055 7.12175 12.0828C7.01218 12.4054 6.9574 12.7289 6.9574 13.0436C6.9574 14.7219 8.32259 16.0871 10.0008 16.0871C11.6791 16.0871 13.0443 14.7219 13.0443 13.0436C13.0443 12.7297 12.9895 12.4072 12.8799 12.0846ZM10.0008 15.2176C8.80172 15.2176 7.82698 14.2419 7.82698 13.0437C7.82698 12.7993 7.87394 12.5541 7.9687 12.295C7.97914 12.2663 7.98611 12.2368 7.99043 12.2072L8.75737 10.0402C8.76695 10.022 8.77563 10.0028 8.78346 9.98283C8.97214 9.47329 9.46171 9.13066 10.0008 9.13066C10.5469 9.13066 11.0252 9.46371 11.2191 9.98108C11.2252 9.99934 11.2339 10.0185 11.2434 10.0359L12.0104 12.2045C12.0147 12.235 12.0217 12.2654 12.033 12.295C12.1278 12.5541 12.1747 12.7993 12.1747 13.0436C12.1748 14.2419 11.2 15.2176 10.0008 15.2176Z"/>
<path d="M8.52871 9.60197C7.55914 9.06112 6.95744 8.04806 6.95744 6.95679C6.95744 6.71679 6.76265 6.522 6.52265 6.522C6.28266 6.522 6.08786 6.71679 6.08786 6.95679C6.08786 8.36286 6.86088 9.66718 8.10435 10.3619C8.17132 10.3985 8.24437 10.4167 8.31651 10.4167C8.46781 10.4167 8.61565 10.3367 8.69562 10.1932C8.81305 9.98373 8.7374 9.71936 8.52871 9.60197Z"/>
<path d="M13.4791 6.52204C13.2391 6.52204 13.0443 6.71684 13.0443 6.95683C13.0443 8.04811 12.4426 9.06116 11.473 9.60286C11.2643 9.72025 11.1887 9.98459 11.3061 10.1942C11.3861 10.3368 11.5339 10.4168 11.6861 10.4168C11.7583 10.4168 11.8304 10.3985 11.8982 10.362C13.1408 9.66723 13.9139 8.3629 13.9139 6.95683C13.9138 6.71679 13.7191 6.52204 13.4791 6.52204Z"/>
<path d="M12.9817 8.78375C12.6139 8.49072 12.1748 8.01073 12.1748 7.39158C12.1748 7.15158 11.98 6.95679 11.74 6.95679C11.5 6.95679 11.3052 7.15158 11.3052 7.39158C11.3052 8.15506 11.6973 8.87244 12.4391 9.46371C12.5191 9.52717 12.6156 9.55848 12.7104 9.55848C12.8382 9.55848 12.9643 9.50284 13.0504 9.39499C13.2008 9.20721 13.1695 8.9333 12.9817 8.78375Z"/>
<path d="M8.26177 6.95679C8.02177 6.95679 7.82698 7.15158 7.82698 7.39158C7.82698 8.00983 7.38873 8.48983 7.02091 8.78285C6.83308 8.9333 6.80264 9.20631 6.95308 9.39413C7.03917 9.50194 7.16613 9.55762 7.29306 9.55762C7.38783 9.55762 7.48349 9.52632 7.56436 9.46196C8.30522 8.87065 8.69652 8.15416 8.69652 7.39154C8.69652 7.15158 8.50177 6.95679 8.26177 6.95679Z"/>
<path d="M9.13131 11.7394C9.37144 11.7394 9.5661 11.5447 9.5661 11.3046C9.5661 11.0644 9.37144 10.8698 9.13131 10.8698C8.89118 10.8698 8.69652 11.0644 8.69652 11.3046C8.69652 11.5447 8.89118 11.7394 9.13131 11.7394Z"/>
<path d="M10.8704 11.7394C11.1106 11.7394 11.3052 11.5447 11.3052 11.3046C11.3052 11.0644 11.1106 10.8698 10.8704 10.8698C10.6303 10.8698 10.4356 11.0644 10.4356 11.3046C10.4356 11.5447 10.6303 11.7394 10.8704 11.7394Z"/>
<path d="M12.6382 14.1332C12.0956 13.1932 11.0852 12.6089 10.0008 12.6089C8.9174 12.6089 7.90785 13.1915 7.36435 14.1297C7.24435 14.3384 7.31564 14.6037 7.52348 14.7245C7.73042 14.8437 7.9974 14.7741 8.1174 14.5654C8.50523 13.895 9.22693 13.4784 10.0008 13.4784C10.7756 13.4784 11.4982 13.8958 11.8861 14.568C11.9661 14.7071 12.113 14.7854 12.2626 14.7854C12.3365 14.7854 12.4104 14.7663 12.4791 14.7271C12.6878 14.6071 12.7591 14.341 12.6382 14.1332Z"/>
<path d="M13.4338 10.2411C13.326 10.0254 13.066 9.93934 12.8504 10.0463L11.9808 10.4811C11.7661 10.5889 11.6791 10.8498 11.786 11.0646C11.8625 11.2167 12.0156 11.3046 12.1747 11.3046C12.2399 11.3046 12.306 11.2898 12.3695 11.2594L13.239 10.8246C13.4539 10.7168 13.5408 10.4559 13.4338 10.2411Z"/>
<path d="M8.02088 10.4802L7.15134 10.0454C6.93657 9.94024 6.67656 10.0246 6.56786 10.2402C6.4609 10.455 6.54784 10.7159 6.76265 10.8237L7.63219 11.2585C7.69565 11.2898 7.76176 11.3046 7.82698 11.3046C7.98611 11.3046 8.13916 11.2168 8.21567 11.0638C8.32263 10.8489 8.23568 10.588 8.02088 10.4802Z"/>
</mask>
<path d="M6.52265 16.9567C6.28266 16.9567 6.08786 17.1515 6.08786 17.3915V18.261C6.08786 18.501 6.28266 18.6958 6.52265 18.6958C6.76265 18.6958 6.95744 18.501 6.95744 18.261V17.3914C6.95744 17.1514 6.76265 16.9567 6.52265 16.9567Z" fill="#57AB00"/>
<path d="M8.26177 16.9567C8.02177 16.9567 7.82698 17.1515 7.82698 17.3915V18.261C7.82698 18.501 8.02177 18.6958 8.26177 18.6958C8.50177 18.6958 8.69656 18.501 8.69656 18.261V17.3914C8.69652 17.1514 8.50177 16.9567 8.26177 16.9567Z" fill="#57AB00"/>
<path d="M10.0008 16.9567C9.76085 16.9567 9.56606 17.1515 9.56606 17.3915V18.261C9.56606 18.501 9.76085 18.6958 10.0008 18.6958C10.2408 18.6958 10.4356 18.501 10.4356 18.261V17.3914C10.4356 17.1514 10.2408 16.9567 10.0008 16.9567Z" fill="#57AB00"/>
<path d="M11.74 16.9567C11.5 16.9567 11.3052 17.1515 11.3052 17.3915V18.261C11.3052 18.501 11.5 18.6958 11.74 18.6958C11.98 18.6958 12.1748 18.501 12.1748 18.261V17.3914C12.1748 17.1514 11.98 16.9567 11.74 16.9567Z" fill="#57AB00"/>
<path d="M13.4791 16.9567C13.2391 16.9567 13.0443 17.1515 13.0443 17.3915V18.261C13.0443 18.501 13.2391 18.6958 13.4791 18.6958C13.7191 18.6958 13.9139 18.501 13.9139 18.261V17.3914C13.9138 17.1514 13.7191 16.9567 13.4791 16.9567Z" fill="#57AB00"/>
<path d="M19.9885 14.4515L18.7346 5.49073C18.4338 3.1038 16.3947 1.30469 13.9886 1.30469H13.4791C13.3147 1.30469 13.1652 1.39685 13.0913 1.54383C12.8756 1.97165 11.3452 2.63425 10.0017 3.02555C8.65307 2.62817 7.12093 1.96382 6.91134 1.54468C6.83744 1.39774 6.687 1.30469 6.52265 1.30469H6.01311C3.60617 1.30469 1.5662 3.10552 1.26796 5.48812L0.0114455 14.4558C-0.0807134 15.1558 0.393165 15.7958 1.09057 15.9115L2.04098 16.0697C2.74096 16.1854 3.39573 15.7332 3.53313 15.0428L4.34879 11.1524V17.3914C4.34879 18.1106 4.93398 18.6957 5.65311 18.6957H14.3486C15.0678 18.6957 15.653 18.1106 15.653 17.3914V11.1515L16.4669 15.0376C16.6051 15.7323 17.259 16.1845 17.9599 16.0688L18.9103 15.9106C19.6077 15.7949 20.0807 15.1558 19.9885 14.4515ZM18.7677 15.0532L17.8173 15.2115C17.5799 15.2515 17.366 15.0993 17.319 14.8637L15.6434 6.86724C15.5982 6.64987 15.4034 6.50464 15.173 6.52375C14.9512 6.54723 14.7834 6.7342 14.7834 6.95679V17.3914C14.7834 17.6314 14.5878 17.8262 14.3486 17.8262H5.65311C5.41397 17.8262 5.21832 17.6314 5.21832 17.3914V6.95679C5.21832 6.7342 5.05051 6.54723 4.82878 6.52375C4.81313 6.5229 4.79833 6.522 4.78358 6.522C4.5801 6.522 4.40096 6.66462 4.35836 6.8672L2.68185 14.868C2.63575 15.0993 2.41752 15.2515 2.18446 15.2115L1.23405 15.0532C1.00102 15.0149 0.843607 14.8019 0.874055 14.5724L2.12967 5.60204C2.37403 3.64816 4.04357 2.17427 6.01311 2.17427H6.29831C7.06004 3.05424 9.38696 3.75511 9.88175 3.89684C9.95915 3.91856 10.0409 3.91771 10.1191 3.89684C10.6122 3.75772 12.9391 3.06553 13.7043 2.17427H13.9886C15.9582 2.17427 17.6277 3.64816 17.8721 5.60204C17.8721 5.60379 17.8729 5.6064 17.8729 5.60812L19.1268 14.5689C19.1581 14.8019 19.0007 15.0149 18.7677 15.0532Z" fill="#57AB00"/>
<path d="M13.673 1.35079C13.4582 1.24559 13.1982 1.33077 13.0895 1.54558L11.6208 4.48378L10.3078 3.17163C10.1383 3.00207 9.86259 3.00207 9.69303 3.17163L8.38002 4.48378L6.91134 1.54558C6.80353 1.33081 6.54352 1.24473 6.32786 1.35079C6.11309 1.45774 6.02701 1.71946 6.13396 1.93427L7.87308 5.41247C7.93569 5.53768 8.05483 5.62462 8.19219 5.64724C8.3296 5.67072 8.47046 5.62377 8.56959 5.52549L10.0009 4.09334L11.4322 5.52549C11.5148 5.60722 11.6252 5.65246 11.74 5.65246C11.7626 5.65246 11.787 5.65071 11.8096 5.64724C11.947 5.62462 12.0661 5.53768 12.1287 5.41247L13.8678 1.93427C13.9747 1.7195 13.8877 1.45864 13.673 1.35079Z" fill="#57AB00"/>
<path d="M12.8799 12.0846C12.8773 12.0559 12.8695 12.0272 12.8599 11.9993L12.0417 9.68284C12.0321 9.65589 12.0208 9.63066 12.006 9.60719C11.6721 8.79936 10.8747 8.26112 10.0008 8.26112C9.1243 8.26112 8.3278 8.80025 7.99389 9.61155C7.97999 9.63503 7.96781 9.66111 7.95823 9.68805L7.14086 12.0002C7.13218 12.0271 7.12521 12.055 7.12175 12.0828C7.01218 12.4054 6.9574 12.7289 6.9574 13.0436C6.9574 14.7219 8.32259 16.0871 10.0008 16.0871C11.6791 16.0871 13.0443 14.7219 13.0443 13.0436C13.0443 12.7297 12.9895 12.4072 12.8799 12.0846ZM10.0008 15.2176C8.80172 15.2176 7.82698 14.2419 7.82698 13.0437C7.82698 12.7993 7.87394 12.5541 7.9687 12.295C7.97914 12.2663 7.98611 12.2368 7.99043 12.2072L8.75737 10.0402C8.76695 10.022 8.77563 10.0028 8.78346 9.98283C8.97214 9.47329 9.46171 9.13066 10.0008 9.13066C10.5469 9.13066 11.0252 9.46371 11.2191 9.98108C11.2252 9.99934 11.2339 10.0185 11.2434 10.0359L12.0104 12.2045C12.0147 12.235 12.0217 12.2654 12.033 12.295C12.1278 12.5541 12.1747 12.7993 12.1747 13.0436C12.1748 14.2419 11.2 15.2176 10.0008 15.2176Z" fill="#57AB00"/>
<path d="M8.52871 9.60197C7.55914 9.06112 6.95744 8.04806 6.95744 6.95679C6.95744 6.71679 6.76265 6.522 6.52265 6.522C6.28266 6.522 6.08786 6.71679 6.08786 6.95679C6.08786 8.36286 6.86088 9.66718 8.10435 10.3619C8.17132 10.3985 8.24437 10.4167 8.31651 10.4167C8.46781 10.4167 8.61565 10.3367 8.69562 10.1932C8.81305 9.98373 8.7374 9.71936 8.52871 9.60197Z" fill="#57AB00"/>
<path d="M13.4791 6.52204C13.2391 6.52204 13.0443 6.71684 13.0443 6.95683C13.0443 8.04811 12.4426 9.06116 11.473 9.60286C11.2643 9.72025 11.1887 9.98459 11.3061 10.1942C11.3861 10.3368 11.5339 10.4168 11.6861 10.4168C11.7583 10.4168 11.8304 10.3985 11.8982 10.362C13.1408 9.66723 13.9139 8.3629 13.9139 6.95683C13.9138 6.71679 13.7191 6.52204 13.4791 6.52204Z" fill="#57AB00"/>
<path d="M12.9817 8.78375C12.6139 8.49072 12.1748 8.01073 12.1748 7.39158C12.1748 7.15158 11.98 6.95679 11.74 6.95679C11.5 6.95679 11.3052 7.15158 11.3052 7.39158C11.3052 8.15506 11.6973 8.87244 12.4391 9.46371C12.5191 9.52717 12.6156 9.55848 12.7104 9.55848C12.8382 9.55848 12.9643 9.50284 13.0504 9.39499C13.2008 9.20721 13.1695 8.9333 12.9817 8.78375Z" fill="#57AB00"/>
<path d="M8.26177 6.95679C8.02177 6.95679 7.82698 7.15158 7.82698 7.39158C7.82698 8.00983 7.38873 8.48983 7.02091 8.78285C6.83308 8.9333 6.80264 9.20631 6.95308 9.39413C7.03917 9.50194 7.16613 9.55762 7.29306 9.55762C7.38783 9.55762 7.48349 9.52632 7.56436 9.46196C8.30522 8.87065 8.69652 8.15416 8.69652 7.39154C8.69652 7.15158 8.50177 6.95679 8.26177 6.95679Z" fill="#57AB00"/>
<path d="M9.13131 11.7394C9.37144 11.7394 9.5661 11.5447 9.5661 11.3046C9.5661 11.0644 9.37144 10.8698 9.13131 10.8698C8.89118 10.8698 8.69652 11.0644 8.69652 11.3046C8.69652 11.5447 8.89118 11.7394 9.13131 11.7394Z" fill="#57AB00"/>
<path d="M10.8704 11.7394C11.1106 11.7394 11.3052 11.5447 11.3052 11.3046C11.3052 11.0644 11.1106 10.8698 10.8704 10.8698C10.6303 10.8698 10.4356 11.0644 10.4356 11.3046C10.4356 11.5447 10.6303 11.7394 10.8704 11.7394Z" fill="#57AB00"/>
<path d="M12.6382 14.1332C12.0956 13.1932 11.0852 12.6089 10.0008 12.6089C8.9174 12.6089 7.90785 13.1915 7.36435 14.1297C7.24435 14.3384 7.31564 14.6037 7.52348 14.7245C7.73042 14.8437 7.9974 14.7741 8.1174 14.5654C8.50523 13.895 9.22693 13.4784 10.0008 13.4784C10.7756 13.4784 11.4982 13.8958 11.8861 14.568C11.9661 14.7071 12.113 14.7854 12.2626 14.7854C12.3365 14.7854 12.4104 14.7663 12.4791 14.7271C12.6878 14.6071 12.7591 14.341 12.6382 14.1332Z" fill="#57AB00"/>
<path d="M13.4338 10.2411C13.326 10.0254 13.066 9.93934 12.8504 10.0463L11.9808 10.4811C11.7661 10.5889 11.6791 10.8498 11.786 11.0646C11.8625 11.2167 12.0156 11.3046 12.1747 11.3046C12.2399 11.3046 12.306 11.2898 12.3695 11.2594L13.239 10.8246C13.4539 10.7168 13.5408 10.4559 13.4338 10.2411Z" fill="#57AB00"/>
<path d="M8.02088 10.4802L7.15134 10.0454C6.93657 9.94024 6.67656 10.0246 6.56786 10.2402C6.4609 10.455 6.54784 10.7159 6.76265 10.8237L7.63219 11.2585C7.69565 11.2898 7.76176 11.3046 7.82698 11.3046C7.98611 11.3046 8.13916 11.2168 8.21567 11.0638C8.32263 10.8489 8.23568 10.588 8.02088 10.4802Z" fill="#57AB00"/>
<path d="M6.52265 16.9567C6.28266 16.9567 6.08786 17.1515 6.08786 17.3915V18.261C6.08786 18.501 6.28266 18.6958 6.52265 18.6958C6.76265 18.6958 6.95744 18.501 6.95744 18.261V17.3914C6.95744 17.1514 6.76265 16.9567 6.52265 16.9567Z" stroke="#57AB00" stroke-width="0.244562" mask="url(#path-1-outside-1)"/>
<path d="M8.26177 16.9567C8.02177 16.9567 7.82698 17.1515 7.82698 17.3915V18.261C7.82698 18.501 8.02177 18.6958 8.26177 18.6958C8.50177 18.6958 8.69656 18.501 8.69656 18.261V17.3914C8.69652 17.1514 8.50177 16.9567 8.26177 16.9567Z" stroke="#57AB00" stroke-width="0.244562" mask="url(#path-1-outside-1)"/>
<path d="M10.0008 16.9567C9.76085 16.9567 9.56606 17.1515 9.56606 17.3915V18.261C9.56606 18.501 9.76085 18.6958 10.0008 18.6958C10.2408 18.6958 10.4356 18.501 10.4356 18.261V17.3914C10.4356 17.1514 10.2408 16.9567 10.0008 16.9567Z" stroke="#57AB00" stroke-width="0.244562" mask="url(#path-1-outside-1)"/>
<path d="M11.74 16.9567C11.5 16.9567 11.3052 17.1515 11.3052 17.3915V18.261C11.3052 18.501 11.5 18.6958 11.74 18.6958C11.98 18.6958 12.1748 18.501 12.1748 18.261V17.3914C12.1748 17.1514 11.98 16.9567 11.74 16.9567Z" stroke="#57AB00" stroke-width="0.244562" mask="url(#path-1-outside-1)"/>
<path d="M13.4791 16.9567C13.2391 16.9567 13.0443 17.1515 13.0443 17.3915V18.261C13.0443 18.501 13.2391 18.6958 13.4791 18.6958C13.7191 18.6958 13.9139 18.501 13.9139 18.261V17.3914C13.9138 17.1514 13.7191 16.9567 13.4791 16.9567Z" stroke="#57AB00" stroke-width="0.244562" mask="url(#path-1-outside-1)"/>
<path d="M19.9885 14.4515L18.7346 5.49073C18.4338 3.1038 16.3947 1.30469 13.9886 1.30469H13.4791C13.3147 1.30469 13.1652 1.39685 13.0913 1.54383C12.8756 1.97165 11.3452 2.63425 10.0017 3.02555C8.65307 2.62817 7.12093 1.96382 6.91134 1.54468C6.83744 1.39774 6.687 1.30469 6.52265 1.30469H6.01311C3.60617 1.30469 1.5662 3.10552 1.26796 5.48812L0.0114455 14.4558C-0.0807134 15.1558 0.393165 15.7958 1.09057 15.9115L2.04098 16.0697C2.74096 16.1854 3.39573 15.7332 3.53313 15.0428L4.34879 11.1524V17.3914C4.34879 18.1106 4.93398 18.6957 5.65311 18.6957H14.3486C15.0678 18.6957 15.653 18.1106 15.653 17.3914V11.1515L16.4669 15.0376C16.6051 15.7323 17.259 16.1845 17.9599 16.0688L18.9103 15.9106C19.6077 15.7949 20.0807 15.1558 19.9885 14.4515ZM18.7677 15.0532L17.8173 15.2115C17.5799 15.2515 17.366 15.0993 17.319 14.8637L15.6434 6.86724C15.5982 6.64987 15.4034 6.50464 15.173 6.52375C14.9512 6.54723 14.7834 6.7342 14.7834 6.95679V17.3914C14.7834 17.6314 14.5878 17.8262 14.3486 17.8262H5.65311C5.41397 17.8262 5.21832 17.6314 5.21832 17.3914V6.95679C5.21832 6.7342 5.05051 6.54723 4.82878 6.52375C4.81313 6.5229 4.79833 6.522 4.78358 6.522C4.5801 6.522 4.40096 6.66462 4.35836 6.8672L2.68185 14.868C2.63575 15.0993 2.41752 15.2515 2.18446 15.2115L1.23405 15.0532C1.00102 15.0149 0.843607 14.8019 0.874055 14.5724L2.12967 5.60204C2.37403 3.64816 4.04357 2.17427 6.01311 2.17427H6.29831C7.06004 3.05424 9.38696 3.75511 9.88175 3.89684C9.95915 3.91856 10.0409 3.91771 10.1191 3.89684C10.6122 3.75772 12.9391 3.06553 13.7043 2.17427H13.9886C15.9582 2.17427 17.6277 3.64816 17.8721 5.60204C17.8721 5.60379 17.8729 5.6064 17.8729 5.60812L19.1268 14.5689C19.1581 14.8019 19.0007 15.0149 18.7677 15.0532Z" stroke="#57AB00" stroke-width="0.244562" mask="url(#path-1-outside-1)"/>
<path d="M13.673 1.35079C13.4582 1.24559 13.1982 1.33077 13.0895 1.54558L11.6208 4.48378L10.3078 3.17163C10.1383 3.00207 9.86259 3.00207 9.69303 3.17163L8.38002 4.48378L6.91134 1.54558C6.80353 1.33081 6.54352 1.24473 6.32786 1.35079C6.11309 1.45774 6.02701 1.71946 6.13396 1.93427L7.87308 5.41247C7.93569 5.53768 8.05483 5.62462 8.19219 5.64724C8.3296 5.67072 8.47046 5.62377 8.56959 5.52549L10.0009 4.09334L11.4322 5.52549C11.5148 5.60722 11.6252 5.65246 11.74 5.65246C11.7626 5.65246 11.787 5.65071 11.8096 5.64724C11.947 5.62462 12.0661 5.53768 12.1287 5.41247L13.8678 1.93427C13.9747 1.7195 13.8877 1.45864 13.673 1.35079Z" stroke="#57AB00" stroke-width="0.244562" mask="url(#path-1-outside-1)"/>
<path d="M12.8799 12.0846C12.8773 12.0559 12.8695 12.0272 12.8599 11.9993L12.0417 9.68284C12.0321 9.65589 12.0208 9.63066 12.006 9.60719C11.6721 8.79936 10.8747 8.26112 10.0008 8.26112C9.1243 8.26112 8.3278 8.80025 7.99389 9.61155C7.97999 9.63503 7.96781 9.66111 7.95823 9.68805L7.14086 12.0002C7.13218 12.0271 7.12521 12.055 7.12175 12.0828C7.01218 12.4054 6.9574 12.7289 6.9574 13.0436C6.9574 14.7219 8.32259 16.0871 10.0008 16.0871C11.6791 16.0871 13.0443 14.7219 13.0443 13.0436C13.0443 12.7297 12.9895 12.4072 12.8799 12.0846ZM10.0008 15.2176C8.80172 15.2176 7.82698 14.2419 7.82698 13.0437C7.82698 12.7993 7.87394 12.5541 7.9687 12.295C7.97914 12.2663 7.98611 12.2368 7.99043 12.2072L8.75737 10.0402C8.76695 10.022 8.77563 10.0028 8.78346 9.98283C8.97214 9.47329 9.46171 9.13066 10.0008 9.13066C10.5469 9.13066 11.0252 9.46371 11.2191 9.98108C11.2252 9.99934 11.2339 10.0185 11.2434 10.0359L12.0104 12.2045C12.0147 12.235 12.0217 12.2654 12.033 12.295C12.1278 12.5541 12.1747 12.7993 12.1747 13.0436C12.1748 14.2419 11.2 15.2176 10.0008 15.2176Z" stroke="#57AB00" stroke-width="0.244562" mask="url(#path-1-outside-1)"/>
<path d="M8.52871 9.60197C7.55914 9.06112 6.95744 8.04806 6.95744 6.95679C6.95744 6.71679 6.76265 6.522 6.52265 6.522C6.28266 6.522 6.08786 6.71679 6.08786 6.95679C6.08786 8.36286 6.86088 9.66718 8.10435 10.3619C8.17132 10.3985 8.24437 10.4167 8.31651 10.4167C8.46781 10.4167 8.61565 10.3367 8.69562 10.1932C8.81305 9.98373 8.7374 9.71936 8.52871 9.60197Z" stroke="#57AB00" stroke-width="0.244562" mask="url(#path-1-outside-1)"/>
<path d="M13.4791 6.52204C13.2391 6.52204 13.0443 6.71684 13.0443 6.95683C13.0443 8.04811 12.4426 9.06116 11.473 9.60286C11.2643 9.72025 11.1887 9.98459 11.3061 10.1942C11.3861 10.3368 11.5339 10.4168 11.6861 10.4168C11.7583 10.4168 11.8304 10.3985 11.8982 10.362C13.1408 9.66723 13.9139 8.3629 13.9139 6.95683C13.9138 6.71679 13.7191 6.52204 13.4791 6.52204Z" stroke="#57AB00" stroke-width="0.244562" mask="url(#path-1-outside-1)"/>
<path d="M12.9817 8.78375C12.6139 8.49072 12.1748 8.01073 12.1748 7.39158C12.1748 7.15158 11.98 6.95679 11.74 6.95679C11.5 6.95679 11.3052 7.15158 11.3052 7.39158C11.3052 8.15506 11.6973 8.87244 12.4391 9.46371C12.5191 9.52717 12.6156 9.55848 12.7104 9.55848C12.8382 9.55848 12.9643 9.50284 13.0504 9.39499C13.2008 9.20721 13.1695 8.9333 12.9817 8.78375Z" stroke="#57AB00" stroke-width="0.244562" mask="url(#path-1-outside-1)"/>
<path d="M8.26177 6.95679C8.02177 6.95679 7.82698 7.15158 7.82698 7.39158C7.82698 8.00983 7.38873 8.48983 7.02091 8.78285C6.83308 8.9333 6.80264 9.20631 6.95308 9.39413C7.03917 9.50194 7.16613 9.55762 7.29306 9.55762C7.38783 9.55762 7.48349 9.52632 7.56436 9.46196C8.30522 8.87065 8.69652 8.15416 8.69652 7.39154C8.69652 7.15158 8.50177 6.95679 8.26177 6.95679Z" stroke="#57AB00" stroke-width="0.244562" mask="url(#path-1-outside-1)"/>
<path d="M9.13131 11.7394C9.37144 11.7394 9.5661 11.5447 9.5661 11.3046C9.5661 11.0644 9.37144 10.8698 9.13131 10.8698C8.89118 10.8698 8.69652 11.0644 8.69652 11.3046C8.69652 11.5447 8.89118 11.7394 9.13131 11.7394Z" stroke="#57AB00" stroke-width="0.244562" mask="url(#path-1-outside-1)"/>
<path d="M10.8704 11.7394C11.1106 11.7394 11.3052 11.5447 11.3052 11.3046C11.3052 11.0644 11.1106 10.8698 10.8704 10.8698C10.6303 10.8698 10.4356 11.0644 10.4356 11.3046C10.4356 11.5447 10.6303 11.7394 10.8704 11.7394Z" stroke="#57AB00" stroke-width="0.244562" mask="url(#path-1-outside-1)"/>
<path d="M12.6382 14.1332C12.0956 13.1932 11.0852 12.6089 10.0008 12.6089C8.9174 12.6089 7.90785 13.1915 7.36435 14.1297C7.24435 14.3384 7.31564 14.6037 7.52348 14.7245C7.73042 14.8437 7.9974 14.7741 8.1174 14.5654C8.50523 13.895 9.22693 13.4784 10.0008 13.4784C10.7756 13.4784 11.4982 13.8958 11.8861 14.568C11.9661 14.7071 12.113 14.7854 12.2626 14.7854C12.3365 14.7854 12.4104 14.7663 12.4791 14.7271C12.6878 14.6071 12.7591 14.341 12.6382 14.1332Z" stroke="#57AB00" stroke-width="0.244562" mask="url(#path-1-outside-1)"/>
<path d="M13.4338 10.2411C13.326 10.0254 13.066 9.93934 12.8504 10.0463L11.9808 10.4811C11.7661 10.5889 11.6791 10.8498 11.786 11.0646C11.8625 11.2167 12.0156 11.3046 12.1747 11.3046C12.2399 11.3046 12.306 11.2898 12.3695 11.2594L13.239 10.8246C13.4539 10.7168 13.5408 10.4559 13.4338 10.2411Z" stroke="#57AB00" stroke-width="0.244562" mask="url(#path-1-outside-1)"/>
<path d="M8.02088 10.4802L7.15134 10.0454C6.93657 9.94024 6.67656 10.0246 6.56786 10.2402C6.4609 10.455 6.54784 10.7159 6.76265 10.8237L7.63219 11.2585C7.69565 11.2898 7.76176 11.3046 7.82698 11.3046C7.98611 11.3046 8.13916 11.2168 8.21567 11.0638C8.32263 10.8489 8.23568 10.588 8.02088 10.4802Z" stroke="#57AB00" stroke-width="0.244562" mask="url(#path-1-outside-1)"/>
</g>
<defs>
<clipPath id="clip0">
<rect width="20" height="20" fill="white"/>
</clipPath>
</defs>
</svg>
