<svg width="20" height="20" viewBox="0 0 20 20" fill="none" xmlns="http://www.w3.org/2000/svg">
<path d="M4.6875 0C2.10281 0 0 2.10281 0 4.6875V9.375C0 9.7202 0.279844 10 0.625 10V14.0625C0.625 16.3026 2.44742 18.125 4.6875 18.125C6.92758 18.125 8.75 16.3026 8.75 14.0625V10C9.09516 10 9.375 9.7202 9.375 9.375V4.6875C9.375 2.10281 7.27219 0 4.6875 0ZM7.5 14.0625C7.5 15.6133 6.23832 16.875 4.6875 16.875C3.13668 16.875 1.875 15.6133 1.875 14.0625V10H7.5V14.0625ZM8.125 8.75H1.25V4.6875C1.25 2.79207 2.79207 1.25 4.6875 1.25C6.58293 1.25 8.125 2.79207 8.125 4.6875V8.75Z" fill="#57AB00"/>
<path d="M15.3125 1.875C12.7278 1.875 10.625 3.97781 10.625 6.5625V11.25C10.625 11.5952 10.9048 11.875 11.25 11.875V15.9375C11.25 18.1776 13.0724 20 15.3125 20C17.5526 20 19.375 18.1776 19.375 15.9375V11.875C19.7202 11.875 20 11.5952 20 11.25V6.5625C20 3.97781 17.8972 1.875 15.3125 1.875ZM11.875 6.5625C11.875 4.66707 13.4171 3.125 15.3125 3.125C17.2079 3.125 18.75 4.66707 18.75 6.5625V10.625H11.875V6.5625ZM18.125 15.9375C18.125 17.4883 16.8633 18.75 15.3125 18.75C13.7617 18.75 12.5 17.4883 12.5 15.9375V11.875H18.125V15.9375Z" fill="#57AB00"/>
<path d="M6.00542 3.58164C5.48847 3.18504 4.97359 2.94281 4.95195 2.93273C4.78437 2.85445 4.59066 2.85445 4.42308 2.93273C4.19425 3.03957 2.1875 4.01937 2.1875 5.50027C2.1875 6.7837 3.60918 7.55929 4.6875 6.86995C6.32761 7.91839 8.61151 5.58015 6.00542 3.58164ZM5.23421 5.6821C4.99671 5.25335 4.37847 5.253 4.14078 5.6821C4.01949 5.90117 3.72301 5.94175 3.54754 5.76609C3.0948 5.31324 4.09117 4.54086 4.68476 4.20441C5.00308 4.38601 5.3557 4.62953 5.60992 4.89746C6.41781 5.74863 5.48714 6.13886 5.23421 5.6821Z" fill="#57AB00"/>
<path d="M16.6304 5.45664C16.1134 5.06004 15.5985 4.81781 15.5769 4.80773C15.4093 4.72945 15.2156 4.72945 15.048 4.80773C14.8192 4.91457 12.8125 5.89437 12.8125 7.37527C12.8125 8.65871 14.2342 9.4343 15.3125 8.74496C16.9526 9.7934 19.2365 7.45516 16.6304 5.45664ZM15.8592 7.55711C15.6217 7.12836 15.0034 7.12801 14.7657 7.55711C14.6444 7.77617 14.348 7.81676 14.1725 7.64109C13.7198 7.18824 14.7161 6.41586 15.3097 6.07941C15.628 6.26102 15.9807 6.50453 16.2349 6.77246C17.0428 7.62363 16.1121 8.01387 15.8592 7.55711Z" fill="#57AB00"/>
</svg>
