<svg width="20" height="20" viewBox="0 0 20 20" fill="none" xmlns="http://www.w3.org/2000/svg">
<path d="M17.0312 0H2.96875C1.3533 0 0.0390625 1.31424 0.0390625 2.92969V18.8281H1.21094V16.4062H2.38281V18.8281H3.55469V16.4062H4.72656V20H5.89844V17.5781H7.07031V20H8.24219V17.5781H9.41406V20H10.5859V17.5781H11.7578V20H12.9297V17.5781H14.1016V20H15.2734V17.5781H16.4453V20H17.6172V17.5781H18.7891V20H19.9609V2.92969C19.9609 1.31424 18.6467 0 17.0312 0ZM18.7891 2.92969V4.6875H15.2734V2.92969C15.2734 2.27066 15.0546 1.66183 14.686 1.17188H17.0312C18.0005 1.17188 18.7891 1.96045 18.7891 2.92969ZM5.89844 5.85938H9.41406V9.375H5.89844V5.85938ZM10.5859 5.85938H14.1016V9.375H10.5859V5.85938ZM5.89844 10.5469H9.41406V14.0625H5.89844V10.5469ZM10.5859 10.5469H14.1016V14.0625H10.5859V10.5469ZM15.2734 10.5469H18.7891V14.0625H15.2734V10.5469ZM15.2734 9.375V5.85938H18.7891V9.375H15.2734ZM14.1016 2.92969V4.6875H10.5859V2.92969C10.5859 2.27066 10.3671 1.66183 9.99847 1.17188H12.3438C13.313 1.17188 14.1016 1.96045 14.1016 2.92969ZM9.41406 2.92969V4.6875H5.89844V2.92969C5.89844 2.27066 5.67963 1.66183 5.31097 1.17188H7.65625C8.62549 1.17188 9.41406 1.96045 9.41406 2.92969ZM2.96875 1.17188C3.93799 1.17188 4.72656 1.96045 4.72656 2.92969V12.8906H1.21094V2.92969C1.21094 1.96045 1.99951 1.17188 2.96875 1.17188ZM1.21094 15.2344V14.0625H4.72656V15.2344H1.21094ZM5.89844 16.4062V15.2344H9.41406V16.4062H5.89844ZM10.5859 16.4062V15.2344H14.1016V16.4062H10.5859ZM15.2734 16.4062V15.2344H18.7891V16.4062H15.2734Z" fill="#57AB00"/>
</svg>
