<svg width="20" height="20" viewBox="0 0 20 20" fill="none" xmlns="http://www.w3.org/2000/svg">
<g clip-path="url(#clip0)">
<path d="M19.9387 7.35605C18.3007 4.07983 18.9878 0 14.2675 0C14.2664 0 13.055 0.000468717 12.3447 0.000624956C12.0212 0.000703076 11.7589 0.263771 11.7589 0.587303C11.7589 1.55649 10.9704 2.34499 10.0012 2.34499C9.03205 2.34499 8.24355 1.55649 8.24355 0.587303C8.24355 0.431884 8.1818 0.282871 8.07192 0.172996C7.96204 0.0631206 7.81303 0.00136709 7.65761 0.00140615H5.73579C1.02691 0.00148427 1.68959 4.10436 0.0638104 7.35605C-0.0489551 7.58162 -0.00473943 7.85402 0.173568 8.03233C1.0273 8.88605 2.22366 9.37575 3.45588 9.37575H4.14231V19.4141C4.14231 19.7377 4.40464 20 4.72821 20H15.2743C15.5979 20 15.8602 19.7377 15.8602 19.4141V9.37575H16.5467C17.7789 9.37575 18.9753 8.88609 19.829 8.03233C20.0073 7.85402 20.0515 7.58162 19.9387 7.35605ZM16.5467 8.20395H15.8602V6.44627C15.8602 6.12269 15.5979 5.86037 15.2743 5.86037C14.9508 5.86037 14.6884 6.12269 14.6884 6.44627V18.8282H5.31411V6.44627C5.31411 6.12269 5.05178 5.86037 4.72821 5.86037C4.40464 5.86037 4.14231 6.12269 4.14231 6.44627V8.20395H3.45588C2.67074 8.20395 1.90696 7.94065 1.30513 7.47139C2.84787 4.0189 2.16976 1.17328 5.73587 1.17316H7.13062C7.40283 2.50865 8.58653 3.51675 10.0012 3.51675C11.4161 3.51675 12.5999 2.50853 12.8719 1.17226C13.3805 1.17214 14.2666 1.17179 14.2677 1.17179C17.8444 1.17179 17.1528 4.02026 18.6973 7.47143C18.0955 7.94065 17.3317 8.20395 16.5467 8.20395Z" fill="#57AB00"/>
<path d="M13.2691 9.091L13.2691 9.091C13.5149 9.84764 13.0984 10.6915 12.3528 10.9338L12.3528 10.9338C12.3112 10.9473 12.2683 10.9591 12.2244 10.9693C12.2539 11.0033 12.2817 11.0381 12.3074 11.0734C12.77 11.7102 12.6284 12.6044 11.9916 13.067C11.355 13.5295 10.5503 13.3893 10.0868 12.7512C10.0868 12.7512 10.0868 12.7512 10.0868 12.7512L13.2691 9.091ZM13.2691 9.091C13.0259 8.34247 12.2192 7.9315 11.4707 8.17466L11.4707 8.17466M13.2691 9.091L11.4707 8.17466M11.4707 8.17466C11.4291 8.18817 11.3875 8.2038 11.346 8.22141M11.4707 8.17466L11.346 8.22141M7.77563 10.9693C7.74607 11.0033 7.71833 11.0381 7.69263 11.0734L7.69262 11.0734C7.23 11.7102 7.37163 12.6044 8.00836 13.067C8.6458 13.5301 9.47658 13.3889 9.93987 12.7512C9.96558 12.7159 9.99007 12.6787 10.0133 12.6401L7.77563 10.9693ZM7.77563 10.9693C7.73171 10.9591 7.68884 10.9473 7.64725 10.9338C6.90166 10.6915 6.48508 9.84763 6.73091 9.091L6.73091 9.091C6.97414 8.34247 7.78086 7.93145 8.5293 8.17466C8.57089 8.18817 8.61252 8.20381 8.65402 8.22141C8.6501 8.17649 8.6481 8.13207 8.6481 8.08835C8.6481 7.3013 9.22328 6.66113 10.0133 6.66113C10.8048 6.66113 11.3519 7.30273 11.3519 8.08835C11.3519 8.13207 11.3499 8.17649 11.346 8.22141M7.77563 10.9693L11.346 8.22141M9.28261 10.9741L9.24101 10.9287C9.20724 10.8919 9.17619 10.8526 9.14803 10.8112L8.84013 10.9186C8.83086 10.9234 8.82071 10.928 8.81326 10.9314C8.81225 10.9318 8.81128 10.9322 8.81038 10.9326C8.80783 10.9338 8.80517 10.935 8.80241 10.9362C8.78793 10.9428 8.77062 10.9506 8.75047 10.96C8.70271 10.9823 8.64006 11.0134 8.57114 11.054C8.43222 11.1359 8.27272 11.2536 8.15798 11.4115L8.07897 11.3541L8.15797 11.4115C7.88188 11.7916 7.96645 12.3256 8.34645 12.6017C8.72413 12.8761 9.19615 12.7963 9.47456 12.4132C9.60567 12.2327 9.7017 11.9514 9.72571 11.6592L9.7257 11.2291C9.67528 11.2146 9.62651 11.1965 9.57964 11.1751L9.4842 11.1315L9.48726 11.1259L9.28261 10.9741ZM9.28261 10.9741C9.30255 11.0131 9.33169 11.048 9.36948 11.0755L9.28261 10.9741ZM10.5319 8.85401L10.5319 8.85402C10.5077 8.89334 10.4941 8.93644 10.4904 8.97977L10.3462 9.22932C10.3048 9.2156 10.2624 9.20437 10.2202 9.19578L10.1651 9.18455C10.1215 9.15694 10.0696 9.14089 10.0133 9.14089C9.95773 9.14089 9.90582 9.15666 9.86182 9.18399L9.80389 9.19579C9.75945 9.20485 9.71612 9.21678 9.67407 9.23127L9.5068 8.95731C9.50085 8.92162 9.48806 8.88651 9.46806 8.85401C9.31283 8.60176 9.22328 8.31393 9.22328 8.08835C9.22329 7.59456 9.56729 7.23633 10.0133 7.23633C10.4495 7.23633 10.7767 7.58278 10.7767 8.08835C10.7767 8.31393 10.6872 8.60176 10.5319 8.85401ZM9.10259 9.70572L9.05743 9.78511L8.99011 9.89682C8.99011 9.89682 8.99011 9.89683 8.9901 9.89683C8.97496 9.94343 8.97235 9.99109 8.98043 10.0362L8.97275 10.1043C8.96645 10.1603 8.96464 10.2127 8.96691 10.2652L8.5697 10.4038C8.29968 10.4595 8.02455 10.4516 7.82499 10.3868C7.39072 10.2456 7.13049 9.72255 7.27794 9.26875C7.4231 8.82201 7.9048 8.57656 8.35157 8.72169C8.5347 8.7812 8.74158 8.91717 8.91853 9.09761L9.20159 9.56124C9.16476 9.60641 9.1316 9.65471 9.10259 9.70572ZM11.6535 12.6017L11.7109 12.6807L10.5521 12.4132C10.5521 12.4132 10.5521 12.4132 10.5521 12.4132C10.4207 12.2323 10.3224 11.9508 10.2984 11.6592V11.2293C10.3495 11.2149 10.3996 11.1967 10.447 11.1751L10.5495 11.1282L10.5454 11.1218C10.5801 11.1131 10.6137 11.0978 10.6444 11.0755L10.587 10.9965L10.6444 11.0755C10.6663 11.0596 10.6853 11.0412 10.7012 11.0209L10.7856 10.9287C10.8188 10.8925 10.8493 10.854 10.8771 10.8134L11.1476 10.9108C11.1593 10.9177 11.172 10.9237 11.1812 10.9281L11.1819 10.9284L11.2454 10.9581C11.2947 10.9814 11.3579 11.0126 11.4271 11.053C11.5664 11.1345 11.7255 11.2511 11.842 11.4115L11.842 11.4115C12.1181 11.7916 12.0336 12.3255 11.6535 12.6017ZM11.0539 10.1043L11.0451 10.0262C11.0511 9.98408 11.0478 9.94 11.0338 9.89683C11.0208 9.85689 10.9999 9.82173 10.9734 9.79252L10.924 9.70569C10.894 9.65299 10.8596 9.60317 10.8213 9.55671L11.0935 9.08561C11.2679 8.91107 11.4695 8.77982 11.6484 8.72169C12.0951 8.57656 12.5769 8.822 12.7221 9.26872C12.8695 9.72253 12.6093 10.2456 12.175 10.3867C11.9791 10.4504 11.7104 10.4591 11.4449 10.4066L11.0596 10.2678C11.0621 10.2138 11.0602 10.1605 11.0539 10.1043ZM10.0133 10.6942C9.75307 10.6942 9.54117 10.4823 9.54117 10.2221C9.54117 9.96179 9.75306 9.74989 10.0133 9.74989C10.2736 9.74989 10.4855 9.96179 10.4855 10.2221C10.4855 10.4823 10.2736 10.6942 10.0133 10.6942Z" fill="#57AB00" stroke="#57AB00" stroke-width="0.195312"/>
</g>
<defs>
<clipPath id="clip0">
<rect width="20" height="20" fill="white"/>
</clipPath>
</defs>
</svg>
