<svg width="20" height="21" viewBox="0 0 20 21" fill="none" xmlns="http://www.w3.org/2000/svg">
<g clip-path="url(#clip0)">
<path d="M11.0296 16.7203L3.9762 9.6669C4.25922 10.4725 4.40448 11.323 4.40456 12.177L11.8043 19.5766L12.5249 18.2155L11.0302 16.7209L11.0296 16.7203ZM11.0296 16.7203C11.0296 16.7203 11.0297 16.7203 11.0297 16.7204L11.0296 16.7203ZM1.4462 0.584032L1.4462 0.583875C1.43442 0.379318 1.25914 0.223067 1.05453 0.234743L1.05451 0.234744C0.849924 0.24647 0.693524 0.421811 0.705201 0.626411L0.705201 0.626416C0.714316 0.785926 0.946267 4.45043 3.10912 9.48258C3.56446 10.542 3.74398 11.7093 3.62828 12.8582C3.51261 14.0064 3.10425 15.115 2.44729 16.0639L2.51152 16.1084L2.44728 16.0639C2.12664 16.5271 1.95707 17.0699 1.95707 17.6333C1.95707 19.1536 3.1938 20.3904 4.71414 20.3904H17.6085C18.5386 20.3904 19.2951 19.6338 19.2951 18.7037C19.2952 18.2175 19.0854 17.755 18.7195 17.4347C18.3538 17.1145 17.8677 16.9676 17.3856 17.0319L16.1656 17.1946C15.044 17.344 13.9275 16.9269 13.1788 16.0784L11.0618 13.6791C10.3134 12.831 9.90129 11.741 9.90129 10.6099V0.605241C9.90129 0.400297 9.73514 0.234147 9.53019 0.234147C9.32525 0.234147 9.1591 0.400297 9.1591 0.605241V4.61798H2.19968C2.03721 4.01218 1.91265 3.47538 1.81835 3.02346C1.66033 2.2661 1.56737 1.65766 1.51387 1.23778C1.48712 1.02785 1.47024 0.865069 1.46002 0.754396C1.45492 0.69906 1.45148 0.656753 1.4493 0.628095L1.44694 0.595429L1.44638 0.586936C1.44628 0.585324 1.44623 0.584418 1.44621 0.584131L1.4462 0.584032ZM2.6623 6.18364C2.57064 5.89957 2.48613 5.62473 2.4083 5.36016H9.1591V6.18364H4.54661H4.52011H2.6623ZM3.27289 7.91402C3.14326 7.57573 3.02294 7.24595 2.9114 6.92583H4.36643L9.30818 11.8676C9.51179 12.7151 9.91967 13.5065 10.5052 14.1702L12.6222 16.5694C12.7808 16.7492 12.9531 16.913 13.1365 17.0601L12.8881 17.5293L11.5545 16.1956L3.27289 7.91402ZM12.6061 19.6482L13.7581 17.4722C13.9084 17.5533 14.0633 17.6248 14.222 17.6865L13.1835 19.6482H12.6061ZM8.7445 19.6482L3.92341 14.8271C4.12412 14.2905 4.26429 13.7313 4.33941 13.1614L10.8262 19.6482H8.7445ZM9.1591 6.92583V7.53761L8.54732 6.92583H9.1591ZM5.41599 6.92583H7.49771L9.1591 8.58721V10.6099C9.1591 10.6297 9.15921 10.6495 9.15944 10.6692L5.41599 6.92583ZM3.05759 16.4864C3.26258 16.1904 3.44561 15.8802 3.60581 15.5591L7.6949 19.6482H5.61322L2.84531 16.8803C2.90083 16.7426 2.97166 16.6106 3.05759 16.4864ZM2.70532 17.7899L4.55759 19.6422C3.5712 19.566 2.7815 18.7763 2.70532 17.7899ZM17.6085 19.6482H14.0232L14.9513 17.8952C15.3781 17.9756 15.8206 17.9893 16.2637 17.9303L17.4837 17.7676C17.7537 17.7316 18.0258 17.8139 18.2306 17.9932C18.4355 18.1725 18.553 18.4315 18.553 18.7038C18.553 19.2245 18.1292 19.6482 17.6085 19.6482Z" fill="#57AB00" stroke="#57AB00" stroke-width="0.15625"/>
</g>
<defs>
<clipPath id="clip0">
<rect width="20" height="20.4688" fill="white"/>
</clipPath>
</defs>
</svg>
