<svg width="21" height="20" viewBox="0 0 21 20" fill="none" xmlns="http://www.w3.org/2000/svg">
<mask id="path-1-outside-1" maskUnits="userSpaceOnUse" x="2.4248" y="2.56738" width="15" height="14" fill="black">
<rect fill="white" x="2.4248" y="2.56738" width="15" height="14"/>
<path d="M15.164 5.90024C14.9932 5.60823 14.7078 5.39141 14.3698 5.31122C14.295 5.06107 14.2136 4.59723 14.4385 4.14734C14.5374 3.94947 14.4573 3.7087 14.2594 3.60976C14.0615 3.51083 13.8207 3.59102 13.7218 3.78888C13.419 4.39436 13.4675 4.99317 13.5616 5.38953C13.1986 5.55491 12.9274 5.88837 12.8485 6.28993C12.615 6.41407 12.2557 6.55716 12.0374 6.49905C11.9858 6.4853 11.926 6.45718 11.8741 6.35346C11.775 6.15538 11.5344 6.0752 11.3366 6.17413C11.1385 6.27306 11.0583 6.51384 11.1572 6.7117C11.3016 7.00038 11.5348 7.19471 11.8316 7.27344C11.9345 7.30073 12.0399 7.3126 12.1457 7.3126C12.4407 7.3126 12.7356 7.22075 12.971 7.11994C13.1347 7.42799 13.4229 7.66022 13.7683 7.74895C13.8889 8.22279 13.908 8.70267 13.7968 8.81369C13.6404 8.97011 13.6404 9.22379 13.7968 9.38042C13.8751 9.45853 13.9776 9.49768 14.0801 9.49768C14.1827 9.49768 14.2852 9.45853 14.3635 9.38042C14.7747 8.96907 14.6893 8.1878 14.577 7.68542C14.963 7.51838 15.2491 7.16284 15.3189 6.73545C15.3904 6.68505 15.4939 6.62298 15.6159 6.58569C15.885 6.50342 16.1218 6.57653 16.3612 6.81585C16.5178 6.97247 16.7715 6.97247 16.9279 6.81585C17.0843 6.65943 17.0843 6.40574 16.9279 6.24932C16.3341 5.65551 15.6655 5.67509 15.164 5.90024ZM14.5339 6.53841C14.5308 6.78606 14.3285 6.98664 14.0801 6.98664C13.8297 6.98664 13.626 6.78294 13.626 6.53258C13.626 6.28223 13.8295 6.07874 14.0796 6.07832C14.0792 6.07832 14.0798 6.07832 14.0796 6.07832L14.0809 6.07853C14.3294 6.07894 14.5312 6.27973 14.5339 6.52758V6.53841Z"/>
<path d="M9.134 6.17456C8.93613 6.07563 8.69535 6.15603 8.59642 6.35389C8.54456 6.45741 8.4852 6.48553 8.43375 6.49927C8.21505 6.55759 7.85827 6.41596 7.62208 6.29016C7.54314 5.88859 7.27195 5.55534 6.90871 5.38996C7.00306 4.9936 7.05138 4.39479 6.74875 3.78932C6.64982 3.59145 6.40904 3.51126 6.21117 3.61019C6.01331 3.70913 5.93291 3.9499 6.03205 4.14777C6.25658 4.59683 6.17535 5.06067 6.10037 5.31165C5.76254 5.39184 5.4774 5.60887 5.3064 5.90067C4.80485 5.67552 4.13627 5.65615 3.54246 6.24975C3.38604 6.40617 3.38604 6.65986 3.54246 6.81628C3.69909 6.97291 3.95277 6.97291 4.10919 6.81628C4.34872 6.57696 4.58553 6.50386 4.85443 6.58613C4.97648 6.62362 5.0802 6.68548 5.15144 6.73609C5.22121 7.16328 5.50739 7.51881 5.89354 7.68586C5.78107 8.18823 5.69568 8.9695 6.10703 9.38086C6.18514 9.45896 6.28782 9.49812 6.3903 9.49812C6.49277 9.49812 6.59545 9.45896 6.67356 9.38086C6.83019 9.22423 6.83019 8.97054 6.67356 8.81412C6.56317 8.70373 6.58233 8.22385 6.70251 7.74917C7.04763 7.66045 7.33569 7.42842 7.4994 7.12037C7.73476 7.22118 8.02968 7.31303 8.32482 7.31303C8.43021 7.31303 8.53602 7.30116 8.6387 7.27387C8.9355 7.19514 9.16878 7.00082 9.31312 6.71214C9.41205 6.51427 9.33186 6.2735 9.134 6.17456ZM6.3903 6.98707C6.13994 6.98707 5.93624 6.78358 5.93624 6.53302C5.93624 6.28287 6.13953 6.07938 6.38946 6.07896H6.39092C6.64107 6.07917 6.84456 6.28266 6.84456 6.53302C6.84456 6.78337 6.64086 6.98707 6.3903 6.98707Z"/>
<path d="M16.3612 13.0858C16.1218 13.3251 15.885 13.3984 15.6159 13.3159C15.4939 13.2786 15.3901 13.2168 15.3189 13.1662C15.2491 12.7388 14.963 12.3834 14.5768 12.2164C14.6893 11.7138 14.7747 10.9327 14.3633 10.5214C14.2069 10.365 13.9532 10.365 13.7968 10.5214C13.6404 10.6778 13.6404 10.9315 13.7968 11.0879C13.9072 11.1983 13.888 11.6784 13.7678 12.1529C13.4227 12.2416 13.1347 12.4738 12.971 12.7817C12.6514 12.6448 12.2218 12.5244 11.8316 12.6282C11.5348 12.7071 11.3016 12.9012 11.1572 13.1899C11.0583 13.388 11.1385 13.6285 11.3366 13.7275C11.394 13.7562 11.4551 13.77 11.5155 13.77C11.6623 13.77 11.8039 13.6887 11.8741 13.5483C11.926 13.4446 11.9854 13.4167 12.0368 13.403C12.2553 13.3442 12.6121 13.4861 12.8485 13.6119C12.9274 14.0134 13.1986 14.3467 13.5616 14.5121C13.4675 14.9086 13.419 15.5074 13.7218 16.1127C13.792 16.2531 13.9334 16.3343 14.0805 16.3343C14.1407 16.3343 14.2017 16.3206 14.2594 16.2918C14.4573 16.1929 14.5374 15.9523 14.4385 15.7543C14.214 15.3052 14.295 14.8416 14.3702 14.5904C14.7078 14.5102 14.9932 14.2934 15.164 14.0016C15.3614 14.0901 15.5845 14.147 15.819 14.147C16.1802 14.147 16.568 14.0124 16.9279 13.6525C17.0843 13.4959 17.0843 13.2422 16.9279 13.0858C16.7715 12.9293 16.5176 12.9293 16.3612 13.0858ZM14.5341 13.3692C14.5341 13.6196 14.3304 13.8233 14.0801 13.8233C13.8297 13.8233 13.626 13.6196 13.626 13.3692C13.626 13.1191 13.8293 12.9156 14.0794 12.9152H14.0809C14.3308 12.9156 14.5341 13.1191 14.5341 13.3692Z"/>
<path d="M8.63852 12.6282C8.24841 12.5246 7.81851 12.6448 7.49922 12.7819C7.3353 12.4736 7.04725 12.2414 6.70171 12.1529C6.58111 11.679 6.56216 11.1991 6.67338 11.0879C6.8298 10.9315 6.8298 10.6778 6.67338 10.5214C6.51675 10.365 6.26306 10.365 6.10664 10.5214C5.69529 10.9327 5.78089 11.7138 5.89315 12.2164C5.507 12.3834 5.22082 12.7388 5.15105 13.1662C5.07981 13.2168 4.97609 13.2786 4.85424 13.3159C4.58494 13.3984 4.34833 13.3253 4.1088 13.0858C3.95238 12.9293 3.6987 12.9293 3.54228 13.0858C3.38565 13.2424 3.38565 13.4961 3.54228 13.6525C3.90219 14.0124 4.2898 14.147 4.65117 14.147C4.88549 14.147 5.10856 14.0901 5.30601 14.0016C5.47701 14.2934 5.76235 14.5102 6.10019 14.5904C6.17517 14.8405 6.25661 15.3044 6.03166 15.7543C5.93252 15.9523 6.01292 16.1929 6.21078 16.2918C6.26827 16.3206 6.32951 16.3343 6.3897 16.3343C6.53654 16.3343 6.67817 16.2531 6.74836 16.1127C7.05099 15.5072 7.00267 14.9086 6.90832 14.5121C7.27156 14.3467 7.54275 14.0134 7.62169 13.6119C7.85517 13.4877 8.21446 13.3446 8.43274 13.4028C8.48439 13.4163 8.54417 13.4444 8.59603 13.5483C8.66622 13.6887 8.80764 13.77 8.95469 13.7698C9.01489 13.7698 9.07612 13.7562 9.13361 13.7275C9.33147 13.6285 9.41166 13.3878 9.31273 13.1899C9.16839 12.9014 8.93532 12.7071 8.63852 12.6282ZM6.38991 13.8233C6.14122 13.8233 5.93877 13.6223 5.93606 13.3742C5.93627 13.3705 5.93627 13.3669 5.93627 13.3634C5.93939 13.116 6.14101 12.9156 6.38907 12.9152H6.39074C6.64089 12.9156 6.84417 13.1191 6.84417 13.3692C6.84417 13.6196 6.64047 13.8233 6.38991 13.8233Z"/>
</mask>
<path d="M15.164 5.90024C14.9932 5.60823 14.7078 5.39141 14.3698 5.31122C14.295 5.06107 14.2136 4.59723 14.4385 4.14734C14.5374 3.94947 14.4573 3.7087 14.2594 3.60976C14.0615 3.51083 13.8207 3.59102 13.7218 3.78888C13.419 4.39436 13.4675 4.99317 13.5616 5.38953C13.1986 5.55491 12.9274 5.88837 12.8485 6.28993C12.615 6.41407 12.2557 6.55716 12.0374 6.49905C11.9858 6.4853 11.926 6.45718 11.8741 6.35346C11.775 6.15538 11.5344 6.0752 11.3366 6.17413C11.1385 6.27306 11.0583 6.51384 11.1572 6.7117C11.3016 7.00038 11.5348 7.19471 11.8316 7.27344C11.9345 7.30073 12.0399 7.3126 12.1457 7.3126C12.4407 7.3126 12.7356 7.22075 12.971 7.11994C13.1347 7.42799 13.4229 7.66022 13.7683 7.74895C13.8889 8.22279 13.908 8.70267 13.7968 8.81369C13.6404 8.97011 13.6404 9.22379 13.7968 9.38042C13.8751 9.45853 13.9776 9.49768 14.0801 9.49768C14.1827 9.49768 14.2852 9.45853 14.3635 9.38042C14.7747 8.96907 14.6893 8.1878 14.577 7.68542C14.963 7.51838 15.2491 7.16284 15.3189 6.73545C15.3904 6.68505 15.4939 6.62298 15.6159 6.58569C15.885 6.50342 16.1218 6.57653 16.3612 6.81585C16.5178 6.97247 16.7715 6.97247 16.9279 6.81585C17.0843 6.65943 17.0843 6.40574 16.9279 6.24932C16.3341 5.65551 15.6655 5.67509 15.164 5.90024ZM14.5339 6.53841C14.5308 6.78606 14.3285 6.98664 14.0801 6.98664C13.8297 6.98664 13.626 6.78294 13.626 6.53258C13.626 6.28223 13.8295 6.07874 14.0796 6.07832C14.0792 6.07832 14.0798 6.07832 14.0796 6.07832L14.0809 6.07853C14.3294 6.07894 14.5312 6.27973 14.5339 6.52758V6.53841Z" fill="#57AB00"/>
<path d="M9.134 6.17456C8.93613 6.07563 8.69535 6.15603 8.59642 6.35389C8.54456 6.45741 8.4852 6.48553 8.43375 6.49927C8.21505 6.55759 7.85827 6.41596 7.62208 6.29016C7.54314 5.88859 7.27195 5.55534 6.90871 5.38996C7.00306 4.9936 7.05138 4.39479 6.74875 3.78932C6.64982 3.59145 6.40904 3.51126 6.21117 3.61019C6.01331 3.70913 5.93291 3.9499 6.03205 4.14777C6.25658 4.59683 6.17535 5.06067 6.10037 5.31165C5.76254 5.39184 5.4774 5.60887 5.3064 5.90067C4.80485 5.67552 4.13627 5.65615 3.54246 6.24975C3.38604 6.40617 3.38604 6.65986 3.54246 6.81628C3.69909 6.97291 3.95277 6.97291 4.10919 6.81628C4.34872 6.57696 4.58553 6.50386 4.85443 6.58613C4.97648 6.62362 5.0802 6.68548 5.15144 6.73609C5.22121 7.16328 5.50739 7.51881 5.89354 7.68586C5.78107 8.18823 5.69568 8.9695 6.10703 9.38086C6.18514 9.45896 6.28782 9.49812 6.3903 9.49812C6.49277 9.49812 6.59545 9.45896 6.67356 9.38086C6.83019 9.22423 6.83019 8.97054 6.67356 8.81412C6.56317 8.70373 6.58233 8.22385 6.70251 7.74917C7.04763 7.66045 7.33569 7.42842 7.4994 7.12037C7.73476 7.22118 8.02968 7.31303 8.32482 7.31303C8.43021 7.31303 8.53602 7.30116 8.6387 7.27387C8.9355 7.19514 9.16878 7.00082 9.31312 6.71214C9.41205 6.51427 9.33186 6.2735 9.134 6.17456ZM6.3903 6.98707C6.13994 6.98707 5.93624 6.78358 5.93624 6.53302C5.93624 6.28287 6.13953 6.07938 6.38946 6.07896H6.39092C6.64107 6.07917 6.84456 6.28266 6.84456 6.53302C6.84456 6.78337 6.64086 6.98707 6.3903 6.98707Z" fill="#57AB00"/>
<path d="M16.3612 13.0858C16.1218 13.3251 15.885 13.3984 15.6159 13.3159C15.4939 13.2786 15.3901 13.2168 15.3189 13.1662C15.2491 12.7388 14.963 12.3834 14.5768 12.2164C14.6893 11.7138 14.7747 10.9327 14.3633 10.5214C14.2069 10.365 13.9532 10.365 13.7968 10.5214C13.6404 10.6778 13.6404 10.9315 13.7968 11.0879C13.9072 11.1983 13.888 11.6784 13.7678 12.1529C13.4227 12.2416 13.1347 12.4738 12.971 12.7817C12.6514 12.6448 12.2218 12.5244 11.8316 12.6282C11.5348 12.7071 11.3016 12.9012 11.1572 13.1899C11.0583 13.388 11.1385 13.6285 11.3366 13.7275C11.394 13.7562 11.4551 13.77 11.5155 13.77C11.6623 13.77 11.8039 13.6887 11.8741 13.5483C11.926 13.4446 11.9854 13.4167 12.0368 13.403C12.2553 13.3442 12.6121 13.4861 12.8485 13.6119C12.9274 14.0134 13.1986 14.3467 13.5616 14.5121C13.4675 14.9086 13.419 15.5074 13.7218 16.1127C13.792 16.2531 13.9334 16.3343 14.0805 16.3343C14.1407 16.3343 14.2017 16.3206 14.2594 16.2918C14.4573 16.1929 14.5374 15.9523 14.4385 15.7543C14.214 15.3052 14.295 14.8416 14.3702 14.5904C14.7078 14.5102 14.9932 14.2934 15.164 14.0016C15.3614 14.0901 15.5845 14.147 15.819 14.147C16.1802 14.147 16.568 14.0124 16.9279 13.6525C17.0843 13.4959 17.0843 13.2422 16.9279 13.0858C16.7715 12.9293 16.5176 12.9293 16.3612 13.0858ZM14.5341 13.3692C14.5341 13.6196 14.3304 13.8233 14.0801 13.8233C13.8297 13.8233 13.626 13.6196 13.626 13.3692C13.626 13.1191 13.8293 12.9156 14.0794 12.9152H14.0809C14.3308 12.9156 14.5341 13.1191 14.5341 13.3692Z" fill="#57AB00"/>
<path d="M8.63852 12.6282C8.24841 12.5246 7.81851 12.6448 7.49922 12.7819C7.3353 12.4736 7.04725 12.2414 6.70171 12.1529C6.58111 11.679 6.56216 11.1991 6.67338 11.0879C6.8298 10.9315 6.8298 10.6778 6.67338 10.5214C6.51675 10.365 6.26306 10.365 6.10664 10.5214C5.69529 10.9327 5.78089 11.7138 5.89315 12.2164C5.507 12.3834 5.22082 12.7388 5.15105 13.1662C5.07981 13.2168 4.97609 13.2786 4.85424 13.3159C4.58494 13.3984 4.34833 13.3253 4.1088 13.0858C3.95238 12.9293 3.6987 12.9293 3.54228 13.0858C3.38565 13.2424 3.38565 13.4961 3.54228 13.6525C3.90219 14.0124 4.2898 14.147 4.65117 14.147C4.88549 14.147 5.10856 14.0901 5.30601 14.0016C5.47701 14.2934 5.76235 14.5102 6.10019 14.5904C6.17517 14.8405 6.25661 15.3044 6.03166 15.7543C5.93252 15.9523 6.01292 16.1929 6.21078 16.2918C6.26827 16.3206 6.32951 16.3343 6.3897 16.3343C6.53654 16.3343 6.67817 16.2531 6.74836 16.1127C7.05099 15.5072 7.00267 14.9086 6.90832 14.5121C7.27156 14.3467 7.54275 14.0134 7.62169 13.6119C7.85517 13.4877 8.21446 13.3446 8.43274 13.4028C8.48439 13.4163 8.54417 13.4444 8.59603 13.5483C8.66622 13.6887 8.80764 13.77 8.95469 13.7698C9.01489 13.7698 9.07612 13.7562 9.13361 13.7275C9.33147 13.6285 9.41166 13.3878 9.31273 13.1899C9.16839 12.9014 8.93532 12.7071 8.63852 12.6282ZM6.38991 13.8233C6.14122 13.8233 5.93877 13.6223 5.93606 13.3742C5.93627 13.3705 5.93627 13.3669 5.93627 13.3634C5.93939 13.116 6.14101 12.9156 6.38907 12.9152H6.39074C6.64089 12.9156 6.84417 13.1191 6.84417 13.3692C6.84417 13.6196 6.64047 13.8233 6.38991 13.8233Z" fill="#57AB00"/>
<path d="M15.164 5.90024L15.0776 5.95073L15.123 6.02825L15.2049 5.99147L15.164 5.90024ZM14.3698 5.31122L14.274 5.33986L14.2905 5.39519L14.3467 5.40852L14.3698 5.31122ZM14.4385 4.14734L14.5279 4.19206L14.4385 4.14734ZM14.2594 3.60976L14.2147 3.6992L14.2594 3.60976ZM13.7218 3.78888L13.8112 3.83362L13.8113 3.83361L13.7218 3.78888ZM13.5616 5.38953L13.6031 5.48053L13.6779 5.44644L13.6589 5.36642L13.5616 5.38953ZM12.8485 6.28993L12.8954 6.37823L12.9374 6.3559L12.9466 6.30922L12.8485 6.28993ZM12.0374 6.49905L12.0632 6.40242L12.0631 6.40241L12.0374 6.49905ZM11.8741 6.35346L11.9636 6.30874L11.9636 6.3087L11.8741 6.35346ZM11.3366 6.17413L11.3812 6.26359L11.3813 6.26357L11.3366 6.17413ZM11.1572 6.7117L11.0678 6.75643L11.1572 6.7117ZM11.8316 7.27344L11.806 7.3701L11.806 7.3701L11.8316 7.27344ZM12.971 7.11994L13.0593 7.07301L13.0161 6.99181L12.9316 7.02801L12.971 7.11994ZM13.7683 7.74895L13.8652 7.72429L13.8505 7.66685L13.7931 7.6521L13.7683 7.74895ZM13.7968 8.81369L13.7261 8.74291L13.7261 8.74298L13.7968 8.81369ZM13.7968 9.38042L13.726 9.45109L13.7262 9.45123L13.7968 9.38042ZM14.3635 9.38042L14.4341 9.45123L14.4343 9.45112L14.3635 9.38042ZM14.577 7.68542L14.5373 7.59365L14.4614 7.62651L14.4794 7.70723L14.577 7.68542ZM15.3189 6.73545L15.2613 6.65374L15.227 6.67793L15.2202 6.71934L15.3189 6.73545ZM15.6159 6.58569L15.6451 6.68133L15.6452 6.68133L15.6159 6.58569ZM16.3612 6.81585L16.4319 6.74514L16.3612 6.81585ZM16.9279 6.81585L16.8572 6.74514L16.8571 6.74518L16.9279 6.81585ZM16.9279 6.24932L16.8572 6.32003L16.9279 6.24932ZM14.5339 6.53841L14.6339 6.53968V6.53841H14.5339ZM14.0809 6.07853L14.0644 6.17717L14.0725 6.17851L14.0807 6.17853L14.0809 6.07853ZM14.5339 6.52758H14.6339L14.6339 6.52649L14.5339 6.52758ZM8.59642 6.35389L8.68583 6.39869L8.68586 6.39861L8.59642 6.35389ZM8.43375 6.49927L8.45952 6.5959L8.45957 6.59588L8.43375 6.49927ZM7.62208 6.29016L7.52395 6.30945L7.53312 6.35608L7.57507 6.37842L7.62208 6.29016ZM6.90871 5.38996L6.81143 5.36681L6.79237 5.44687L6.86728 5.48098L6.90871 5.38996ZM6.74875 3.78932L6.8382 3.74461L6.83819 3.7446L6.74875 3.78932ZM6.21117 3.61019L6.2559 3.69964V3.69964L6.21117 3.61019ZM6.03205 4.14777L6.12149 4.10305L6.12146 4.10297L6.03205 4.14777ZM6.10037 5.31165L6.12346 5.40895L6.17965 5.39561L6.19618 5.34028L6.10037 5.31165ZM5.3064 5.90067L5.26544 5.9919L5.34731 6.02865L5.39267 5.95123L5.3064 5.90067ZM3.54246 6.24975L3.47176 6.17903L3.47175 6.17904L3.54246 6.24975ZM3.54246 6.81628L3.47175 6.88699L3.54246 6.81628ZM4.10919 6.81628L4.03851 6.74554L4.03844 6.74562L4.10919 6.81628ZM4.85443 6.58613L4.88379 6.49054L4.88368 6.4905L4.85443 6.58613ZM5.15144 6.73609L5.25013 6.71997L5.2434 6.67876L5.20936 6.65457L5.15144 6.73609ZM5.89354 7.68586L5.99113 7.7077L6.00921 7.62694L5.93325 7.59408L5.89354 7.68586ZM6.10703 9.38086L6.17774 9.31014L6.10703 9.38086ZM6.67356 9.38086L6.74427 9.45157L6.67356 9.38086ZM6.67356 8.81412L6.60285 8.88483L6.6029 8.88488L6.67356 8.81412ZM6.70251 7.74917L6.67761 7.65232L6.62014 7.6671L6.60557 7.72463L6.70251 7.74917ZM7.4994 7.12037L7.53877 7.02845L7.45425 6.99224L7.41109 7.07344L7.4994 7.12037ZM8.6387 7.27387L8.61306 7.17722L8.61302 7.17723L8.6387 7.27387ZM9.31312 6.71214L9.40256 6.75686L9.31312 6.71214ZM6.38946 6.07896V5.97896L6.3893 5.97896L6.38946 6.07896ZM6.39092 6.07896L6.39101 5.97896H6.39092V6.07896ZM15.6159 13.3159L15.6452 13.2203L15.6451 13.2203L15.6159 13.3159ZM15.3189 13.1662L15.2202 13.1823L15.2269 13.2235L15.261 13.2477L15.3189 13.1662ZM14.5768 12.2164L14.4792 12.1945L14.4611 12.2753L14.5371 12.3082L14.5768 12.2164ZM13.7968 11.0879L13.8675 11.0172L13.7968 11.0879ZM13.7678 12.1529L13.7927 12.2497L13.8502 12.2349L13.8648 12.1774L13.7678 12.1529ZM12.971 12.7817L12.9316 12.8736L13.0161 12.9098L13.0592 12.8286L12.971 12.7817ZM11.8316 12.6282L11.806 12.5315L11.8059 12.5315L11.8316 12.6282ZM11.1572 13.1899L11.0678 13.1452L11.0678 13.1452L11.1572 13.1899ZM11.3366 13.7275L11.3813 13.638L11.3812 13.638L11.3366 13.7275ZM11.8741 13.5483L11.7847 13.5036L11.8741 13.5483ZM12.0368 13.403L12.0626 13.4996L12.0628 13.4995L12.0368 13.403ZM12.8485 13.6119L12.9466 13.5926L12.9374 13.5459L12.8955 13.5236L12.8485 13.6119ZM13.5616 14.5121L13.6589 14.5352L13.6779 14.4552L13.6031 14.4211L13.5616 14.5121ZM13.7218 16.1127L13.8113 16.068L13.8112 16.068L13.7218 16.1127ZM14.2594 16.2918L14.304 16.3813L14.3041 16.3813L14.2594 16.2918ZM14.4385 15.7543L14.528 15.7096L14.5279 15.7095L14.4385 15.7543ZM14.3702 14.5904L14.3471 14.4931L14.2909 14.5064L14.2744 14.5617L14.3702 14.5904ZM15.164 14.0016L15.2049 13.9103L15.123 13.8736L15.0776 13.9511L15.164 14.0016ZM16.9279 13.6525L16.9986 13.7232L16.9987 13.7232L16.9279 13.6525ZM14.0794 12.9152V12.8152L14.0793 12.8152L14.0794 12.9152ZM14.0809 12.9152L14.0811 12.8152H14.0809V12.9152ZM8.63852 12.6282L8.66422 12.5315L8.66417 12.5315L8.63852 12.6282ZM7.49922 12.7819L7.41092 12.8288L7.45412 12.9101L7.53866 12.8738L7.49922 12.7819ZM6.70171 12.1529L6.60479 12.1775L6.61943 12.235L6.67689 12.2497L6.70171 12.1529ZM6.67338 11.0879L6.74409 11.1586L6.67338 11.0879ZM6.67338 10.5214L6.74409 10.4507L6.74404 10.4506L6.67338 10.5214ZM6.10664 10.5214L6.03593 10.4507L6.10664 10.5214ZM5.89315 12.2164L5.93286 12.3082L6.00878 12.2753L5.99075 12.1946L5.89315 12.2164ZM5.15105 13.1662L5.20897 13.2477L5.24301 13.2235L5.24974 13.1823L5.15105 13.1662ZM4.85424 13.3159L4.82498 13.2203L4.82496 13.2203L4.85424 13.3159ZM4.1088 13.0858L4.17951 13.015L4.1088 13.0858ZM3.54228 13.0858L3.47157 13.015H3.47157L3.54228 13.0858ZM3.54228 13.6525L3.61299 13.5818L3.61294 13.5817L3.54228 13.6525ZM5.30601 14.0016L5.39228 13.951L5.34694 13.8736L5.2651 13.9103L5.30601 14.0016ZM6.10019 14.5904L6.19598 14.5617L6.17941 14.5064L6.12328 14.4931L6.10019 14.5904ZM6.03166 15.7543L6.12109 15.799L6.1211 15.799L6.03166 15.7543ZM6.21078 16.2918L6.25551 16.2024L6.21078 16.2918ZM6.74836 16.1127L6.8378 16.1574L6.83781 16.1574L6.74836 16.1127ZM6.90832 14.5121L6.86689 14.4211L6.79199 14.4552L6.81104 14.5352L6.90832 14.5121ZM7.62169 13.6119L7.57474 13.5236L7.53274 13.5459L7.52356 13.5926L7.62169 13.6119ZM8.43274 13.4028L8.40701 13.4994L8.40738 13.4995L8.43274 13.4028ZM8.59603 13.5483L8.50655 13.593L8.50659 13.5931L8.59603 13.5483ZM8.95469 13.7698V13.6698L8.95455 13.6698L8.95469 13.7698ZM9.13361 13.7275L9.08888 13.638L9.13361 13.7275ZM9.31273 13.1899L9.40217 13.1452L9.40216 13.1451L9.31273 13.1899ZM5.93606 13.3742L5.83599 13.3687L5.83607 13.3753L5.93606 13.3742ZM5.93627 13.3634L5.83627 13.3621V13.3634H5.93627ZM6.38907 12.9152V12.8152L6.38891 12.8152L6.38907 12.9152ZM6.39074 12.9152L6.39091 12.8152H6.39074V12.9152ZM15.2503 5.84975C15.066 5.53465 14.758 5.30055 14.3929 5.21392L14.3467 5.40852C14.6576 5.48226 14.9203 5.6818 15.0776 5.95073L15.2503 5.84975ZM14.4656 5.28258C14.3938 5.04231 14.3197 4.60855 14.5279 4.19206L14.3491 4.10262C14.1074 4.58591 14.1962 5.07983 14.274 5.33986L14.4656 5.28258ZM14.5279 4.19206C14.6516 3.94482 14.5514 3.64397 14.3041 3.52032L14.2147 3.6992C14.3631 3.77343 14.4233 3.95412 14.3491 4.10262L14.5279 4.19206ZM14.3041 3.52032C14.0569 3.3967 13.756 3.49687 13.6324 3.74416L13.8113 3.83361C13.8855 3.68516 14.0662 3.62496 14.2147 3.6992L14.3041 3.52032ZM13.6324 3.74415C13.3153 4.37808 13.3671 5.00314 13.4643 5.41264L13.6589 5.36642C13.5679 4.9832 13.5226 4.41064 13.8112 3.83362L13.6324 3.74415ZM13.5202 5.29853C13.1284 5.47698 12.8357 5.83675 12.7504 6.27065L12.9466 6.30922C13.0192 5.93998 13.2688 5.63283 13.6031 5.48053L13.5202 5.29853ZM12.8015 6.20164C12.6888 6.2616 12.5468 6.32545 12.4084 6.36708C12.2662 6.40987 12.1443 6.42403 12.0632 6.40242L12.0117 6.59568C12.1488 6.63218 12.3157 6.60384 12.4661 6.55859C12.6203 6.51217 12.7747 6.44241 12.8954 6.37823L12.8015 6.20164ZM12.0631 6.40241C12.0452 6.39763 12.0311 6.39182 12.0173 6.3811C12.0033 6.37017 11.9841 6.34986 11.9636 6.30874L11.7847 6.39818C11.816 6.46079 11.8527 6.50639 11.8944 6.5389C11.9364 6.5716 11.978 6.58673 12.0117 6.59569L12.0631 6.40241ZM11.9636 6.3087C11.8397 6.06131 11.5392 5.96103 11.2918 6.08469L11.3813 6.26357C11.5297 6.18936 11.7103 6.24945 11.7847 6.39822L11.9636 6.3087ZM11.2919 6.08467C11.0444 6.2083 10.9442 6.50917 11.0678 6.75643L11.2467 6.66698C11.1724 6.51851 11.2326 6.33783 11.3812 6.26359L11.2919 6.08467ZM11.0678 6.75643C11.2242 7.06927 11.4799 7.28359 11.806 7.3701L11.8573 7.17678C11.5898 7.10583 11.3789 6.93149 11.2467 6.66698L11.0678 6.75643ZM11.806 7.3701C11.9183 7.39989 12.0325 7.4126 12.1457 7.4126V7.2126C12.0474 7.2126 11.9507 7.20156 11.8573 7.17678L11.806 7.3701ZM12.1457 7.4126C12.4598 7.4126 12.769 7.31523 13.0103 7.21186L12.9316 7.02801C12.7022 7.12626 12.4215 7.2126 12.1457 7.2126V7.4126ZM12.8826 7.16687C13.0593 7.49924 13.3703 7.74995 13.7434 7.8458L13.7931 7.6521C13.4756 7.5705 13.21 7.35673 13.0593 7.07301L12.8826 7.16687ZM13.6713 7.77361C13.7302 8.00469 13.7638 8.23582 13.7695 8.42046C13.7724 8.51301 13.7681 8.59085 13.7577 8.6498C13.7466 8.71332 13.7311 8.73793 13.7261 8.74291L13.8674 8.88446C13.9181 8.83394 13.942 8.75693 13.9547 8.68444C13.9683 8.60739 13.9725 8.51482 13.9694 8.41429C13.9632 8.21278 13.927 7.96705 13.8652 7.72429L13.6713 7.77361ZM13.7261 8.74298C13.5306 8.93847 13.5306 9.25544 13.726 9.45109L13.8675 9.30976C13.7501 9.19215 13.7502 9.00174 13.8675 8.8844L13.7261 8.74298ZM13.7262 9.45123C13.8239 9.54872 13.9521 9.59768 14.0801 9.59768V9.39769C14.0031 9.39769 13.9263 9.36834 13.8674 9.30962L13.7262 9.45123ZM14.0801 9.59768C14.2082 9.59768 14.3364 9.54873 14.4341 9.45123L14.2929 9.30962C14.234 9.36832 14.1573 9.39769 14.0801 9.39769V9.59768ZM14.4343 9.45112C14.665 9.22029 14.7498 8.89293 14.7664 8.57222C14.7831 8.24995 14.7317 7.91913 14.6746 7.66361L14.4794 7.70723C14.5346 7.9541 14.582 8.2651 14.5667 8.56189C14.5512 8.86025 14.4732 9.1292 14.2928 9.30973L14.4343 9.45112ZM14.6167 7.7772C15.0332 7.59693 15.3422 7.21332 15.4176 6.75156L15.2202 6.71934C15.1561 7.11237 14.8927 7.43984 14.5373 7.59365L14.6167 7.7772ZM15.3766 6.81716C15.4431 6.77023 15.5369 6.71441 15.6451 6.68133L15.5867 6.49006C15.4509 6.53155 15.3376 6.59986 15.2613 6.65374L15.3766 6.81716ZM15.6452 6.68133C15.7629 6.64534 15.8687 6.64439 15.9702 6.67572C16.073 6.70747 16.1785 6.77465 16.2904 6.88656L16.4319 6.74514C16.3045 6.61772 16.1719 6.52869 16.0292 6.48463C15.8852 6.44014 15.7381 6.44377 15.5867 6.49006L15.6452 6.68133ZM16.2904 6.88656C16.4861 7.08221 16.8031 7.08228 16.9987 6.88651L16.8571 6.74518C16.7398 6.86267 16.5495 6.86274 16.4319 6.74514L16.2904 6.88656ZM16.9986 6.88656C17.1941 6.69108 17.1941 6.37408 16.9986 6.17861L16.8572 6.32003C16.9745 6.4374 16.9745 6.62777 16.8572 6.74514L16.9986 6.88656ZM16.9986 6.17861C16.3702 5.55024 15.6552 5.57008 15.123 5.80901L15.2049 5.99147C15.6758 5.78009 16.2979 5.76078 16.8572 6.32003L16.9986 6.17861ZM14.4339 6.53715C14.4315 6.7302 14.2737 6.88664 14.0801 6.88664V7.08664C14.3834 7.08664 14.6301 6.84192 14.6339 6.53968L14.4339 6.53715ZM14.0801 6.88664C13.8849 6.88664 13.726 6.72771 13.726 6.53258H13.526C13.526 6.83817 13.7745 7.08664 14.0801 7.08664V6.88664ZM13.726 6.53258C13.726 6.33746 13.8848 6.17864 14.0798 6.17832L14.0795 5.97832C13.7742 5.97883 13.526 6.227 13.526 6.53258H13.726ZM14.0796 6.17832H14.0796C14.0796 6.17832 14.0796 6.17832 14.0796 6.17832C14.0796 6.17832 14.0796 6.17832 14.0796 6.17832H14.0796H14.0796C14.0796 6.17832 14.0796 6.17832 14.0796 6.17832C14.0796 6.17832 14.0796 6.17832 14.0796 6.17832C14.0796 6.17832 14.0796 6.17832 14.0796 6.17832C14.0796 6.17832 14.0796 6.17832 14.0796 6.17832C14.0796 6.17832 14.0796 6.17832 14.0796 6.17832H14.0796H14.0796H14.0797H14.0797H14.0797H14.0797H14.0797H14.0797C14.0797 6.17832 14.0797 6.17832 14.0797 6.17832C14.0797 6.17832 14.0797 6.17832 14.0797 6.17832C14.0797 6.17832 14.0797 6.17832 14.0797 6.17832C14.0797 6.17832 14.0797 6.17832 14.0797 6.17832C14.0797 6.17832 14.0797 6.17832 14.0797 6.17832H14.0797H14.0797C14.0797 6.17832 14.0797 6.17832 14.0797 6.17832C14.0797 6.17832 14.0797 6.17832 14.0797 6.17832H14.0797C14.0797 6.17832 14.0797 6.17832 14.0797 6.17832H14.0797C14.0797 6.17832 14.0797 6.17832 14.0797 6.17832H14.0797C14.0797 6.17832 14.0797 6.17832 14.0797 6.17832C14.0797 6.17832 14.0797 6.17832 14.0797 6.17832C14.0797 6.17832 14.0797 6.17832 14.0797 6.17832H14.0797H14.0797C14.0797 6.17832 14.0797 6.17832 14.0797 6.17832C14.0797 6.17832 14.0797 6.17832 14.0797 6.17832C14.0797 6.17832 14.0797 6.17832 14.0797 6.17832C14.0797 6.17832 14.0797 6.17832 14.0797 6.17832C14.0797 6.17832 14.0797 6.17832 14.0797 6.17832H14.0797C14.0797 6.17832 14.0797 6.17832 14.0797 6.17832C14.0797 6.07832 14.0797 5.97832 14.0797 5.97832C14.0797 5.97832 14.0797 5.97832 14.0797 5.97832C14.0797 5.97832 14.0797 5.97832 14.0797 5.97832C14.0797 5.97832 14.0797 5.97832 14.0797 5.97832H14.0797C14.0797 5.97832 14.0797 5.97832 14.0797 5.97832C14.0797 5.97832 14.0797 5.97832 14.0797 5.97832H14.0797C14.0797 5.97832 14.0797 5.97832 14.0797 5.97832H14.0797H14.0797C14.0797 5.97832 14.0797 5.97832 14.0797 5.97832C14.0797 5.97832 14.0797 5.97832 14.0797 5.97832C14.0797 5.97832 14.0797 5.97832 14.0797 5.97832C14.0797 5.97832 14.0797 5.97832 14.0797 5.97832H14.0797H14.0797C14.0797 5.97832 14.0797 5.97832 14.0797 5.97832C14.0797 5.97832 14.0797 5.97832 14.0797 5.97832H14.0797C14.0797 5.97832 14.0797 5.97832 14.0797 5.97832C14.0797 5.97832 14.0797 5.97832 14.0797 5.97832C14.0797 5.97832 14.0797 5.97832 14.0797 5.97832C14.0797 5.97832 14.0797 5.97832 14.0797 5.97832H14.0797C14.0797 5.97832 14.0797 5.97832 14.0797 5.97832C14.0797 5.97832 14.0797 5.97832 14.0797 5.97832C14.0797 5.97832 14.0797 5.97832 14.0797 5.97832C14.0797 5.97832 14.0797 5.97832 14.0797 5.97832H14.0797C14.0797 5.97832 14.0797 5.97832 14.0797 5.97832C14.0797 5.97832 14.0797 5.97832 14.0797 5.97832H14.0796C14.0796 5.97832 14.0796 5.97832 14.0796 5.97832C14.0796 5.97832 14.0796 5.97832 14.0796 5.97832H14.0796C14.0796 5.97832 14.0796 5.97832 14.0796 5.97832C14.0796 5.97832 14.0796 5.97832 14.0796 5.97832H14.0796H14.0796C14.0796 5.97832 14.0796 5.97832 14.0796 5.97832C14.0796 5.97832 14.0796 5.97832 14.0796 5.97832C14.0796 5.97832 14.0796 5.97832 14.0796 5.97832H14.0796C14.0796 5.97832 14.0796 5.97832 14.0796 5.97832C14.0796 5.97832 14.0796 5.97832 14.0796 5.97832C14.0796 5.97832 14.0796 5.97832 14.0796 5.97832C14.0796 5.97832 14.0796 5.97832 14.0796 5.97832H14.0796H14.0796C14.0796 5.97832 14.0796 5.97832 14.0796 5.97832C14.0796 5.97832 14.0796 5.97832 14.0796 5.97832C14.0796 5.97832 14.0796 5.97832 14.0796 5.97832C14.0796 5.97832 14.0796 5.97832 14.0796 5.97832C14.0796 5.97832 14.0796 5.97832 14.0796 5.97832H14.0796H14.0796H14.0796C14.0796 5.97832 14.0796 5.97832 14.0796 5.97832C14.0796 5.97832 14.0796 5.97832 14.0796 5.97832C14.0796 5.97832 14.0796 5.97832 14.0796 5.97832C14.0796 5.97832 14.0796 5.97832 14.0796 5.97832C14.0796 5.97832 14.0796 5.97832 14.0796 5.97832C14.0796 5.97832 14.0796 5.97832 14.0796 5.97832C14.0796 5.97832 14.0796 5.97832 14.0796 5.97832C14.0796 5.97832 14.0796 5.97832 14.0796 5.97832C14.0796 5.97832 14.0796 5.97832 14.0796 5.97832H14.0796H14.0796H14.0796H14.0796H14.0796H14.0796C14.0796 5.97832 14.0796 5.97832 14.0796 5.97832C14.0796 5.97832 14.0796 5.97832 14.0796 5.97832C14.0796 5.97832 14.0796 5.97832 14.0796 5.97832C14.0796 5.97832 14.0796 5.97832 14.0796 5.97832C14.0796 5.97832 14.0796 5.97832 14.0796 5.97832C14.0796 5.97832 14.0796 5.97832 14.0796 5.97832C14.0796 5.97832 14.0796 5.97832 14.0796 5.97832C14.0796 5.97832 14.0796 5.97832 14.0796 5.97832C14.0796 5.97832 14.0796 5.97832 14.0796 5.97832C14.0796 5.97832 14.0796 5.97832 14.0796 5.97832C14.0796 5.97832 14.0796 5.97832 14.0796 5.97832C14.0796 5.97832 14.0796 5.97832 14.0796 5.97832C14.0796 5.97832 14.0796 5.97832 14.0796 5.97832C14.0796 5.97832 14.0796 5.97832 14.0796 5.97832C14.0796 5.97832 14.0796 5.97832 14.0796 5.97832C14.0796 5.97832 14.0796 5.97832 14.0796 5.97832C14.0796 5.97832 14.0796 5.97832 14.0796 5.97832C14.0796 5.97832 14.0796 5.97832 14.0796 5.97832C14.0796 5.97832 14.0796 5.97832 14.0796 5.97832C14.0796 5.97832 14.0796 5.97832 14.0796 5.97832C14.0796 5.97832 14.0796 5.97832 14.0796 5.97832C14.0796 5.97832 14.0796 5.97832 14.0796 5.97832C14.0796 5.97832 14.0796 5.97832 14.0796 5.97832C14.0796 5.97832 14.0796 5.97832 14.0796 5.97832C14.0796 5.97832 14.0796 5.97832 14.0796 5.97832C14.0796 5.97832 14.0796 5.97832 14.0796 5.97832C14.0796 5.97832 14.0796 5.97832 14.0796 5.97832C14.0796 5.97832 14.0796 5.97832 14.0796 5.97832C14.0796 5.97832 14.0796 5.97832 14.0796 5.97832C14.0796 5.97832 14.0796 5.97832 14.0796 5.97832C14.0796 5.97832 14.0796 5.97832 14.0796 5.97832C14.0796 5.97832 14.0796 5.97832 14.0796 5.97832C14.0796 5.97832 14.0796 5.97832 14.0796 5.97832C14.0796 5.97832 14.0796 5.97832 14.0796 5.97832C14.0796 5.97832 14.0796 5.97832 14.0796 5.97832C14.0796 5.97832 14.0796 5.97832 14.0796 5.97832C14.0796 5.97832 14.0796 5.97832 14.0796 5.97832C14.0796 5.97832 14.0796 5.97832 14.0796 5.97832C14.0796 5.97832 14.0796 5.97832 14.0796 5.97832C14.0796 5.97832 14.0796 5.97832 14.0796 5.97832C14.0796 5.97832 14.0796 5.97832 14.0796 5.97832C14.0796 5.97832 14.0796 5.97832 14.0796 5.97832C14.0796 5.97832 14.0796 5.97832 14.0796 5.97832C14.0796 5.97832 14.0796 5.97832 14.0796 5.97832C14.0796 5.97832 14.0796 5.97832 14.0796 5.97832C14.0796 5.97832 14.0796 5.97832 14.0796 5.97832C14.0796 5.97832 14.0796 5.97832 14.0796 5.97832H14.0796H14.0796H14.0796H14.0796H14.0796H14.0796H14.0796H14.0796H14.0796H14.0796C14.0796 5.97832 14.0796 5.97832 14.0796 5.97832C14.0796 5.97832 14.0796 5.97832 14.0796 5.97832C14.0796 5.97832 14.0796 5.97832 14.0796 5.97832C14.0796 5.97832 14.0796 5.97832 14.0796 5.97832C14.0796 5.97832 14.0796 5.97832 14.0796 5.97832C14.0796 5.97832 14.0796 5.97832 14.0796 5.97832C14.0796 5.97832 14.0796 5.97832 14.0796 5.97832C14.0795 5.97832 14.0795 5.97832 14.0795 5.97832C14.0795 5.97832 14.0795 5.97832 14.0795 5.97832C14.0795 5.97832 14.0795 5.97832 14.0795 5.97832C14.0795 5.97832 14.0795 5.97832 14.0795 5.97832H14.0795H14.0795H14.0795C14.0795 5.97832 14.0795 5.97832 14.0795 5.97832C14.0795 5.97832 14.0795 5.97832 14.0795 5.97832C14.0795 5.97832 14.0795 5.97832 14.0795 5.97832C14.0795 5.97832 14.0795 5.97832 14.0795 5.97832C14.0795 5.97832 14.0795 5.97832 14.0795 5.97832C14.0795 5.97832 14.0795 5.97832 14.0795 5.97832H14.0795H14.0795C14.0795 5.97832 14.0795 5.97832 14.0795 5.97832C14.0795 5.97832 14.0795 5.97832 14.0795 5.97832C14.0795 5.97832 14.0795 5.97832 14.0795 5.97832C14.0795 5.97832 14.0795 5.97832 14.0795 5.97832H14.0795H14.0795C14.0795 5.97832 14.0795 5.97832 14.0795 5.97832C14.0795 5.97832 14.0795 5.97832 14.0795 5.97832C14.0795 5.97832 14.0795 5.97832 14.0795 5.97832H14.0795C14.0795 5.97832 14.0795 5.97832 14.0795 5.97832C14.0795 5.97832 14.0795 5.97832 14.0795 5.97832C14.0795 5.97832 14.0795 5.97832 14.0795 5.97832H14.0795C14.0795 5.97832 14.0795 5.97832 14.0795 5.97832C14.0795 5.97832 14.0795 5.97832 14.0795 5.97832H14.0795C14.0795 5.97832 14.0795 5.97832 14.0795 5.97832C14.0795 5.97832 14.0795 5.97832 14.0795 5.97832H14.0795C14.0795 5.97832 14.0795 5.97832 14.0795 5.97832C14.0795 5.97832 14.0795 5.97832 14.0795 5.97832H14.0795C14.0795 5.97832 14.0795 5.97832 14.0795 5.97832H14.0795C14.0795 5.97832 14.0795 5.97832 14.0795 5.97832H14.0795C14.0795 5.97832 14.0795 5.97832 14.0795 5.97832H14.0795C14.0795 5.97832 14.0795 5.97832 14.0795 5.97832C14.0795 5.97832 14.0795 5.97832 14.0795 5.97832H14.0795C14.0795 5.97832 14.0795 5.97832 14.0795 5.97832C14.0795 5.97832 14.0795 5.97832 14.0795 5.97832C14.0795 5.97832 14.0795 5.97832 14.0795 5.97832C14.0795 5.97832 14.0795 5.97832 14.0795 5.97832H14.0795H14.0795C14.0795 5.97832 14.0795 5.97832 14.0795 5.97832C14.0795 5.97832 14.0795 5.97832 14.0795 5.97832C14.0795 5.97832 14.0795 5.97832 14.0795 5.97832H14.0795C14.0795 5.97832 14.0795 5.97832 14.0795 5.97832C14.0795 5.97832 14.0795 5.97832 14.0795 5.97832C14.0795 5.97832 14.0795 5.97832 14.0795 5.97832C14.0795 5.97832 14.0795 5.97832 14.0795 5.97832C14.0795 5.97832 14.0795 5.97832 14.0795 5.97832C14.0795 5.97832 14.0795 5.97832 14.0795 5.97832H14.0795C14.0795 6.07832 14.0795 6.17832 14.0795 6.17832H14.0795C14.0795 6.17832 14.0795 6.17832 14.0795 6.17832C14.0795 6.17832 14.0795 6.17832 14.0795 6.17832C14.0795 6.17832 14.0795 6.17832 14.0795 6.17832C14.0795 6.17832 14.0795 6.17832 14.0795 6.17832H14.0795C14.0795 6.17832 14.0795 6.17832 14.0795 6.17832C14.0795 6.17832 14.0795 6.17832 14.0795 6.17832C14.0795 6.17832 14.0795 6.17832 14.0795 6.17832C14.0795 6.17832 14.0795 6.17832 14.0795 6.17832C14.0795 6.17832 14.0795 6.17832 14.0795 6.17832C14.0795 6.17832 14.0795 6.17832 14.0795 6.17832H14.0795C14.0795 6.17832 14.0795 6.17832 14.0795 6.17832H14.0795C14.0795 6.17832 14.0795 6.17832 14.0795 6.17832C14.0795 6.17832 14.0795 6.17832 14.0795 6.17832H14.0795C14.0795 6.17832 14.0795 6.17832 14.0795 6.17832C14.0795 6.17832 14.0795 6.17832 14.0795 6.17832H14.0795C14.0795 6.17832 14.0795 6.17832 14.0795 6.17832C14.0795 6.17832 14.0795 6.17832 14.0795 6.17832C14.0795 6.17832 14.0795 6.17832 14.0795 6.17832C14.0795 6.17832 14.0795 6.17832 14.0795 6.17832C14.0795 6.17832 14.0795 6.17832 14.0795 6.17832H14.0795H14.0795H14.0795H14.0795H14.0795H14.0795H14.0795C14.0795 6.17832 14.0795 6.17832 14.0795 6.17832C14.0795 6.17832 14.0795 6.17832 14.0795 6.17832C14.0795 6.17832 14.0795 6.17832 14.0795 6.17832C14.0795 6.17832 14.0795 6.17832 14.0795 6.17832C14.0795 6.17832 14.0795 6.17832 14.0795 6.17832C14.0795 6.17832 14.0795 6.17832 14.0795 6.17832H14.0795H14.0795C14.0795 6.17832 14.0795 6.17832 14.0795 6.17832C14.0795 6.17832 14.0795 6.17832 14.0795 6.17832H14.0795H14.0795C14.0795 6.17832 14.0795 6.17832 14.0795 6.17832C14.0795 6.17832 14.0795 6.17832 14.0795 6.17832H14.0795C14.0795 6.17832 14.0795 6.17832 14.0795 6.17832H14.0795C14.0795 6.17832 14.0795 6.17832 14.0795 6.17832C14.0795 6.17832 14.0795 6.17832 14.0795 6.17832H14.0795C14.0795 6.17832 14.0795 6.17832 14.0795 6.17832H14.0795C14.0795 6.17832 14.0795 6.17832 14.0795 6.17832H14.0796C14.0796 6.17832 14.0796 6.17832 14.0796 6.17832H14.0796C14.0796 6.17832 14.0796 6.17832 14.0796 6.17832C14.0796 6.17832 14.0796 6.17832 14.0796 6.17832H14.0796C14.0796 6.17832 14.0796 6.17832 14.0796 6.17832C14.0796 6.17832 14.0796 6.17832 14.0796 6.17832H14.0796C14.0796 6.17832 14.0796 6.17832 14.0796 6.17832C14.0796 6.17832 14.0796 6.17832 14.0796 6.17832C14.0796 6.17832 14.0796 6.17832 14.0796 6.17832H14.0796C14.0796 6.17832 14.0796 6.17832 14.0796 6.17832C14.0796 6.17832 14.0796 6.17832 14.0796 6.17832C14.0796 6.17832 14.0796 6.17832 14.0796 6.17832C14.0796 6.17832 14.0796 6.17832 14.0796 6.17832C14.0796 6.17832 14.0796 6.17832 14.0796 6.17832C14.0796 6.17832 14.0796 6.17832 14.0796 6.17832C14.0796 6.17832 14.0796 6.17832 14.0796 6.17832C14.0796 6.17832 14.0796 6.17832 14.0796 6.17832C14.0796 6.17832 14.0796 6.17832 14.0796 6.17832C14.0796 6.17832 14.0796 6.17832 14.0796 6.17832C14.0796 6.17832 14.0796 6.17832 14.0796 6.17832C14.0796 6.17832 14.0796 6.17832 14.0796 6.17832C14.0796 6.17832 14.0796 6.17832 14.0796 6.17832C14.0796 6.17832 14.0796 6.17832 14.0796 6.17832C14.0796 6.17832 14.0796 6.17832 14.0796 6.17832C14.0796 6.17832 14.0796 6.17832 14.0796 6.17832C14.0796 6.17832 14.0796 6.17832 14.0796 6.17832C14.0796 6.17832 14.0796 6.17832 14.0796 6.17832C14.0796 6.17832 14.0796 6.17832 14.0796 6.17832C14.0796 6.17832 14.0796 6.17832 14.0796 6.17832C14.0796 6.17832 14.0796 6.17832 14.0796 6.17832C14.0796 6.17832 14.0796 6.17832 14.0796 6.17832C14.0796 6.17832 14.0796 6.17832 14.0796 6.17832C14.0796 6.17832 14.0796 6.17832 14.0796 6.17832C14.0796 6.17832 14.0796 6.17832 14.0796 6.17832C14.0796 6.17832 14.0796 6.17832 14.0796 6.17832C14.0796 6.17832 14.0796 6.17832 14.0796 6.17832C14.0796 6.17832 14.0796 6.17832 14.0796 6.17832C14.0796 6.17832 14.0796 6.17832 14.0796 6.17832C14.0796 6.17832 14.0796 6.17832 14.0796 6.17832C14.0796 6.17832 14.0796 6.17832 14.0796 6.17832C14.0796 6.17832 14.0796 6.17832 14.0796 6.17832V5.97832C14.0796 5.97832 14.0796 5.97832 14.0796 5.97832C14.0796 5.97832 14.0796 5.97832 14.0796 5.97832C14.0796 5.97832 14.0796 5.97832 14.0796 5.97832C14.0796 5.97832 14.0796 5.97832 14.0796 5.97832C14.0796 5.97832 14.0796 5.97832 14.0796 5.97832C14.0796 5.97832 14.0796 5.97832 14.0796 5.97832C14.0796 5.97832 14.0796 5.97832 14.0796 5.97832C14.0796 5.97832 14.0796 5.97832 14.0796 5.97832C14.0796 5.97832 14.0796 5.97832 14.0796 5.97832C14.0796 5.97832 14.0796 5.97832 14.0796 5.97832C14.0796 5.97832 14.0796 5.97832 14.0796 5.97832C14.0796 5.97832 14.0796 5.97832 14.0796 5.97832C14.0796 5.97832 14.0796 5.97832 14.0796 5.97832C14.0796 5.97832 14.0796 5.97832 14.0796 5.97832C14.0796 5.97832 14.0796 5.97832 14.0796 5.97832C14.0796 5.97832 14.0796 5.97832 14.0796 5.97832C14.0796 5.97832 14.0796 5.97832 14.0796 5.97832C14.0796 5.97832 14.0796 5.97832 14.0796 5.97832C14.0796 5.97832 14.0796 5.97832 14.0796 5.97832C14.0796 5.97832 14.0796 5.97832 14.0796 5.97832C14.0796 5.97832 14.0796 5.97832 14.0796 5.97832C14.0796 5.97832 14.0796 5.97832 14.0796 5.97832C14.0796 5.97832 14.0796 5.97832 14.0796 5.97832C14.0796 5.97832 14.0796 5.97832 14.0796 5.97832C14.0796 5.97832 14.0796 5.97832 14.0796 5.97832C14.0796 5.97832 14.0796 5.97832 14.0796 5.97832C14.0796 5.97832 14.0796 5.97832 14.0796 5.97832C14.0796 5.97832 14.0796 5.97832 14.0796 5.97832C14.0796 5.97832 14.0796 5.97832 14.0796 5.97832C14.0796 5.97832 14.0796 5.97832 14.0796 5.97832C14.0796 5.97832 14.0796 5.97832 14.0796 5.97832C14.0796 5.97832 14.0796 5.97832 14.0796 5.97832H14.0796C14.0796 5.97832 14.0796 5.97832 14.0796 5.97832C14.0796 5.97832 14.0796 5.97832 14.0796 5.97832C14.0796 5.97832 14.0796 5.97832 14.0796 5.97832H14.0796C14.0796 5.97832 14.0796 5.97832 14.0796 5.97832C14.0796 5.97832 14.0796 5.97832 14.0796 5.97832H14.0796C14.0796 5.97832 14.0796 5.97832 14.0796 5.97832C14.0796 5.97832 14.0796 5.97832 14.0796 5.97832H14.0796C14.0796 5.97832 14.0796 5.97832 14.0796 5.97832H14.0795C14.0795 5.97832 14.0795 5.97832 14.0795 5.97832H14.0795C14.0795 5.97832 14.0795 5.97832 14.0795 5.97832H14.0795C14.0795 5.97832 14.0795 5.97832 14.0795 5.97832C14.0795 5.97832 14.0795 5.97832 14.0795 5.97832H14.0795C14.0795 5.97832 14.0795 5.97832 14.0795 5.97832H14.0795C14.0795 5.97832 14.0795 5.97832 14.0795 5.97832C14.0795 5.97832 14.0795 5.97832 14.0795 5.97832H14.0795H14.0795C14.0795 5.97832 14.0795 5.97832 14.0795 5.97832C14.0795 5.97832 14.0795 5.97832 14.0795 5.97832H14.0795H14.0795C14.0795 5.97832 14.0795 5.97832 14.0795 5.97832C14.0795 5.97832 14.0795 5.97832 14.0795 5.97832C14.0795 5.97832 14.0795 5.97832 14.0795 5.97832C14.0795 5.97832 14.0795 5.97832 14.0795 5.97832C14.0795 5.97832 14.0795 5.97832 14.0795 5.97832C14.0795 5.97832 14.0795 5.97832 14.0795 5.97832H14.0795H14.0795H14.0795H14.0795H14.0795H14.0795H14.0795C14.0795 5.97832 14.0795 5.97832 14.0795 5.97832C14.0795 5.97832 14.0795 5.97832 14.0795 5.97832C14.0795 5.97832 14.0795 5.97832 14.0795 5.97832C14.0795 5.97832 14.0795 5.97832 14.0795 5.97832C14.0795 5.97832 14.0795 5.97832 14.0795 5.97832H14.0795C14.0795 5.97832 14.0795 5.97832 14.0795 5.97832C14.0795 5.97832 14.0795 5.97832 14.0795 5.97832H14.0795C14.0795 5.97832 14.0795 5.97832 14.0795 5.97832C14.0795 5.97832 14.0795 5.97832 14.0795 5.97832H14.0795C14.0795 5.97832 14.0795 5.97832 14.0795 5.97832H14.0795C14.0795 5.97832 14.0795 5.97832 14.0795 5.97832C14.0795 5.97832 14.0795 5.97832 14.0795 5.97832C14.0795 5.97832 14.0795 5.97832 14.0795 5.97832C14.0795 5.97832 14.0795 5.97832 14.0795 5.97832C14.0795 5.97832 14.0795 5.97832 14.0795 5.97832C14.0795 5.97832 14.0795 5.97832 14.0795 5.97832H14.0795C14.0795 5.97832 14.0795 5.97832 14.0795 5.97832C14.0795 5.97832 14.0795 5.97832 14.0795 5.97832C14.0795 5.97832 14.0795 5.97832 14.0795 5.97832C14.0795 5.97832 14.0795 5.97832 14.0795 5.97832H14.0795C14.0795 5.97832 14.0795 6.07832 14.0795 6.17832H14.0795C14.0795 6.17832 14.0795 6.17832 14.0795 6.17832C14.0795 6.17832 14.0795 6.17832 14.0795 6.17832C14.0795 6.17832 14.0795 6.17832 14.0795 6.17832C14.0795 6.17832 14.0795 6.17832 14.0795 6.17832C14.0795 6.17832 14.0795 6.17832 14.0795 6.17832C14.0795 6.17832 14.0795 6.17832 14.0795 6.17832H14.0795C14.0795 6.17832 14.0795 6.17832 14.0795 6.17832C14.0795 6.17832 14.0795 6.17832 14.0795 6.17832C14.0795 6.17832 14.0795 6.17832 14.0795 6.17832H14.0795H14.0795C14.0795 6.17832 14.0795 6.17832 14.0795 6.17832C14.0795 6.17832 14.0795 6.17832 14.0795 6.17832C14.0795 6.17832 14.0795 6.17832 14.0795 6.17832C14.0795 6.17832 14.0795 6.17832 14.0795 6.17832H14.0795C14.0795 6.17832 14.0795 6.17832 14.0795 6.17832C14.0795 6.17832 14.0795 6.17832 14.0795 6.17832H14.0795C14.0795 6.17832 14.0795 6.17832 14.0795 6.17832H14.0795C14.0795 6.17832 14.0795 6.17832 14.0795 6.17832H14.0795C14.0795 6.17832 14.0795 6.17832 14.0795 6.17832H14.0795C14.0795 6.17832 14.0795 6.17832 14.0795 6.17832C14.0795 6.17832 14.0795 6.17832 14.0795 6.17832H14.0795C14.0795 6.17832 14.0795 6.17832 14.0795 6.17832C14.0795 6.17832 14.0795 6.17832 14.0795 6.17832H14.0795C14.0795 6.17832 14.0795 6.17832 14.0795 6.17832C14.0795 6.17832 14.0795 6.17832 14.0795 6.17832H14.0795C14.0795 6.17832 14.0795 6.17832 14.0795 6.17832C14.0795 6.17832 14.0795 6.17832 14.0795 6.17832C14.0795 6.17832 14.0795 6.17832 14.0795 6.17832H14.0795C14.0795 6.17832 14.0795 6.17832 14.0795 6.17832C14.0795 6.17832 14.0795 6.17832 14.0795 6.17832C14.0795 6.17832 14.0795 6.17832 14.0795 6.17832H14.0795H14.0795C14.0795 6.17832 14.0795 6.17832 14.0795 6.17832C14.0795 6.17832 14.0795 6.17832 14.0795 6.17832C14.0795 6.17832 14.0795 6.17832 14.0795 6.17832C14.0795 6.17832 14.0795 6.17832 14.0795 6.17832H14.0795H14.0795C14.0795 6.17832 14.0795 6.17832 14.0795 6.17832C14.0795 6.17832 14.0795 6.17832 14.0795 6.17832C14.0795 6.17832 14.0795 6.17832 14.0795 6.17832C14.0795 6.17832 14.0795 6.17832 14.0795 6.17832C14.0795 6.17832 14.0795 6.17832 14.0795 6.17832C14.0795 6.17832 14.0795 6.17832 14.0795 6.17832H14.0795H14.0795H14.0795C14.0795 6.17832 14.0795 6.17832 14.0795 6.17832C14.0795 6.17832 14.0795 6.17832 14.0795 6.17832C14.0795 6.17832 14.0795 6.17832 14.0795 6.17832C14.0795 6.17832 14.0795 6.17832 14.0796 6.17832C14.0796 6.17832 14.0796 6.17832 14.0796 6.17832C14.0796 6.17832 14.0796 6.17832 14.0796 6.17832C14.0796 6.17832 14.0796 6.17832 14.0796 6.17832C14.0796 6.17832 14.0796 6.17832 14.0796 6.17832C14.0796 6.17832 14.0796 6.17832 14.0796 6.17832C14.0796 6.17832 14.0796 6.17832 14.0796 6.17832C14.0796 6.17832 14.0796 6.17832 14.0796 6.17832H14.0796H14.0796H14.0796H14.0796H14.0796H14.0796H14.0796H14.0796H14.0796H14.0796C14.0796 6.17832 14.0796 6.17832 14.0796 6.17832C14.0796 6.17832 14.0796 6.17832 14.0796 6.17832C14.0796 6.17832 14.0796 6.17832 14.0796 6.17832C14.0796 6.17832 14.0796 6.17832 14.0796 6.17832C14.0796 6.17832 14.0796 6.17832 14.0796 6.17832C14.0796 6.17832 14.0796 6.17832 14.0796 6.17832C14.0796 6.17832 14.0796 6.17832 14.0796 6.17832C14.0796 6.17832 14.0796 6.17832 14.0796 6.17832C14.0796 6.17832 14.0796 6.17832 14.0796 6.17832C14.0796 6.17832 14.0796 6.17832 14.0796 6.17832C14.0796 6.17832 14.0796 6.17832 14.0796 6.17832C14.0796 6.17832 14.0796 6.17832 14.0796 6.17832C14.0796 6.17832 14.0796 6.17832 14.0796 6.17832C14.0796 6.17832 14.0796 6.17832 14.0796 6.17832C14.0796 6.17832 14.0796 6.17832 14.0796 6.17832C14.0796 6.17832 14.0796 6.17832 14.0796 6.17832C14.0796 6.17832 14.0796 6.17832 14.0796 6.17832C14.0796 6.17832 14.0796 6.17832 14.0796 6.17832C14.0796 6.17832 14.0796 6.17832 14.0796 6.17832C14.0796 6.17832 14.0796 6.17832 14.0796 6.17832C14.0796 6.17832 14.0796 6.17832 14.0796 6.17832C14.0796 6.17832 14.0796 6.17832 14.0796 6.17832C14.0796 6.17832 14.0796 6.17832 14.0796 6.17832C14.0796 6.17832 14.0796 6.17832 14.0796 6.17832C14.0796 6.17832 14.0796 6.17832 14.0796 6.17832C14.0796 6.17832 14.0796 6.17832 14.0796 6.17832C14.0796 6.17832 14.0796 6.17832 14.0796 6.17832C14.0796 6.17832 14.0796 6.17832 14.0796 6.17832C14.0796 6.17832 14.0796 6.17832 14.0796 6.17832C14.0796 6.17832 14.0796 6.17832 14.0796 6.17832C14.0796 6.17832 14.0796 6.17832 14.0796 6.17832C14.0796 6.17832 14.0796 6.17832 14.0796 6.17832C14.0796 6.17832 14.0796 6.17832 14.0796 6.17832C14.0796 6.17832 14.0796 6.17832 14.0796 6.17832C14.0796 6.17832 14.0796 6.17832 14.0796 6.17832C14.0796 6.17832 14.0796 6.17832 14.0796 6.17832C14.0796 6.17832 14.0796 6.17832 14.0796 6.17832C14.0796 6.17832 14.0796 6.17832 14.0796 6.17832C14.0796 6.17832 14.0796 6.17832 14.0796 6.17832C14.0796 6.17832 14.0796 6.17832 14.0796 6.17832C14.0796 6.17832 14.0796 6.17832 14.0796 6.17832C14.0796 6.17832 14.0796 6.17832 14.0796 6.17832C14.0796 6.17832 14.0796 6.17832 14.0796 6.17832C14.0796 6.17832 14.0796 6.17832 14.0796 6.17832C14.0796 6.17832 14.0796 6.17832 14.0796 6.17832C14.0796 6.17832 14.0796 6.17832 14.0796 6.17832C14.0796 6.17832 14.0796 6.17832 14.0796 6.17832H14.0796H14.0796H14.0796H14.0796H14.0796H14.0796C14.0796 6.17832 14.0796 6.17832 14.0796 6.17832C14.0796 6.17832 14.0796 6.17832 14.0796 6.17832C14.0796 6.17832 14.0796 6.17832 14.0796 6.17832C14.0796 6.17832 14.0796 6.17832 14.0796 6.17832C14.0796 6.17832 14.0796 6.17832 14.0796 6.17832C14.0796 6.17832 14.0796 6.17832 14.0796 6.17832C14.0796 6.17832 14.0796 6.17832 14.0796 6.17832C14.0796 6.17832 14.0796 6.17832 14.0796 6.17832C14.0796 6.17832 14.0796 6.17832 14.0796 6.17832H14.0796H14.0796H14.0796C14.0796 6.17832 14.0796 6.17832 14.0796 6.17832C14.0796 6.17832 14.0796 6.17832 14.0796 6.17832C14.0796 6.17832 14.0796 6.17832 14.0796 6.17832C14.0796 6.17832 14.0796 6.17832 14.0796 6.17832C14.0796 6.17832 14.0796 6.17832 14.0796 6.17832H14.0796H14.0796C14.0796 6.17832 14.0796 6.17832 14.0796 6.17832C14.0796 6.17832 14.0796 6.17832 14.0796 6.17832C14.0796 6.17832 14.0796 6.17832 14.0796 6.17832C14.0796 6.17832 14.0796 6.17832 14.0796 6.17832H14.0796C14.0796 6.17832 14.0796 6.17832 14.0796 6.17832C14.0796 6.17832 14.0796 6.17832 14.0796 6.17832C14.0796 6.17832 14.0796 6.17832 14.0796 6.17832H14.0796H14.0796C14.0796 6.17832 14.0796 6.17832 14.0796 6.17832C14.0796 6.17832 14.0796 6.17832 14.0796 6.17832H14.0796C14.0796 6.17832 14.0796 6.17832 14.0796 6.17832C14.0796 6.17832 14.0796 6.17832 14.0796 6.17832H14.0797C14.0797 6.17832 14.0797 6.17832 14.0797 6.17832C14.0797 6.17832 14.0797 6.17832 14.0797 6.17832H14.0797C14.0797 6.17832 14.0797 6.17832 14.0797 6.17832C14.0797 6.17832 14.0797 6.17832 14.0797 6.17832C14.0797 6.17832 14.0797 6.17832 14.0797 6.17832C14.0797 6.17832 14.0797 6.17832 14.0797 6.17832H14.0797C14.0797 6.17832 14.0797 6.17832 14.0797 6.17832C14.0797 6.17832 14.0797 6.17832 14.0797 6.17832C14.0797 6.17832 14.0797 6.17832 14.0797 6.17832C14.0797 6.17832 14.0797 6.17832 14.0797 6.17832H14.0797C14.0797 6.17832 14.0797 6.17832 14.0797 6.17832C14.0797 6.17832 14.0797 6.17832 14.0797 6.17832H14.0797H14.0797C14.0797 6.17832 14.0797 6.17832 14.0797 6.17832C14.0797 6.17832 14.0797 6.17832 14.0797 6.17832C14.0797 6.17832 14.0797 6.17832 14.0797 6.17832C14.0797 6.17832 14.0797 6.17832 14.0797 6.17832H14.0797H14.0797C14.0797 6.17832 14.0797 6.17832 14.0797 6.17832H14.0797C14.0797 6.17832 14.0797 6.17832 14.0797 6.17832C14.0797 6.17832 14.0797 6.17832 14.0797 6.17832H14.0797C14.0797 6.17832 14.0797 6.17832 14.0797 6.17832C14.0797 6.17832 14.0797 6.17832 14.0797 6.17832C14.0797 6.17832 14.0797 6.17832 14.0797 6.17832C14.0797 6.17832 14.0797 6.07832 14.0797 5.97832C14.0797 5.97832 14.0797 5.97832 14.0797 5.97832H14.0797C14.0797 5.97832 14.0797 5.97832 14.0797 5.97832C14.0797 5.97832 14.0797 5.97832 14.0797 5.97832C14.0797 5.97832 14.0797 5.97832 14.0797 5.97832C14.0797 5.97832 14.0797 5.97832 14.0797 5.97832C14.0797 5.97832 14.0797 5.97832 14.0797 5.97832H14.0797H14.0797C14.0797 5.97832 14.0797 5.97832 14.0797 5.97832C14.0797 5.97832 14.0797 5.97832 14.0797 5.97832C14.0797 5.97832 14.0797 5.97832 14.0797 5.97832H14.0797C14.0797 5.97832 14.0797 5.97832 14.0797 5.97832H14.0797C14.0797 5.97832 14.0797 5.97832 14.0797 5.97832H14.0797C14.0797 5.97832 14.0797 5.97832 14.0797 5.97832C14.0797 5.97832 14.0797 5.97832 14.0797 5.97832H14.0797H14.0797C14.0797 5.97832 14.0797 5.97832 14.0797 5.97832C14.0797 5.97832 14.0797 5.97832 14.0797 5.97832C14.0797 5.97832 14.0797 5.97832 14.0797 5.97832C14.0797 5.97832 14.0797 5.97832 14.0797 5.97832C14.0797 5.97832 14.0797 5.97832 14.0797 5.97832H14.0797H14.0797H14.0797H14.0797H14.0797H14.0796H14.0796H14.0796C14.0796 5.97832 14.0796 5.97832 14.0796 5.97832C14.0796 5.97832 14.0796 5.97832 14.0796 5.97832C14.0796 5.97832 14.0796 5.97832 14.0796 5.97832C14.0796 5.97832 14.0796 5.97832 14.0796 5.97832C14.0796 5.97832 14.0796 5.97832 14.0796 5.97832H14.0796H14.0796C14.0796 5.97832 14.0796 5.97832 14.0796 5.97832C14.0796 5.97832 14.0796 5.97832 14.0796 5.97832H14.0796V6.17832ZM14.0632 6.17696L14.0644 6.17717L14.0973 5.97989L14.0961 5.97968L14.0632 6.17696ZM14.0807 6.17853C14.2743 6.17885 14.4318 6.33541 14.4339 6.52868L14.6339 6.52649C14.6306 6.22405 14.3844 5.97904 14.0811 5.97853L14.0807 6.17853ZM14.4339 6.52758V6.53841H14.6339V6.52758H14.4339ZM9.17872 6.08512C8.9314 5.96146 8.63058 6.06196 8.50698 6.30917L8.68586 6.39861C8.76012 6.25009 8.94086 6.1898 9.08927 6.26401L9.17872 6.08512ZM8.50701 6.3091C8.48641 6.35023 8.46731 6.37055 8.45336 6.38145C8.43968 6.39214 8.42574 6.39791 8.40794 6.40266L8.45957 6.59588C8.4932 6.5869 8.53467 6.57173 8.5765 6.53904C8.61805 6.50657 8.65457 6.46108 8.68583 6.39869L8.50701 6.3091ZM8.40798 6.40265C8.32646 6.42439 8.20499 6.41054 8.06323 6.36798C7.92523 6.32656 7.78322 6.26269 7.66909 6.2019L7.57507 6.37842C7.69712 6.44343 7.8516 6.51328 8.00572 6.55954C8.15607 6.60467 8.32234 6.63248 8.45952 6.5959L8.40798 6.40265ZM7.7202 6.27087C7.6349 5.83695 7.34209 5.47739 6.95015 5.29895L6.86728 5.48098C7.20182 5.63329 7.45138 5.94024 7.52395 6.30945L7.7202 6.27087ZM7.00599 5.41312C7.10349 5.00356 7.15504 4.37851 6.8382 3.74461L6.6593 3.83403C6.94773 4.41108 6.90264 4.98365 6.81143 5.36681L7.00599 5.41312ZM6.83819 3.7446C6.71455 3.4973 6.41369 3.39713 6.16645 3.52075L6.2559 3.69964C6.40439 3.62539 6.58509 3.6856 6.65931 3.83404L6.83819 3.7446ZM6.16645 3.52075C5.91924 3.64436 5.81871 3.94521 5.94265 4.19257L6.12146 4.10297C6.04711 3.9546 6.10737 3.7739 6.2559 3.69964L6.16645 3.52075ZM5.94261 4.19249C6.15043 4.60813 6.0766 5.04188 6.00455 5.28302L6.19618 5.34028C6.2741 5.07946 6.36273 4.58552 6.12149 4.10305L5.94261 4.19249ZM6.07727 5.21435C5.71223 5.301 5.40458 5.53535 5.22012 5.85011L5.39267 5.95123C5.55022 5.68239 5.81284 5.48268 6.12346 5.40895L6.07727 5.21435ZM5.34735 5.80944C4.81511 5.57051 4.10011 5.55089 3.47176 6.17903L3.61316 6.32048C4.17242 5.7614 4.7946 5.78053 5.26544 5.9919L5.34735 5.80944ZM3.47175 6.17904C3.27627 6.37451 3.27627 6.69152 3.47175 6.88699L3.61317 6.74557C3.4958 6.6282 3.4958 6.43783 3.61317 6.32046L3.47175 6.17904ZM3.47175 6.88699C3.6674 7.08264 3.98444 7.08271 4.17995 6.88694L4.03844 6.74562C3.9211 6.8631 3.73077 6.86317 3.61317 6.74557L3.47175 6.88699ZM4.17987 6.88702C4.29189 6.7751 4.39747 6.70791 4.5003 6.67616C4.60177 6.64482 4.7076 6.64578 4.82517 6.68175L4.88368 6.4905C4.73236 6.4442 4.58534 6.44058 4.44129 6.48506C4.29861 6.52912 4.16602 6.61814 4.03851 6.74554L4.17987 6.88702ZM4.82506 6.68172C4.93357 6.71505 5.02759 6.77077 5.09352 6.81761L5.20936 6.65457C5.13281 6.60019 5.01939 6.53219 4.88379 6.49054L4.82506 6.68172ZM5.05274 6.75221C5.12813 7.21377 5.43712 7.59737 5.85384 7.77764L5.93325 7.59408C5.57766 7.44025 5.31429 7.11278 5.25013 6.71997L5.05274 6.75221ZM5.79596 7.66401C5.73875 7.91954 5.68732 8.25037 5.70399 8.57265C5.72058 8.89338 5.8055 9.22074 6.03632 9.45157L6.17774 9.31014C5.99721 9.12961 5.91915 8.86067 5.90372 8.56232C5.88837 8.26554 5.93586 7.95455 5.99113 7.7077L5.79596 7.66401ZM6.03632 9.45157C6.13395 9.5492 6.26241 9.59812 6.3903 9.59812V9.39812C6.31323 9.39812 6.23632 9.36872 6.17774 9.31014L6.03632 9.45157ZM6.3903 9.59812C6.51818 9.59812 6.64664 9.5492 6.74427 9.45157L6.60285 9.31014C6.54427 9.36872 6.46736 9.39812 6.3903 9.39812V9.59812ZM6.74427 9.45157C6.93993 9.25591 6.93999 8.93887 6.74422 8.74336L6.6029 8.88488C6.72038 9.00221 6.72045 9.19254 6.60285 9.31014L6.74427 9.45157ZM6.74427 8.74341C6.73953 8.73867 6.72421 8.71429 6.71313 8.65072C6.70285 8.5918 6.69864 8.51396 6.70152 8.42137C6.70728 8.23664 6.74083 8.00525 6.79945 7.77372L6.60557 7.72463C6.54401 7.96777 6.5079 8.21366 6.50162 8.41514C6.49849 8.51565 6.50268 8.60815 6.5161 8.68509C6.52871 8.75738 6.55239 8.83437 6.60285 8.88483L6.74427 8.74341ZM6.72741 7.84602C7.10027 7.75017 7.41107 7.49967 7.5877 7.1673L7.41109 7.07344C7.26031 7.35717 6.995 7.57073 6.67761 7.65232L6.72741 7.84602ZM7.46003 7.21229C7.70137 7.31567 8.01055 7.41303 8.32482 7.41303V7.21303C8.04881 7.21303 7.76814 7.12669 7.53877 7.02845L7.46003 7.21229ZM8.32482 7.41303C8.43765 7.41303 8.55221 7.40033 8.66438 7.37052L8.61302 7.17723C8.51983 7.20199 8.42277 7.21303 8.32482 7.21303V7.41303ZM8.66434 7.37053C8.99045 7.28403 9.24614 7.06971 9.40256 6.75686L9.22368 6.66742C9.09142 6.93193 8.88055 7.10626 8.61306 7.17722L8.66434 7.37053ZM9.40256 6.75686C9.52618 6.50962 9.42601 6.20877 9.17872 6.08512L9.08927 6.26401C9.23772 6.33823 9.29792 6.51892 9.22368 6.66742L9.40256 6.75686ZM6.3903 6.88707C6.19514 6.88707 6.03624 6.72832 6.03624 6.53302H5.83624C5.83624 6.83884 6.08474 7.08707 6.3903 7.08707V6.88707ZM6.03624 6.53302C6.03624 6.33804 6.19485 6.17929 6.38963 6.17896L6.3893 5.97896C6.0842 5.97947 5.83624 6.2277 5.83624 6.53302H6.03624ZM6.38946 6.17896H6.39092V5.97896H6.38946V6.17896ZM6.39084 6.17896C6.58581 6.17912 6.74456 6.33788 6.74456 6.53302H6.94456C6.94456 6.22745 6.69633 5.97922 6.39101 5.97896L6.39084 6.17896ZM6.74456 6.53302C6.74456 6.72811 6.58566 6.88707 6.3903 6.88707V7.08707C6.69606 7.08707 6.94456 6.83863 6.94456 6.53302H6.74456ZM16.2904 13.015C16.1785 13.127 16.073 13.1942 15.9702 13.226C15.8687 13.2573 15.7629 13.2564 15.6452 13.2203L15.5866 13.4115C15.7381 13.4579 15.8852 13.4616 16.0292 13.417C16.1719 13.373 16.3045 13.2839 16.4319 13.1565L16.2904 13.015ZM15.6451 13.2203C15.5367 13.1872 15.4428 13.1315 15.3768 13.0846L15.261 13.2477C15.3375 13.3021 15.451 13.3701 15.5867 13.4115L15.6451 13.2203ZM15.4176 13.15C15.3422 12.6883 15.0332 12.3049 14.6165 12.1246L14.5371 12.3082C14.8927 12.462 15.1561 12.7893 15.2202 13.1823L15.4176 13.15ZM14.6744 12.2382C14.7316 11.9826 14.783 11.6518 14.7664 11.3295C14.7498 11.0088 14.6648 10.6815 14.434 10.4507L14.2926 10.5921C14.4731 10.7726 14.5512 11.0415 14.5666 11.3398C14.582 11.6366 14.5345 11.9476 14.4792 12.1945L14.6744 12.2382ZM14.434 10.4507C14.2386 10.2552 13.9216 10.2552 13.7261 10.4507L13.8675 10.5921C13.9849 10.4747 14.1752 10.4747 14.2926 10.5921L14.434 10.4507ZM13.7261 10.4507C13.5306 10.6461 13.5306 10.9632 13.7261 11.1586L13.8675 11.0172C13.7501 10.8998 13.7501 10.7095 13.8675 10.5921L13.7261 10.4507ZM13.7261 11.1586C13.7308 11.1634 13.7461 11.1877 13.7572 11.2513C13.7675 11.3103 13.7717 11.3881 13.7688 11.4807C13.7631 11.6655 13.7295 11.8969 13.6709 12.1283L13.8648 12.1774C13.9263 11.9344 13.9625 11.6885 13.9687 11.487C13.9719 11.3864 13.9677 11.2939 13.9542 11.217C13.9416 11.1447 13.918 11.0677 13.8675 11.0172L13.7261 11.1586ZM13.7429 12.056C13.3701 12.1519 13.0593 12.4026 12.8827 12.7347L13.0592 12.8286C13.21 12.5451 13.4754 12.3313 13.7927 12.2497L13.7429 12.056ZM13.0103 12.6897C12.6852 12.5505 12.2293 12.4189 11.806 12.5315L11.8573 12.7248C12.2142 12.6299 12.6177 12.7392 12.9316 12.8736L13.0103 12.6897ZM11.8059 12.5315C11.4799 12.6182 11.2242 12.8323 11.0678 13.1452L11.2467 13.2346C11.3789 12.9701 11.5898 12.796 11.8574 12.7248L11.8059 12.5315ZM11.0678 13.1452C10.9442 13.3927 11.0444 13.6933 11.2919 13.8169L11.3812 13.638C11.2326 13.5638 11.1724 13.3833 11.2467 13.2346L11.0678 13.1452ZM11.2918 13.8169C11.3634 13.8527 11.4398 13.87 11.5155 13.87V13.67C11.4704 13.67 11.4247 13.6597 11.3813 13.638L11.2918 13.8169ZM11.5155 13.87C11.6987 13.87 11.8758 13.7686 11.9636 13.5931L11.7847 13.5036C11.7321 13.6088 11.6259 13.67 11.5155 13.67V13.87ZM11.9636 13.5931C11.9842 13.5519 12.0033 13.5316 12.0172 13.5207C12.0308 13.5101 12.0447 13.5044 12.0626 13.4996L12.011 13.3064C11.9775 13.3153 11.936 13.3304 11.8941 13.3631C11.8525 13.3956 11.816 13.4411 11.7847 13.5036L11.9636 13.5931ZM12.0628 13.4995C12.1441 13.4777 12.2654 13.4914 12.4072 13.534C12.5452 13.5754 12.6872 13.6393 12.8015 13.7002L12.8955 13.5236C12.7733 13.4586 12.6188 13.3887 12.4647 13.3424C12.3143 13.2973 12.148 13.2695 12.0108 13.3064L12.0628 13.4995ZM12.7504 13.6312C12.8357 14.0651 13.1285 14.4246 13.5202 14.6031L13.6031 14.4211C13.2687 14.2688 13.0192 13.9618 12.9466 13.5926L12.7504 13.6312ZM13.4643 14.489C13.3671 14.8987 13.3153 15.5237 13.6324 16.1575L13.8112 16.068C13.5226 15.4912 13.5679 14.9186 13.6589 14.5352L13.4643 14.489ZM13.6324 16.1574C13.7201 16.333 13.897 16.4343 14.0805 16.4343V16.2343C13.9699 16.2343 13.8639 16.1732 13.8113 16.068L13.6324 16.1574ZM14.0805 16.4343C14.156 16.4343 14.2323 16.417 14.304 16.3813L14.2148 16.2023C14.1711 16.2241 14.1253 16.2343 14.0805 16.2343V16.4343ZM14.3041 16.3813C14.5514 16.2576 14.6515 15.957 14.528 15.7096L14.349 15.7989C14.4233 15.9477 14.3631 16.1282 14.2147 16.2024L14.3041 16.3813ZM14.5279 15.7095C14.3201 15.2939 14.3938 14.8603 14.466 14.6191L14.2744 14.5617C14.1962 14.8228 14.1078 15.3165 14.3491 15.799L14.5279 15.7095ZM14.3933 14.6877C14.7581 14.601 15.066 14.3669 15.2503 14.0521L15.0776 13.9511C14.9204 14.2198 14.6576 14.4193 14.3471 14.4931L14.3933 14.6877ZM15.123 14.0928C15.3313 14.1862 15.5683 14.247 15.819 14.247V14.047C15.6006 14.047 15.3915 13.994 15.2049 13.9103L15.123 14.0928ZM15.819 14.247C16.2074 14.247 16.6205 14.1013 16.9986 13.7232L16.8572 13.5818C16.5155 13.9235 16.1529 14.047 15.819 14.047V14.247ZM16.9987 13.7232C17.194 13.5275 17.1941 13.2105 16.9986 13.015L16.8572 13.1565C16.9745 13.2738 16.9746 13.4642 16.8571 13.5818L16.9987 13.7232ZM16.9986 13.015C16.8031 12.8196 16.4859 12.8196 16.2904 13.015L16.4319 13.1565C16.5492 13.0391 16.7398 13.0391 16.8572 13.1565L16.9986 13.015ZM14.4341 13.3692C14.4341 13.5644 14.2752 13.7233 14.0801 13.7233V13.9233C14.3856 13.9233 14.6341 13.6748 14.6341 13.3692H14.4341ZM14.0801 13.7233C13.8849 13.7233 13.726 13.5644 13.726 13.3692H13.526C13.526 13.6748 13.7745 13.9233 14.0801 13.9233V13.7233ZM13.726 13.3692C13.726 13.1743 13.8846 13.0155 14.0796 13.0152L14.0793 12.8152C13.774 12.8157 13.526 13.0639 13.526 13.3692H13.726ZM14.0794 13.0152H14.0809V12.8152H14.0794V13.0152ZM14.0807 13.0152C14.2755 13.0155 14.4341 13.1743 14.4341 13.3692H14.6341C14.6341 13.0639 14.3861 12.8157 14.0811 12.8152L14.0807 13.0152ZM8.66417 12.5315C8.24082 12.4192 7.78485 12.5504 7.45977 12.69L7.53866 12.8738C7.85218 12.7392 8.25599 12.6301 8.61287 12.7248L8.66417 12.5315ZM7.58751 12.7349C7.41068 12.4024 7.0999 12.1516 6.72652 12.056L6.67689 12.2497C6.9946 12.3311 7.25991 12.5448 7.41092 12.8288L7.58751 12.7349ZM6.79862 12.1282C6.73981 11.8971 6.70622 11.666 6.70056 11.4813C6.69773 11.3888 6.70202 11.3109 6.71241 11.2519C6.7236 11.1884 6.73903 11.1637 6.74409 11.1586L6.60267 11.0172C6.55212 11.0678 6.52821 11.1447 6.51544 11.2173C6.50187 11.2943 6.49758 11.3869 6.50066 11.4875C6.50683 11.689 6.54301 11.9347 6.60479 12.1775L6.79862 12.1282ZM6.74409 11.1586C6.93956 10.9632 6.93956 10.6461 6.74409 10.4507L6.60267 10.5921C6.72004 10.7095 6.72004 10.8998 6.60267 11.0172L6.74409 11.1586ZM6.74404 10.4506C6.5484 10.2552 6.23143 10.2552 6.03593 10.4507L6.17735 10.5921C6.2947 10.4748 6.4851 10.4747 6.60272 10.5921L6.74404 10.4506ZM6.03593 10.4507C5.80511 10.6815 5.72024 11.0088 5.70367 11.3295C5.68703 11.6518 5.73847 11.9826 5.79556 12.2382L5.99075 12.1946C5.93558 11.9476 5.88808 11.6366 5.90341 11.3398C5.91882 11.0415 5.99683 10.7726 6.17735 10.5921L6.03593 10.4507ZM5.85345 12.1246C5.43675 12.3049 5.12774 12.6883 5.05235 13.15L5.24974 13.1823C5.3139 12.7893 5.57725 12.462 5.93286 12.3082L5.85345 12.1246ZM5.09313 13.0846C5.02719 13.1315 4.9332 13.1872 4.82498 13.2203L4.8835 13.4115C5.01898 13.3701 5.13244 13.302 5.20897 13.2477L5.09313 13.0846ZM4.82496 13.2203C4.70715 13.2564 4.60128 13.2574 4.49986 13.226C4.39707 13.1943 4.29155 13.1271 4.17951 13.015L4.03809 13.1565C4.16558 13.284 4.29813 13.3731 4.44085 13.4171C4.58494 13.4616 4.73202 13.4579 4.88353 13.4115L4.82496 13.2203ZM4.17951 13.015C3.98404 12.8196 3.66704 12.8196 3.47157 13.015L3.61299 13.1565C3.73035 13.0391 3.92072 13.0391 4.03809 13.1565L4.17951 13.015ZM3.47157 13.015C3.27591 13.2107 3.27584 13.5277 3.47161 13.7232L3.61294 13.5817C3.49545 13.4644 3.49538 13.2741 3.61299 13.1565L3.47157 13.015ZM3.47157 13.7232C3.8497 14.1013 4.26253 14.247 4.65117 14.247V14.047C4.31707 14.047 3.95468 13.9235 3.61299 13.5818L3.47157 13.7232ZM4.65117 14.247C4.90165 14.247 5.13862 14.1862 5.34692 14.0928L5.2651 13.9103C5.07849 13.994 4.86932 14.047 4.65117 14.047V14.247ZM5.21973 14.0521C5.40422 14.3669 5.71211 14.601 6.07709 14.6877L6.12328 14.4931C5.8126 14.4193 5.5498 14.2198 5.39228 13.951L5.21973 14.0521ZM6.0044 14.6191C6.0764 14.8593 6.15046 15.2931 5.94222 15.7095L6.1211 15.799C6.36275 15.3157 6.27394 14.8218 6.19598 14.5617L6.0044 14.6191ZM5.94224 15.7095C5.81834 15.957 5.91885 16.2577 6.16606 16.3813L6.25551 16.2024C6.10699 16.1281 6.0467 15.9476 6.12109 15.799L5.94224 15.7095ZM6.16606 16.3813C6.23765 16.4171 6.31423 16.4343 6.3897 16.4343V16.2343C6.34478 16.2343 6.29889 16.2241 6.25551 16.2024L6.16606 16.3813ZM6.3897 16.4343C6.57295 16.4343 6.75003 16.333 6.8378 16.1574L6.65892 16.068C6.60631 16.1732 6.50012 16.2343 6.3897 16.2343V16.4343ZM6.83781 16.1574C7.15465 15.5235 7.1031 14.8987 7.00561 14.4889L6.81104 14.5352C6.90225 14.9186 6.94734 15.491 6.65891 16.068L6.83781 16.1574ZM6.94976 14.6031C7.3417 14.4246 7.63451 14.0651 7.71981 13.6312L7.52356 13.5926C7.45099 13.9618 7.20143 14.2687 6.86689 14.4211L6.94976 14.6031ZM7.66863 13.7002C7.78141 13.6402 7.92342 13.5764 8.06173 13.5347C8.20394 13.4919 8.32583 13.4778 8.40701 13.4994L8.45846 13.3061C8.32137 13.2696 8.15447 13.298 8.0041 13.3432C7.84983 13.3896 7.69545 13.4594 7.57474 13.5236L7.66863 13.7002ZM8.40738 13.4995C8.42519 13.5042 8.43917 13.5099 8.45287 13.5206C8.46684 13.5314 8.48597 13.5518 8.50655 13.593L8.68551 13.5037C8.65422 13.441 8.61754 13.3953 8.57575 13.3628C8.53367 13.33 8.49194 13.3149 8.45809 13.306L8.40738 13.4995ZM8.50659 13.5931C8.59434 13.7686 8.77123 13.87 8.95483 13.8698L8.95455 13.6698C8.84406 13.6699 8.7381 13.6089 8.68547 13.5036L8.50659 13.5931ZM8.95469 13.8698C9.02993 13.8698 9.10654 13.8528 9.17833 13.8169L9.08888 13.638C9.0457 13.6596 8.99984 13.6698 8.95469 13.6698V13.8698ZM9.17833 13.8169C9.42562 13.6933 9.52579 13.3924 9.40217 13.1452L9.22329 13.2346C9.29753 13.3831 9.23733 13.5638 9.08888 13.638L9.17833 13.8169ZM9.40216 13.1451C9.24575 12.8325 8.9903 12.6182 8.66422 12.5315L8.61282 12.7248C8.88034 12.796 9.09103 12.9703 9.2233 13.2346L9.40216 13.1451ZM6.38991 13.7233C6.19615 13.7233 6.03817 13.5665 6.03605 13.3731L5.83607 13.3753C5.83937 13.6781 6.08629 13.9233 6.38991 13.9233V13.7233ZM6.03591 13.3798C6.03629 13.3728 6.03627 13.3666 6.03627 13.3634H5.83627C5.83627 13.3673 5.83625 13.3681 5.83621 13.3687L6.03591 13.3798ZM6.03626 13.3647C6.0387 13.1717 6.19604 13.0155 6.38924 13.0152L6.38891 12.8152C6.08599 12.8157 5.84009 13.0602 5.83628 13.3621L6.03626 13.3647ZM6.38907 13.0152H6.39074V12.8152H6.38907V13.0152ZM6.39057 13.0152C6.58559 13.0155 6.74417 13.1743 6.74417 13.3692H6.94417C6.94417 13.0639 6.69618 12.8157 6.39091 12.8152L6.39057 13.0152ZM6.74417 13.3692C6.74417 13.5643 6.58527 13.7233 6.38991 13.7233V13.9233C6.69567 13.9233 6.94417 13.6748 6.94417 13.3692H6.74417Z" fill="#57AB00" mask="url(#path-1-outside-1)"/>
<path d="M1.79815 17.3477L1.38627 18.7701C1.32909 18.8963 1.44845 19.0306 1.58047 18.9886L2.99746 18.5377M2.99746 18.5377C3.06705 18.5585 3.13712 18.5787 3.20763 18.5984M2.99746 18.5377C2.99746 18.5377 3.06819 18.5606 3.20763 18.5984M3.20763 18.5984C4.99167 19.098 7.06382 19.2824 9.07474 19.299M3.20763 18.5984C3.83466 18.7686 5.85118 19.2415 9.07474 19.299M9.07474 19.299C12.119 19.324 15.023 18.9644 16.5746 18.7307M9.07474 19.299C11.1092 19.3352 13.6245 19.206 16.5746 18.7307M16.5746 18.7307C17.309 18.6201 17.7405 18.5377 17.7405 18.5377M16.5746 18.7307C16.9465 18.6708 17.3253 18.6054 17.7109 18.5341C17.7363 18.5294 17.7631 18.5308 17.7878 18.5384L19.1712 18.9649C19.3036 19.0058 19.4217 18.8704 19.3634 18.7448L18.7263 17.3716M17.7672 18.5447L19.185 18.9529C19.3176 18.991 19.433 18.8548 19.3737 18.7303L18.72 17.3596M18.72 17.3596C18.7407 17.29 18.7609 17.22 18.7807 17.1495M18.72 17.3596C18.72 17.3596 18.7428 17.2889 18.7807 17.1495M18.7807 17.1495C19.2802 15.3654 19.4646 13.2933 19.4812 11.2824M18.7807 17.1495C18.9508 16.5224 19.4238 14.5059 19.4812 11.2824M19.4812 11.2824C19.5063 8.23807 19.1466 5.33409 18.9129 3.78245M19.4812 11.2824C19.5174 9.24789 19.3882 6.73264 18.9129 3.78245M18.9129 3.78245C18.8023 3.04806 18.72 2.61661 18.72 2.61661M18.9129 3.78245C18.853 3.41057 18.7876 3.03178 18.7164 2.64618C18.7117 2.62075 18.7131 2.594 18.7207 2.56929L19.1472 1.18592C19.188 1.05353 19.0663 0.893398 18.9406 0.951711L17.5009 1.40497M18.7007 2.57798L19.126 1.16908C19.1832 1.04289 19.0639 0.908621 18.9318 0.950627L17.5149 1.40149M17.5149 1.40149C17.4453 1.38075 17.3752 1.36051 17.3047 1.34077M17.5149 1.40149C17.5149 1.40149 17.4441 1.37862 17.3047 1.34077M17.3047 1.34077C15.5206 0.84126 13.4485 0.656823 11.4376 0.640259M17.3047 1.34077C16.6777 1.1706 14.6611 0.697698 11.4376 0.640259M11.4376 0.640259C8.39329 0.615183 5.48931 0.974844 3.93767 1.20852M11.4376 0.640259C9.40311 0.604008 6.88786 0.733244 3.93767 1.20852M3.93767 1.20852C3.20328 1.31911 2.77183 1.40149 2.77183 1.40149M3.93767 1.20852C3.56579 1.26842 3.187 1.33383 2.8014 1.4051C2.77597 1.4098 2.74922 1.40839 2.72451 1.40078L1.34114 0.974272C1.20875 0.933454 1.0906 1.06879 1.14891 1.19446L1.78605 2.56758M2.74517 1.39454L1.3273 0.986362C1.19476 0.948207 1.0793 1.08445 1.13867 1.20894L1.79235 2.57958M1.79235 2.57958C1.77162 2.64917 1.75138 2.71924 1.73164 2.78975M1.79235 2.57958C1.79235 2.57958 1.76948 2.65031 1.73164 2.78975M1.73164 2.78975C1.23213 4.57379 1.04769 6.64594 1.03113 8.65686M1.73164 2.78975C1.56147 3.41678 1.08857 5.4333 1.03113 8.65686M1.03113 8.65686C1.00605 11.7012 1.36571 14.6051 1.59938 16.1568M1.03113 8.65686C0.994877 10.6913 1.12411 13.2066 1.59938 16.1568M1.59938 16.1568C1.70998 16.8912 1.79235 17.3226 1.79235 17.3226M1.59938 16.1568C1.65929 16.5286 1.7247 16.9074 1.79597 17.293C1.80067 17.3185 1.79926 17.3452 1.79164 17.3699L1.36514 18.7533C1.32432 18.8857 1.45966 19.0038 1.58533 18.9455L2.99786 18.5474" stroke="#57AB00" stroke-width="1.2"/>
</svg>
