<svg width="20" height="20" viewBox="0 0 20 20" fill="none" xmlns="http://www.w3.org/2000/svg">
<path d="M15.1159 6.78539H15.016V4.78023C15.016 4.45664 14.7537 4.1943 14.4301 4.1943H12.2708C12.2403 4.1943 12.2106 4.19734 12.1813 4.20184C11.7433 3.80461 11.2501 3.4875 10.7198 3.25746V0.585938C10.7198 0.262344 10.4574 0 10.1338 0H7.04322C6.71963 0 6.45728 0.262344 6.45728 0.585938V3.26164C4.56627 4.08672 3.241 5.97418 3.241 8.16566L3.24072 19.4141C3.24072 19.7377 3.50307 20 3.82666 20H16.1726C16.4962 20 16.7585 19.7377 16.7585 19.4141L16.7587 8.42824C16.7587 7.52238 16.0217 6.78539 15.1159 6.78539ZM12.8567 5.36617H13.8442V6.78539H12.8567V5.36617ZM7.62912 1.17188H9.54787V2.90344C9.23451 2.84711 8.91385 2.81801 8.58861 2.81801C8.26115 2.81801 7.94049 2.84773 7.62912 2.90437V1.17188ZM9.94217 18.8281H4.4126L4.41264 17.1299H9.94217V18.8281ZM9.94221 15.958H4.41268L4.41279 10.3861H9.94225L9.94221 15.958ZM9.94225 8.42816V9.21418H4.41283V8.1657C4.41287 5.86316 6.28611 3.98992 8.58865 3.98992C9.70854 3.98992 10.7607 4.42668 11.5512 5.21965C11.597 5.26559 11.6415 5.3125 11.6849 5.36016V6.78539H11.5851C10.6793 6.78539 9.94232 7.5223 9.94225 8.42816ZM15.5866 18.8281H11.114L11.1141 11.4637H15.5867L15.5866 18.8281ZM15.5868 10.2918H11.1141V8.42824C11.1141 8.16855 11.3254 7.95727 11.5851 7.95727H15.1159C15.3756 7.95727 15.5868 8.16852 15.5868 8.42824L15.5868 10.2918Z" fill="#57AB00"/>
</svg>
