<svg width="20" height="20" viewBox="0 0 20 20" fill="none" xmlns="http://www.w3.org/2000/svg">
<path d="M4.41458 11.8772C5.10945 12.8014 5.90789 13.6187 6.93937 14.197C8.10745 14.8524 9.36504 15.05 10.6914 14.9897C11.311 14.9606 11.4974 14.802 11.526 14.1959C11.5452 13.7807 11.5941 13.3665 11.8023 12.9934C12.007 12.6274 12.3175 12.5582 12.6758 12.7859C12.8541 12.9009 13.0043 13.0449 13.1465 13.1989C13.4956 13.5729 13.8336 13.9603 14.1952 14.3221C14.6499 14.7765 15.1892 15.0443 15.8657 14.9897L18.4872 14.9908C18.909 14.9628 19.1285 14.4551 18.8863 13.9914C18.7157 13.6678 18.4919 13.3799 18.2552 13.1005C17.7195 12.4688 17.0883 11.9304 16.4914 11.359C15.9535 10.8434 15.9193 10.5441 16.3514 9.94918C16.8244 9.29928 17.3316 8.67524 17.8081 8.02885C18.2528 7.42496 18.709 6.82195 18.9419 6.09975C19.091 5.63872 18.959 5.4356 18.4794 5.35409C18.3963 5.34073 18.3099 5.34073 18.2258 5.34073L15.3733 5.33722C15.022 5.33174 14.8287 5.48249 14.7046 5.78816C14.5363 6.20142 14.3635 6.61445 14.163 7.01193C13.7106 7.91622 13.2043 8.79028 12.4947 9.52936C12.3378 9.69216 12.1637 9.89879 11.9023 9.81399C11.576 9.69676 11.4793 9.16781 11.4849 8.98923L11.4825 5.75705C11.4191 5.29625 11.3142 5.08962 10.847 5H7.88424C7.48982 5 7.29071 5.15097 7.0791 5.39309C6.95856 5.53399 6.92084 5.62426 7.17129 5.67115C7.66236 5.76253 7.94116 6.0752 8.01392 6.55879C8.13111 7.33249 8.12308 8.10926 8.055 8.88515C8.03558 9.11172 7.99584 9.33741 7.90455 9.54952C7.76147 9.88323 7.52933 9.95028 7.22575 9.74497C6.95187 9.5596 6.75856 9.29841 6.56839 9.03613C5.85767 8.0501 5.29137 6.98761 4.82843 5.87099C4.69539 5.54823 4.46458 5.353 4.11659 5.3473C3.26123 5.33393 2.40498 5.33196 1.54851 5.3484C1.03444 5.35738 0.88087 5.60301 1.09136 6.06184C2.02284 8.09699 3.06012 10.0752 4.41458 11.8772Z" fill="#FFB000"/>
</svg>
