<svg width="20" height="20" viewBox="0 0 20 20" fill="none" xmlns="http://www.w3.org/2000/svg">
<path d="M10.9614 17.6435H8.17821C7.85461 17.6435 7.59227 17.3812 7.59227 17.0576V11.2116H6.41113C6.08754 11.2116 5.8252 10.9492 5.8252 10.6256V8.01801C5.8252 7.69441 6.08754 7.43207 6.41113 7.43207H7.59227V6.86332C7.59227 6.83512 7.59426 6.80742 7.59809 6.78031V6.1209C7.59809 4.04519 9.2868 2.35645 11.3625 2.35645H13.1836C13.7272 2.35645 14.1694 2.79871 14.1694 3.3423V5.61445C14.1694 5.93805 13.907 6.20039 13.5834 6.20039L12.9837 6.20031C12.4007 6.19984 11.8974 6.19941 11.7276 6.31027C11.6613 6.35359 11.55 6.53535 11.55 7.26613V7.43207H13.5888C13.7594 7.43207 13.9215 7.50637 14.0328 7.63559C14.1441 7.7648 14.1936 7.93613 14.1683 8.1048L13.7777 10.7124C13.7347 10.9993 13.4883 11.2116 13.1982 11.2116H11.5473V17.0576C11.5473 17.3812 11.285 17.6435 10.9614 17.6435ZM8.76414 16.4716H10.3755V10.6256C10.3755 10.302 10.6378 10.0397 10.9614 10.0397H12.6935L12.9086 8.60394H10.9641C10.6406 8.60394 10.3782 8.3416 10.3782 8.01801V7.26613C10.3782 6.50047 10.4641 5.7359 11.0868 5.32914C11.5491 5.02719 12.1512 5.0275 12.9847 5.02844H12.9975V3.52828H11.3626C9.93305 3.52828 8.77 4.69129 8.77 6.12086V6.86332C8.77 6.89152 8.76801 6.91922 8.76418 6.94633V8.01797C8.76418 8.34156 8.50184 8.60391 8.17824 8.60391H6.99711V10.0396H8.17824C8.50184 10.0396 8.76418 10.302 8.76418 10.6256L8.76414 16.4716Z" fill="#FFB000"/>
<path d="M8.76414 16.4716H10.3755V10.6256C10.3755 10.302 10.6378 10.0397 10.9614 10.0397H12.6935L12.9086 8.60394H10.9641C10.6406 8.60394 10.3782 8.3416 10.3782 8.01801V7.26613C10.3782 6.50047 10.4641 5.7359 11.0868 5.32914C11.5491 5.02719 12.1512 5.0275 12.9847 5.02844H12.9975V3.52828H11.3626C9.93305 3.52828 8.77 4.69129 8.77 6.12086V6.86332C8.77 6.89152 8.76801 6.91922 8.76418 6.94633V8.01797C8.76418 8.34156 8.50184 8.60391 8.17824 8.60391H6.99711V10.0396H8.17824C8.50184 10.0396 8.76418 10.302 8.76418 10.6256L8.76414 16.4716Z" fill="#FFB000"/>
</svg>
