<svg width="20" height="20" viewBox="0 0 20 20" fill="none" xmlns="http://www.w3.org/2000/svg">
<path d="M12.7265 17.4723H7.27369C4.65682 17.4723 2.52783 15.3434 2.52783 12.7265V7.27365C2.52783 4.65678 4.65682 2.52783 7.27369 2.52783H12.7265C15.3434 2.52783 17.4724 4.65678 17.4724 7.27365V12.7265C17.4724 15.3433 15.3434 17.4723 12.7265 17.4723ZM7.27369 3.69967C5.30299 3.69967 3.69971 5.30291 3.69971 7.27361V12.7265C3.69971 14.6972 5.30299 16.3004 7.27369 16.3004H12.7265C14.6972 16.3004 16.3005 14.6972 16.3005 12.7265V7.27365C16.3005 5.30295 14.6972 3.69971 12.7265 3.69971L7.27369 3.69967Z" fill="#FFB000"/>
<path d="M7.27369 3.69967C5.30299 3.69967 3.69971 5.30291 3.69971 7.27361V12.7265C3.69971 14.6972 5.30299 16.3004 7.27369 16.3004H12.7265C14.6972 16.3004 16.3005 14.6972 16.3005 12.7265V7.27365C16.3005 5.30295 14.6972 3.69971 12.7265 3.69971L7.27369 3.69967Z" fill="#FFB000"/>
<path d="M10 13C8.34581 13 7 11.6542 7 9.99998C7 8.34576 8.34578 7 10 7C11.6542 7 13 8.34579 13 9.99998C13 11.6542 11.6542 13 10 13ZM10 7.92931C8.85823 7.92931 7.9293 8.85821 7.9293 9.99998C7.9293 11.1418 8.8582 12.0707 10 12.0707C11.1418 12.0707 12.0707 11.1418 12.0707 9.99998C12.0707 8.85821 11.1418 7.92931 10 7.92931Z" fill="#3F4444"/>
<path d="M14 7C13.4477 7 13 6.55636 13 6.00915V5.99085C13 5.44364 13.4477 5 14 5C14.5523 5 15 5.44364 15 5.99085V6.00915C15 6.55636 14.5523 7 14 7Z" fill="#3F4444"/>
</svg>
