<svg width="20" height="20" viewBox="0 0 20 20" fill="none" xmlns="http://www.w3.org/2000/svg">
<path d="M5.13811 11.0506C4.75499 11.8037 5.18998 12.1637 6.18248 12.7787C7.02623 13.3 8.19185 13.4906 8.94059 13.5668C8.63372 13.8618 10.04 12.5094 5.98998 16.405C5.13123 17.2281 6.51373 18.5487 7.37185 17.7431L9.69496 15.5025C10.5843 16.3581 11.4368 17.1781 12.0181 17.7462C12.8768 18.5549 14.2587 17.2456 13.4093 16.4081C13.3456 16.3475 10.2612 13.3887 10.4493 13.57C11.2075 13.4937 12.3556 13.2919 13.1893 12.7819L13.1887 12.7812C14.1812 12.1631 14.6162 11.8037 14.2387 11.0506C14.0106 10.6231 13.3956 10.2656 12.5768 10.8837C12.5768 10.8837 11.4712 11.7306 9.68809 11.7306C7.90435 11.7306 6.79935 10.8837 6.79935 10.8837C5.98123 10.2625 5.36373 10.6231 5.13811 11.0506Z" fill="#FFB000"/>
<path d="M9.68682 10.5887C11.8606 10.5887 13.6355 8.88997 13.6355 6.79873C13.6355 4.69874 11.8606 3 9.68682 3C7.51245 3 5.73746 4.69874 5.73746 6.79873C5.73746 8.88997 7.51245 10.5887 9.68682 10.5887ZM9.68682 4.92437C10.7549 4.92437 11.6262 5.76249 11.6262 6.79873C11.6262 7.82623 10.7549 8.66435 9.68682 8.66435C8.6187 8.66435 7.74745 7.82623 7.74745 6.79873C7.74683 5.76186 8.61807 4.92437 9.68682 4.92437Z" fill="#FFB000"/>
</svg>
