<svg width="20" height="20" viewBox="0 0 20 20" fill="none" xmlns="http://www.w3.org/2000/svg">
<path d="M18.1916 5.11937C18.1043 5.14488 18.0169 5.16863 17.9296 5.19076C17.3958 5.32554 17.3467 5.14768 17.7332 4.75528C17.9063 4.57944 18.0592 4.38818 18.192 4.18162C18.4897 3.71841 18.2315 3.51641 17.725 3.73278C17.5444 3.80997 17.3607 3.87995 17.1745 3.94234C16.6527 4.1176 15.9121 3.85324 15.4471 3.55831C14.8601 3.18604 14.1929 3 13.4454 3C12.3983 3 11.5059 3.36927 10.7675 4.10724C10.0293 4.84559 9.66005 5.73832 9.66005 6.78511C9.66005 6.92828 9.66823 7.07362 9.68439 7.22098C9.71091 7.46085 9.30694 7.63473 8.76179 7.55774C7.58254 7.39125 6.46214 7.03394 5.40035 6.48618C4.34733 5.94302 3.41795 5.2595 2.61238 4.43559C2.2273 4.04181 1.70649 4.07573 1.56271 4.60729C1.47657 4.92594 1.43372 5.25732 1.43372 5.60151C1.43372 6.25013 1.58604 6.85171 1.89074 7.40624C2.04227 7.6822 2.21974 7.93204 2.42354 8.15558C2.76633 8.53186 2.71387 8.75018 2.23672 8.6164C1.75976 8.48262 1.41023 8.28401 1.41023 8.29698C1.41023 8.30994 1.41023 8.3205 1.41023 8.3205C1.41023 9.23434 1.69717 10.0373 2.27142 10.7286C2.62515 11.1545 3.0361 11.4835 3.5041 11.7152C3.9976 11.9597 4.2275 12.096 3.95153 12.1317C3.78504 12.1533 3.61754 12.164 3.44907 12.164C3.33503 12.164 3.21539 12.1589 3.09057 12.1483C2.89317 12.1315 2.85768 12.5429 3.15698 13.0051C3.39485 13.3724 3.69932 13.6956 4.07023 13.9748C4.44748 14.2589 4.85406 14.4629 5.28932 14.5871C5.81892 14.7381 5.9252 15.0131 5.45301 15.2962C4.28455 15.9973 2.99146 16.3478 1.57395 16.3478C1.41424 16.3478 1.26189 16.3442 1.11635 16.3373C0.863715 16.3251 1.0332 16.5476 1.52091 16.803C3.0449 17.6012 4.6953 18 6.47234 18C7.81589 18 9.07767 17.7873 10.2575 17.3615C11.4369 16.9358 12.4449 16.3653 13.2807 15.6505C14.1166 14.9357 14.8374 14.1136 15.443 13.1838C16.0484 12.254 16.4994 11.2833 16.7965 10.2718C17.0932 9.26004 17.2418 8.24631 17.2418 7.2306C17.2418 7.13908 17.241 7.05691 17.2396 6.98454C17.2368 6.84855 17.5965 6.48045 17.9981 6.10381C18.1793 5.93374 18.3522 5.75526 18.5173 5.56805C18.8815 5.15466 18.7202 4.96523 18.1916 5.11937Z" fill="white"/>
</svg>
