<svg width="20" height="20" viewBox="0 0 20 20" fill="none" xmlns="http://www.w3.org/2000/svg">
<path d="M5.20795 15.4426C3.87384 15.4426 2.68713 14.5884 2.25621 13.3167L2.22707 13.2209C2.12544 12.8841 2.08287 12.6009 2.08287 12.3175V6.63562L0.0611819 13.3841C-0.198834 14.3767 0.393679 15.4058 1.38781 15.68L14.274 19.131C14.4349 19.1727 14.5957 19.1927 14.7541 19.1927C15.584 19.1927 16.3424 18.6418 16.555 17.83L17.3057 15.4426H5.20795Z" fill="#4F4F4F"/>
<path d="M7.49976 6.6924C8.41897 6.6924 9.16637 5.94486 9.16637 5.02564C9.16637 4.10643 8.41897 3.35889 7.49976 3.35889C6.58055 3.35889 5.83301 4.10643 5.83301 5.02564C5.83301 5.94486 6.58055 6.6924 7.49976 6.6924Z" fill="#4F4F4F"/>
<path d="M17.9166 0.858826H5.41634C4.26809 0.858826 3.33301 1.79391 3.33301 2.94231V12.1091C3.33301 13.2575 4.26809 14.1926 5.41634 14.1926H17.9166C19.0651 14.1926 20.0001 13.2575 20.0001 12.1091V2.94231C20.0001 1.79391 19.0651 0.858826 17.9166 0.858826V0.858826ZM5.41634 2.52558H17.9166C18.1468 2.52558 18.3334 2.7122 18.3334 2.94231V8.85829L15.7009 5.78647C15.4216 5.45901 15.0174 5.28398 14.5833 5.27406C14.1516 5.27651 13.7466 5.46816 13.47 5.7999L10.3748 9.51489L9.36648 8.50901C8.79655 7.93908 7.86895 7.93908 7.29978 8.50901L4.99977 10.8083V2.94231C4.99977 2.7122 5.18639 2.52558 5.41634 2.52558V2.52558Z" fill="#4F4F4F"/>
</svg>
