<svg width="20" height="20" viewBox="0 0 20 20" fill="none" xmlns="http://www.w3.org/2000/svg">
<g clip-path="url(#clip0)">
<path d="M3.33301 5.625C3.33301 3.4425 5.10884 1.66667 7.29134 1.66667H14.9022C14.628 0.7075 13.7538 0 12.708 0H3.12467C1.86051 0 0.833008 1.0275 0.833008 2.29167V15.2083C0.833008 16.4725 1.86051 17.5 3.12467 17.5H3.33301V5.625Z" fill="#4F4F4F"/>
<path d="M16.875 3.33325H7.29167C6.0275 3.33325 5 4.36075 5 5.62492V17.7083C5 18.9724 6.0275 19.9999 7.29167 19.9999H16.875C18.1392 19.9999 19.1667 18.9724 19.1667 17.7083V5.62492C19.1667 4.36075 18.1392 3.33325 16.875 3.33325ZM15.2083 17.4999H8.95833C8.61333 17.4999 8.33333 17.2199 8.33333 16.8749C8.33333 16.5299 8.61333 16.2499 8.95833 16.2499H15.2083C15.5533 16.2499 15.8333 16.5299 15.8333 16.8749C15.8333 17.2199 15.5533 17.4999 15.2083 17.4999ZM15.2083 14.1666H8.95833C8.61333 14.1666 8.33333 13.8866 8.33333 13.5416C8.33333 13.1966 8.61333 12.9166 8.95833 12.9166H15.2083C15.5533 12.9166 15.8333 13.1966 15.8333 13.5416C15.8333 13.8866 15.5533 14.1666 15.2083 14.1666ZM15.2083 11.2499H8.95833C8.61333 11.2499 8.33333 10.9699 8.33333 10.6249C8.33333 10.2799 8.61333 9.99992 8.95833 9.99992H15.2083C15.5533 9.99992 15.8333 10.2799 15.8333 10.6249C15.8333 10.9699 15.5533 11.2499 15.2083 11.2499ZM15.2083 7.91659H8.95833C8.61333 7.91659 8.33333 7.63659 8.33333 7.29159C8.33333 6.94659 8.61333 6.66659 8.95833 6.66659H15.2083C15.5533 6.66659 15.8333 6.94659 15.8333 7.29159C15.8333 7.63659 15.5533 7.91659 15.2083 7.91659Z" fill="#4F4F4F"/>
</g>
<defs>
<clipPath id="clip0">
<rect width="20" height="20" fill="white"/>
</clipPath>
</defs>
</svg>
