<svg width="20" height="20" viewBox="0 0 20 20" fill="none" xmlns="http://www.w3.org/2000/svg">
<path d="M13.3333 2.91667V2.5C13.3333 1.125 12.2083 0 10.8333 0H2.5C1.125 0 0 1.125 0 2.5V17.5C0 18.875 1.125 20 2.5 20H10.8333C12.2083 20 13.3333 18.875 13.3333 17.5V14.2667C13.0333 14.4667 12.6667 14.5833 12.2917 14.5833C12.075 14.5833 11.8667 14.55 11.6667 14.475V17.5C11.6667 17.9583 11.2917 18.3333 10.8333 18.3333H2.5C2.04167 18.3333 1.66667 17.9583 1.66667 17.5V2.5C1.66667 2.04167 2.04167 1.66667 2.5 1.66667H2.91667C3.375 1.66667 3.75 2.04167 3.75 2.5C3.75 2.95833 4.125 3.33333 4.58333 3.33333H8.75C9.20833 3.33333 9.58333 2.95833 9.58333 2.5C9.58333 2.04167 9.95833 1.66667 10.4167 1.66667H10.8333C11.2917 1.66667 11.6667 2.04167 11.6667 2.5V2.91667H13.3333Z" fill="#4F4F4F"/>
<path d="M17.7087 4.16675H10.6253C9.82116 4.16675 9.16699 4.82091 9.16699 5.62508V9.37508C9.16699 10.1792 9.82116 10.8334 10.6253 10.8334H11.667V12.7084C11.667 12.9659 11.8253 13.1976 12.0653 13.2909C12.1387 13.3192 12.2162 13.3334 12.292 13.3334C12.4637 13.3334 12.632 13.2626 12.7528 13.1309L14.8587 10.8334H17.7087C18.5128 10.8334 19.167 10.1792 19.167 9.37508V5.62508C19.167 4.82091 18.5128 4.16675 17.7087 4.16675ZM12.0837 8.12508C11.7387 8.12508 11.4587 7.84508 11.4587 7.50008C11.4587 7.15508 11.7387 6.87508 12.0837 6.87508C12.4287 6.87508 12.7087 7.15508 12.7087 7.50008C12.7087 7.84508 12.4287 8.12508 12.0837 8.12508ZM14.167 8.12508C13.822 8.12508 13.542 7.84508 13.542 7.50008C13.542 7.15508 13.822 6.87508 14.167 6.87508C14.512 6.87508 14.792 7.15508 14.792 7.50008C14.792 7.84508 14.512 8.12508 14.167 8.12508ZM16.2503 8.12508C15.9053 8.12508 15.6253 7.84508 15.6253 7.50008C15.6253 7.15508 15.9053 6.87508 16.2503 6.87508C16.5953 6.87508 16.8753 7.15508 16.8753 7.50008C16.8753 7.84508 16.5953 8.12508 16.2503 8.12508Z" fill="#4F4F4F"/>
<g clip-path="url(#clip0)">
<path d="M8.80854 14.7999C8.69538 14.657 8.72775 14.5934 8.80854 14.4656C8.81 14.4642 9.74421 13.1732 9.84046 12.7355L9.84104 12.7352C9.88888 12.5756 9.84104 12.4584 9.60975 12.4584H8.84442C8.64958 12.4584 8.55975 12.559 8.51163 12.6716C8.51163 12.6716 8.12196 13.6043 7.57071 14.209C7.39279 14.3837 7.31054 14.4397 7.21342 14.4397C7.16558 14.4397 7.09121 14.3837 7.09121 14.2241V12.7352C7.09121 12.5438 7.03667 12.4584 6.87538 12.4584H5.67196C5.54975 12.4584 5.47713 12.5476 5.47713 12.6307C5.47713 12.8122 5.75275 12.8539 5.78133 13.3643V14.4717C5.78133 14.7144 5.73729 14.759 5.63958 14.759C5.37942 14.759 4.74796 13.8225 4.37375 12.7506C4.29821 12.5427 4.22442 12.4587 4.02813 12.4587H3.2625C3.04404 12.4587 3 12.5593 3 12.6719C3 12.8708 3.26017 13.8598 4.20983 15.1665C4.84275 16.0584 5.73408 16.5417 6.54492 16.5417C7.03229 16.5417 7.09179 16.4344 7.09179 16.2497C7.09179 15.3975 7.04775 15.317 7.29188 15.317C7.40504 15.317 7.59988 15.373 8.05488 15.8032C8.57492 16.3133 8.66038 16.5417 8.95146 16.5417H9.71679C9.93496 16.5417 10.0455 16.4344 9.98192 16.2226C9.83638 15.7772 8.85288 14.8611 8.80854 14.7999V14.7999Z" fill="#4F4F4F"/>
</g>
<defs>
<clipPath id="clip0">
<rect width="7" height="7" fill="white" transform="translate(3 11)"/>
</clipPath>
</defs>
</svg>
