<svg width="20" height="20" viewBox="0 0 20 20" fill="none" xmlns="http://www.w3.org/2000/svg">
<g clip-path="url(#clip0)">
<path d="M15 2.5H1.66667C0.7475 2.5 0 3.2475 0 4.16667V11.6667C0 12.5858 0.7475 13.3333 1.66667 13.3333H15C15.9192 13.3333 16.6667 12.5858 16.6667 11.6667V4.16667C16.6667 3.2475 15.9192 2.5 15 2.5ZM15 6.25L9.25 9.15C8.96667 9.3 8.65 9.375 8.33333 9.375C8.01667 9.375 7.69167 9.3 7.40833 9.14167L1.66667 6.25V4.85L7.98333 8.03333C8.2 8.15 8.46667 8.15 8.675 8.04167L15 4.85V6.25Z" fill="#4F4F4F"/>
<path d="M18.333 7.5V9.85V11.25V11.6667C18.333 13.505 16.838 15 14.9997 15H3.33301V16.6667C3.33301 17.5858 4.08051 18.3333 4.99967 18.3333H18.333C19.2522 18.3333 19.9997 17.5858 19.9997 16.6667V9.16667C19.9997 8.2475 19.2522 7.5 18.333 7.5Z" fill="#4F4F4F"/>
</g>
<defs>
<clipPath id="clip0">
<rect width="20" height="20" fill="white"/>
</clipPath>
</defs>
</svg>
